<svg width="329" height="135" viewBox="0 0 329 135" fill="none" xmlns="http://www.w3.org/2000/svg">
<rect width="328" height="134" transform="translate(0.0980225 0.733032)" fill="white"/>
<line x1="0.0980225" y1="8.23303" x2="328.098" y2="8.23303" stroke="#EAF1F5"/>
<g clip-path="url(#clip0_1897_3659)">
<path d="M46.6923 24.7504H0.105896V56.384H46.6923V24.7504Z" fill="white"/>
<path d="M45.7952 25.6175H1.00153V55.4805H45.7952V25.6175Z" fill="#034EA2"/>
<path d="M22.4444 32.1249L23.3889 31.4347L24.3334 32.1249L23.9749 31.0082L24.9352 30.3196H23.7506L23.3889 29.1903L23.0272 30.3196H21.8442L22.8029 31.0082L22.4444 32.1249Z" fill="#FFF200"/>
<path d="M17.5527 33.4375L18.4972 32.7488L19.4418 33.4375L19.0832 32.3224L20.042 31.6337H18.8589L18.4972 30.5028L18.134 31.6337H16.9525L17.9113 32.3224L17.5527 33.4375Z" fill="#FFF200"/>
<path d="M14.9181 34.0898L14.5564 35.2207H13.3734L14.3321 35.9093L13.9736 37.026L14.9181 36.3358L15.8627 37.026L15.5041 35.9093L16.4628 35.2207H15.2798L14.9181 34.0898Z" fill="#FFF200"/>
<path d="M13.6056 41.2211L14.5501 41.9113L14.1916 40.7946L15.1503 40.106H13.9673L13.6056 38.9751L13.2439 40.1076L12.0593 40.106L13.0196 40.7946L12.6595 41.9113L13.6056 41.2211Z" fill="#FFF200"/>
<path d="M15.2798 45.0055L14.9181 43.8746L14.5564 45.0071L13.3734 45.0055L14.3321 45.6957L13.9736 46.8108L14.9181 46.119L15.8627 46.8108L15.5041 45.6957L16.4628 45.0055H15.2798Z" fill="#FFF200"/>
<path d="M18.8668 48.5909L18.5035 47.4616L18.1434 48.5925L16.9588 48.5909L17.9191 49.2811L17.559 50.3962L18.5051 49.7076L19.4496 50.3962L19.0911 49.2811L20.0498 48.5909H18.8668Z" fill="#FFF200"/>
<path d="M23.7522 49.8908L23.3889 48.7599L23.0288 49.8924L21.8442 49.8908L22.8045 50.581L22.4444 51.6961L23.3905 51.0059L24.335 51.6961L23.9749 50.581L24.9352 49.8908H23.7522Z" fill="#FFF200"/>
<path d="M28.6374 48.5909L28.2757 47.4616L27.9125 48.5925L26.731 48.5909L27.6898 49.2811L27.3296 50.3962L28.2757 49.7076L29.2203 50.3962L28.8601 49.2811L29.8205 48.5909H28.6374Z" fill="#FFF200"/>
<path d="M32.2243 45.0055L31.8611 43.8746L31.4978 45.0071L30.3163 45.0055L31.2767 45.6957L30.9165 46.8108L31.8611 46.119L32.8072 46.8108L32.4455 45.6957L33.4058 45.0055H32.2243Z" fill="#FFF200"/>
<path d="M34.7057 40.0918H33.5227L33.1594 38.9609L32.7977 40.0934L31.6147 40.0918L32.575 40.782L32.2149 41.8971L33.1594 41.2053L34.1039 41.8971L33.7454 40.782L34.7057 40.0918Z" fill="#FFF200"/>
<path d="M30.9165 37.0102L31.8611 36.32L32.8072 37.0102L32.4455 35.8951L33.4058 35.2065H32.2243L31.8611 34.0756L31.4978 35.2081L30.3163 35.2065L31.2767 35.8951L30.9165 37.0102Z" fill="#FFF200"/>
<path d="M28.2884 30.5044L27.9267 31.6353L26.7437 31.6337L27.7024 32.3239L27.3439 33.439L28.29 32.7488L29.2345 33.439L28.8744 32.3239L29.8347 31.6337H28.6501L28.2884 30.5044Z" fill="#FFF200"/>
<path d="M51.3407 32.286V25.616H55.9133V26.7437H52.6943V28.3232H55.4789V29.4525H52.6943V32.286H51.3407Z" fill="#034EA2"/>
<path d="M57.0141 26.799V25.616H58.2935V26.799H57.0141ZM57.0141 32.286V27.4545H58.2935V32.286H57.0141Z" fill="#034EA2"/>
<path d="M64.0001 32.286H62.7207V29.8205C62.7411 29.4811 62.7156 29.1406 62.6449 28.8081C62.5969 28.6638 62.5039 28.5386 62.3796 28.4511C62.2484 28.3635 62.0934 28.3188 61.9357 28.3232C61.7227 28.3202 61.514 28.3837 61.3387 28.5048C61.1676 28.6211 61.0403 28.7912 60.977 28.9881C60.8954 29.3507 60.8625 29.7225 60.8791 30.0937V32.286H59.6013V27.4545H60.789V28.1636C61.0513 27.802 61.4278 27.5395 61.8578 27.4186C62.2878 27.2976 62.746 27.3253 63.1582 27.4971C63.3622 27.5825 63.541 27.7184 63.6779 27.892C63.7984 28.0513 63.884 28.2343 63.929 28.429C63.9839 28.7125 64.0077 29.0011 64.0001 29.2898V32.286Z" fill="#034EA2"/>
<path d="M66.2524 28.9281L65.0915 28.7196C65.1866 28.3053 65.4249 27.9378 65.7644 27.6819C66.0803 27.4576 66.5541 27.3455 67.1859 27.3455C67.7561 27.3455 68.181 27.4118 68.4605 27.5476C68.7058 27.6529 68.9119 27.8324 69.0497 28.061C69.1634 28.2695 69.2202 28.6501 69.2202 29.2061L69.206 30.6987C69.1979 31.0132 69.2186 31.3277 69.2676 31.6385C69.3164 31.8633 69.3939 32.081 69.4982 32.286H68.2347C68.1999 32.2023 68.1604 32.076 68.1115 31.9086C68.0893 31.8327 68.0751 31.7822 68.0657 31.7506C67.8632 31.9506 67.6254 32.1112 67.3644 32.2244C67.1145 32.3299 66.8459 32.3837 66.5746 32.3824C66.1447 32.4151 65.7191 32.2772 65.39 31.9986C65.2494 31.8686 65.1382 31.71 65.0638 31.5335C64.9894 31.3569 64.9536 31.1666 64.9588 30.9751C64.9551 30.7179 65.0229 30.4647 65.1547 30.2438C65.2855 30.0301 65.4761 29.8593 65.7028 29.7526C66.0281 29.6116 66.3698 29.5118 66.7199 29.4556C67.1431 29.3886 67.5592 29.2828 67.963 29.1397V29.0118C67.9723 28.9161 67.9607 28.8195 67.9291 28.7287C67.8975 28.6379 67.8465 28.5551 67.7798 28.4858C67.6597 28.3806 67.4307 28.3279 67.0927 28.3279C66.9057 28.3169 66.7198 28.3638 66.5604 28.4622C66.4125 28.5823 66.305 28.7449 66.2524 28.9281ZM67.963 29.9658C67.707 30.0444 67.4471 30.1098 67.1843 30.1617C66.9419 30.199 66.7069 30.2742 66.4878 30.3844C66.4117 30.4324 66.349 30.4988 66.3054 30.5775C66.2617 30.6562 66.2386 30.7446 66.2382 30.8345C66.2369 30.9214 66.2537 31.0076 66.2878 31.0876C66.3218 31.1676 66.3721 31.2396 66.4356 31.2989C66.5028 31.3641 66.5825 31.4151 66.6699 31.4487C66.7573 31.4824 66.8506 31.498 66.9442 31.4947C67.1831 31.4922 67.4147 31.4124 67.6045 31.2673C67.7505 31.1642 67.8578 31.0152 67.9093 30.844C67.9519 30.6389 67.9689 30.4294 67.9598 30.2201L67.963 29.9658Z" fill="#034EA2"/>
<path d="M74.8747 32.286H73.5954V29.8205C73.6137 29.4809 73.586 29.1403 73.5132 28.8081C73.4658 28.6635 73.3726 28.5382 73.2479 28.4511C73.1168 28.3635 72.9617 28.3188 72.8041 28.3232C72.5915 28.3202 72.3833 28.3837 72.2086 28.5048C72.0366 28.6201 71.9091 28.7906 71.8469 28.9881C71.7644 29.3505 71.7314 29.7225 71.749 30.0937V32.286H70.4696V27.4545H71.6574V28.1636C71.9196 27.802 72.2961 27.5395 72.7261 27.4186C73.1561 27.2976 73.6143 27.3253 74.0266 27.4971C74.233 27.582 74.4145 27.7179 74.5541 27.892C74.6735 28.0518 74.7584 28.2347 74.8037 28.429C74.8585 28.7125 74.8824 29.0011 74.8747 29.2898V32.286Z" fill="#034EA2"/>
<path d="M80.3855 28.8823L79.1219 29.1097C79.0965 28.8918 78.994 28.6901 78.8329 28.5411C78.6669 28.409 78.4589 28.3411 78.2469 28.35C78.1043 28.3454 77.9624 28.3728 77.8318 28.4302C77.7011 28.4876 77.585 28.5736 77.4919 28.6817C77.3024 28.9018 77.2076 29.2703 77.2076 29.7873C77.2076 30.3612 77.3039 30.7661 77.4966 31.0019C77.5891 31.1177 77.7075 31.2101 77.8422 31.2718C77.9768 31.3335 78.1241 31.3628 78.2722 31.3573C78.4896 31.366 78.7024 31.2921 78.8676 31.1504C79.0499 30.9538 79.165 30.7044 79.1961 30.4381L80.4597 30.6513C80.3661 31.1602 80.0987 31.6208 79.7032 31.9544C79.3315 32.2481 78.835 32.395 78.2137 32.395C77.5072 32.395 76.9438 32.1723 76.5237 31.7269C76.1036 31.2815 75.893 30.6639 75.8919 29.8742C75.8919 29.0771 76.1025 28.4564 76.5237 28.012C76.9449 27.5677 77.5151 27.3455 78.2343 27.3455C78.8218 27.3455 79.2909 27.4718 79.6384 27.7245C80.0091 28.0168 80.2719 28.4241 80.3855 28.8823Z" fill="#034EA2"/>
<path d="M81.3537 26.799V25.616H82.6331V26.799H81.3537ZM81.3537 32.286V27.4545H82.6331V32.286H81.3537Z" fill="#034EA2"/>
<path d="M84.898 28.9281L83.7387 28.7196C83.8333 28.3051 84.0717 27.9374 84.4115 27.6819C84.7274 27.4576 85.2013 27.3455 85.833 27.3455C86.4032 27.3455 86.8281 27.4118 87.1077 27.5476C87.353 27.6529 87.559 27.8324 87.6968 28.061C87.8105 28.2695 87.8674 28.6501 87.8674 29.2061L87.8532 30.6987C87.8451 31.0132 87.8657 31.3277 87.9148 31.6385C87.9636 31.8631 88.0406 32.0807 88.1438 32.286H86.8802C86.8324 32.1625 86.7913 32.0365 86.757 31.9086C86.7349 31.8327 86.7207 31.7822 86.7112 31.7506C86.5088 31.9506 86.271 32.1112 86.0099 32.2244C85.7601 32.3299 85.4914 32.3837 85.2202 32.3824C84.7904 32.4142 84.3651 32.2764 84.0356 31.9986C83.8955 31.8682 83.7847 31.7095 83.7107 31.5331C83.6366 31.3566 83.6009 31.1664 83.606 30.9751C83.6024 30.7144 83.6731 30.458 83.8098 30.2359C83.9406 30.0222 84.1311 29.8514 84.3578 29.7447C84.6832 29.6037 85.0249 29.5039 85.375 29.4477C85.7981 29.3805 86.2142 29.2747 86.618 29.1319V29.0039C86.6274 28.9082 86.6158 28.8116 86.5842 28.7208C86.5525 28.63 86.5016 28.5472 86.4348 28.478C86.3148 28.3737 86.0842 28.32 85.7478 28.32C85.5608 28.309 85.3749 28.3559 85.2155 28.4543C85.0635 28.5759 84.9527 28.7413 84.898 28.9281ZM86.6101 29.9658C86.3541 30.0444 86.0942 30.1098 85.8315 30.1617C85.5891 30.199 85.354 30.2742 85.1349 30.3844C85.0589 30.4324 84.9961 30.4988 84.9525 30.5775C84.9089 30.6562 84.8858 30.7446 84.8854 30.8345C84.8848 30.9214 84.9022 31.0076 84.9364 31.0875C84.9707 31.1674 85.0211 31.2393 85.0844 31.2989C85.1519 31.3642 85.2319 31.4151 85.3195 31.4488C85.4072 31.4825 85.5007 31.4981 85.5945 31.4947C85.8334 31.4922 86.065 31.4124 86.2548 31.2673C86.4008 31.1642 86.5081 31.0152 86.5596 30.844C86.6022 30.6389 86.6192 30.4294 86.6101 30.2201V29.9658Z" fill="#034EA2"/>
<path d="M93.5582 32.286H92.3705V31.5769C92.1916 31.8368 91.9513 32.0484 91.6708 32.1929C91.4201 32.3238 91.1418 32.3931 90.8589 32.395C90.5873 32.3952 90.3189 32.3352 90.0732 32.2194C89.8274 32.1036 89.6103 31.9349 89.4374 31.7253C89.0415 31.2768 88.8435 30.6523 88.8435 29.8521C88.8435 29.0329 89.0362 28.41 89.4216 27.9836C89.6048 27.7786 89.8303 27.616 90.0826 27.5069C90.3349 27.3978 90.6079 27.3449 90.8826 27.3518C91.1515 27.3529 91.4167 27.4138 91.659 27.5302C91.9014 27.6466 92.1147 27.8155 92.2836 28.0246V25.616H93.563L93.5582 32.286ZM90.145 29.7589C90.145 30.2759 90.2161 30.6492 90.3583 30.8787C90.4433 31.0331 90.5689 31.1612 90.7214 31.2495C90.8739 31.3377 91.0476 31.3826 91.2238 31.3794C91.3693 31.3786 91.5127 31.3442 91.6428 31.279C91.7729 31.2138 91.8862 31.1196 91.974 31.0035C92.1846 30.754 92.2899 30.3801 92.2899 29.8821C92.2899 29.3277 92.1888 28.9344 91.9898 28.6833C91.8991 28.5664 91.7823 28.4724 91.6487 28.4087C91.5152 28.3451 91.3686 28.3136 91.2206 28.3168C91.073 28.3145 90.9269 28.3463 90.7935 28.4095C90.6601 28.4728 90.5431 28.5659 90.4514 28.6817C90.2482 28.926 90.1461 29.2872 90.145 29.7652V29.7589Z" fill="#034EA2"/>
<path d="M94.5217 29.8015C94.5241 29.3711 94.6326 28.948 94.8376 28.5696C95.0358 28.1834 95.3457 27.8658 95.7269 27.6582C96.1218 27.4459 96.5642 27.3372 97.0125 27.3423C97.3461 27.3303 97.6785 27.3877 97.9887 27.5108C98.299 27.634 98.5802 27.8203 98.8147 28.0578C99.0471 28.2947 99.229 28.5763 99.3495 28.8855C99.4701 29.1947 99.5267 29.5251 99.516 29.8568C99.5264 30.1936 99.4685 30.529 99.3458 30.8428C99.2231 31.1566 99.0382 31.4423 98.8021 31.6827C98.5709 31.9193 98.2933 32.1054 97.9867 32.2294C97.68 32.3533 97.351 32.4124 97.0204 32.4029C96.5815 32.4035 96.1486 32.3007 95.7569 32.1028C95.3623 31.9109 95.0396 31.5976 94.836 31.2088C94.6162 30.773 94.5082 30.2894 94.5217 29.8015ZM95.8327 29.871C95.8327 30.3501 95.9464 30.7187 96.1738 30.9767C96.2787 31.0967 96.4079 31.1929 96.553 31.2588C96.6981 31.3247 96.8556 31.3588 97.0149 31.3588C97.1742 31.3588 97.3317 31.3247 97.4768 31.2588C97.6219 31.1929 97.7512 31.0967 97.856 30.9767C98.0824 30.7208 98.195 30.3522 98.194 29.871C98.194 29.3972 98.0818 29.0339 97.856 28.778C97.7512 28.658 97.6219 28.5618 97.4768 28.4959C97.3317 28.43 97.1742 28.3959 97.0149 28.3959C96.8556 28.3959 96.6981 28.43 96.553 28.4959C96.4079 28.5618 96.2787 28.658 96.1738 28.778C95.9464 29.0244 95.8327 29.3909 95.8327 29.871Z" fill="#034EA2"/>
<path d="M103.063 27.4544H104.254V28.1636C104.414 27.9182 104.631 27.7154 104.886 27.5729C105.154 27.4207 105.457 27.3422 105.764 27.3455C106.035 27.3443 106.303 27.4027 106.548 27.5165C106.794 27.6304 107.012 27.7968 107.186 28.0041C107.577 28.4442 107.772 29.0571 107.772 29.8426C107.772 30.6492 107.575 31.2768 107.181 31.7253C107.007 31.9363 106.787 32.1058 106.539 32.2216C106.291 32.3375 106.021 32.3967 105.747 32.395C105.496 32.3989 105.248 32.3448 105.022 32.2371C104.765 32.0966 104.535 31.9115 104.343 31.6906V34.1245H103.063V27.4544ZM104.327 29.7889C104.327 30.3312 104.432 30.7324 104.643 30.9925C104.736 31.1138 104.855 31.212 104.992 31.2794C105.129 31.3469 105.28 31.3816 105.433 31.381C105.576 31.3831 105.717 31.3519 105.846 31.29C105.975 31.228 106.087 31.137 106.175 31.024C106.373 30.785 106.471 30.3944 106.47 29.8521C106.47 29.3456 106.369 28.9697 106.166 28.7243C106.077 28.6088 105.962 28.5154 105.831 28.4513C105.7 28.3872 105.556 28.3541 105.411 28.3547C105.262 28.3524 105.115 28.3837 104.98 28.4463C104.845 28.509 104.726 28.6013 104.632 28.7164C104.43 28.9586 104.329 29.3156 104.329 29.7873L104.327 29.7889Z" fill="#034EA2"/>
<path d="M108.495 29.8015C108.498 29.3712 108.606 28.948 108.811 28.5696C109.009 28.1834 109.319 27.8659 109.7 27.6582C110.095 27.4459 110.538 27.3372 110.986 27.3423C111.319 27.3305 111.65 27.3878 111.959 27.5104C112.269 27.633 112.549 27.8183 112.783 28.0547C113.016 28.2916 113.198 28.5732 113.318 28.8824C113.439 29.1916 113.495 29.522 113.485 29.8537C113.497 30.1907 113.44 30.5266 113.318 30.841C113.196 31.1554 113.011 31.4418 112.776 31.6827C112.544 31.9193 112.267 32.1054 111.96 32.2294C111.654 32.3533 111.325 32.4124 110.994 32.4029C110.555 32.4033 110.122 32.3005 109.73 32.1028C109.336 31.9109 109.013 31.5976 108.81 31.2088C108.59 30.7731 108.482 30.2894 108.495 29.8015ZM109.806 29.871C109.806 30.3501 109.92 30.7187 110.147 30.9767C110.252 31.0967 110.381 31.1929 110.526 31.2588C110.672 31.3247 110.829 31.3588 110.988 31.3588C111.148 31.3588 111.305 31.3247 111.45 31.2588C111.595 31.1929 111.725 31.0967 111.829 30.9767C112.056 30.7208 112.169 30.3523 112.167 29.871C112.167 29.3972 112.055 29.0339 111.829 28.778C111.725 28.658 111.595 28.5618 111.45 28.4959C111.305 28.43 111.148 28.3959 110.988 28.3959C110.829 28.3959 110.672 28.43 110.526 28.4959C110.381 28.5618 110.252 28.658 110.147 28.778C109.92 29.0244 109.806 29.3909 109.806 29.871Z" fill="#034EA2"/>
<path d="M115.715 32.286H114.436V27.4545H115.623V28.1415C115.76 27.8921 115.946 27.6738 116.171 27.5003C116.336 27.3948 116.529 27.3399 116.724 27.3423C117.021 27.3442 117.313 27.4272 117.566 27.5824L117.171 28.6975C116.995 28.5718 116.786 28.4994 116.569 28.489C116.405 28.4842 116.245 28.5361 116.115 28.6359C115.964 28.78 115.861 28.9669 115.821 29.1713C115.75 29.4314 115.715 29.9721 115.715 30.7935V32.286Z" fill="#034EA2"/>
<path d="M51.3217 43.4687V36.7986H52.6011V43.4687H51.3217Z" fill="#034EA2"/>
<path d="M54.8676 40.1107L53.7067 39.8959C53.8025 39.4818 54.0406 39.1146 54.3796 38.8582C54.6955 38.6339 55.1693 38.5218 55.8011 38.5218C56.3713 38.5218 56.7962 38.5881 57.0757 38.7239C57.3214 38.8285 57.5277 39.0082 57.6649 39.2373C57.7786 39.4458 57.8355 39.8264 57.8355 40.3824L57.8212 41.875C57.8127 42.1921 57.8333 42.5093 57.8828 42.8227C57.9325 43.0473 58.01 43.2648 58.1134 43.4702H56.8499C56.8167 43.385 56.7756 43.2602 56.7267 43.0928C56.7061 43.0169 56.6903 42.9664 56.6809 42.9427C56.4787 43.1423 56.2415 43.3029 55.9812 43.4165C55.7287 43.5227 55.4574 43.5764 55.1835 43.5745C54.754 43.599 54.332 43.4538 54.0084 43.1701C53.868 43.04 53.757 42.8814 53.6829 42.7049C53.6088 42.5284 53.5733 42.338 53.5788 42.1467C53.5745 41.8896 53.6418 41.6364 53.7731 41.4154C53.9045 41.2015 54.0955 41.0308 54.3227 40.9241C54.6474 40.7829 54.9887 40.6831 55.3383 40.6272C55.7615 40.5601 56.1775 40.4544 56.5814 40.3113V40.1834C56.5906 40.0878 56.5791 39.9914 56.5478 39.9006C56.5164 39.8099 56.4659 39.7269 56.3997 39.6574C56.2786 39.5521 56.0496 39.4995 55.7127 39.4995C55.5256 39.4882 55.3397 39.5351 55.1804 39.6337C55.0288 39.7561 54.9195 39.9229 54.8676 40.1107ZM56.5782 41.1484C56.3222 41.227 56.0623 41.2924 55.7995 41.3443C55.5577 41.3818 55.3232 41.457 55.1046 41.567C55.028 41.6146 54.9648 41.6809 54.9209 41.7596C54.8769 41.8384 54.8537 41.927 54.8534 42.0171C54.8525 42.1043 54.8699 42.1906 54.9044 42.2706C54.939 42.3506 54.9899 42.4225 55.054 42.4815C55.1212 42.5467 55.2009 42.5977 55.2883 42.6314C55.3757 42.665 55.469 42.6807 55.5626 42.6774C55.8015 42.6748 56.0331 42.5951 56.2228 42.4499C56.3688 42.3468 56.4761 42.1978 56.5277 42.0266C56.571 41.819 56.5879 41.6067 56.5782 41.3948V41.1484Z" fill="#034EA2"/>
<path d="M61.6831 36.7986H63.0303V40.4108C63.0186 40.7833 63.0355 41.1561 63.0809 41.5259C63.1311 41.7885 63.2776 42.0228 63.4915 42.183C63.753 42.3617 64.0662 42.4489 64.3824 42.431C64.6885 42.4531 64.9931 42.3707 65.2463 42.1972C65.4313 42.0564 65.5564 41.8511 65.597 41.6223C65.6449 41.2463 65.6645 40.8672 65.6554 40.4882V36.7986H67.0027V40.3018C67.0198 40.87 66.9834 41.4385 66.8937 41.9998C66.8318 42.3082 66.6933 42.596 66.491 42.8369C66.2747 43.0783 66.004 43.2646 65.7012 43.3802C65.2905 43.5286 64.8552 43.5973 64.4187 43.5824C63.7806 43.5824 63.2973 43.5092 62.9687 43.3628C62.6676 43.2349 62.4005 43.0386 62.1885 42.7895C62.0074 42.5749 61.8782 42.3214 61.811 42.0487C61.7073 41.4911 61.6629 40.9241 61.6783 40.3571L61.6831 36.7986Z" fill="#034EA2"/>
<path d="M72.8088 43.4687H71.5294V41.0015C71.5477 40.6619 71.5201 40.3214 71.4473 39.9891C71.3998 39.8445 71.3067 39.7193 71.1819 39.6321C71.0509 39.5444 70.8957 39.4997 70.7381 39.5042C70.5255 39.5012 70.3173 39.5648 70.1426 39.6859C69.9707 39.8012 69.8431 39.9717 69.7809 40.1692C69.6984 40.5316 69.6655 40.9035 69.683 41.2748V43.4624H68.4036V38.6323H69.5945V39.3415C69.8568 38.9799 70.2333 38.7174 70.6633 38.5964C71.0933 38.4755 71.5515 38.5032 71.9638 38.675C72.1706 38.7577 72.3532 38.8913 72.4945 39.0635C72.6144 39.223 72.6994 39.406 72.744 39.6006C72.7989 39.8841 72.8227 40.1727 72.8151 40.4614L72.8088 43.4687Z" fill="#034EA2"/>
<path d="M74.1055 37.9816V36.7986H75.3833V37.9816H74.1055ZM74.1055 43.4687V38.6323H75.3833V43.4639L74.1055 43.4687Z" fill="#034EA2"/>
<path d="M76.3989 40.9842C76.4005 40.5537 76.5091 40.1303 76.7148 39.7522C76.9125 39.3657 77.2225 39.048 77.604 38.8408C77.9989 38.6283 78.4413 38.5196 78.8897 38.5249C79.2223 38.5132 79.5537 38.5704 79.863 38.693C80.1723 38.8156 80.453 39.0009 80.6872 39.2373C80.919 39.4745 81.1005 39.7562 81.2208 40.0653C81.341 40.3745 81.3975 40.7047 81.3869 41.0363C81.3974 41.3714 81.3402 41.7051 81.2186 42.0175C81.097 42.3299 80.9135 42.6145 80.6793 42.8543C80.4483 43.0911 80.1707 43.2774 79.864 43.4014C79.5574 43.5253 79.2283 43.5843 78.8976 43.5745C78.4588 43.5747 78.0259 43.472 77.6341 43.2744C77.2434 43.0853 76.9227 42.7773 76.718 42.3946C76.4953 41.9586 76.3856 41.4736 76.3989 40.9842ZM77.7099 41.0537C77.7099 41.5317 77.8236 41.9003 78.051 42.1593C78.1557 42.2793 78.2848 42.3754 78.4298 42.4413C78.5747 42.5072 78.7321 42.5413 78.8913 42.5413C79.0505 42.5413 79.2079 42.5072 79.3528 42.4413C79.4978 42.3754 79.6269 42.2793 79.7316 42.1593C79.958 41.9034 80.0712 41.5349 80.0712 41.0537C80.0712 40.5798 79.9574 40.2165 79.7316 39.9607C79.6269 39.8407 79.4978 39.7445 79.3528 39.6786C79.2079 39.6127 79.0505 39.5786 78.8913 39.5786C78.7321 39.5786 78.5747 39.6127 78.4298 39.6786C78.2848 39.7445 78.1557 39.8407 78.051 39.9607C77.8236 40.2118 77.7099 40.5735 77.7099 41.0537ZM78.2453 38.0448L78.8771 36.6849H80.3112L79.0587 38.0448H78.2453Z" fill="#034EA2"/>
<path d="M86.7823 43.4687H85.503V41.0015C85.5206 40.662 85.4936 40.3216 85.4224 39.9891C85.3738 39.8447 85.2803 39.7196 85.1555 39.6321C85.0244 39.5444 84.8693 39.4997 84.7117 39.5042C84.4991 39.5012 84.2909 39.5648 84.1162 39.6859C83.9442 39.8012 83.8167 39.9717 83.7545 40.1692C83.672 40.5316 83.639 40.9035 83.6566 41.2748V43.4624H82.3772V38.6323H83.565V39.3415C83.8272 38.9799 84.2037 38.7174 84.6337 38.5964C85.0637 38.4755 85.5219 38.5032 85.9342 38.675C86.141 38.7577 86.3236 38.8913 86.4649 39.0635C86.5848 39.223 86.6698 39.406 86.7144 39.6006C86.7693 39.8841 86.7931 40.1727 86.7855 40.4614L86.7823 43.4687Z" fill="#034EA2"/>
<path d="M90.6773 43.4687V36.7986H95.6226V37.9263H92.023V39.4063H95.3715V40.5277H92.023V42.3441H95.7505V43.4671L90.6773 43.4687Z" fill="#034EA2"/>
<path d="M100.064 43.4687V42.739C99.8877 42.9971 99.6493 43.2068 99.3707 43.3486C99.0905 43.4955 98.7788 43.5719 98.4625 43.5713C98.1579 43.5762 97.8571 43.5027 97.589 43.3581C97.3411 43.2258 97.1443 43.0146 97.0299 42.7579C96.8999 42.417 96.8408 42.0531 96.8561 41.6886V38.6323H98.1355V40.8531C98.1355 41.5322 98.1587 41.9482 98.205 42.1008C98.2477 42.2478 98.3383 42.3762 98.4625 42.4657C98.6021 42.5598 98.7681 42.6069 98.9363 42.6C99.1456 42.6027 99.3506 42.5397 99.5223 42.4199C99.6854 42.3133 99.8099 42.1572 99.8777 41.9745C99.9408 41.796 99.974 41.3617 99.974 40.6699V38.6323H101.252V43.4639L100.064 43.4687Z" fill="#034EA2"/>
<path d="M103.799 43.4687H102.522V38.6323H103.711V39.3194C103.847 39.0696 104.033 38.8512 104.259 38.6782C104.424 38.5724 104.616 38.5175 104.812 38.5202C105.109 38.5222 105.4 38.6052 105.654 38.7603L105.257 39.8754C105.081 39.7496 104.873 39.6772 104.657 39.6669C104.493 39.6621 104.332 39.714 104.202 39.8138C104.052 39.9579 103.949 40.1448 103.908 40.3492C103.837 40.6062 103.801 41.1458 103.801 41.9682L103.799 43.4687Z" fill="#034EA2"/>
<path d="M105.907 40.9842C105.909 40.5538 106.017 40.1306 106.222 39.7522C106.421 39.366 106.73 39.0485 107.112 38.8408C107.507 38.6285 107.949 38.5199 108.397 38.5249C108.729 38.5147 109.059 38.5729 109.367 38.696C109.675 38.8192 109.954 39.0045 110.187 39.2404C110.419 39.4774 110.601 39.7589 110.722 40.0681C110.842 40.3773 110.899 40.7078 110.888 41.0395C110.899 41.374 110.843 41.7074 110.722 42.0197C110.602 42.332 110.42 42.6169 110.187 42.8574C109.956 43.094 109.678 43.2802 109.371 43.4041C109.065 43.5281 108.736 43.5872 108.405 43.5777C107.966 43.5783 107.533 43.4754 107.142 43.2776C106.75 43.0888 106.429 42.7807 106.224 42.3978C106.002 41.9604 105.893 41.4745 105.907 40.9842ZM107.217 41.0537C107.217 41.5317 107.331 41.9003 107.559 42.1593C107.663 42.2793 107.793 42.3755 107.938 42.4414C108.083 42.5073 108.24 42.5414 108.4 42.5414C108.559 42.5414 108.717 42.5073 108.862 42.4414C109.007 42.3755 109.136 42.2793 109.241 42.1593C109.467 41.9034 109.58 41.5349 109.579 41.0537C109.579 40.5798 109.467 40.2166 109.241 39.9607C109.136 39.8407 109.007 39.7445 108.862 39.6786C108.717 39.6127 108.559 39.5786 108.4 39.5786C108.24 39.5786 108.083 39.6127 107.938 39.6786C107.793 39.7445 107.663 39.8407 107.559 39.9607C107.331 40.2118 107.217 40.5735 107.217 41.0537Z" fill="#034EA2"/>
<path d="M111.858 38.6323H113.05V39.3415C113.21 39.096 113.427 38.8932 113.682 38.7508C113.95 38.5986 114.253 38.5201 114.56 38.5234C114.831 38.5218 115.099 38.58 115.345 38.6938C115.59 38.8077 115.808 38.9744 115.982 39.182C116.374 39.6221 116.569 40.235 116.569 41.0205C116.569 41.8271 116.372 42.4541 115.977 42.9016C115.803 43.1132 115.585 43.2833 115.337 43.3994C115.089 43.5155 114.818 43.5748 114.545 43.5729C114.294 43.5766 114.045 43.5226 113.818 43.415C113.56 43.2746 113.328 43.0896 113.134 42.8685V45.3024H111.855L111.858 38.6323ZM113.122 40.9668C113.122 41.5091 113.227 41.9103 113.437 42.1703C113.53 42.2918 113.65 42.3901 113.787 42.4575C113.924 42.5249 114.074 42.5596 114.227 42.5589C114.37 42.5609 114.511 42.5297 114.64 42.4677C114.769 42.4058 114.882 42.3148 114.969 42.2019C115.167 41.964 115.266 41.5733 115.265 41.03C115.265 40.5224 115.163 40.1465 114.96 39.9022C114.871 39.7867 114.757 39.6932 114.626 39.6291C114.495 39.565 114.351 39.532 114.205 39.5326C114.056 39.5303 113.909 39.5616 113.774 39.6242C113.639 39.6869 113.52 39.7792 113.426 39.8943C113.227 40.1407 113.123 40.4977 113.123 40.9715L113.122 40.9668Z" fill="#034EA2"/>
<path d="M120.386 41.9318L121.66 42.1451C121.523 42.5752 121.251 42.9493 120.883 43.2112C120.49 43.4675 120.027 43.5956 119.558 43.5776C118.715 43.5776 118.094 43.3033 117.693 42.7547C117.36 42.2649 117.194 41.6813 117.219 41.09C117.219 40.2887 117.429 39.6611 117.85 39.2073C118.05 38.9874 118.294 38.8129 118.566 38.6957C118.839 38.5785 119.133 38.5214 119.43 38.5281C120.149 38.5281 120.717 38.7655 121.133 39.2404C121.549 39.7153 121.747 40.4424 121.728 41.4217H118.525C118.516 41.7457 118.628 42.0614 118.841 42.3062C118.934 42.4085 119.047 42.4897 119.174 42.5442C119.301 42.5987 119.439 42.6253 119.577 42.6221C119.758 42.6292 119.937 42.5734 120.082 42.4641C120.236 42.3225 120.342 42.1365 120.386 41.9318ZM120.458 40.6383C120.471 40.3313 120.369 40.0306 120.172 39.7948C120.085 39.7023 119.979 39.6288 119.862 39.5791C119.744 39.5294 119.618 39.5046 119.49 39.506C119.363 39.5075 119.237 39.5353 119.121 39.5878C119.005 39.6402 118.901 39.7161 118.816 39.8106C118.624 40.0424 118.528 40.3383 118.547 40.6383H120.458Z" fill="#034EA2"/>
<path d="M123.726 40.1107L122.565 39.8959C122.661 39.4818 122.899 39.1146 123.238 38.8582C123.554 38.6339 124.028 38.5218 124.659 38.5218C125.23 38.5218 125.655 38.5881 125.934 38.7239C126.18 38.8285 126.386 39.0082 126.523 39.2373C126.637 39.4458 126.694 39.8264 126.694 40.3824L126.68 41.875C126.671 42.1921 126.692 42.5093 126.741 42.8227C126.791 43.0473 126.868 43.2648 126.972 43.4702H125.708C125.675 43.385 125.634 43.2602 125.585 43.0928C125.565 43.0169 125.549 42.9664 125.539 42.9427C125.337 43.1423 125.1 43.3029 124.84 43.4165C124.59 43.5217 124.321 43.5754 124.05 43.5745C123.62 43.599 123.198 43.4538 122.875 43.1701C122.734 43.04 122.623 42.8814 122.549 42.7049C122.475 42.5284 122.44 42.338 122.445 42.1467C122.441 41.8896 122.508 41.6364 122.639 41.4154C122.771 41.2015 122.962 41.0308 123.189 40.9241C123.514 40.7829 123.855 40.6831 124.205 40.6272C124.628 40.5601 125.044 40.4544 125.448 40.3113V40.1834C125.457 40.0878 125.445 39.9914 125.414 39.9006C125.383 39.8099 125.332 39.7269 125.266 39.6574C125.145 39.5521 124.916 39.4995 124.579 39.4995C124.392 39.4882 124.206 39.5351 124.047 39.6337C123.892 39.755 123.78 39.9219 123.726 40.1107ZM125.437 41.1484C125.181 41.227 124.921 41.2924 124.658 41.3443C124.416 41.3818 124.182 41.457 123.963 41.567C123.886 41.6146 123.823 41.6809 123.779 41.7596C123.735 41.8384 123.712 41.927 123.712 42.0171C123.711 42.1043 123.728 42.1906 123.763 42.2706C123.797 42.3506 123.848 42.4225 123.912 42.4815C123.98 42.5467 124.059 42.5977 124.147 42.6314C124.234 42.665 124.327 42.6807 124.421 42.6774C124.66 42.6748 124.891 42.5951 125.081 42.4499C125.227 42.3468 125.335 42.1978 125.386 42.0266C125.429 41.819 125.446 41.6067 125.437 41.3948V41.1484Z" fill="#034EA2"/>
<path d="M51.3335 54.6797V48.9136H52.1162L55.1448 53.4408V48.9136H55.8764V54.6797H55.0937L52.0651 50.1486V54.6797H51.3335Z" fill="#58595B"/>
<path d="M59.9316 53.3346L60.6631 53.425C60.5478 53.8524 60.3341 54.1841 60.022 54.4201C59.71 54.6561 59.3114 54.7741 58.8263 54.7741C58.2154 54.7741 57.7303 54.5866 57.371 54.2117C57.0144 53.8341 56.8361 53.3057 56.8361 52.6266C56.8361 51.9238 57.017 51.3784 57.3789 50.9903C57.7407 50.6023 58.2101 50.4082 58.787 50.4082C59.3455 50.4082 59.8018 50.5983 60.1558 50.9785C60.5097 51.3588 60.6867 51.8937 60.6867 52.5833C60.6867 52.6253 60.6854 52.6882 60.6828 52.7721H57.5677C57.5939 53.231 57.7237 53.5824 57.9571 53.8262C58.1904 54.0701 58.4815 54.192 58.8303 54.192C59.0898 54.192 59.3114 54.1238 59.495 53.9875C59.6785 53.8511 59.8241 53.6335 59.9316 53.3346ZM57.607 52.19H59.9394C59.908 51.8386 59.8188 51.5751 59.672 51.3994C59.4465 51.1267 59.1541 50.9903 58.7949 50.9903C58.4697 50.9903 58.1957 51.0992 57.9728 51.3168C57.7525 51.5344 57.6306 51.8255 57.607 52.19Z" fill="#58595B"/>
<path d="M61.084 54.6797L62.6101 52.5086L61.1981 50.5026H62.083L62.7242 51.482C62.8448 51.6682 62.9418 51.8242 63.0152 51.9501C63.1306 51.777 63.2368 51.6236 63.3338 51.4899L64.0379 50.5026H64.8835L63.44 52.4692L64.9936 54.6797H64.1244L63.267 53.3818L63.0388 53.0317L61.9415 54.6797H61.084Z" fill="#58595B"/>
<path d="M67.1294 54.0465L67.2317 54.6719C67.0324 54.7138 66.8541 54.7348 66.6967 54.7348C66.4398 54.7348 66.2405 54.6941 66.0989 54.6129C65.9573 54.5316 65.8576 54.4254 65.8 54.2943C65.7423 54.1605 65.7134 53.8813 65.7134 53.4565V51.0533H65.1942V50.5026H65.7134V49.4682L66.4175 49.0434V50.5026H67.1294V51.0533H66.4175V53.4958C66.4175 53.6977 66.4293 53.8275 66.4529 53.8852C66.4791 53.9429 66.5197 53.9888 66.5748 54.0229C66.6325 54.057 66.7138 54.074 66.8187 54.074C66.8973 54.074 67.0009 54.0648 67.1294 54.0465Z" fill="#58595B"/>
<path d="M70.6142 52.4181V51.7416L73.0568 51.7377V53.8773C72.6818 54.1763 72.2951 54.4018 71.8965 54.5539C71.4979 54.7033 71.0889 54.7781 70.6693 54.7781C70.1029 54.7781 69.5877 54.6574 69.1236 54.4162C68.6621 54.1723 68.3133 53.821 68.0773 53.3621C67.8413 52.9032 67.7233 52.3906 67.7233 51.8242C67.7233 51.2631 67.84 50.7399 68.0734 50.2548C68.3094 49.7671 68.6476 49.4052 69.0882 49.1693C69.5287 48.9333 70.0361 48.8153 70.6103 48.8153C71.0272 48.8153 71.4035 48.8834 71.7392 49.0198C72.0774 49.1535 72.3423 49.341 72.5337 49.5822C72.7251 49.8235 72.8706 50.1381 72.9703 50.5262L72.2819 50.715C72.1954 50.4213 72.0879 50.1906 71.9594 50.0228C71.8309 49.8549 71.6474 49.7212 71.4088 49.6216C71.1701 49.5193 70.9053 49.4682 70.6142 49.4682C70.2655 49.4682 69.964 49.5219 69.7096 49.6294C69.4553 49.7343 69.2494 49.8733 69.0921 50.0464C68.9374 50.2194 68.8168 50.4095 68.7302 50.6167C68.5834 50.9733 68.51 51.3601 68.51 51.777C68.51 52.2909 68.5978 52.721 68.7735 53.0671C68.9518 53.4132 69.2101 53.6702 69.5483 53.838C69.8866 54.0058 70.2458 54.0897 70.626 54.0897C70.9564 54.0897 71.279 54.0268 71.5936 53.9009C71.9083 53.7725 72.1469 53.6361 72.3095 53.4919V52.4181H70.6142Z" fill="#58595B"/>
<path d="M76.9546 53.3346L77.6862 53.425C77.5708 53.8524 77.3571 54.1841 77.0451 54.4201C76.7331 54.6561 76.3345 54.7741 75.8494 54.7741C75.2384 54.7741 74.7533 54.5866 74.3941 54.2117C74.0375 53.8341 73.8592 53.3057 73.8592 52.6266C73.8592 51.9238 74.0401 51.3784 74.402 50.9903C74.7638 50.6023 75.2332 50.4082 75.8101 50.4082C76.3686 50.4082 76.8248 50.5983 77.1788 50.9785C77.5328 51.3588 77.7098 51.8937 77.7098 52.5833C77.7098 52.6253 77.7085 52.6882 77.7059 52.7721H74.5908C74.617 53.231 74.7468 53.5824 74.9801 53.8262C75.2135 54.0701 75.5046 54.192 75.8533 54.192C76.1129 54.192 76.3345 54.1238 76.518 53.9875C76.7016 53.8511 76.8471 53.6335 76.9546 53.3346ZM74.6301 52.19H76.9625C76.931 51.8386 76.8419 51.5751 76.695 51.3994C76.4695 51.1267 76.1772 50.9903 75.8179 50.9903C75.4928 50.9903 75.2188 51.0992 74.9959 51.3168C74.7756 51.5344 74.6537 51.8255 74.6301 52.19Z" fill="#58595B"/>
<path d="M78.5791 54.6797V50.5026H79.2162V51.0965C79.523 50.6377 79.9662 50.4082 80.5457 50.4082C80.7974 50.4082 81.0282 50.4541 81.2379 50.5459C81.4503 50.635 81.609 50.753 81.7139 50.8999C81.8187 51.0467 81.8922 51.2211 81.9341 51.423C81.9603 51.5541 81.9735 51.7835 81.9735 52.1113V54.6797H81.2655V52.1389C81.2655 51.8504 81.2379 51.6354 81.1829 51.4938C81.1278 51.3496 81.0295 51.2355 80.8879 51.1516C80.7489 51.0651 80.585 51.0218 80.3962 51.0218C80.0947 51.0218 79.8338 51.1175 79.6135 51.3089C79.3959 51.5004 79.287 51.8635 79.287 52.3984V54.6797H78.5791Z" fill="#58595B"/>
<path d="M85.9224 53.3346L86.654 53.425C86.5386 53.8524 86.3249 54.1841 86.0129 54.4201C85.7009 54.6561 85.3023 54.7741 84.8172 54.7741C84.2062 54.7741 83.7211 54.5866 83.3619 54.2117C83.0053 53.8341 82.827 53.3057 82.827 52.6266C82.827 51.9238 83.0079 51.3784 83.3698 50.9903C83.7316 50.6023 84.201 50.4082 84.7779 50.4082C85.3364 50.4082 85.7926 50.5983 86.1466 50.9785C86.5006 51.3588 86.6776 51.8937 86.6776 52.5833C86.6776 52.6253 86.6763 52.6882 86.6737 52.7721H83.5585C83.5848 53.231 83.7146 53.5824 83.9479 53.8262C84.1813 54.0701 84.4724 54.192 84.8211 54.192C85.0807 54.192 85.3023 54.1238 85.4858 53.9875C85.6694 53.8511 85.8149 53.6335 85.9224 53.3346ZM83.5979 52.19H85.9303C85.8988 51.8386 85.8097 51.5751 85.6628 51.3994C85.4373 51.1267 85.145 50.9903 84.7857 50.9903C84.4606 50.9903 84.1866 51.0992 83.9637 51.3168C83.7434 51.5344 83.6215 51.8255 83.5979 52.19Z" fill="#58595B"/>
<path d="M87.539 54.6797V50.5026H88.1762V51.1359C88.3387 50.8396 88.4882 50.6442 88.6246 50.5498C88.7635 50.4554 88.9156 50.4082 89.0808 50.4082C89.3194 50.4082 89.562 50.4843 89.8085 50.6364L89.5646 51.2932C89.3915 51.1909 89.2185 51.1398 89.0454 51.1398C88.8907 51.1398 88.7517 51.187 88.6285 51.2814C88.5053 51.3732 88.4174 51.5017 88.365 51.6669C88.2863 51.9186 88.247 52.1939 88.247 52.4928V54.6797H87.539Z" fill="#58595B"/>
<path d="M92.9551 54.1645C92.6928 54.3874 92.4398 54.5447 92.1959 54.6365C91.9547 54.7282 91.6951 54.7741 91.4172 54.7741C90.9583 54.7741 90.6056 54.6627 90.3591 54.4398C90.1126 54.2143 89.9894 53.9272 89.9894 53.5784C89.9894 53.3739 90.0353 53.1877 90.1271 53.0199C90.2215 52.8495 90.3434 52.7131 90.4929 52.6108C90.6449 52.5086 90.8154 52.4312 91.0042 52.3788C91.1432 52.3421 91.3529 52.3067 91.6335 52.2726C92.2051 52.2044 92.626 52.1231 92.8961 52.0287C92.8987 51.9317 92.9 51.8701 92.9 51.8439C92.9 51.5554 92.8331 51.3522 92.6994 51.2342C92.5185 51.0743 92.2497 50.9943 91.8931 50.9943C91.5601 50.9943 91.3136 51.0533 91.1536 51.1713C90.9963 51.2866 90.8796 51.4925 90.8036 51.7888L90.1113 51.6944C90.1743 51.3981 90.2778 51.1595 90.4221 50.9785C90.5663 50.795 90.7747 50.6547 91.0474 50.5577C91.3201 50.458 91.6361 50.4082 91.9954 50.4082C92.352 50.4082 92.6417 50.4502 92.8646 50.5341C93.0875 50.618 93.2514 50.7242 93.3563 50.8527C93.4611 50.9785 93.5346 51.1385 93.5765 51.3325C93.6001 51.4532 93.6119 51.6708 93.6119 51.9855V52.9294C93.6119 53.5876 93.6263 54.0045 93.6552 54.1802C93.6866 54.3533 93.747 54.5198 93.8361 54.6797H93.0967C93.0232 54.5329 92.976 54.3611 92.9551 54.1645ZM92.8961 52.5833C92.6391 52.6882 92.2536 52.7773 91.7397 52.8508C91.4486 52.8927 91.2428 52.9399 91.1222 52.9924C91.0016 53.0448 90.9085 53.1222 90.8429 53.2244C90.7774 53.3241 90.7446 53.4355 90.7446 53.5588C90.7446 53.7475 90.8154 53.9049 90.957 54.0307C91.1012 54.1566 91.311 54.2195 91.5863 54.2195C91.859 54.2195 92.1016 54.1605 92.3139 54.0425C92.5263 53.9219 92.6824 53.758 92.782 53.5509C92.858 53.3909 92.8961 53.1549 92.8961 52.8429V52.5833Z" fill="#58595B"/>
<path d="M96.259 54.0465L96.3613 54.6719C96.162 54.7138 95.9837 54.7348 95.8263 54.7348C95.5694 54.7348 95.3701 54.6941 95.2285 54.6129C95.0869 54.5316 94.9872 54.4254 94.9296 54.2943C94.8719 54.1605 94.843 53.8813 94.843 53.4565V51.0533H94.3238V50.5026H94.843V49.4682L95.5471 49.0434V50.5026H96.259V51.0533H95.5471V53.4958C95.5471 53.6977 95.5589 53.8275 95.5825 53.8852C95.6087 53.9429 95.6493 53.9888 95.7044 54.0229C95.7621 54.057 95.8434 54.074 95.9483 54.074C96.0269 54.074 96.1305 54.0648 96.259 54.0465Z" fill="#58595B"/>
<path d="M96.9591 49.7278V48.9136H97.6671V49.7278H96.9591ZM96.9591 54.6797V50.5026H97.6671V54.6797H96.9591Z" fill="#58595B"/>
<path d="M98.4852 52.5912C98.4852 51.8176 98.7002 51.2447 99.1303 50.8723C99.4895 50.5629 99.9274 50.4082 100.444 50.4082C101.018 50.4082 101.488 50.597 101.852 50.9746C102.217 51.3496 102.399 51.8688 102.399 52.5322C102.399 53.0697 102.317 53.4932 102.155 53.8026C101.995 54.1094 101.76 54.348 101.451 54.5185C101.144 54.6889 100.808 54.7741 100.444 54.7741C99.8592 54.7741 99.3859 54.5866 99.0241 54.2117C98.6648 53.8367 98.4852 53.2965 98.4852 52.5912ZM99.2129 52.5912C99.2129 53.1261 99.3295 53.5273 99.5629 53.7947C99.7963 54.0596 100.09 54.192 100.444 54.192C100.795 54.192 101.088 54.0583 101.321 53.7908C101.554 53.5234 101.671 53.1156 101.671 52.5676C101.671 52.051 101.553 51.6603 101.317 51.3955C101.084 51.128 100.793 50.9943 100.444 50.9943C100.09 50.9943 99.7963 51.1267 99.5629 51.3915C99.3295 51.6564 99.2129 52.0563 99.2129 52.5912Z" fill="#58595B"/>
<path d="M103.233 54.6797V50.5026H103.87V51.0965C104.177 50.6377 104.62 50.4082 105.199 50.4082C105.451 50.4082 105.682 50.4541 105.891 50.5459C106.104 50.635 106.263 50.753 106.367 50.8999C106.472 51.0467 106.546 51.2211 106.588 51.423C106.614 51.5541 106.627 51.7835 106.627 52.1113V54.6797H105.919V52.1389C105.919 51.8504 105.891 51.6354 105.836 51.4938C105.781 51.3496 105.683 51.2355 105.541 51.1516C105.402 51.0651 105.239 51.0218 105.05 51.0218C104.748 51.0218 104.487 51.1175 104.267 51.3089C104.049 51.5004 103.941 51.8635 103.941 52.3984V54.6797H103.233Z" fill="#58595B"/>
<path d="M107.823 54.6797V48.9136H111.992V49.594H108.586V51.3601H111.776V52.0366H108.586V53.9993H112.126V54.6797H107.823Z" fill="#58595B"/>
<path d="M116.964 48.9136H117.727V52.2451C117.727 52.8245 117.661 53.2847 117.53 53.6256C117.399 53.9665 117.162 54.2444 116.818 54.4595C116.477 54.6719 116.029 54.7781 115.473 54.7781C114.933 54.7781 114.491 54.685 114.147 54.4988C113.804 54.3126 113.559 54.0439 113.412 53.6925C113.265 53.3385 113.192 52.856 113.192 52.2451V48.9136H113.955V52.2411C113.955 52.742 114.001 53.1117 114.092 53.3503C114.187 53.5863 114.347 53.7685 114.572 53.897C114.8 54.0255 115.078 54.0897 115.406 54.0897C115.967 54.0897 116.367 53.9626 116.606 53.7082C116.844 53.4539 116.964 52.9648 116.964 52.2411V48.9136Z" fill="#58595B"/>
</g>
<g clip-path="url(#clip1_1897_3659)">
<path d="M195.821 25.0023V31.2072H190.154V56.1594H183.442V31.2072H177.753V25.0023H195.821Z" fill="#CE0E2D"/>
<path d="M202.455 46.2277L201.518 46.5282C199.998 47.0108 198.426 47.316 196.835 47.4374L195.134 47.4804L201.3 56.136H209.581L202.455 46.2277Z" fill="#CE0E2D"/>
<path d="M182.158 51.9643L180.16 51.8472L179.84 50.0521L178.845 51.7691L176.742 51.6482L178.201 52.8969L177.198 54.6804L179.103 53.6852L180.984 54.8989L180.406 53.0882L182.158 51.9643Z" fill="#FFDB00"/>
<path d="M176.504 45.7867L174.638 45.6813L174.342 44.0618L173.413 45.6111L171.454 45.494L172.816 46.6257L171.614 48.2101L173.659 47.336L175.138 48.413L174.869 46.7974L176.504 45.7867Z" fill="#FFDB00"/>
<path d="M175.86 39.0784L174.186 38.9808L173.909 37.5994L173.081 38.9184L171.314 38.813L172.543 39.7808L171.466 41.1311L173.304 40.3896L174.638 41.3145L174.396 39.933L175.86 39.0784Z" fill="#FFDB00"/>
<path d="M178.997 33.8843L177.538 33.7984L177.292 32.7096L176.578 33.7438L175.04 33.654L176.113 34.4189L175.185 35.4804L176.781 34.9028L177.944 35.6404L177.725 34.5516L178.997 33.8843Z" fill="#FFDB00"/>
<path d="M207.77 31.4413C207.206 30.1356 206.36 28.9708 205.292 28.0306C204.149 27.0333 202.813 26.2827 201.366 25.8257C199.786 25.3203 198.139 25.0572 196.48 25.0452C196.48 27.1135 196.48 29.1545 196.48 31.2384C197.672 31.3184 198.816 31.7367 199.778 32.4443C200.819 33.2456 201.339 34.4163 201.339 35.9565V36.0501C201.349 36.6858 201.221 37.3161 200.963 37.8971C200.705 38.4781 200.323 38.9957 199.844 39.414C198.845 40.3194 197.443 40.7721 195.637 40.7721H190.775C190.775 42.8208 190.775 44.8267 190.775 46.8716H195.399C197.143 46.8893 198.881 46.662 200.562 46.1965C202.084 45.778 203.513 45.0749 204.773 44.1243C205.965 43.2106 206.932 42.0358 207.598 40.6901C208.312 39.2037 208.665 37.5698 208.629 35.9213V35.8355C208.651 34.327 208.359 32.8304 207.77 31.4413Z" fill="#FFDB00"/>
<path d="M214.759 26.9457H217.647C218.033 26.9401 218.417 26.9994 218.783 27.1213C219.096 27.2285 219.384 27.3985 219.63 27.6208C219.862 27.8391 220.045 28.1054 220.164 28.4013C220.291 28.7161 220.354 29.0532 220.348 29.3926V29.416C220.355 29.788 220.28 30.157 220.129 30.4969C219.988 30.8008 219.778 31.0679 219.516 31.2774C219.247 31.4897 218.94 31.6486 218.611 31.7457C218.249 31.8526 217.873 31.9052 217.495 31.9018H216.324V34.0208H214.763L214.759 26.9457ZM217.546 30.5048C217.709 30.5154 217.874 30.4936 218.029 30.4407C218.184 30.3878 218.328 30.3048 218.451 30.1965C218.557 30.1004 218.64 29.9827 218.696 29.8514C218.752 29.72 218.779 29.5782 218.775 29.4355V29.416C218.782 29.2689 218.756 29.1221 218.698 28.9868C218.64 28.8515 218.551 28.7313 218.439 28.6355C218.172 28.4399 217.845 28.3434 217.514 28.3623H216.316V30.5204L217.546 30.5048Z" fill="#575756"/>
<path d="M221.429 26.6413H222.962V34.0052H221.429V26.6413Z" fill="#575756"/>
<path d="M225.916 34.0989C225.672 34.1003 225.428 34.0648 225.194 33.9935C224.978 33.9281 224.778 33.8192 224.605 33.6735C224.439 33.531 224.306 33.3539 224.215 33.1545C224.114 32.9316 224.065 32.6888 224.071 32.4443C224.061 32.175 224.115 31.9074 224.231 31.6638C224.337 31.4533 224.49 31.2703 224.679 31.1291C224.886 30.9816 225.119 30.8743 225.366 30.813C225.654 30.7399 225.951 30.7045 226.248 30.7077C226.49 30.7048 226.732 30.7243 226.97 30.7662C227.174 30.8071 227.375 30.8618 227.571 30.9301V30.8365C227.58 30.7001 227.558 30.5634 227.508 30.4365C227.457 30.3096 227.379 30.1955 227.278 30.1028C227.028 29.9165 226.719 29.8265 226.408 29.8491C226.146 29.8474 225.885 29.8722 225.628 29.9233C225.386 29.9797 225.149 30.0527 224.917 30.1418L224.527 28.9711C224.826 28.842 225.136 28.7376 225.452 28.6589C225.836 28.5711 226.229 28.5305 226.623 28.5379C226.991 28.5288 227.357 28.5816 227.708 28.694C227.986 28.7854 228.239 28.9389 228.449 29.1428C228.655 29.3503 228.808 29.6047 228.894 29.8843C228.991 30.2028 229.039 30.5346 229.034 30.8677V33.9896H227.552V33.4043C227.361 33.6134 227.132 33.7831 226.876 33.9038C226.575 34.0396 226.247 34.1063 225.916 34.0989ZM226.381 33.0374C226.694 33.0537 227.002 32.9613 227.255 32.776C227.36 32.6956 227.445 32.5915 227.502 32.4721C227.559 32.3526 227.586 32.2214 227.583 32.0891V31.8199C227.438 31.7559 227.288 31.7062 227.134 31.6716C226.959 31.6348 226.782 31.6165 226.603 31.6169C226.33 31.6007 226.058 31.6674 225.823 31.8082C225.732 31.8685 225.659 31.9512 225.61 32.0483C225.56 32.1454 225.537 32.2536 225.542 32.3623V32.3818C225.537 32.4758 225.555 32.5696 225.596 32.6547C225.636 32.7398 225.696 32.8137 225.772 32.8696C225.951 32.9927 226.164 33.0543 226.381 33.0452V33.0374Z" fill="#575756"/>
<path d="M230.357 28.6003H231.891V29.3808C231.979 29.2641 232.074 29.1532 232.176 29.0491C232.282 28.9439 232.398 28.8497 232.523 28.7682C232.656 28.6866 232.799 28.6223 232.949 28.5769C233.119 28.528 233.295 28.5043 233.472 28.5067C233.723 28.4909 233.975 28.5305 234.21 28.6229C234.445 28.7153 234.656 28.8581 234.83 29.0413C235.169 29.4537 235.341 29.9792 235.31 30.5125V34.0247H233.776V31.016C233.795 30.7216 233.706 30.4303 233.526 30.1964C233.439 30.1024 233.333 30.0287 233.214 29.9808C233.095 29.9329 232.967 29.9119 232.839 29.9194C232.709 29.913 232.579 29.9345 232.458 29.9823C232.337 30.03 232.228 30.103 232.137 30.1964C231.952 30.4277 231.861 30.7205 231.883 31.016V34.0247H230.35L230.357 28.6003Z" fill="#575756"/>
<path d="M241.885 34.0989C241.57 34.0984 241.259 34.0361 240.968 33.9155C240.673 33.7924 240.407 33.6089 240.188 33.3769C239.95 33.1216 239.764 32.8237 239.637 32.4989C239.494 32.1174 239.424 31.7122 239.431 31.3047V31.2852C239.424 30.8764 239.494 30.47 239.637 30.0872C239.764 29.7635 239.949 29.4659 240.184 29.2091C240.402 28.9756 240.668 28.7919 240.964 28.6706C241.259 28.5505 241.575 28.4895 241.893 28.4911C242.247 28.4757 242.599 28.5595 242.908 28.733C243.16 28.883 243.387 29.0728 243.579 29.295V26.6335H245.113V33.9974H243.579V33.2169C243.394 33.4693 243.162 33.6839 242.896 33.8491C242.589 34.0262 242.239 34.1128 241.885 34.0989ZM242.275 32.7955C242.45 32.7968 242.623 32.7609 242.783 32.6901C242.94 32.6205 243.081 32.518 243.196 32.3896C243.321 32.2508 243.418 32.0891 243.481 31.9135C243.554 31.7188 243.589 31.5124 243.587 31.3047V31.2852C243.589 31.0763 243.553 30.8687 243.481 30.6725C243.418 30.4981 243.321 30.3377 243.196 30.2003C243.083 30.0695 242.942 29.9656 242.783 29.896C242.623 29.8252 242.45 29.7893 242.275 29.7906C242.1 29.7893 241.925 29.8252 241.764 29.896C241.606 29.9676 241.463 30.0712 241.347 30.2003C241.222 30.3371 241.124 30.4959 241.058 30.6686C240.985 30.8659 240.949 31.075 240.953 31.2852V31.3047C240.95 31.5124 240.986 31.7188 241.058 31.9135C241.124 32.0886 241.222 32.25 241.347 32.3896C241.465 32.5164 241.607 32.6185 241.764 32.6901C241.926 32.7641 242.102 32.8026 242.279 32.8033L242.275 32.7955Z" fill="#575756"/>
<path d="M249.038 34.1262C248.654 34.1308 248.273 34.062 247.914 33.9233C247.578 33.7979 247.272 33.6024 247.017 33.3496C246.762 33.0988 246.56 32.7988 246.424 32.4677C246.279 32.1068 246.208 31.7208 246.213 31.3321V31.3125C246.212 30.9408 246.278 30.5719 246.408 30.2238C246.533 29.8924 246.72 29.5878 246.958 29.3262C247.195 29.069 247.482 28.8631 247.801 28.7213C248.158 28.5682 248.541 28.4893 248.929 28.4893C249.317 28.4893 249.701 28.5682 250.057 28.7213C250.375 28.8754 250.656 29.0964 250.88 29.3691C251.1 29.649 251.264 29.9682 251.364 30.3096C251.468 30.6686 251.52 31.0404 251.52 31.414C251.52 31.4725 251.52 31.5389 251.52 31.6052C251.52 31.6716 251.52 31.7418 251.52 31.816H247.758C247.811 32.1238 247.975 32.4016 248.219 32.5964C248.467 32.7817 248.772 32.8767 249.081 32.8657C249.317 32.87 249.551 32.8248 249.768 32.733C249.998 32.6276 250.209 32.4852 250.393 32.3116L251.271 33.0921C251.018 33.4037 250.702 33.6567 250.342 33.8335C249.936 34.0311 249.49 34.1313 249.038 34.1262ZM250.026 30.8794C249.994 30.5702 249.867 30.2785 249.663 30.0442C249.563 29.9383 249.442 29.8553 249.307 29.8007C249.172 29.7461 249.027 29.7214 248.882 29.7281C248.738 29.7221 248.593 29.7469 248.459 29.8007C248.324 29.8545 248.202 29.9362 248.102 30.0403C247.891 30.2751 247.755 30.5672 247.712 30.8794H250.026Z" fill="#575756"/>
<path d="M255.848 26.9457H259.075C259.449 26.9206 259.823 26.9709 260.176 27.0936C260.53 27.2163 260.855 27.4089 261.132 27.6599C261.337 27.8741 261.496 28.1278 261.6 28.4056C261.704 28.6833 261.751 28.9792 261.737 29.2755V29.295C261.758 29.7943 261.611 30.2864 261.319 30.692C261.034 31.0501 260.654 31.3206 260.223 31.4725L261.948 33.9935H260.133L258.619 31.7574H257.401V34.0169H255.84L255.848 26.9457ZM258.97 30.3721C259.287 30.3928 259.601 30.297 259.852 30.1028C259.954 30.0122 260.034 29.9 260.088 29.7745C260.141 29.649 260.166 29.5132 260.16 29.3769V29.3535C260.17 29.2113 260.146 29.0688 260.089 28.9378C260.033 28.8068 259.946 28.6911 259.836 28.6003C259.575 28.416 259.258 28.3266 258.939 28.3467H257.397V30.3721H258.97Z" fill="#575756"/>
<path d="M265.526 34.1262C265.141 34.1305 264.758 34.0616 264.398 33.9233C264.063 33.7961 263.757 33.6007 263.501 33.3496C263.248 33.0976 263.048 32.7978 262.912 32.4677C262.767 32.1068 262.695 31.7208 262.701 31.3321V31.3125C262.7 30.9408 262.766 30.5719 262.896 30.2238C263.021 29.8924 263.208 29.5878 263.446 29.3262C263.681 29.0673 263.969 28.8611 264.289 28.7213C264.645 28.5682 265.029 28.4893 265.417 28.4893C265.805 28.4893 266.188 28.5682 266.545 28.7213C266.862 28.8745 267.142 29.0956 267.364 29.3691C267.587 29.6471 267.751 29.9669 267.848 30.3096C267.954 30.6682 268.006 31.0402 268.004 31.414C268.004 31.4725 268.004 31.5389 268.004 31.6052C268.004 31.6716 268.004 31.7418 268.004 31.816H264.238C264.291 32.1238 264.455 32.4016 264.699 32.5964C264.947 32.7817 265.252 32.8767 265.561 32.8657C265.797 32.87 266.031 32.8248 266.248 32.733C266.478 32.6276 266.689 32.4852 266.873 32.3116L267.751 33.0921C267.498 33.4037 267.182 33.6567 266.822 33.8335C266.418 34.0295 265.975 34.1296 265.526 34.1262ZM266.513 30.8794C266.482 30.5702 266.355 30.2785 266.151 30.0442C266.051 29.9383 265.93 29.8553 265.795 29.8007C265.66 29.7461 265.515 29.7214 265.37 29.7281C265.225 29.7221 265.081 29.7469 264.946 29.8007C264.812 29.8545 264.69 29.9362 264.59 30.0403C264.378 30.2742 264.242 30.5667 264.199 30.8794H266.513Z" fill="#575756"/>
<path d="M271.715 34.1262C271.328 34.1298 270.944 34.0541 270.588 33.9038C270.254 33.7643 269.952 33.56 269.698 33.3028C269.446 33.0492 269.247 32.7481 269.113 32.4169C268.968 32.0737 268.895 31.7045 268.898 31.3321V31.3125C268.895 30.9389 268.968 30.5686 269.113 30.2238C269.246 29.8889 269.445 29.5838 269.698 29.3262C269.95 29.0653 270.252 28.8594 270.588 28.7213C271.363 28.4115 272.228 28.4115 273.003 28.7213C273.341 28.8818 273.643 29.1073 273.893 29.3847L272.941 30.415C272.785 30.2439 272.603 30.0978 272.402 29.9818C272.191 29.8656 271.952 29.809 271.712 29.8179C271.528 29.8148 271.346 29.8549 271.181 29.935C271.024 30.0137 270.884 30.1209 270.767 30.2511C270.648 30.39 270.557 30.5503 270.498 30.7233C270.431 30.9057 270.398 31.0988 270.4 31.293V31.3125C270.398 31.5119 270.431 31.71 270.498 31.8979C270.557 32.0724 270.652 32.2331 270.775 32.3701C270.896 32.5058 271.043 32.6148 271.208 32.6901C271.386 32.769 271.579 32.8077 271.774 32.8033C272.006 32.8091 272.236 32.7554 272.441 32.6472C272.65 32.5338 272.843 32.3934 273.015 32.2296L273.913 33.1389C273.655 33.4235 273.351 33.6635 273.015 33.8491C272.611 34.047 272.165 34.1422 271.715 34.1262Z" fill="#575756"/>
<path d="M276.718 34.0989C276.467 34.1137 276.215 34.0735 275.98 33.9812C275.746 33.8888 275.534 33.7466 275.36 33.5643C275.02 33.1507 274.849 32.6238 274.88 32.0891V28.5769H276.414V31.5857C276.394 31.879 276.48 32.1698 276.656 32.4052C276.743 32.4993 276.85 32.5729 276.968 32.6209C277.087 32.6688 277.215 32.6897 277.343 32.6823C277.472 32.6891 277.602 32.6678 277.722 32.62C277.843 32.5722 277.952 32.4989 278.041 32.4052C278.228 32.1746 278.32 31.8817 278.299 31.5857V28.5769H279.833V33.9818H278.299V33.2013C278.212 33.3182 278.116 33.4291 278.014 33.533C277.907 33.6359 277.791 33.7287 277.667 33.8101C277.535 33.8945 277.391 33.9602 277.241 34.0052C277.073 34.0621 276.896 34.0937 276.718 34.0989Z" fill="#575756"/>
<path d="M281.206 28.6003H282.74V29.3808C282.923 29.1276 283.153 28.9128 283.419 28.7486C283.724 28.5747 284.071 28.4896 284.422 28.5028C284.738 28.502 285.05 28.5629 285.343 28.6823C285.638 28.805 285.904 28.9885 286.123 29.2208C286.361 29.4754 286.548 29.7735 286.673 30.0989C286.817 30.4817 286.887 30.8881 286.88 31.2969V31.3164C286.887 31.7239 286.817 32.1291 286.673 32.5106C286.55 32.8351 286.366 33.1331 286.131 33.3886C285.912 33.6218 285.646 33.8054 285.351 33.9272C285.056 34.0486 284.74 34.1109 284.422 34.1106C284.069 34.124 283.719 34.0403 283.411 33.8686C283.158 33.7174 282.932 33.5264 282.74 33.3028V35.6247H281.206V28.6003ZM284.032 32.8033C284.206 32.8046 284.379 32.7687 284.539 32.6979C284.697 32.6273 284.839 32.5251 284.956 32.3974C285.081 32.2604 285.179 32.1017 285.245 31.9291C285.318 31.7318 285.353 31.5228 285.351 31.3125V31.293C285.353 31.0841 285.317 30.8765 285.245 30.6803C285.18 30.5057 285.082 30.3453 284.956 30.2081C284.839 30.0815 284.695 29.9812 284.536 29.914C284.376 29.8467 284.205 29.814 284.032 29.8179C283.856 29.8166 283.681 29.8525 283.52 29.9233C283.362 29.994 283.221 30.0978 283.107 30.2277C282.984 30.3662 282.889 30.5264 282.826 30.6999C282.754 30.896 282.718 31.1036 282.72 31.3125V31.3321C282.718 31.5397 282.753 31.7461 282.826 31.9408C282.889 32.1155 282.984 32.2769 283.107 32.4169C283.225 32.5436 283.368 32.6438 283.527 32.7111C283.687 32.7784 283.859 32.8111 284.032 32.8072V32.8033Z" fill="#575756"/>
<path d="M290.576 34.1262C290.192 34.1301 289.811 34.0612 289.452 33.9233C289.116 33.797 288.81 33.6016 288.554 33.3496C288.3 33.0987 288.1 32.7986 287.965 32.4677C287.817 32.1076 287.744 31.7212 287.751 31.3321V31.3125C287.749 30.9404 287.816 30.5712 287.95 30.2238C288.072 29.891 288.259 29.5858 288.5 29.3262C288.735 29.0673 289.022 28.8611 289.343 28.7213C289.698 28.5681 290.081 28.4891 290.469 28.4891C290.856 28.4891 291.239 28.5681 291.594 28.7213C291.914 28.8733 292.195 29.0946 292.418 29.3691C292.639 29.6481 292.803 29.9676 292.902 30.3096C293.007 30.6682 293.06 31.0402 293.058 31.414C293.058 31.4725 293.058 31.5389 293.058 31.6052C293.058 31.6716 293.058 31.7418 293.058 31.816H289.296C289.349 32.1228 289.511 32.4 289.753 32.5964C290.001 32.7812 290.305 32.8761 290.615 32.8657C290.851 32.8705 291.085 32.8252 291.302 32.733C291.532 32.6285 291.743 32.4861 291.926 32.3116L292.804 33.0921C292.554 33.4054 292.236 33.6587 291.875 33.8335C291.471 34.0305 291.026 34.1307 290.576 34.1262ZM291.563 30.8794C291.531 30.5702 291.405 30.2785 291.2 30.0443C291.101 29.9383 290.979 29.8553 290.845 29.8007C290.71 29.7461 290.565 29.7214 290.42 29.7282C290.275 29.7229 290.131 29.748 289.997 29.8017C289.862 29.8555 289.74 29.9368 289.639 30.0404C289.427 30.2742 289.291 30.5667 289.249 30.8794H291.563Z" fill="#575756"/>
<path d="M294.197 28.6003H295.731V29.6891C295.867 29.3451 296.086 29.0396 296.367 28.7994C296.68 28.5668 297.068 28.4596 297.456 28.4989V30.1028H297.374C297.151 30.0896 296.929 30.1242 296.721 30.2044C296.513 30.2845 296.324 30.4082 296.168 30.5672C295.844 30.9736 295.687 31.4889 295.731 32.0072V34.0052H294.197V28.6003Z" fill="#575756"/>
<path d="M299.946 34.0989C299.702 34.1006 299.46 34.0651 299.228 33.9935C299.01 33.9281 298.809 33.8192 298.634 33.6735C298.468 33.531 298.335 33.3539 298.244 33.1545C298.143 32.9316 298.094 32.6888 298.1 32.4443C298.092 32.1752 298.147 31.908 298.26 31.6638C298.366 31.4533 298.52 31.2703 298.709 31.1291C298.916 30.9816 299.149 30.8743 299.395 30.813C299.684 30.7399 299.98 30.7045 300.277 30.7077C300.519 30.7048 300.761 30.7243 300.999 30.7662C301.203 30.8066 301.404 30.8613 301.6 30.9301V30.8365C301.609 30.7001 301.588 30.5634 301.537 30.4365C301.486 30.3096 301.408 30.1955 301.308 30.1028C301.059 29.9171 300.751 29.8271 300.441 29.8491C300.179 29.8476 299.918 29.8724 299.661 29.9233C299.419 29.9797 299.182 30.0527 298.951 30.1418L298.56 28.9711C298.861 28.842 299.172 28.7376 299.489 28.6589C299.873 28.5705 300.266 28.5299 300.66 28.5379C301.028 28.5285 301.394 28.5813 301.745 28.694C302.023 28.7854 302.276 28.9389 302.486 29.1428C302.692 29.3503 302.845 29.6047 302.931 29.8843C303.028 30.2028 303.076 30.5346 303.072 30.8677V33.9896H301.589V33.4043C301.398 33.6134 301.169 33.7831 300.913 33.9038C300.61 34.0407 300.279 34.1074 299.946 34.0989ZM300.41 33.0374C300.723 33.0537 301.032 32.9613 301.284 32.776C301.389 32.6956 301.474 32.5915 301.531 32.4721C301.588 32.3526 301.616 32.2214 301.612 32.0891V31.8199C301.468 31.7554 301.317 31.7057 301.163 31.6716C300.989 31.6346 300.811 31.6163 300.633 31.6169C300.359 31.6007 300.087 31.6674 299.852 31.8082C299.761 31.8685 299.688 31.9512 299.639 32.0483C299.59 32.1454 299.566 32.2536 299.571 32.3623V32.3818C299.567 32.4757 299.586 32.5692 299.626 32.6542C299.666 32.7392 299.726 32.8132 299.801 32.8696C299.98 32.9921 300.194 33.0537 300.41 33.0452V33.0374Z" fill="#575756"/>
<path d="M306.939 34.1262C306.553 34.1301 306.17 34.0544 305.815 33.9038C305.488 33.7671 305.192 33.5683 304.941 33.3184C304.689 33.0648 304.49 32.7637 304.355 32.4325C304.214 32.0884 304.143 31.7197 304.145 31.3477V31.3282C304.143 30.9549 304.215 30.585 304.355 30.2394C304.489 29.9045 304.688 29.5994 304.941 29.3418C305.194 29.0808 305.498 28.8749 305.834 28.7369C306.196 28.5852 306.586 28.5094 306.978 28.5145C307.415 28.4986 307.85 28.5813 308.25 28.7564C308.586 28.917 308.887 29.1425 309.136 29.4199L308.199 30.4306C308.041 30.2613 307.86 30.1154 307.661 29.9974C307.448 29.8817 307.208 29.8251 306.966 29.8335C306.784 29.831 306.603 29.8711 306.439 29.9506C306.282 30.0273 306.141 30.1348 306.026 30.2667C305.906 30.4055 305.813 30.5657 305.753 30.7389C305.688 30.9218 305.655 31.1145 305.655 31.3086V31.3282C305.655 31.5273 305.688 31.7251 305.753 31.9135C305.812 32.088 305.906 32.2487 306.03 32.3857C306.15 32.5214 306.298 32.6304 306.463 32.7057C306.641 32.7842 306.834 32.8229 307.029 32.8189C307.262 32.8247 307.493 32.771 307.7 32.6628C307.907 32.5493 308.099 32.4089 308.27 32.2452L309.167 33.1545C308.91 33.44 308.607 33.6801 308.27 33.8647C307.855 34.0624 307.397 34.1523 306.939 34.1262Z" fill="#575756"/>
<path d="M310.178 26.6413H311.79V28.0033H310.178V26.6413ZM310.217 28.5925H311.751V33.9974H310.217V28.5925Z" fill="#575756"/>
<path d="M315.844 34.1262C315.443 34.1311 315.046 34.0568 314.674 33.9077C314.334 33.7717 314.024 33.5716 313.76 33.3184C313.501 33.0645 313.294 32.7622 313.152 32.4286C313.002 32.0839 312.926 31.7117 312.929 31.336V31.3164C312.927 30.9458 313 30.5785 313.144 30.237C313.289 29.8955 313.501 29.5869 313.768 29.3301C314.034 29.0685 314.35 28.8628 314.697 28.7252C315.068 28.5737 315.466 28.498 315.868 28.5028C316.268 28.4976 316.666 28.5705 317.038 28.7174C317.382 28.8538 317.695 29.0567 317.959 29.3145C318.226 29.5707 318.437 29.8788 318.58 30.2197C318.723 30.5607 318.795 30.9273 318.791 31.2969V31.3164C318.793 31.6917 318.718 32.0636 318.572 32.4091C318.427 32.7445 318.217 33.0481 317.955 33.3028C317.688 33.5623 317.372 33.7677 317.027 33.9077C316.651 34.0593 316.249 34.1337 315.844 34.1262ZM315.864 32.8033C316.067 32.8084 316.27 32.7698 316.457 32.6901C316.624 32.6159 316.773 32.5067 316.894 32.3701C317.017 32.2346 317.112 32.0752 317.171 31.9018C317.236 31.7188 317.269 31.5261 317.269 31.3321V31.3125C317.27 31.118 317.235 30.925 317.167 30.7428C317.102 30.5664 317.002 30.4046 316.874 30.2667C316.745 30.1303 316.592 30.0191 316.422 29.9389C316.237 29.8599 316.038 29.8192 315.836 29.8192C315.635 29.8192 315.436 29.8599 315.251 29.9389C315.085 30.0131 314.936 30.1207 314.814 30.255C314.691 30.3926 314.597 30.553 314.537 30.7272C314.47 30.9096 314.437 31.1027 314.439 31.2969V31.3164C314.437 31.5111 314.471 31.7044 314.541 31.8862C314.605 32.0619 314.705 32.2226 314.834 32.3584C314.958 32.498 315.111 32.6096 315.282 32.6862C315.466 32.7695 315.666 32.8095 315.868 32.8033H315.864ZM316.41 26.216L317.733 26.7935L316.441 28.0033H315.271L316.41 26.216Z" fill="#575756"/>
<path d="M319.891 28.6004H321.425V29.3808C321.515 29.2556 321.614 29.137 321.721 29.0257C321.828 28.9195 321.946 28.8253 322.073 28.7447C322.204 28.6624 322.346 28.5981 322.494 28.5535C322.664 28.5049 322.84 28.4812 323.017 28.4833C323.269 28.4674 323.521 28.5071 323.755 28.5995C323.99 28.6919 324.202 28.8347 324.375 29.0179C324.715 29.4303 324.886 29.9557 324.855 30.4891V34.0013H323.321V30.9925C323.342 30.6991 323.256 30.408 323.079 30.173C322.992 30.079 322.886 30.0053 322.767 29.9574C322.648 29.9095 322.52 29.8885 322.393 29.896C322.263 29.8897 322.134 29.9112 322.013 29.959C321.893 30.0067 321.784 30.0797 321.694 30.173C321.507 30.4037 321.415 30.6966 321.436 30.9925V34.0013H319.903L319.891 28.6004Z" fill="#575756"/>
<path d="M325.753 35.0043C326.459 34.9301 326.791 34.614 326.736 34.0052H326.115V32.3896H327.739V33.7516C327.764 34.0121 327.734 34.2751 327.651 34.5233C327.567 34.7715 327.433 34.9992 327.255 35.1916C326.869 35.507 326.379 35.667 325.881 35.6404L325.753 35.0043Z" fill="#575756"/>
<path d="M216.313 38.973H214.162V37.5408H220.016V38.973H217.866V44.6042H216.305L216.313 38.973Z" fill="#575756"/>
<path d="M221.038 39.1955H222.572V40.2843C222.709 39.9419 222.928 39.638 223.208 39.3984C223.52 39.1645 223.909 39.0559 224.297 39.094V40.6979H224.219C223.997 40.6862 223.774 40.7216 223.566 40.8016C223.359 40.8816 223.17 41.0045 223.013 41.1623C222.687 41.5695 222.529 42.0862 222.572 42.6062V44.6043H221.038V39.1955Z" fill="#575756"/>
<path d="M226.794 44.7018C226.55 44.7035 226.306 44.668 226.073 44.5964C225.857 44.5316 225.657 44.4241 225.483 44.2803C225.317 44.1381 225.183 43.9609 225.093 43.7613C224.992 43.5385 224.941 43.2959 224.945 43.0511V43.0277C224.936 42.7586 224.991 42.4913 225.105 42.2472C225.21 42.036 225.364 41.8527 225.554 41.7125C225.761 41.5657 225.994 41.4586 226.24 41.3965C226.528 41.3203 226.825 41.2835 227.122 41.2872C227.364 41.2833 227.606 41.3042 227.844 41.3496C228.051 41.3896 228.254 41.4444 228.453 41.5135V41.4238C228.462 41.2868 228.441 41.1495 228.39 41.0218C228.34 40.8942 228.261 40.7796 228.16 40.6862C227.911 40.5019 227.603 40.4133 227.294 40.4364C227.032 40.4328 226.77 40.4577 226.514 40.5106C226.272 40.5658 226.034 40.6388 225.803 40.7291L225.413 39.5584C225.713 39.4276 226.024 39.3232 226.342 39.2462C226.726 39.158 227.119 39.1173 227.513 39.1252C227.88 39.1165 228.247 39.1692 228.597 39.2813C228.875 39.3712 229.128 39.5249 229.335 39.7301C229.542 39.937 229.695 40.1917 229.78 40.4716C229.877 40.7901 229.925 41.1219 229.92 41.455V44.5769H228.437V43.9916C228.247 44.2007 228.018 44.3704 227.762 44.4911C227.459 44.6317 227.129 44.7036 226.794 44.7018ZM227.259 43.6442C227.57 43.6606 227.878 43.5682 228.129 43.3828C228.235 43.3005 228.319 43.1941 228.375 43.0727C228.432 42.9512 228.458 42.818 228.453 42.6843V42.4111C228.309 42.348 228.158 42.2996 228.004 42.2667C227.83 42.2278 227.652 42.2095 227.474 42.2121C227.2 42.1963 226.928 42.2629 226.693 42.4033C226.602 42.4631 226.528 42.5457 226.479 42.6429C226.429 42.7401 226.406 42.8486 226.412 42.9574C226.408 43.0507 226.427 43.1436 226.467 43.2279C226.507 43.3122 226.567 43.3855 226.642 43.4413C226.82 43.5747 227.037 43.6459 227.259 43.6442Z" fill="#575756"/>
<path d="M231.232 39.1955H232.765V39.976C232.853 39.8595 232.949 39.7499 233.054 39.6482C233.158 39.5411 233.275 39.4467 233.401 39.3672C233.533 39.2844 233.674 39.2188 233.823 39.1721C233.994 39.1231 234.171 39.0995 234.35 39.1018C234.601 39.0866 234.852 39.1265 235.086 39.2189C235.32 39.3113 235.531 39.4538 235.704 39.6365C236.043 40.0504 236.215 40.577 236.184 41.1116V44.6238H234.65V41.615C234.672 41.3202 234.586 41.0274 234.408 40.7916C234.321 40.698 234.214 40.6249 234.095 40.5777C233.977 40.5304 233.849 40.5102 233.721 40.5184C233.592 40.5119 233.463 40.5329 233.343 40.58C233.222 40.627 233.113 40.6992 233.023 40.7916C232.835 41.0232 232.743 41.3177 232.765 41.615V44.6238H231.232V39.1955Z" fill="#575756"/>
<path d="M239.411 44.7018C239.013 44.6998 238.618 44.6339 238.24 44.5067C237.827 44.3661 237.44 44.1562 237.097 43.8862L237.753 42.8794C238.023 43.0797 238.32 43.2424 238.634 43.3633C238.898 43.4638 239.176 43.518 239.458 43.5233C239.628 43.5365 239.798 43.4985 239.946 43.414C239.995 43.3826 240.035 43.3393 240.062 43.288C240.089 43.2368 240.103 43.1794 240.102 43.1213V43.0979C240.1 43.0187 240.068 42.943 240.012 42.8872C239.94 42.8211 239.857 42.7682 239.766 42.7311C239.649 42.6835 239.529 42.6418 239.407 42.6062L238.982 42.4735C238.789 42.4184 238.598 42.3533 238.412 42.2784C238.225 42.2026 238.05 42.1 237.893 41.974C237.733 41.85 237.6 41.6946 237.503 41.5174C237.401 41.3102 237.351 41.081 237.358 40.8501V40.8306C237.352 40.5886 237.4 40.3482 237.5 40.1278C237.6 39.9073 237.749 39.7126 237.936 39.5584C238.121 39.4071 238.335 39.2943 238.564 39.2267C238.817 39.1492 239.08 39.111 239.345 39.1135C239.7 39.1168 240.052 39.1734 240.391 39.2813C240.734 39.3884 241.062 39.5434 241.362 39.7418L240.777 40.7994C240.529 40.6534 240.267 40.5306 239.996 40.4325C239.78 40.3481 239.55 40.3018 239.317 40.296C239.169 40.2854 239.022 40.3223 238.896 40.4013C238.852 40.4313 238.817 40.4715 238.792 40.5185C238.768 40.5654 238.755 40.6176 238.755 40.6706V40.6901C238.755 40.7272 238.763 40.7639 238.779 40.7976C238.794 40.8314 238.817 40.8613 238.845 40.8852C238.918 40.95 238.999 41.0039 239.087 41.0452C239.2 41.1012 239.316 41.1507 239.434 41.1935L239.852 41.334C240.043 41.3964 240.242 41.4667 240.43 41.5525C240.617 41.6296 240.793 41.732 240.953 41.8569C241.112 41.9768 241.245 42.1282 241.343 42.3018C241.449 42.4966 241.502 42.7161 241.495 42.9379V42.9574C241.502 43.226 241.449 43.4927 241.339 43.7379C241.239 43.9503 241.089 44.1351 240.902 44.2764C240.702 44.4217 240.477 44.5288 240.238 44.5925C239.969 44.6673 239.691 44.7041 239.411 44.7018Z" fill="#575756"/>
<path d="M242.841 40.5067H242.205V39.2462H242.841V38.9028C242.811 38.4308 242.97 37.9661 243.282 37.6111C243.451 37.4619 243.647 37.3478 243.86 37.2754C244.073 37.2031 244.299 37.1739 244.523 37.1896C244.731 37.1867 244.938 37.1997 245.144 37.2286C245.303 37.2523 245.459 37.2888 245.612 37.3379V38.6101C245.504 38.5709 245.393 38.5384 245.28 38.5125C245.161 38.4877 245.039 38.4759 244.917 38.4774C244.547 38.4774 244.363 38.6725 244.363 39.0628V39.2774H245.604V40.5262H244.375V44.6238H242.841V40.5067Z" fill="#575756"/>
<path d="M249.085 44.7252C248.684 44.7301 248.287 44.6558 247.914 44.5067C247.571 44.3694 247.257 44.1681 246.99 43.9135C246.731 43.6588 246.525 43.3567 246.381 43.0238C246.231 42.679 246.156 42.3068 246.158 41.9311V41.9038C246.156 41.528 246.231 41.1558 246.381 40.8111C246.527 40.4763 246.736 40.1729 246.997 39.9174C247.266 39.6583 247.581 39.453 247.926 39.3125C248.298 39.161 248.696 39.0853 249.097 39.0901C249.498 39.0862 249.895 39.1604 250.268 39.3086C250.609 39.442 250.92 39.6418 251.183 39.8963C251.446 40.1509 251.657 40.4552 251.801 40.7916C251.948 41.1371 252.022 41.5089 252.02 41.8842V41.9038C252.022 42.2803 251.948 42.6534 251.801 43.0003C251.655 43.3351 251.446 43.6385 251.185 43.894C250.916 44.1523 250.601 44.3575 250.256 44.4989C249.885 44.6517 249.487 44.7286 249.085 44.7252ZM249.105 43.4023C249.309 43.4062 249.511 43.3662 249.698 43.2852C249.864 43.211 250.013 43.1034 250.135 42.9691C250.257 42.8324 250.351 42.6734 250.412 42.5008C250.476 42.3177 250.509 42.1251 250.51 41.9311V41.9038C250.51 41.7093 250.476 41.5164 250.408 41.334C250.343 41.1588 250.243 40.9983 250.115 40.8618C249.986 40.7254 249.833 40.6142 249.663 40.534C249.482 40.4513 249.284 40.41 249.085 40.413C248.883 40.4091 248.682 40.449 248.496 40.5301C248.329 40.603 248.18 40.7108 248.059 40.8462C247.937 40.9838 247.842 41.1425 247.778 41.3145C247.715 41.4978 247.683 41.6904 247.684 41.8842V41.9038C247.683 42.0983 247.718 42.2913 247.786 42.4735C247.85 42.6504 247.95 42.8124 248.078 42.9496C248.205 43.0868 248.358 43.1981 248.527 43.2774C248.708 43.3622 248.905 43.4049 249.105 43.4023Z" fill="#575756"/>
<path d="M253.132 39.1955H254.666V40.2843C254.802 39.9422 255.019 39.6382 255.298 39.3984C255.611 39.1635 256.001 39.0549 256.391 39.094V40.6979H256.309C256.086 40.6862 255.864 40.7216 255.656 40.8016C255.448 40.8816 255.26 41.0045 255.103 41.1623C254.778 41.5701 254.622 42.0867 254.666 42.6062V44.6043H253.132V39.1955Z" fill="#575756"/>
<path d="M257.331 39.1955H258.892V39.976C258.981 39.8604 259.077 39.7509 259.181 39.6482C259.285 39.5411 259.402 39.4467 259.528 39.3672C259.662 39.2836 259.806 39.218 259.957 39.1721C260.13 39.1231 260.309 39.0995 260.488 39.1018C260.809 39.0933 261.127 39.17 261.409 39.3243C261.668 39.4702 261.878 39.6886 262.014 39.9526C262.227 39.6853 262.493 39.4647 262.794 39.3047C263.103 39.1558 263.443 39.081 263.786 39.0862C264.032 39.0724 264.279 39.1101 264.51 39.1967C264.741 39.2834 264.952 39.4172 265.128 39.5896C265.476 40.0024 265.649 40.5342 265.612 41.0726V44.5847H264.078V41.576C264.099 41.2826 264.016 40.9912 263.844 40.7525C263.762 40.6592 263.659 40.5861 263.544 40.5387C263.429 40.4913 263.305 40.471 263.181 40.4794C263.054 40.4723 262.927 40.4931 262.809 40.5403C262.691 40.5875 262.585 40.6599 262.498 40.7525C262.318 40.9878 262.231 41.2807 262.252 41.576V44.5847H260.718V41.576C260.738 41.2832 260.657 40.9925 260.488 40.7525C260.405 40.6596 260.301 40.5868 260.186 40.5394C260.07 40.4921 259.945 40.4716 259.821 40.4794C259.694 40.4728 259.567 40.4939 259.449 40.541C259.331 40.5882 259.225 40.6603 259.138 40.7525C258.958 40.9878 258.871 41.2807 258.892 41.576V44.5847H257.331V39.1955Z" fill="#575756"/>
<path d="M268.465 44.7018C268.22 44.7035 267.977 44.668 267.743 44.5964C267.527 44.5316 267.327 44.4241 267.153 44.2803C266.988 44.1371 266.855 43.9601 266.763 43.7613C266.662 43.5385 266.611 43.2959 266.615 43.0511V43.0277C266.607 42.7586 266.661 42.4913 266.775 42.2472C266.88 42.0349 267.036 41.8515 267.228 41.7125C267.433 41.565 267.665 41.4578 267.911 41.3964C268.198 41.3203 268.495 41.2835 268.793 41.2872C269.035 41.2833 269.277 41.3042 269.514 41.3496C269.718 41.3887 269.919 41.4421 270.115 41.5096V41.4199C270.125 41.2829 270.103 41.1455 270.053 41.0179C270.002 40.8903 269.923 40.7756 269.823 40.6823C269.573 40.498 269.266 40.4094 268.956 40.4325C268.694 40.4284 268.433 40.4533 268.176 40.5067C267.933 40.5613 267.694 40.6343 267.462 40.7252L267.072 39.5545C267.371 39.4237 267.682 39.3192 268 39.2423C268.384 39.1545 268.777 39.1139 269.171 39.1213C269.539 39.1125 269.906 39.1653 270.256 39.2774C270.534 39.3683 270.788 39.5218 270.997 39.7262C271.202 39.9344 271.353 40.1887 271.438 40.4677C271.537 40.786 271.586 41.1178 271.583 41.4511V44.573H270.1V43.9877C269.913 44.2073 269.685 44.3877 269.429 44.5184C269.125 44.649 268.796 44.7116 268.465 44.7018ZM268.929 43.6442C269.241 43.6606 269.548 43.5682 269.799 43.3828C269.904 43.302 269.988 43.1978 270.045 43.0785C270.102 42.9592 270.13 42.8281 270.127 42.696V42.4228C269.983 42.3597 269.832 42.3113 269.678 42.2784C269.505 42.2397 269.329 42.2214 269.152 42.2238C268.878 42.2083 268.606 42.2749 268.371 42.415C268.28 42.4748 268.206 42.5574 268.157 42.6546C268.107 42.7518 268.084 42.8603 268.09 42.9691C268.086 43.0629 268.105 43.1562 268.146 43.2407C268.187 43.3251 268.248 43.3981 268.324 43.453C268.499 43.5813 268.712 43.6485 268.929 43.6442Z" fill="#575756"/>
<path d="M275.454 44.7252C275.068 44.7284 274.686 44.6527 274.33 44.5028C273.997 44.3642 273.695 44.1611 273.442 43.9052C273.188 43.6494 272.987 43.3458 272.851 43.0121C272.709 42.6694 272.638 42.3019 272.64 41.9311V41.9038C272.639 41.5305 272.71 41.1606 272.851 40.815C272.986 40.4808 273.185 40.176 273.436 39.9174C273.692 39.6589 273.995 39.4534 274.33 39.3125C274.692 39.1611 275.081 39.0854 275.473 39.0901C275.91 39.0758 276.345 39.1584 276.746 39.3321C277.081 39.4954 277.382 39.722 277.632 39.9994L276.695 41.0062C276.535 40.8392 276.354 40.6936 276.156 40.573C275.944 40.4609 275.706 40.4057 275.466 40.413C275.282 40.4099 275.1 40.45 274.935 40.5301C274.777 40.6055 274.636 40.7131 274.521 40.8462C274.404 40.9852 274.311 41.1437 274.248 41.3145C274.185 41.4978 274.154 41.6904 274.154 41.8843V41.9038C274.153 42.1028 274.184 42.3007 274.248 42.4891C274.309 42.6641 274.403 42.8258 274.525 42.9652C274.647 43.0985 274.794 43.206 274.958 43.2813C275.136 43.3612 275.329 43.4012 275.524 43.3984C275.758 43.4046 275.989 43.3509 276.195 43.2423C276.401 43.1262 276.592 42.986 276.765 42.8247L277.663 43.7301C277.405 44.0157 277.101 44.257 276.765 44.4443C276.358 44.6454 275.908 44.742 275.454 44.7252Z" fill="#575756"/>
<path d="M278.693 37.2403H280.305V38.6023H278.693V37.2403ZM278.732 39.1916H280.266V44.6003H278.732V39.1916Z" fill="#575756"/>
<path d="M284.363 44.7252C283.963 44.7292 283.565 44.6549 283.193 44.5067C282.85 44.3703 282.537 44.1689 282.272 43.9135C282.011 43.6601 281.803 43.3577 281.659 43.0238C281.509 42.679 281.434 42.3068 281.436 41.9311V41.9038C281.434 41.528 281.509 41.1558 281.659 40.8111C281.805 40.4763 282.014 40.1729 282.275 39.9174C282.544 39.6583 282.859 39.453 283.204 39.3125C283.576 39.1611 283.974 39.0855 284.375 39.0901C284.776 39.0853 285.174 39.1595 285.546 39.3086C285.888 39.445 286.201 39.6464 286.467 39.9018C286.727 40.1553 286.936 40.4576 287.079 40.7916C287.229 41.1363 287.305 41.5085 287.302 41.8843V41.9038C287.304 42.2807 287.228 42.6541 287.079 43.0004C286.933 43.3351 286.724 43.6385 286.463 43.894C286.195 44.1531 285.879 44.3584 285.534 44.4989C285.163 44.6518 284.765 44.7288 284.363 44.7252ZM284.383 43.4023C284.585 43.4062 284.786 43.3663 284.972 43.2852C285.138 43.211 285.287 43.1034 285.409 42.9691C285.531 42.8324 285.625 42.6734 285.686 42.5008C285.752 42.3182 285.785 42.1253 285.784 41.9311V41.9038C285.784 41.7093 285.75 41.5164 285.682 41.334C285.617 41.1588 285.517 40.9983 285.39 40.8618C285.261 40.7245 285.107 40.6132 284.937 40.534C284.757 40.4518 284.561 40.4105 284.363 40.413C284.159 40.4092 283.957 40.4491 283.77 40.5301C283.603 40.603 283.454 40.7108 283.333 40.8462C283.211 40.9829 283.117 41.142 283.056 41.3145C282.99 41.4971 282.957 41.6901 282.958 41.8843V41.9038C282.957 42.0983 282.992 42.2913 283.06 42.4735C283.124 42.6504 283.224 42.8124 283.353 42.9496C283.48 43.086 283.633 43.1972 283.801 43.2774C283.983 43.3621 284.182 43.4048 284.383 43.4023ZM284.925 36.8306L286.248 37.4043L284.956 38.6179H283.786L284.925 36.8306Z" fill="#575756"/>
<path d="M288.406 39.1955H289.94V39.976C290.028 39.8595 290.124 39.7499 290.229 39.6482C290.333 39.5411 290.449 39.4467 290.576 39.3672C290.707 39.2844 290.849 39.2188 290.997 39.1721C291.169 39.1231 291.346 39.0995 291.524 39.1018C291.775 39.0866 292.027 39.1265 292.261 39.2189C292.495 39.3113 292.705 39.4538 292.878 39.6365C293.218 40.0504 293.389 40.577 293.358 41.1116V44.6238H291.825V41.615C291.847 41.3202 291.761 41.0274 291.583 40.7916C291.496 40.698 291.389 40.6249 291.27 40.5777C291.151 40.5304 291.024 40.5102 290.896 40.5184C290.767 40.5119 290.638 40.5329 290.517 40.58C290.397 40.627 290.288 40.6992 290.197 40.7916C290.01 41.0232 289.918 41.3177 289.94 41.615V44.6238H288.406V39.1955Z" fill="#575756"/>
<path d="M216.796 56.4677C216.544 56.4714 216.293 56.4372 216.051 56.3662C215.836 56.2994 215.629 56.2077 215.434 56.093L215.95 54.9847C216.054 55.0451 216.163 55.0947 216.277 55.133C216.382 55.173 216.493 55.1941 216.605 55.1955C216.715 55.1998 216.825 55.1742 216.921 55.1213C217.017 55.0475 217.092 54.9509 217.14 54.8403L215.021 49.416H216.644L217.873 53.096L219.044 49.416H220.648L218.572 54.9535C218.484 55.1964 218.376 55.4313 218.248 55.656C218.143 55.8315 218.012 55.9896 217.858 56.1242C217.722 56.244 217.563 56.3332 217.39 56.3857C217.197 56.442 216.997 56.4696 216.796 56.4677Z" fill="#575756"/>
<path d="M224.746 47.7574H227.973C228.346 47.7323 228.721 47.7826 229.074 47.9053C229.427 48.028 229.752 48.2206 230.03 48.4716C230.235 48.6856 230.395 48.9392 230.499 49.217C230.603 49.4948 230.649 49.7909 230.634 50.0872C230.657 50.5866 230.509 51.0788 230.217 51.4842C229.932 51.8423 229.552 52.1128 229.12 52.2647L230.849 54.7857H229.031L227.516 52.5262H226.299V54.7857H224.738L224.746 47.7574ZM227.868 51.1877C228.185 51.208 228.499 51.1108 228.75 50.9145C228.852 50.8239 228.932 50.7118 228.985 50.5862C229.039 50.4607 229.063 50.3249 229.058 50.1886V50.1691C229.068 50.0263 229.044 49.8831 228.987 49.7514C228.931 49.6198 228.844 49.5034 228.734 49.4121C228.472 49.2294 228.156 49.1401 227.836 49.1584H226.275V51.1877H227.868Z" fill="#575756"/>
<path d="M234.439 54.9418C234.054 54.9456 233.672 54.8781 233.312 54.7428C232.977 54.6144 232.672 54.4186 232.416 54.1675C232.161 53.9165 231.959 53.6155 231.825 53.2833C231.68 52.9224 231.609 52.5364 231.614 52.1477V52.1282C231.613 51.7564 231.679 51.3875 231.809 51.0394C231.934 50.708 232.121 50.4034 232.359 50.1418C232.596 49.8841 232.883 49.6781 233.202 49.5369C233.55 49.384 233.927 49.3094 234.307 49.3184C234.71 49.3095 235.11 49.3922 235.477 49.5603C235.796 49.7135 236.076 49.9362 236.297 50.2121C236.52 50.4886 236.684 50.8071 236.781 51.1486C236.887 51.5071 236.941 51.8791 236.941 52.253C236.941 52.3155 236.941 52.3779 236.941 52.4443C236.941 52.5106 236.941 52.5847 236.941 52.655H233.136C233.188 52.9628 233.352 53.2406 233.596 53.4355C233.845 53.6207 234.149 53.7157 234.459 53.7047C234.695 53.709 234.929 53.6638 235.146 53.5721C235.375 53.4666 235.586 53.3242 235.77 53.1506L236.648 53.9311C236.396 54.2427 236.079 54.4957 235.719 54.6725C235.319 54.8581 234.881 54.9502 234.439 54.9418ZM235.427 51.695C235.395 51.3868 235.269 51.0961 235.064 50.8638C234.965 50.7565 234.844 50.6723 234.709 50.617C234.574 50.5617 234.429 50.5367 234.283 50.5438C234.139 50.5378 233.994 50.5625 233.86 50.6163C233.725 50.6701 233.603 50.7518 233.503 50.856C233.292 51.0907 233.156 51.3828 233.113 51.695H235.427Z" fill="#575756"/>
<path d="M239.957 54.9223C239.107 54.9228 238.282 54.6353 237.616 54.1067L238.272 53.096C238.541 53.2977 238.838 53.4606 239.153 53.5799C239.416 53.6837 239.695 53.7392 239.977 53.7438C240.147 53.7566 240.317 53.7171 240.465 53.6306C240.514 53.5992 240.554 53.5559 240.581 53.5046C240.608 53.4534 240.622 53.396 240.621 53.3379V53.3184C240.622 53.2789 240.615 53.2396 240.599 53.2032C240.584 53.1668 240.56 53.1342 240.531 53.1077C240.461 53.0395 240.377 52.9864 240.285 52.9516C240.18 52.9086 240.059 52.8657 239.926 52.8228L239.501 52.694C239.313 52.6394 239.111 52.573 238.931 52.495C238.744 52.4222 238.569 52.3208 238.412 52.1945C238.252 52.0689 238.119 51.9123 238.022 51.734C237.919 51.5284 237.869 51.3003 237.877 51.0706V51.0472C237.872 50.7951 237.925 50.5452 238.033 50.3174C238.136 50.1109 238.279 49.9276 238.455 49.7789C238.64 49.627 238.854 49.513 239.083 49.4433C239.337 49.3693 239.6 49.3325 239.864 49.334C240.218 49.3354 240.569 49.392 240.906 49.5018C241.251 49.6076 241.579 49.7613 241.881 49.9584L241.296 51.0199C241.047 50.8743 240.786 50.7503 240.515 50.6491C240.299 50.5666 240.071 50.5205 239.84 50.5125C239.69 50.5026 239.541 50.5409 239.415 50.6218C239.372 50.6512 239.336 50.6907 239.312 50.737C239.287 50.7833 239.274 50.8348 239.274 50.8872V50.9067C239.275 50.9442 239.283 50.9812 239.299 51.0154C239.314 51.0496 239.337 51.0803 239.364 51.1057C239.438 51.1692 239.519 51.223 239.606 51.2657C239.708 51.3164 239.825 51.3633 239.953 51.414L240.375 51.5545C240.562 51.613 240.765 51.6872 240.949 51.7691C241.135 51.849 241.311 51.9527 241.472 52.0774C241.63 52.1986 241.762 52.3498 241.862 52.5223C241.967 52.7174 242.018 52.937 242.01 53.1584V53.1779C242.017 53.4465 241.964 53.7133 241.854 53.9584C241.755 54.1721 241.605 54.3583 241.417 54.5008C241.218 54.646 240.995 54.7532 240.757 54.8169C240.497 54.8876 240.228 54.9231 239.957 54.9223Z" fill="#575756"/>
<path d="M243.154 47.4569H244.769V48.8189H243.154V47.4569ZM243.193 49.4082H244.726V54.8208H243.193V49.4082Z" fill="#575756"/>
<path d="M246.24 47.4569H247.774V54.8208H246.24V47.4569Z" fill="#575756"/>
<path d="M249.245 47.4569H250.861V48.8189H249.245V47.4569ZM249.288 49.4082H250.818V54.8208H249.288V49.4082Z" fill="#575756"/>
<path d="M254.826 54.9418C254.441 54.9456 254.058 54.8781 253.698 54.7428C253.363 54.6144 253.059 54.4186 252.803 54.1675C252.547 53.9165 252.346 53.6155 252.211 53.2833C252.067 52.9224 251.995 52.5364 252 52.1477V52.1282C251.999 51.7564 252.065 51.3875 252.195 51.0394C252.32 50.708 252.507 50.4034 252.746 50.1418C252.982 49.8841 253.269 49.6781 253.589 49.5369C253.93 49.3855 254.3 49.3096 254.674 49.3145C255.077 49.3056 255.477 49.3883 255.844 49.5564C256.163 49.7096 256.443 49.9323 256.664 50.2082C256.886 50.4847 257.051 50.8032 257.148 51.1447C257.254 51.5032 257.308 51.8752 257.308 52.2491C257.308 52.3116 257.308 52.374 257.308 52.4403C257.308 52.5067 257.308 52.5808 257.308 52.6511H253.546C253.598 52.959 253.762 53.2368 254.006 53.4316C254.255 53.6168 254.559 53.7118 254.869 53.7008C255.103 53.7055 255.336 53.6603 255.552 53.5682C255.783 53.4638 255.995 53.3213 256.18 53.1467L257.058 53.9272C256.806 54.2388 256.489 54.4918 256.129 54.6686C255.722 54.859 255.275 54.9525 254.826 54.9418ZM255.813 51.695C255.782 51.3868 255.655 51.0961 255.45 50.8638C255.351 50.7565 255.23 50.6723 255.095 50.617C254.961 50.5617 254.815 50.5367 254.67 50.5438C254.525 50.5387 254.381 50.5639 254.246 50.6177C254.112 50.6714 253.99 50.7526 253.889 50.856C253.678 51.0906 253.543 51.3827 253.499 51.695H255.813Z" fill="#575756"/>
<path d="M258.447 49.416H259.977V50.1964C260.066 50.0796 260.162 49.9688 260.266 49.8647C260.371 49.7595 260.487 49.6665 260.613 49.5877C260.745 49.5033 260.888 49.4376 261.038 49.3925C261.208 49.3433 261.384 49.3197 261.561 49.3223C261.813 49.3075 262.065 49.3477 262.299 49.44C262.534 49.5324 262.745 49.6746 262.919 49.8569C263.259 50.2693 263.431 50.7948 263.399 51.3282V54.8403H261.866V51.8316C261.887 51.5381 261.801 51.247 261.624 51.0121C261.537 50.9182 261.43 50.8447 261.311 50.7968C261.193 50.7489 261.065 50.7278 260.937 50.735C260.807 50.7287 260.677 50.7501 260.556 50.7979C260.435 50.8456 260.325 50.9187 260.234 51.0121C260.048 51.2427 259.956 51.5356 259.977 51.8316V54.8403H258.447V49.416Z" fill="#575756"/>
<path d="M267.282 54.9418C266.896 54.9458 266.514 54.87 266.158 54.7194C265.825 54.5831 265.522 54.3813 265.268 54.1259C265.014 53.8705 264.814 53.5667 264.679 53.2325C264.538 52.8884 264.466 52.5197 264.469 52.1477V52.1282C264.467 51.7549 264.538 51.385 264.679 51.0394C264.813 50.7045 265.012 50.3994 265.265 50.1418C265.519 49.8821 265.823 49.6764 266.158 49.5369C266.52 49.3852 266.909 49.3094 267.302 49.3145C267.739 49.3002 268.173 49.3828 268.574 49.5564C268.91 49.717 269.211 49.9425 269.46 50.2199L268.523 51.2306C268.365 51.0613 268.184 50.9154 267.985 50.7974C267.772 50.6817 267.532 50.6251 267.29 50.6335C267.108 50.631 266.927 50.6711 266.763 50.7506C266.605 50.8274 266.464 50.9363 266.35 51.0706C266.229 51.2074 266.136 51.3665 266.076 51.5389C266.012 51.7219 265.979 51.9146 265.979 52.1086V52.1282C265.979 52.3274 266.012 52.5252 266.076 52.7135C266.135 52.8885 266.229 53.0493 266.353 53.1857C266.474 53.3214 266.622 53.4304 266.787 53.5057C266.964 53.5856 267.158 53.6256 267.353 53.6228C267.586 53.6266 267.816 53.573 268.024 53.4667C268.23 53.3504 268.422 53.2089 268.593 53.0452L269.491 53.9545C269.234 54.24 268.93 54.4801 268.593 54.6647C268.187 54.8666 267.736 54.962 267.282 54.9418Z" fill="#575756"/>
<path d="M270.521 47.4569H272.133V48.8189H270.521V47.4569ZM270.56 49.4082H272.094V54.8208H270.56V49.4082Z" fill="#575756"/>
<path d="M275.068 54.9223C274.824 54.924 274.582 54.8885 274.35 54.8169C274.133 54.7522 273.931 54.6447 273.756 54.5008C273.591 54.356 273.458 54.1778 273.366 53.9779C273.265 53.755 273.216 53.5123 273.222 53.2677V53.2482C273.211 52.9789 273.266 52.711 273.382 52.4677C273.486 52.2558 273.64 52.0723 273.831 51.933C274.036 51.7825 274.27 51.6738 274.517 51.613C274.806 51.5399 275.102 51.5045 275.399 51.5077C275.641 51.5047 275.883 51.5244 276.121 51.5662C276.325 51.6089 276.525 51.6636 276.722 51.7301V51.6599C276.732 51.5229 276.71 51.3856 276.659 51.2579C276.609 51.1303 276.53 51.0156 276.43 50.9223C276.179 50.736 275.87 50.646 275.559 50.6686C275.297 50.6661 275.035 50.6922 274.779 50.7467C274.537 50.8017 274.3 50.8734 274.069 50.9613L273.678 49.7906C273.978 49.6633 274.288 49.5589 274.603 49.4784C274.987 49.3925 275.38 49.3519 275.774 49.3574C276.142 49.3503 276.508 49.403 276.859 49.5135C277.137 49.6049 277.39 49.7584 277.6 49.9623C277.806 50.1698 277.959 50.4242 278.045 50.7038C278.143 51.0223 278.19 51.3541 278.186 51.6872V54.8091H276.703V54.2238C276.514 54.434 276.284 54.6039 276.028 54.7233C275.727 54.8604 275.399 54.9284 275.068 54.9223ZM275.532 53.8647C275.845 53.8799 276.154 53.7861 276.406 53.5994C276.511 53.5199 276.596 53.4164 276.653 53.2976C276.71 53.1788 276.738 53.0482 276.734 52.9164V52.6433C276.59 52.5793 276.439 52.5297 276.285 52.495C276.111 52.4583 275.933 52.4399 275.754 52.4403C275.481 52.426 275.21 52.4925 274.974 52.6316C274.883 52.6919 274.81 52.7747 274.761 52.8717C274.712 52.9688 274.688 53.077 274.693 53.1857V53.2208C274.688 53.3142 274.707 53.4073 274.747 53.4918C274.787 53.5762 274.848 53.6494 274.923 53.7047C275.104 53.8223 275.317 53.8784 275.532 53.8647Z" fill="#575756"/>
</g>
<path d="M240.374 84.6514C240.374 87.4102 239.325 88.5454 237.623 88.5454C235.92 88.5454 234.871 87.4102 234.871 84.6514C234.871 81.9049 235.92 80.7697 237.623 80.7697C239.325 80.733 240.374 81.8683 240.374 84.6514ZM235.809 84.6514C235.809 85.274 235.883 85.8233 235.982 86.2383L238.98 82.2833C238.659 81.734 238.215 81.5631 237.623 81.5631C236.549 81.5631 235.809 82.2833 235.809 84.6514ZM239.436 84.6514C239.436 83.9312 239.362 83.3819 239.251 82.9303L236.228 86.8975C236.549 87.4712 237.03 87.7154 237.623 87.7154C238.696 87.7154 239.436 86.9952 239.436 84.6514Z" fill="#1F335E"/>
<path d="M240.202 95.6376C240.202 97.1879 239.19 98.2499 237.697 98.2499C235.883 98.2499 234.982 96.9804 234.982 94.539C234.982 91.9145 235.982 90.4741 237.796 90.4741C239.054 90.4741 239.881 91.1211 240.09 92.3296L239.116 92.5371C238.943 91.6704 238.486 91.2676 237.796 91.2676C236.611 91.2676 235.982 92.2563 235.957 94.185C236.303 93.5014 236.994 93.123 237.87 93.123C239.288 93.0864 240.202 94.0873 240.202 95.6376ZM239.227 95.6376C239.227 94.5634 238.635 93.8798 237.697 93.8798C236.858 93.8798 236.266 94.3925 235.982 95.3935C236.093 96.6264 236.759 97.4198 237.721 97.4198C238.635 97.4198 239.227 96.7362 239.227 95.6376Z" fill="#1F335E"/>
<path d="M246.914 90.1567C246.284 90.1567 245.766 90.6816 245.766 91.2919V103.035C245.766 103.169 245.655 104.134 245.137 105.098C244.446 106.404 243.323 107.027 241.731 107.027H237.968C238.869 105.855 239.362 104.475 239.535 103.548C239.646 102.925 239.227 102.351 238.597 102.242C237.968 102.144 237.376 102.547 237.277 103.169C237.277 103.169 237.067 104.243 236.475 105.232C235.747 106.441 234.81 107.027 233.588 107.027C232.959 107.027 232.441 107.539 232.441 108.162C232.441 108.784 232.959 109.297 233.588 109.297C236.549 109.297 237.24 112.984 237.277 113.118C237.376 113.667 237.869 114.046 238.425 114.046C238.486 114.046 238.56 114.046 238.634 114.046C239.251 113.948 239.671 113.362 239.572 112.739C239.399 111.812 238.943 110.506 238.104 109.37H241.756C244.853 109.37 246.457 107.649 247.222 106.197C247.987 104.756 248.098 103.34 248.098 103.169C248.098 103.133 248.098 103.133 248.098 103.108V91.3286C248.061 90.6816 247.53 90.1567 246.914 90.1567Z" fill="#CE142D"/>
<path d="M228.751 87.5811C229.381 87.1294 230.355 86.336 231.33 85.4449C232.268 84.5172 232.613 83.8946 232.613 83.0035C232.613 82.0758 232.095 81.5631 231.219 81.5631C230.355 81.5631 229.8 82.0758 229.8 82.8937C229.8 83.1012 229.825 83.3087 229.862 83.5894L228.887 83.4796C228.825 83.2721 228.825 83.0768 228.825 82.8937C228.825 81.5875 229.726 80.733 231.256 80.733C232.712 80.733 233.588 81.5265 233.588 83.0035C233.588 84.0655 233.07 84.9688 231.885 86.0308C231.293 86.5801 230.763 86.9952 230.035 87.5079H233.687V88.3745H228.751V87.5811Z" fill="#1F335E"/>
<path d="M228.751 97.2856C229.381 96.8339 230.355 96.0527 231.33 95.1494C232.268 94.2216 232.613 93.5991 232.613 92.708C232.613 91.7803 232.095 91.2676 231.219 91.2676C230.355 91.2676 229.8 91.7803 229.8 92.6103C229.8 92.8179 229.825 93.0132 229.862 93.2939L228.887 93.1963C228.825 92.9888 228.825 92.7812 228.825 92.6103C228.825 91.292 229.726 90.4375 231.256 90.4375C232.712 90.4375 233.588 91.231 233.588 92.708C233.588 93.77 233.07 94.6733 231.885 95.7353C231.293 96.2846 230.763 96.6996 230.035 97.2123H233.687V98.079H228.751V97.2856Z" fill="#1F335E"/>
<path d="M173.266 103.658V96.7729C173.266 96.3212 173.611 95.9794 174.068 95.9794C174.512 95.9794 174.857 96.3212 174.857 96.7729V109.126C174.857 112.434 172.809 114.046 169.922 114.046C166.689 114.046 164.777 112.117 164.777 108.064C164.777 103.963 166.578 102.071 169.811 102.071C171.452 102.034 172.71 102.864 173.266 103.658ZM173.266 105.684C173.266 105.684 172.315 103.487 169.922 103.487C167.627 103.487 166.368 104.964 166.368 108.028C166.368 111.128 167.59 112.569 169.922 112.569C171.871 112.569 173.266 111.47 173.266 109.09V105.684Z" fill="#1F335E"/>
<path d="M177.991 98.9091C177.991 98.1767 178.337 97.9081 178.929 97.9081C179.521 97.9081 179.867 98.1767 179.867 98.9091C179.867 99.495 179.521 99.8368 178.929 99.8368C178.337 99.8734 177.991 99.5194 177.991 98.9091ZM179.731 113.118C179.731 113.57 179.385 113.911 178.929 113.911C178.485 113.911 178.127 113.57 178.127 113.118V102.998C178.127 102.547 178.485 102.205 178.929 102.205C179.385 102.205 179.731 102.547 179.731 102.998V113.118Z" fill="#1F335E"/>
<path d="M190.86 113.948V112.532C190.268 113.289 189.096 114.046 187.455 114.046C184.185 114.046 182.236 112.154 182.236 108.064C182.236 103.963 184.185 102.071 187.455 102.071C190.305 102.071 192.501 103.719 192.501 106.99V113.948C192.501 117.317 190.169 118.733 187.356 118.733C185.407 118.733 183.975 118.001 183.136 117.012C183.075 116.902 183.001 116.768 183.001 116.56C183.001 116.145 183.346 115.803 183.766 115.803C183.975 115.803 184.148 115.84 184.358 116.084C184.95 116.67 185.752 117.244 187.319 117.244C189.404 117.219 190.86 116.182 190.86 113.948ZM190.86 106.99C190.86 104.622 189.367 103.511 187.455 103.511C185.123 103.511 183.877 104.964 183.877 108.064C183.877 111.128 185.16 112.605 187.455 112.605C189.824 112.605 190.86 110.567 190.86 110.567V106.99Z" fill="#1F335E"/>
<path d="M195.314 98.9091C195.314 98.1767 195.672 97.9081 196.252 97.9081C196.844 97.9081 197.19 98.1767 197.19 98.9091C197.19 99.495 196.844 99.8368 196.252 99.8368C195.672 99.8734 195.314 99.5194 195.314 98.9091ZM197.054 113.118C197.054 113.57 196.709 113.911 196.252 113.911C195.808 113.911 195.462 113.57 195.462 113.118V102.998C195.462 102.547 195.808 102.205 196.252 102.205C196.709 102.205 197.054 102.547 197.054 102.998V113.118Z" fill="#1F335E"/>
<path d="M200.953 99.8001C200.953 99.3851 201.335 99.0067 201.755 99.0067C202.211 99.0067 202.557 99.3851 202.557 99.8001V102.412H204.186C204.605 102.412 204.951 102.73 204.951 103.169C204.951 103.584 204.642 103.926 204.186 103.926H202.557V110.811C202.557 111.885 203.149 112.471 204.013 112.471C204.432 112.471 204.778 112.776 204.778 113.228C204.778 113.631 204.432 113.985 204.013 113.985C202.039 113.985 200.953 112.666 200.953 110.847V103.963H199.978C199.559 103.963 199.213 103.658 199.213 103.206C199.213 102.791 199.522 102.449 199.978 102.449H200.953V99.8001Z" fill="#1F335E"/>
<path d="M208.64 104.829C208.393 105.098 208.22 105.171 207.986 105.171C207.566 105.171 207.246 104.854 207.246 104.451C207.246 104.268 207.283 104.134 207.394 104.036C208.085 102.925 209.442 102.071 211.564 102.071C214.488 102.071 216.092 103.755 216.092 106.306V113.154C216.092 113.57 215.734 113.911 215.327 113.911C214.908 113.911 214.562 113.57 214.562 113.154V112.263C213.933 113.423 212.465 114.046 210.972 114.046C208.294 114.046 206.629 112.776 206.629 110.506C206.629 108.296 208.294 106.99 211.046 106.99H214.587V106.306C214.587 104.622 213.439 103.548 211.638 103.548C210.244 103.548 209.442 103.926 208.64 104.829ZM214.525 109.407V108.369H210.972C209.343 108.369 208.183 109.053 208.183 110.506C208.183 111.812 209.096 112.642 211.046 112.642C212.847 112.605 214.525 111.507 214.525 109.407Z" fill="#1F335E"/>
<path d="M220.744 96.7729V110.982C220.744 111.983 221.064 112.398 221.755 112.398C222.175 112.398 222.52 112.703 222.52 113.154C222.52 113.57 222.175 113.911 221.755 113.911C220.09 113.911 219.152 112.91 219.152 110.982V96.7729C219.152 96.3578 219.535 95.9794 219.954 95.9794C220.361 95.9794 220.744 96.3578 220.744 96.7729Z" fill="#1F335E"/>
<path d="M157.991 116.975C157.571 116.975 157.226 116.633 157.226 116.218V100.105C157.226 99.6903 157.571 99.3485 157.991 99.3485C158.41 99.3485 158.756 99.6903 158.756 100.105V116.218C158.756 116.633 158.41 116.975 157.991 116.975Z" fill="#CE142D"/>
<path d="M91.7455 112.776C91.7085 113.191 91.363 113.46 90.9805 113.46H80.863C80.4065 113.46 80.098 113.155 80.098 112.703C80.098 112.288 80.4065 111.946 80.863 111.946H81.7637V98.2865H80.863C80.4065 98.2865 80.098 97.9692 80.098 97.5297C80.098 97.1147 80.4065 96.7729 80.863 96.7729H90.7091C91.1533 96.7729 91.4741 97.0781 91.4741 97.5297V99.4218C91.4741 99.8734 91.1533 100.179 90.7091 100.179C90.2896 100.179 89.9441 99.8734 89.9441 99.4218V98.2865H83.5034V104.268H89.031C89.4505 104.268 89.796 104.622 89.796 105.025C89.796 105.44 89.4505 105.794 89.031 105.794H83.5034V111.909H90.2155V110.774C90.2155 110.335 90.561 110.017 90.9805 110.017C91.437 110.017 91.7455 110.335 91.7455 110.774V112.776Z" fill="#FFCC00"/>
<path d="M94.6697 104.829C94.6697 107.442 101.283 106.477 101.283 110.469C101.283 112.739 99.4076 113.777 97.0017 113.777C94.9535 113.777 93.3495 112.813 92.6832 111.983C92.5475 111.812 92.5105 111.677 92.5105 111.507C92.5105 111.092 92.8313 110.774 93.2508 110.774C93.3865 110.774 93.5962 110.811 93.806 111.018C94.571 111.775 95.5704 112.227 97.0017 112.227C98.4329 112.227 99.6791 111.739 99.6791 110.469C99.6791 107.893 93.0657 108.919 93.0657 104.829C93.0657 102.754 94.7807 101.79 96.9276 101.79C98.6427 101.79 99.9999 102.376 100.765 103.377C100.827 103.487 100.938 103.621 100.938 103.865C100.938 104.268 100.617 104.585 100.197 104.585C100.062 104.585 99.8888 104.549 99.6791 104.341C98.9881 103.694 98.2602 103.316 96.9276 103.316C95.7802 103.34 94.6697 103.694 94.6697 104.829Z" fill="#FFCC00"/>
<path d="M102.677 118.452C102.258 118.452 101.912 118.147 101.912 117.695C101.912 117.28 102.221 116.939 102.677 116.939H103.714V103.621H102.677C102.258 103.621 101.912 103.304 101.912 102.864C101.912 102.449 102.221 102.107 102.677 102.107H104.59C105.009 102.107 105.355 102.412 105.355 102.864V103.511C105.836 102.657 107.095 101.765 108.76 101.765C112.03 101.765 114.016 103.658 114.016 107.747C114.016 111.848 112.03 113.74 108.76 113.74C107.095 113.74 105.873 112.849 105.355 111.983V116.902H106.675C107.095 116.902 107.44 117.219 107.44 117.659C107.44 118.074 107.132 118.416 106.675 118.416H102.677V118.452ZM108.76 112.324C111.092 112.324 112.375 110.884 112.375 107.783C112.375 104.683 111.018 103.243 108.686 103.243C106.811 103.243 105.281 104.549 105.281 107.783C105.281 110.982 106.774 112.324 108.76 112.324Z" fill="#FFCC00"/>
<path d="M123.616 113.46C123.233 113.46 123.023 113.118 123.023 112.813V111.983C122.394 113.155 120.802 113.777 119.297 113.777C116.62 113.777 114.954 112.495 114.954 110.225C114.954 108.028 116.62 106.721 119.371 106.721H122.925V106.026C122.925 104.341 121.777 103.279 119.963 103.279C118.643 103.279 117.804 103.694 117.039 104.549C116.792 104.829 116.62 104.89 116.385 104.89C115.966 104.89 115.645 104.585 115.645 104.17C115.645 103.999 115.682 103.865 115.793 103.755C116.484 102.657 117.841 101.79 119.963 101.79C122.888 101.79 124.492 103.487 124.492 106.026V111.946H125.528C125.948 111.946 126.293 112.263 126.293 112.703C126.293 113.118 125.985 113.46 125.528 113.46H123.616ZM119.445 112.324C121.222 112.324 122.888 111.262 122.888 109.126V108.089H119.334C117.706 108.089 116.558 108.784 116.558 110.225C116.583 111.507 117.496 112.324 119.445 112.324Z" fill="#FFCC00"/>
<path d="M127.268 113.46C126.848 113.46 126.503 113.155 126.503 112.703C126.503 112.288 126.811 111.946 127.268 111.946H128.317V103.621H127.268C126.848 103.621 126.503 103.304 126.503 102.864C126.503 102.449 126.811 102.107 127.268 102.107H129.18C129.6 102.107 129.945 102.413 129.945 102.864V103.511C130.439 102.583 131.648 101.766 133.289 101.766C137.151 101.766 137.916 104.073 137.916 106.172V111.909H138.965C139.372 111.909 139.73 112.227 139.73 112.666C139.73 113.081 139.409 113.423 138.965 113.423H135.238C134.819 113.423 134.473 113.118 134.473 112.666C134.473 112.263 134.782 111.909 135.238 111.909H136.275V106.514C136.275 104.549 135.683 103.206 133.252 103.206C130.92 103.206 129.908 104.683 129.908 106.685V111.946H130.957C131.377 111.946 131.722 112.263 131.722 112.703C131.722 113.118 131.414 113.46 130.957 113.46H127.268ZM134.955 99.1166C135.448 99.1166 135.72 98.9091 136.065 98.4575C136.139 98.3476 136.275 98.1767 136.559 98.1767C136.867 98.1767 137.151 98.4575 137.151 98.7626C137.151 99.4218 136.176 100.276 134.992 100.276C133.807 100.276 133.178 99.3486 132.179 99.3486C131.685 99.3486 131.414 99.5561 131.056 100.044C130.994 100.105 130.858 100.276 130.575 100.276C130.266 100.276 129.982 100.044 129.982 99.6904C129.982 99.0068 131.031 98.1767 132.141 98.1767C133.326 98.1767 133.98 99.1166 134.955 99.1166Z" fill="#FFCC00"/>
<path d="M148.7 113.46C148.317 113.46 148.107 113.118 148.107 112.813V111.983C147.478 113.155 145.887 113.777 144.381 113.777C141.704 113.777 140.038 112.495 140.038 110.225C140.038 108.028 141.704 106.721 144.455 106.721H148.009V106.026C148.009 104.341 146.861 103.279 145.048 103.279C143.727 103.279 142.888 103.694 142.123 104.549C141.877 104.829 141.704 104.89 141.469 104.89C141.05 104.89 140.729 104.585 140.729 104.17C140.729 103.999 140.766 103.865 140.877 103.755C141.568 102.657 142.925 101.79 145.048 101.79C147.972 101.79 149.576 103.487 149.576 106.026V111.946H150.612C151.032 111.946 151.377 112.263 151.377 112.703C151.377 113.118 151.069 113.46 150.612 113.46H148.7ZM144.529 112.324C146.294 112.324 147.972 111.262 147.972 109.126V108.089H144.418C142.79 108.089 141.642 108.784 141.642 110.225C141.667 111.507 142.58 112.324 144.529 112.324Z" fill="#FFCC00"/>
<defs>
<clipPath id="clip0_1897_3659">
<rect width="126.989" height="32" fill="white" transform="translate(0.0980225 24.733)"/>
</clipPath>
<clipPath id="clip1_1897_3659">
<rect width="156.878" height="32" fill="white" transform="translate(171.087 24.733)"/>
</clipPath>
</defs>
</svg>
