<svg width="171" height="40" viewBox="0 0 171 40" fill="none" xmlns="http://www.w3.org/2000/svg">
<path d="M163.197 4.15927C163.187 6.993 162.134 8.16259 160.387 8.16259C158.639 8.16259 157.586 6.98966 157.576 4.15927C157.59 1.3155 158.642 0.142578 160.39 0.142578C162.138 0.142578 163.19 1.3155 163.2 4.15927M158.556 4.15927C158.556 4.81089 158.612 5.35559 158.723 5.78666L161.764 1.72653C161.443 1.17515 160.968 0.974654 160.393 0.974654C159.297 0.974654 158.569 1.71651 158.559 4.15927M162.231 4.15927C162.231 3.43078 162.165 2.85267 162.044 2.40155L158.97 6.48173C159.291 7.09994 159.789 7.33386 160.397 7.33386C161.493 7.33386 162.221 6.57195 162.235 4.15927" fill="white"/>
<path d="M163.01 15.4674C163.01 17.0714 161.981 18.144 160.477 18.144C158.643 18.144 157.71 16.8174 157.71 14.3045C157.71 11.6278 158.729 10.124 160.574 10.124C161.847 10.124 162.686 10.789 162.92 12.0254L161.924 12.246C161.747 11.3604 161.292 10.9528 160.564 10.9528C159.348 10.9528 158.729 11.992 158.683 13.9502C159.037 13.2518 159.755 12.8441 160.631 12.8441C162.081 12.8441 163.01 13.8834 163.01 15.4674ZM162.014 15.4774C162.014 14.3813 161.416 13.6729 160.444 13.6729C159.602 13.6729 158.983 14.2142 158.719 15.2334C158.84 16.4932 159.495 17.312 160.49 17.312C161.419 17.312 162.018 16.5935 162.018 15.474" fill="white"/>
<path d="M169.83 9.82658C169.182 9.82658 168.654 10.3512 168.654 11.0029V23.0696C168.644 23.2233 168.547 24.2158 168.033 25.1916C167.328 26.5383 166.195 27.1899 164.571 27.1899H160.748C161.667 25.9936 162.161 24.5834 162.332 23.5943C162.442 22.956 162.018 22.3512 161.379 22.2376C160.741 22.1239 160.133 22.5517 160.016 23.1866C160.016 23.1966 159.815 24.2726 159.194 25.3052C158.455 26.5349 157.496 27.1331 156.257 27.1331C155.608 27.1331 155.08 27.6577 155.08 28.3094C155.08 28.961 155.608 29.4856 156.257 29.4856C159.264 29.4856 159.983 33.2617 160.013 33.4288C160.113 33.9969 160.607 34.3979 161.169 34.3979C161.236 34.3979 161.302 34.3912 161.373 34.3812C162.011 34.2709 162.439 33.6627 162.328 33.0211C162.161 32.0654 161.693 30.7087 160.831 29.5391H164.567C167.735 29.5391 169.333 27.768 170.111 26.281C170.9 24.7806 170.99 23.3236 171 23.1632C171 23.1431 171 23.1231 171 23.1064V10.9995C171 10.3512 170.472 9.82324 169.824 9.82324" fill="#CD0E2D"/>
<path d="M151.361 7.1768C151.993 6.7123 152.988 5.91699 153.971 4.97464C154.943 4.03563 155.278 3.39402 155.278 2.47506C155.278 1.55611 154.76 1.00473 153.874 1.00473C152.988 1.00473 152.437 1.54608 152.437 2.38818C152.437 2.58868 152.471 2.81926 152.527 3.09662L151.531 2.99637C151.475 2.77582 151.455 2.57532 151.455 2.37816C151.455 1.0181 152.384 0.142578 153.934 0.142578C155.485 0.142578 156.323 0.971313 156.323 2.46504C156.323 3.54774 155.782 4.49009 154.599 5.58616C154.001 6.14088 153.46 6.58198 152.708 7.09994H156.414V7.99551H151.371V7.1768H151.361Z" fill="white"/>
<path d="M151.361 17.1621C151.993 16.6977 152.988 15.9023 153.971 14.96C154.943 14.021 155.278 13.3794 155.278 12.4604C155.278 11.5415 154.76 10.9901 153.874 10.9901C152.988 10.9901 152.437 11.5314 152.437 12.3735C152.437 12.574 152.471 12.8046 152.527 13.082L151.531 12.9817C151.475 12.7612 151.455 12.5607 151.455 12.3635C151.455 11.0034 152.384 10.1279 153.934 10.1279C155.485 10.1279 156.323 10.9567 156.323 12.4504C156.323 13.5331 155.782 14.4754 154.599 15.5715C154.001 16.1262 153.46 16.5673 152.708 17.0853H156.414V17.9809H151.371V17.1621H151.361Z" fill="white"/>
<path d="M94.8767 23.7381V16.6371C94.8767 16.1759 95.2343 15.8184 95.6955 15.8184C96.1566 15.8184 96.5142 16.1759 96.5142 16.6371V29.3488C96.5142 32.7306 94.4123 34.3981 91.4916 34.3981C88.1834 34.3981 86.2385 32.4231 86.2385 28.2193C86.2385 24.0155 88.0831 22.0673 91.3914 22.0673C93.0321 22.0673 94.2886 22.9127 94.8767 23.7348M94.8767 25.81C94.8767 25.81 93.901 23.5543 91.495 23.5543C89.089 23.5543 87.8793 25.0681 87.8793 28.2193C87.8793 31.3705 89.1358 32.911 91.495 32.911C93.4699 32.911 94.8767 31.7815 94.8767 29.3488V25.81Z" fill="white"/>
<path d="M99.6721 18.8423C99.6721 18.1004 100.03 17.8164 100.645 17.8164C101.259 17.8164 101.617 18.0971 101.617 18.8423C101.617 19.4572 101.259 19.8147 100.645 19.8147C100.03 19.8147 99.6721 19.4572 99.6721 18.8423ZM101.467 33.4521C101.467 33.9132 101.109 34.2741 100.648 34.2741C100.187 34.2741 99.8292 33.9166 99.8292 33.4521V23.0461C99.8292 22.585 100.187 22.2274 100.648 22.2274C101.109 22.2274 101.467 22.585 101.467 23.0461V33.4521Z" fill="white"/>
<path d="M112.795 34.2981V32.8377C112.18 33.6331 111 34.4016 109.333 34.4016C106.001 34.4016 104.026 32.4535 104.026 28.2496C104.026 24.0458 106.001 22.0742 109.333 22.0742C112.253 22.0742 114.459 23.7651 114.459 27.1502V34.3014C114.459 37.7868 112.076 39.2237 109.206 39.2237C107.207 39.2237 105.77 38.4785 104.925 37.4559C104.848 37.3523 104.771 37.1986 104.771 36.9948C104.771 36.5604 105.129 36.1995 105.567 36.1995C105.77 36.1995 105.951 36.2496 106.182 36.4802C106.773 37.0716 107.592 37.6865 109.206 37.6865C111.308 37.6865 112.795 36.6339 112.795 34.3047M112.795 27.1536C112.795 24.7175 111.258 23.5646 109.333 23.5646C106.973 23.5646 105.667 25.0516 105.667 28.2563C105.667 31.461 106.973 32.9213 109.333 32.9213C111.692 32.9213 112.795 30.8461 112.795 30.8461V27.1536Z" fill="white"/>
<path d="M117.306 18.8423C117.306 18.1004 117.663 17.8164 118.278 17.8164C118.893 17.8164 119.254 18.0971 119.254 18.8423C119.254 19.4572 118.897 19.8147 118.278 19.8147C117.66 19.8147 117.306 19.4572 117.306 18.8423ZM119.1 33.4521C119.1 33.9132 118.743 34.2741 118.278 34.2741C117.814 34.2741 117.46 33.9166 117.46 33.4521V23.0461C117.46 22.585 117.817 22.2274 118.278 22.2274C118.739 22.2274 119.1 22.585 119.1 23.0461V33.4521Z" fill="white"/>
<path d="M123.074 19.7386C123.074 19.3042 123.458 18.9199 123.893 18.9199C124.354 18.9199 124.711 19.3042 124.711 19.7386V22.4287H126.379C126.813 22.4287 127.147 22.7628 127.147 23.1973C127.147 23.6317 126.813 23.9658 126.379 23.9658H124.711V31.0402C124.711 32.1429 125.326 32.731 126.198 32.731C126.633 32.731 126.994 33.0652 126.994 33.4996C126.994 33.9341 126.636 34.2682 126.198 34.2682C124.173 34.2682 123.07 32.9082 123.07 31.0368V23.9625H122.071C121.637 23.9625 121.303 23.6283 121.303 23.1939C121.303 22.7595 121.637 22.4253 122.071 22.4253H123.07V19.7353L123.074 19.7386Z" fill="white"/>
<path d="M130.89 24.918C130.633 25.1987 130.456 25.2755 130.225 25.2755C129.814 25.2755 129.483 24.9414 129.483 24.5337C129.483 24.3532 129.533 24.2263 129.61 24.0993C130.329 22.9698 131.712 22.0742 133.864 22.0742C136.838 22.0742 138.479 23.8186 138.479 26.4318V33.4793C138.479 33.9171 138.121 34.2747 137.684 34.2747C137.246 34.2747 136.888 33.9171 136.888 33.4793V32.557C136.247 33.7634 134.76 34.4016 133.222 34.4016C130.506 34.4016 128.788 33.0951 128.788 30.7358C128.788 28.3766 130.506 27.1235 133.273 27.1235H136.888V26.4318C136.888 24.6874 135.735 23.6114 133.864 23.6114C132.504 23.6114 131.685 24.0224 130.89 24.918ZM136.888 29.6331V28.5571H133.273C131.605 28.5571 130.452 29.2488 130.452 30.7358C130.452 32.0692 131.375 32.9146 133.373 32.9146C135.167 32.9146 136.885 31.8119 136.885 29.6331" fill="white"/>
<path d="M143.194 16.6371V31.2736C143.194 32.2995 143.528 32.7339 144.22 32.7339C144.631 32.7339 144.988 33.0681 144.988 33.5025C144.988 33.9369 144.631 34.2711 144.22 34.2711C142.502 34.2711 141.553 33.2452 141.553 31.2736V16.6371C141.553 16.2027 141.938 15.8184 142.372 15.8184C142.833 15.8184 143.191 16.2027 143.191 16.6371" fill="white"/>
<path d="M79.328 37.4258C78.9069 37.4258 78.5627 37.0849 78.5627 36.6605V20.0992C78.5627 19.6782 78.9036 19.334 79.328 19.334C79.7524 19.334 80.0932 19.6748 80.0932 20.0992V36.6605C80.0932 37.0816 79.7524 37.4258 79.328 37.4258Z" fill="#CD0E2D"/>
<path d="M11.893 33.1049C11.8429 33.5159 11.5087 33.7966 11.0977 33.7966H0.795319C0.334169 33.7966 0 33.4624 0 33.0013C0 32.5668 0.334169 32.2059 0.795319 32.2059H1.71762V18.1375H0.795319C0.334169 18.1375 0 17.8033 0 17.3422C0 16.9078 0.334169 16.5469 0.795319 16.5469H10.817C11.2781 16.5469 11.6123 16.881 11.6123 17.3422V19.2904C11.6123 19.7515 11.2781 20.0857 10.817 20.0857C10.3826 20.0857 10.0217 19.7515 10.0217 19.2904V18.1375H3.45863V24.3163H9.09937C9.53379 24.3163 9.89469 24.6738 9.89469 25.1116C9.89469 25.5493 9.53713 25.9069 9.09937 25.9069H3.45863V32.2126H10.3024V31.0598C10.3024 30.5986 10.6599 30.2644 11.0977 30.2644C11.5588 30.2644 11.893 30.5986 11.893 31.0598V33.1115V33.1049Z" fill="#FFCD00"/>
<path d="M14.8672 24.9272C14.8672 27.6173 21.6073 26.6181 21.6073 30.7217C21.6073 33.0542 19.6859 34.1035 17.2498 34.1035C15.1479 34.1035 13.5338 33.1043 12.8655 32.2589C12.7385 32.0784 12.6851 31.9514 12.6851 31.771C12.6851 31.36 13.0192 31.0291 13.4269 31.0291C13.5806 31.0291 13.7845 31.0793 13.9917 31.2864C14.787 32.0818 15.8129 32.5429 17.2464 32.5429C18.68 32.5429 19.9632 32.055 19.9632 30.7217C19.9632 28.0818 13.2231 29.1311 13.2231 24.9272C13.2231 22.7986 14.9674 21.8262 17.1462 21.8262C18.8905 21.8262 20.2473 22.4143 21.0426 23.4669C21.1194 23.5705 21.223 23.7242 21.223 23.9548C21.223 24.3658 20.8889 24.7 20.4812 24.7C20.3542 24.7 20.147 24.6733 19.9432 24.4694C19.2514 23.8044 18.4829 23.3934 17.1495 23.3934C15.9967 23.3934 14.8672 23.751 14.8672 24.9306" fill="#FFCD00"/>
<path d="M22.9908 38.9493C22.5563 38.9493 22.2222 38.6151 22.2222 38.1807C22.2222 37.7463 22.5563 37.4121 22.9908 37.4121H24.0668V23.6979H22.9908C22.5563 23.6979 22.2222 23.3637 22.2222 22.9293C22.2222 22.4949 22.5563 22.1607 22.9908 22.1607H24.9389C25.3734 22.1607 25.7075 22.4949 25.7075 22.9293V23.5943C26.1954 22.7221 27.4753 21.7998 29.1929 21.7998C32.5245 21.7998 34.5496 23.748 34.5496 27.9518C34.5496 32.1556 32.5245 34.1306 29.1929 34.1306C27.4753 34.1306 26.2455 33.2083 25.7075 32.3361V37.4121H27.0409C27.4753 37.4121 27.8094 37.7463 27.8094 38.1807C27.8094 38.6151 27.4753 38.9493 27.0409 38.9493H22.9908ZM29.1929 32.6435C31.5521 32.6435 32.8821 31.1565 32.8821 27.9518C32.8821 24.7472 31.4987 23.2869 29.1394 23.2869C27.2414 23.2869 25.6541 24.6202 25.6541 27.9518C25.6541 31.2835 27.1912 32.6435 29.1929 32.6435Z" fill="#FFCD00"/>
<path d="M44.3173 33.7968C43.933 33.7968 43.7291 33.4393 43.7291 33.1285V32.283C43.0875 33.486 41.4735 34.1276 39.9363 34.1276C37.2196 34.1276 35.502 32.821 35.502 30.4618C35.502 28.1026 37.2196 26.8461 39.9865 26.8461H43.6022V26.1544C43.6022 24.4101 42.4493 23.334 40.578 23.334C39.2179 23.334 38.3992 23.7451 37.6039 24.6406C37.3466 24.9213 37.1694 24.9982 36.9389 24.9982C36.5278 24.9982 36.1937 24.664 36.1937 24.2563C36.1937 24.0759 36.2438 23.9489 36.3207 23.8219C37.0391 22.6924 38.4226 21.7969 40.5746 21.7969C43.5487 21.7969 45.1895 23.5412 45.1895 26.1544V32.2563H46.2655C46.6999 32.2563 47.0341 32.5905 47.0341 33.0249C47.0341 33.4593 46.6999 33.7935 46.2655 33.7935H44.3173V33.7968ZM40.0867 32.6439C41.8812 32.6439 43.5988 31.5412 43.5988 29.3624V28.2864H39.9831C38.3156 28.2864 37.1628 28.9781 37.1628 30.4652C37.1628 31.7985 38.0851 32.6439 40.0834 32.6439" fill="#FFCD00"/>
<path d="M48.0598 33.7961C47.6254 33.7961 47.2913 33.4619 47.2913 33.0275C47.2913 32.5931 47.6254 32.2589 48.0598 32.2589H49.1359V23.6976H48.0598C47.6254 23.6976 47.2913 23.3634 47.2913 22.929C47.2913 22.4946 47.6254 22.1604 48.0598 22.1604H50.008C50.4425 22.1604 50.7766 22.4946 50.7766 22.929V23.594C51.2645 22.6216 52.521 21.7995 54.1851 21.7995C58.1316 21.7995 58.9002 24.1587 58.9002 26.3375V32.2589H59.9762C60.4107 32.2589 60.7448 32.5931 60.7448 33.0275C60.7448 33.4619 60.4107 33.7961 59.9762 33.7961H56.1835C55.749 33.7961 55.4149 33.4619 55.4149 33.0275C55.4149 32.5931 55.749 32.2589 56.1835 32.2589H57.2595V26.6717C57.2595 24.6466 56.6713 23.2632 54.1851 23.2632C51.8259 23.2632 50.7766 24.8003 50.7766 26.8521V32.2589H51.8526C52.2871 32.2589 52.6212 32.5931 52.6212 33.0275C52.6212 33.4619 52.2871 33.7961 51.8526 33.7961H48.0598ZM55.876 19.0326C56.3873 19.0326 56.6446 18.8288 57.0055 18.3676C57.0824 18.264 57.2093 18.0869 57.4934 18.0869C57.8008 18.0869 58.0815 18.3676 58.0815 18.675C58.0815 19.34 57.0824 20.2389 55.876 20.2389C54.6697 20.2389 54.0314 19.2899 53.0055 19.2899C52.4942 19.2899 52.2369 19.4938 51.876 19.9816C51.7992 20.0585 51.6722 20.2389 51.3882 20.2389C51.0807 20.2389 50.8 19.9816 50.8 19.6508C50.8 18.9591 51.8493 18.0869 53.0055 18.0869C54.1617 18.0869 54.8769 19.0359 55.876 19.0359" fill="#FFCD00"/>
<path d="M69.8444 33.7968C69.4601 33.7968 69.2562 33.4393 69.2562 33.1285V32.283C68.6146 33.486 67.0006 34.1276 65.4634 34.1276C62.7467 34.1276 61.0291 32.821 61.0291 30.4618C61.0291 28.1026 62.7467 26.8461 65.5136 26.8461H69.1293V26.1544C69.1293 24.4101 67.9764 23.334 66.105 23.334C64.745 23.334 63.9263 23.7451 63.131 24.6406C62.8736 24.9213 62.6932 24.9982 62.4626 24.9982C62.0516 24.9982 61.7208 24.664 61.7208 24.2563C61.7208 24.0759 61.7709 23.9489 61.8478 23.8219C62.5662 22.6924 63.9497 21.7969 66.1017 21.7969C69.0758 21.7969 70.7166 23.5412 70.7166 26.1544V32.2563H71.7926C72.227 32.2563 72.5612 32.5905 72.5612 33.0249C72.5612 33.4593 72.227 33.7935 71.7926 33.7935H69.8444V33.7968ZM65.6138 32.6439C67.4083 32.6439 69.1259 31.5412 69.1259 29.3624V28.2864H65.5102C63.8427 28.2864 62.6899 28.9781 62.6899 30.4652C62.6899 31.7985 63.6122 32.6439 65.6138 32.6439Z" fill="#FFCD00"/>
</svg>
