<svg width="137" height="32" viewBox="0 0 137 32" fill="none" xmlns="http://www.w3.org/2000/svg">
<path d="M129.9 3.21C129.9 5.47 129.05 6.4 127.67 6.4C126.29 6.4 125.44 5.47 125.44 3.21C125.44 0.959999 126.29 0.0299985 127.67 0.0299985C129.05 -1.4808e-06 129.9 0.929999 129.9 3.21ZM126.2 3.21C126.2 3.72 126.26 4.17 126.34 4.51L128.77 1.27C128.51 0.819998 128.15 0.679999 127.67 0.679999C126.8 0.679999 126.2 1.27 126.2 3.21ZM129.14 3.21C129.14 2.62 129.08 2.17 128.99 1.8L126.54 5.05C126.8 5.52 127.19 5.72 127.67 5.72C128.54 5.72 129.14 5.13 129.14 3.21Z" fill="#1F335E"/>
<path d="M129.76 12.21C129.76 13.48 128.94 14.35 127.73 14.35C126.26 14.35 125.53 13.31 125.53 11.31C125.53 9.15998 126.34 7.97998 127.81 7.97998C128.83 7.97998 129.5 8.50998 129.67 9.49998L128.88 9.66998C128.74 8.95998 128.37 8.62998 127.81 8.62998C126.85 8.62998 126.34 9.43998 126.32 11.02C126.6 10.46 127.16 10.15 127.87 10.15C129.02 10.12 129.76 10.94 129.76 12.21ZM128.97 12.21C128.97 11.33 128.49 10.77 127.73 10.77C127.05 10.77 126.57 11.19 126.34 12.01C126.43 13.02 126.97 13.67 127.75 13.67C128.49 13.67 128.97 13.11 128.97 12.21Z" fill="#1F335E"/>
<path d="M135.2 7.71997C134.69 7.71997 134.27 8.14997 134.27 8.64997V18.27C134.27 18.38 134.18 19.17 133.76 19.96C133.2 21.03 132.29 21.54 131 21.54H127.95C128.68 20.58 129.08 19.45 129.22 18.69C129.31 18.18 128.97 17.71 128.46 17.62C127.95 17.54 127.47 17.87 127.39 18.38C127.39 18.38 127.22 19.26 126.74 20.07C126.15 21.06 125.39 21.54 124.4 21.54C123.89 21.54 123.47 21.96 123.47 22.47C123.47 22.98 123.89 23.4 124.4 23.4C126.8 23.4 127.36 26.42 127.39 26.53C127.47 26.98 127.87 27.29 128.32 27.29C128.37 27.29 128.43 27.29 128.49 27.29C128.99 27.21 129.33 26.73 129.25 26.22C129.11 25.46 128.74 24.39 128.06 23.46H131.02C133.53 23.46 134.83 22.05 135.45 20.86C136.07 19.68 136.16 18.52 136.16 18.38C136.16 18.35 136.16 18.35 136.16 18.33V8.67997C136.13 8.14997 135.7 7.71997 135.2 7.71997Z" fill="#CE142D"/>
<path d="M120.48 5.61C120.99 5.24 121.78 4.59 122.57 3.86C123.33 3.1 123.61 2.59 123.61 1.86C123.61 1.1 123.19 0.68 122.48 0.68C121.78 0.68 121.33 1.1 121.33 1.77C121.33 1.94 121.35 2.11 121.38 2.34L120.59 2.25C120.54 2.08 120.54 1.92 120.54 1.77C120.54 0.7 121.27 0 122.51 0C123.69 0 124.4 0.65 124.4 1.86C124.4 2.73 123.98 3.47 123.02 4.34C122.54 4.79 122.11 5.13 121.52 5.55H124.48V6.26H120.48V5.61Z" fill="#1F335E"/>
<path d="M120.48 13.56C120.99 13.19 121.78 12.55 122.57 11.81C123.33 11.05 123.61 10.54 123.61 9.81001C123.61 9.05001 123.19 8.63001 122.48 8.63001C121.78 8.63001 121.33 9.05001 121.33 9.73001C121.33 9.90001 121.35 10.06 121.38 10.29L120.59 10.21C120.54 10.04 120.54 9.87001 120.54 9.73001C120.54 8.65001 121.27 7.95001 122.51 7.95001C123.69 7.95001 124.4 8.60001 124.4 9.81001C124.4 10.68 123.98 11.42 123.02 12.29C122.54 12.74 122.11 13.08 121.52 13.5H124.48V14.21H120.48V13.56Z" fill="#1F335E"/>
<path d="M75.51 18.78V13.14C75.51 12.77 75.79 12.49 76.16 12.49C76.52 12.49 76.8 12.77 76.8 13.14V23.26C76.8 25.97 75.14 27.29 72.8 27.29C70.18 27.29 68.63 25.71 68.63 22.39C68.63 19.03 70.09 17.48 72.71 17.48C74.04 17.45 75.06 18.13 75.51 18.78ZM75.51 20.44C75.51 20.44 74.74 18.64 72.8 18.64C70.94 18.64 69.92 19.85 69.92 22.36C69.92 24.9 70.91 26.08 72.8 26.08C74.38 26.08 75.51 25.18 75.51 23.23V20.44Z" fill="#1F335E"/>
<path d="M79.34 14.89C79.34 14.29 79.62 14.07 80.1 14.07C80.58 14.07 80.86 14.29 80.86 14.89C80.86 15.37 80.58 15.65 80.1 15.65C79.62 15.68 79.34 15.39 79.34 14.89ZM80.75 26.53C80.75 26.9 80.47 27.18 80.1 27.18C79.74 27.18 79.45 26.9 79.45 26.53V18.24C79.45 17.87 79.74 17.59 80.1 17.59C80.47 17.59 80.75 17.87 80.75 18.24V26.53Z" fill="#1F335E"/>
<path d="M89.77 27.21V26.05C89.29 26.67 88.34 27.29 87.01 27.29C84.36 27.29 82.78 25.74 82.78 22.39C82.78 19.03 84.36 17.48 87.01 17.48C89.32 17.48 91.1 18.83 91.1 21.51V27.21C91.1 29.97 89.21 31.13 86.93 31.13C85.35 31.13 84.19 30.53 83.51 29.72C83.46 29.63 83.4 29.52 83.4 29.35C83.4 29.01 83.68 28.73 84.02 28.73C84.19 28.73 84.33 28.76 84.5 28.96C84.98 29.44 85.63 29.91 86.9 29.91C88.59 29.89 89.77 29.04 89.77 27.21ZM89.77 21.51C89.77 19.57 88.56 18.66 87.01 18.66C85.12 18.66 84.11 19.85 84.11 22.39C84.11 24.9 85.15 26.11 87.01 26.11C88.93 26.11 89.77 24.44 89.77 24.44V21.51Z" fill="#1F335E"/>
<path d="M93.38 14.89C93.38 14.29 93.67 14.07 94.14 14.07C94.62 14.07 94.9 14.29 94.9 14.89C94.9 15.37 94.62 15.65 94.14 15.65C93.67 15.68 93.38 15.39 93.38 14.89ZM94.79 26.53C94.79 26.9 94.51 27.18 94.14 27.18C93.78 27.18 93.5 26.9 93.5 26.53V18.24C93.5 17.87 93.78 17.59 94.14 17.59C94.51 17.59 94.79 17.87 94.79 18.24V26.53Z" fill="#1F335E"/>
<path d="M97.95 15.62C97.95 15.28 98.26 14.97 98.6 14.97C98.97 14.97 99.25 15.28 99.25 15.62V17.76H100.57C100.91 17.76 101.19 18.02 101.19 18.38C101.19 18.72 100.94 19 100.57 19H99.25V24.64C99.25 25.52 99.73 26 100.43 26C100.77 26 101.05 26.25 101.05 26.62C101.05 26.95 100.77 27.24 100.43 27.24C98.83 27.24 97.95 26.16 97.95 24.67V19.03H97.16C96.82 19.03 96.54 18.78 96.54 18.41C96.54 18.07 96.79 17.79 97.16 17.79H97.95V15.62Z" fill="#1F335E"/>
<path d="M104.18 19.74C103.98 19.96 103.84 20.02 103.65 20.02C103.31 20.02 103.05 19.76 103.05 19.43C103.05 19.28 103.08 19.17 103.17 19.09C103.73 18.18 104.83 17.48 106.55 17.48C108.92 17.48 110.22 18.86 110.22 20.95V26.56C110.22 26.9 109.93 27.18 109.6 27.18C109.26 27.18 108.98 26.9 108.98 26.56V25.83C108.47 26.78 107.28 27.29 106.07 27.29C103.9 27.29 102.55 26.25 102.55 24.39C102.55 22.58 103.9 21.51 106.13 21.51H109V20.95C109 19.57 108.07 18.69 106.61 18.69C105.48 18.69 104.83 19 104.18 19.74ZM108.95 23.49V22.64H106.07C104.75 22.64 103.81 23.2 103.81 24.39C103.81 25.46 104.55 26.14 106.13 26.14C107.59 26.11 108.95 25.21 108.95 23.49Z" fill="#1F335E"/>
<path d="M113.99 13.14V24.78C113.99 25.6 114.25 25.94 114.81 25.94C115.15 25.94 115.43 26.19 115.43 26.56C115.43 26.9 115.15 27.18 114.81 27.18C113.46 27.18 112.7 26.36 112.7 24.78V13.14C112.7 12.8 113.01 12.49 113.35 12.49C113.68 12.49 113.99 12.8 113.99 13.14Z" fill="#1F335E"/>
<path d="M63.13 29.69C62.79 29.69 62.51 29.41 62.51 29.07V15.87C62.51 15.53 62.79 15.25 63.13 15.25C63.47 15.25 63.75 15.53 63.75 15.87V29.07C63.75 29.41 63.47 29.69 63.13 29.69Z" fill="#CE142D"/>
<path d="M9.44 26.25C9.41 26.59 9.13 26.81 8.82 26.81H0.619999C0.249999 26.81 0 26.56 0 26.19C0 25.85 0.249999 25.57 0.619999 25.57H1.35V14.38H0.619999C0.249999 14.38 0 14.12 0 13.76C0 13.42 0.249999 13.14 0.619999 13.14H8.6C8.96 13.14 9.22 13.39 9.22 13.76V15.31C9.22 15.68 8.96 15.93 8.6 15.93C8.26 15.93 7.98 15.68 7.98 15.31V14.38H2.76V19.28H7.24C7.58 19.28 7.86 19.57 7.86 19.9C7.86 20.24 7.58 20.53 7.24 20.53H2.76V25.54H8.2V24.61C8.2 24.25 8.48 23.99 8.82 23.99C9.19 23.99 9.44 24.25 9.44 24.61V26.25Z" fill="#FFCC00"/>
<path d="M11.81 19.74C11.81 21.88 17.17 21.09 17.17 24.36C17.17 26.22 15.65 27.07 13.7 27.07C12.04 27.07 10.74 26.28 10.2 25.6C10.09 25.46 10.06 25.35 10.06 25.21C10.06 24.87 10.32 24.61 10.66 24.61C10.77 24.61 10.94 24.64 11.11 24.81C11.73 25.43 12.54 25.8 13.7 25.8C14.86 25.8 15.87 25.4 15.87 24.36C15.87 22.25 10.51 23.09 10.51 19.74C10.51 18.04 11.9 17.25 13.64 17.25C15.03 17.25 16.13 17.73 16.75 18.55C16.8 18.64 16.89 18.75 16.89 18.95C16.89 19.28 16.63 19.54 16.29 19.54C16.18 19.54 16.04 19.51 15.87 19.34C15.31 18.81 14.72 18.5 13.64 18.5C12.71 18.52 11.81 18.81 11.81 19.74Z" fill="#FFCC00"/>
<path d="M18.3001 30.9C17.9601 30.9 17.6801 30.65 17.6801 30.28C17.6801 29.94 17.9301 29.66 18.3001 29.66H19.1401V18.75H18.3001C17.9601 18.75 17.6801 18.49 17.6801 18.13C17.6801 17.79 17.9301 17.51 18.3001 17.51H19.8501C20.1901 17.51 20.4701 17.76 20.4701 18.13V18.66C20.8601 17.96 21.88 17.23 23.23 17.23C25.88 17.23 27.4901 18.78 27.4901 22.13C27.4901 25.49 25.88 27.04 23.23 27.04C21.88 27.04 20.8901 26.31 20.4701 25.6V29.63H21.5401C21.8801 29.63 22.16 29.89 22.16 30.25C22.16 30.59 21.9101 30.87 21.5401 30.87H18.3001V30.9ZM23.23 25.88C25.12 25.88 26.16 24.7 26.16 22.16C26.16 19.62 25.0601 18.44 23.1701 18.44C21.6501 18.44 20.4101 19.51 20.4101 22.16C20.4101 24.78 21.62 25.88 23.23 25.88Z" fill="#FFCC00"/>
<path d="M35.27 26.81C34.96 26.81 34.79 26.53 34.79 26.28V25.6C34.28 26.56 32.99 27.07 31.77 27.07C29.6 27.07 28.25 26.02 28.25 24.16C28.25 22.36 29.6 21.29 31.83 21.29H34.71V20.72C34.71 19.34 33.78 18.47 32.31 18.47C31.24 18.47 30.56 18.81 29.94 19.51C29.74 19.74 29.6 19.79 29.41 19.79C29.07 19.79 28.81 19.54 28.81 19.2C28.81 19.06 28.84 18.95 28.93 18.86C29.49 17.96 30.59 17.25 32.31 17.25C34.68 17.25 35.98 18.64 35.98 20.72V25.57H36.82C37.16 25.57 37.44 25.83 37.44 26.19C37.44 26.53 37.19 26.81 36.82 26.81H35.27ZM31.89 25.88C33.33 25.88 34.68 25.01 34.68 23.26V22.41H31.8C30.48 22.41 29.55 22.98 29.55 24.16C29.57 25.21 30.31 25.88 31.89 25.88Z" fill="#FFCC00"/>
<path d="M38.23 26.81C37.89 26.81 37.61 26.56 37.61 26.19C37.61 25.85 37.86 25.57 38.23 25.57H39.08V18.75H38.23C37.89 18.75 37.61 18.49 37.61 18.13C37.61 17.79 37.86 17.51 38.23 17.51H39.78C40.12 17.51 40.4 17.76 40.4 18.13V18.66C40.8 17.9 41.78 17.23 43.11 17.23C46.24 17.23 46.86 19.12 46.86 20.84V25.54H47.71C48.04 25.54 48.33 25.8 48.33 26.16C48.33 26.5 48.07 26.78 47.71 26.78H44.69C44.35 26.78 44.07 26.53 44.07 26.16C44.07 25.83 44.32 25.54 44.69 25.54H45.53V21.12C45.53 19.51 45.05 18.41 43.08 18.41C41.19 18.41 40.37 19.62 40.37 21.26V25.57H41.22C41.56 25.57 41.84 25.83 41.84 26.19C41.84 26.53 41.59 26.81 41.22 26.81H38.23ZM44.46 15.06C44.86 15.06 45.08 14.89 45.36 14.52C45.42 14.43 45.53 14.29 45.76 14.29C46.01 14.29 46.24 14.52 46.24 14.77C46.24 15.31 45.45 16.01 44.49 16.01C43.53 16.01 43.02 15.25 42.21 15.25C41.81 15.25 41.59 15.42 41.3 15.82C41.25 15.87 41.14 16.01 40.91 16.01C40.66 16.01 40.43 15.82 40.43 15.53C40.43 14.97 41.28 14.29 42.18 14.29C43.14 14.29 43.67 15.06 44.46 15.06Z" fill="#FFCC00"/>
<path d="M55.6 26.81C55.29 26.81 55.12 26.53 55.12 26.28V25.6C54.61 26.56 53.32 27.07 52.1 27.07C49.93 27.07 48.58 26.02 48.58 24.16C48.58 22.36 49.93 21.29 52.16 21.29H55.04V20.72C55.04 19.34 54.11 18.47 52.64 18.47C51.57 18.47 50.89 18.81 50.27 19.51C50.07 19.74 49.93 19.79 49.74 19.79C49.4 19.79 49.14 19.54 49.14 19.2C49.14 19.06 49.17 18.95 49.26 18.86C49.82 17.96 50.92 17.25 52.64 17.25C55.01 17.25 56.31 18.64 56.31 20.72V25.57H57.15C57.49 25.57 57.77 25.83 57.77 26.19C57.77 26.53 57.52 26.81 57.15 26.81H55.6ZM52.22 25.88C53.65 25.88 55.01 25.01 55.01 23.26V22.41H52.13C50.81 22.41 49.88 22.98 49.88 24.16C49.9 25.21 50.64 25.88 52.22 25.88Z" fill="#FFCC00"/>
</svg>
