<svg width="128" height="32" viewBox="0 0 128 32" fill="none" xmlns="http://www.w3.org/2000/svg">
<path fill-rule="evenodd" clip-rule="evenodd" d="M10.7965 22.9722C17.1666 22.8786 22.3011 17.773 22.3011 11.4885C22.3011 5.14546 17.0706 0.00343653 10.6184 0.00343653C10.2308 0.00343653 9.86479 0.0024787 9.51921 0.0015744C8.94034 5.96242e-05 8.41887 -0.00130498 7.94943 0.00223392H0.302734V20.35C3.62823 23.2805 5.88069 27.381 6.40269 32.0001H8.49957V22.9981L8.49969 22.9981V14.7739C7.41253 14.3232 6.64782 13.2517 6.64782 12.0016C6.64782 10.3448 7.99087 9.00179 9.64761 9.00179C11.3044 9.00179 12.6474 10.3448 12.6474 12.0016C12.6474 13.2513 11.8832 14.3226 10.7965 14.7735V22.9722ZM65.6716 23.694V14.9604H64.3263V12.8036H65.6716V12.4833C65.6716 8.91729 68.597 8.44751 70.1131 8.44751C70.6683 8.44751 71.0313 8.51157 71.0313 8.51157V10.8178C71.0313 10.8178 70.7751 10.7751 70.4121 10.7751C69.6434 10.7751 68.3835 11.0099 68.3835 12.5901V12.8036H74.1703C75.1739 12.8036 75.6224 13.2521 75.6224 14.2557V20.9394C75.6224 21.2383 75.7932 21.4091 76.0922 21.4091H76.9249V23.694H74.3625C73.3375 23.694 72.9105 23.2669 72.9105 22.2419V15.4301C72.9105 15.1312 72.7396 14.9604 72.4407 14.9604H68.3835V23.694H65.6716ZM45.9247 19.7009V14.9604H44.5153V12.8036H45.9887V9.83549H48.6366V12.8036H51.1136V14.9604H48.6366V19.3592C48.6366 21.1529 50.0459 21.4091 50.7933 21.4091C51.0923 21.4091 51.2844 21.3664 51.2844 21.3664V23.7367C51.2844 23.7367 50.9428 23.8008 50.4516 23.8008C48.9355 23.8008 45.9247 23.3523 45.9247 19.7009ZM28.6463 12.5474C25.3365 12.5474 22.8752 14.9177 22.8752 18.2488C22.8752 21.6013 25.3365 23.9502 28.6463 23.9502C31.9774 23.9502 34.4387 21.6013 34.4387 18.2488C34.4387 14.9177 31.9774 12.5474 28.6463 12.5474ZM28.6463 21.644C26.8953 21.644 25.6085 20.2774 25.6085 18.2488C25.6085 16.2416 26.8953 14.8536 28.6463 14.8536C30.4186 14.8536 31.7054 16.2416 31.7054 18.2488C31.7054 20.2774 30.4186 21.644 28.6463 21.644ZM37.082 15.5796V23.694H39.7725V19.3806C39.7725 18.7399 39.8579 18.142 40.0074 17.6082C40.4985 15.9853 42.4844 14.9604 43.6375 14.9604V12.8036C43.6375 12.8036 43.3813 12.7609 43.1464 12.7609C41.4808 12.7609 40.1782 13.8927 39.6871 15.4515H39.6444C39.6444 15.4515 39.6871 15.1739 39.6871 14.7682V14.1276C39.6871 13.2094 39.196 12.8036 38.2351 12.8036H35.758V15.1098H36.6122C36.9111 15.1098 37.082 15.2593 37.082 15.5796ZM59.1252 16.8608C57.3529 16.8608 52.6551 17.1384 52.6551 20.555C52.6551 22.7331 54.4274 23.9502 56.3706 23.9502C58.8263 23.9502 59.659 22.0284 59.659 22.0284H59.7018C59.7018 22.0284 59.6804 22.2206 59.6804 22.4982C59.6804 23.1388 60.0648 23.694 61.0684 23.694H63.3591V21.4091H62.6486C62.3496 21.4091 62.1788 21.2383 62.1788 20.9394V16.8822C62.1788 14.4479 61.1111 12.5474 57.481 12.5474C56.3492 12.5474 53.4879 12.7609 53.4879 14.7895V15.9426H56.0076V15.3661C56.0076 14.7682 56.9685 14.6401 57.4596 14.6401C58.8476 14.6401 59.4669 15.2166 59.4669 16.7754V16.8608H59.1252ZM57.0326 21.8362C55.9222 21.8362 55.3883 21.1529 55.3883 20.4269C55.3883 18.9108 57.6305 18.7186 59.0398 18.7186H59.5096V18.9748C59.5096 20.2988 58.4846 21.8362 57.0326 21.8362ZM88.1304 15.5796V23.694H90.821V18.9108C90.821 18.4196 90.885 17.9712 90.9918 17.5441C91.3335 16.1562 92.2517 15.0244 93.6183 15.0244C94.9209 15.0244 95.0917 16.028 95.0917 17.2025V23.694H97.8036V18.9108C97.8036 18.3983 97.8463 17.9499 97.9744 17.5228C98.2734 16.1562 99.2343 15.0244 100.58 15.0244C101.839 15.0244 102.074 15.964 102.074 17.2025V22.2419C102.074 23.2669 102.501 23.694 103.526 23.694H105.945V21.4091H105.256C104.957 21.4091 104.786 21.2383 104.786 20.9394V16.69C104.786 13.8286 103.484 12.5474 101.22 12.5474C99.4905 12.5474 98.0812 13.6151 97.5046 14.7895H97.4619C96.9921 13.3161 95.9245 12.5474 94.2803 12.5474C92.572 12.5474 91.2694 13.7432 90.7569 14.8109H90.7142C90.7142 14.8109 90.7355 14.576 90.7355 14.3411V14.0208C90.7355 13.2521 90.2658 12.8036 89.3049 12.8036H86.8065V14.96H87.6606C87.9596 14.96 88.1304 15.2593 88.1304 15.5796ZM107.207 20.555C107.207 17.1384 111.905 16.8608 113.677 16.8608H114.019V16.7754C114.019 15.2166 113.399 14.6401 112.011 14.6401C111.52 14.6401 110.559 14.7682 110.559 15.3661V15.9426H108.04V14.7895C108.04 12.7609 110.901 12.5474 112.033 12.5474C115.663 12.5474 116.731 14.4479 116.731 16.8822V20.9394C116.731 21.2383 116.901 21.4091 117.2 21.4091H117.911V23.694H115.62C114.617 23.694 114.232 23.1388 114.232 22.4982C114.232 22.2206 114.254 22.0284 114.254 22.0284H114.211C114.211 22.0284 113.378 23.9502 110.922 23.9502C108.979 23.9502 107.207 22.7331 107.207 20.555ZM109.94 20.4269C109.94 21.1529 110.474 21.8362 111.584 21.8362C113.036 21.8362 114.061 20.2988 114.061 18.9748V18.7186H113.592C112.182 18.7186 109.94 18.9108 109.94 20.4269ZM120.266 20.2347L118.985 22.007C118.985 22.007 120.522 23.9502 123.512 23.9502C125.882 23.9502 127.697 22.669 127.697 20.6191C127.697 18.466 125.661 17.7101 124.005 17.095C122.868 16.6731 121.91 16.3174 121.91 15.6223C121.91 14.9817 122.572 14.6401 123.533 14.6401C124.131 14.6401 124.9 14.8963 124.9 15.4088V15.7991H127.291V14.8109C127.291 13.0385 124.943 12.5474 123.469 12.5474C121.206 12.5474 119.241 13.551 119.241 15.7291C119.241 17.8508 121.324 18.6871 122.981 19.3525C124.076 19.792 124.985 20.1569 124.985 20.7685C124.985 21.4946 124.345 21.8362 123.512 21.8362C121.654 21.8362 120.266 20.2347 120.266 20.2347ZM79.2053 23.6936V15.5793C79.2053 15.2589 79.0344 15.1095 78.7355 15.1095H77.8813V12.8033H80.3584C81.3193 12.8033 81.8104 13.209 81.8104 14.1272V14.7678C81.8104 15.1735 81.7677 15.4511 81.7677 15.4511H81.8104C82.3015 13.8923 83.6041 12.7606 85.2697 12.7606C85.5046 12.7606 85.7608 12.8033 85.7608 12.8033V14.96C84.6077 14.96 82.6218 15.985 82.1307 17.6078C81.9812 18.1417 81.8958 18.7396 81.8958 19.3802V23.6936H79.2053ZM74.2467 11.5489C75.2131 11.5489 75.9966 10.7654 75.9966 9.79901C75.9966 8.83258 75.2131 8.04913 74.2467 8.04913C73.2803 8.04913 72.4968 8.83258 72.4968 9.79901C72.4968 10.7654 73.2803 11.5489 74.2467 11.5489Z" fill="#C32828"/>
</svg>
