<svg width="202" height="41" viewBox="0 0 202 41" fill="none" xmlns="http://www.w3.org/2000/svg">
<g clip-path="url(#clip0_3943_14291)">
<path d="M31.8477 0.345001V8.295H24.5515V40.265H15.9088V8.295H8.58249V0.345001H31.8477Z" fill="#CE0E2D"/>
<path d="M40.39 27.54L39.184 27.925C37.2259 28.5435 35.2025 28.9344 33.1541 29.09L30.9633 29.145L38.9026 40.235H49.5654L40.39 27.54Z" fill="#CE0E2D"/>
<path d="M14.2556 34.89L11.6828 34.74L11.2708 32.44L9.98945 34.64L7.28104 34.485L9.16035 36.085L7.86896 38.37L10.3211 37.095L12.7431 38.65L11.9994 36.33L14.2556 34.89Z" fill="#FFDB00"/>
<path d="M6.97452 26.975L4.57263 26.84L4.19074 24.765L2.99482 26.75L0.472336 26.6L2.22602 28.05L0.678354 30.08L3.31139 28.96L5.21582 30.34L4.8691 28.27L6.97452 26.975Z" fill="#FFDB00"/>
<path d="M6.14542 18.38L3.98975 18.255L3.63299 16.485L2.56771 18.175L0.291443 18.04L1.87428 19.28L0.487413 21.01L2.85413 20.06L4.57264 21.245L4.2611 19.475L6.14542 18.38Z" fill="#FFDB00"/>
<path d="M10.1854 11.725L8.30612 11.615L7.98955 10.22L7.07 11.545L5.09019 11.43L6.47204 12.41L5.27612 13.77L7.33129 13.03L8.8287 13.975L8.54731 12.58L10.1854 11.725Z" fill="#FFDB00"/>
<path d="M47.2338 8.595C46.5072 6.92198 45.4175 5.42966 44.043 4.22501C42.5714 2.94721 40.8504 1.98546 38.988 1.39999C36.9537 0.752487 34.8326 0.41533 32.6969 0.399994C32.6969 3.04999 32.6969 5.66501 32.6969 8.33501C34.2311 8.43748 35.7041 8.97347 36.9429 9.88C38.2829 10.9067 38.9528 12.4067 38.9528 14.38V14.5C38.9664 15.3145 38.8012 16.122 38.4688 16.8664C38.1364 17.6108 37.6448 18.2741 37.0283 18.81C35.7419 19.97 33.9363 20.55 31.6115 20.55H25.3505C25.3505 23.175 25.3505 25.745 25.3505 28.365H31.305C33.5507 28.3877 35.7885 28.0965 37.9529 27.5C39.9125 26.9639 41.7523 26.063 43.3747 24.845C44.9095 23.6744 46.1541 22.1691 47.0127 20.445C47.9319 18.5406 48.3864 16.4472 48.3393 14.335V14.225C48.3684 12.2923 47.9919 10.3747 47.2338 8.595Z" fill="#FFDB00"/>
<path d="M56.2334 2.83501H59.9518C60.4484 2.82776 60.9428 2.90381 61.414 3.06C61.8174 3.19734 62.1885 3.41511 62.5044 3.7C62.8042 3.97963 63.0391 4.32088 63.1928 4.7C63.3563 5.10331 63.4366 5.5352 63.429 5.97V6C63.4386 6.47663 63.3425 6.9495 63.1476 7.38499C62.9655 7.7743 62.6955 8.11651 62.3587 8.38499C62.012 8.65692 61.6163 8.86056 61.1929 8.985C60.7265 9.12199 60.2422 9.18939 59.7558 9.185H58.2484V11.9H56.2384L56.2334 2.83501ZM59.8211 7.395C60.032 7.40862 60.2435 7.38074 60.4435 7.31296C60.6436 7.24518 60.8282 7.13883 60.9869 7C61.1229 6.87695 61.2305 6.72612 61.3025 6.55785C61.3745 6.38957 61.4091 6.20781 61.404 6.02499V6C61.4135 5.81154 61.3795 5.62342 61.3046 5.45007C61.2297 5.27673 61.1159 5.12276 60.9718 5C60.6277 4.74948 60.2067 4.62575 59.7809 4.64999H58.2383V7.41499L59.8211 7.395Z" fill="#575756"/>
<path d="M64.8209 2.44501H66.7957V11.88H64.8209V2.44501Z" fill="#575756"/>
<path d="M70.5995 12C70.2846 12.0019 69.9712 11.9564 69.6699 11.865C69.3916 11.7812 69.1334 11.6416 68.9111 11.455C68.6969 11.2724 68.5254 11.0455 68.4087 10.79C68.2787 10.5044 68.2152 10.1934 68.2227 9.88C68.2099 9.53506 68.2806 9.19211 68.4288 8.88C68.5656 8.61031 68.7634 8.37584 69.0066 8.19501C69.2733 8.00597 69.5733 7.86856 69.891 7.78999C70.2621 7.69632 70.6438 7.65095 71.0266 7.655C71.3382 7.65127 71.6494 7.67637 71.9562 7.72999C72.2187 7.78235 72.4772 7.85252 72.7301 7.94V7.82001C72.7416 7.64528 72.7137 7.47019 72.6485 7.30755C72.5833 7.14492 72.4824 6.99884 72.3532 6.88C72.031 6.64135 71.6333 6.52599 71.2326 6.55499C70.8953 6.55274 70.5586 6.58457 70.2277 6.64999C69.9167 6.72228 69.6111 6.81583 69.3131 6.92999L68.8107 5.42999C69.196 5.26464 69.5943 5.13087 70.0015 5.03C70.4958 4.91749 71.0021 4.86544 71.509 4.875C71.9826 4.86337 72.4548 4.93098 72.9059 5.075C73.2639 5.19207 73.5904 5.3887 73.8607 5.64999C74.1261 5.91586 74.3226 6.24187 74.4335 6.6C74.5589 7.00816 74.62 7.43322 74.6144 7.86V11.86H72.7049V11.11C72.4601 11.3779 72.1647 11.5954 71.8356 11.75C71.4475 11.924 71.0251 12.0094 70.5995 12ZM71.1975 10.64C71.6003 10.6608 71.9979 10.5425 72.323 10.305C72.4584 10.2021 72.5673 10.0686 72.6407 9.91562C72.7141 9.76262 72.7499 9.59447 72.7451 9.425V9.08C72.5592 8.99805 72.3657 8.93441 72.1673 8.89C71.9426 8.84293 71.7135 8.81948 71.4839 8.82001C71.1318 8.79924 70.7815 8.88462 70.4789 9.065C70.3623 9.14234 70.2677 9.24834 70.2043 9.37273C70.1409 9.49711 70.1109 9.63567 70.1171 9.77499V9.8C70.1108 9.92044 70.1346 10.0406 70.1863 10.1496C70.238 10.2587 70.3161 10.3533 70.4136 10.425C70.6434 10.5826 70.9186 10.6616 71.1975 10.65V10.64Z" fill="#575756"/>
<path d="M76.3178 4.95501H78.2926V5.95501C78.4052 5.80537 78.5278 5.66339 78.6594 5.53C78.7958 5.39514 78.9456 5.27452 79.1066 5.17C79.278 5.06548 79.462 4.98315 79.6543 4.92501C79.8731 4.86231 80.1 4.83199 80.3277 4.83501C80.6518 4.81472 80.9764 4.86555 81.2786 4.98392C81.5808 5.10229 81.8531 5.28531 82.0763 5.52001C82.5138 6.04834 82.7346 6.72161 82.6944 7.405V11.905H80.7196V8.05001C80.7438 7.6728 80.6295 7.29968 80.398 7.00001C80.2861 6.87947 80.1488 6.78511 79.9959 6.72373C79.843 6.66234 79.6782 6.63546 79.5136 6.64501C79.3462 6.6369 79.1789 6.66437 79.023 6.72558C78.867 6.78679 78.726 6.88034 78.6092 7.00001C78.3707 7.29628 78.254 7.67149 78.2825 8.05001V11.905H76.3078L76.3178 4.95501Z" fill="#575756"/>
<path d="M91.1613 12C90.756 11.9993 90.3548 11.9195 89.9805 11.765C89.6008 11.6073 89.2584 11.3722 88.9755 11.075C88.67 10.7479 88.4296 10.3662 88.267 9.95C88.0824 9.46118 87.992 8.94212 88.0007 8.42V8.395C87.9916 7.87123 88.082 7.35045 88.267 6.86C88.4303 6.44533 88.6688 6.06402 88.9705 5.735C89.2517 5.4358 89.5945 5.20045 89.9754 5.045C90.3551 4.89116 90.7614 4.81302 91.1713 4.815C91.6273 4.79534 92.0798 4.90269 92.4778 5.125C92.8029 5.31721 93.0948 5.56033 93.3421 5.845V2.435H95.3169V11.87H93.3421V10.87C93.1037 11.1934 92.8052 11.4684 92.4627 11.68C92.068 11.9069 91.6168 12.0178 91.1613 12ZM91.6638 10.33C91.8887 10.3317 92.1114 10.2857 92.317 10.195C92.52 10.1058 92.7016 9.97451 92.8497 9.81C93.0104 9.63217 93.135 9.42501 93.2165 9.2C93.3095 8.9505 93.3555 8.68609 93.3521 8.42V8.395C93.3551 8.12732 93.3091 7.86133 93.2165 7.61C93.1349 7.38654 93.0103 7.18105 92.8497 7.005C92.7033 6.83738 92.5214 6.70417 92.317 6.61501C92.1114 6.52433 91.8887 6.4783 91.6638 6.48C91.4373 6.47835 91.2129 6.52437 91.0055 6.61501C90.8012 6.70679 90.6182 6.83956 90.4679 7.005C90.3074 7.18018 90.1813 7.38367 90.096 7.605C90.0021 7.85772 89.9561 8.12559 89.9604 8.395V8.42C89.957 8.68609 90.003 8.9505 90.096 9.2C90.1812 9.42435 90.3073 9.63115 90.4679 9.81C90.6198 9.9724 90.8025 10.1033 91.0055 10.195C91.2137 10.2898 91.4399 10.3392 91.6688 10.34L91.6638 10.33Z" fill="#575756"/>
<path d="M100.372 12.035C99.8773 12.0409 99.386 11.9527 98.9247 11.775C98.4914 11.6144 98.0974 11.3639 97.769 11.04C97.4401 10.7187 97.1803 10.3343 97.0052 9.91C96.8191 9.4476 96.7269 8.95308 96.7339 8.455V8.42999C96.7322 7.9537 96.8173 7.48107 96.9851 7.035C97.1459 6.61046 97.3864 6.22019 97.6936 5.88499C97.9983 5.55544 98.3677 5.29167 98.779 5.11C99.2378 4.91384 99.7319 4.81267 100.231 4.81267C100.731 4.81267 101.225 4.91384 101.683 5.11C102.093 5.30738 102.454 5.59052 102.744 5.94C103.027 6.29853 103.238 6.70753 103.367 7.145C103.5 7.60493 103.568 8.08128 103.568 8.56C103.568 8.635 103.568 8.71999 103.568 8.80499C103.568 8.88999 103.568 8.98 103.568 9.075H98.7237C98.7913 9.46945 99.0024 9.82538 99.3167 10.075C99.6366 10.3124 100.028 10.4341 100.427 10.42C100.731 10.4255 101.032 10.3676 101.312 10.25C101.607 10.1149 101.879 9.93249 102.116 9.71001L103.246 10.71C102.921 11.1092 102.513 11.4334 102.05 11.66C101.528 11.9131 100.953 12.0415 100.372 12.035ZM101.643 7.875C101.602 7.4789 101.439 7.10515 101.176 6.80499C101.048 6.6693 100.891 6.56285 100.718 6.49294C100.545 6.42302 100.358 6.39131 100.171 6.39999C99.9845 6.39231 99.7986 6.42398 99.6254 6.49292C99.4522 6.56186 99.2956 6.66652 99.1659 6.8C98.8949 7.10077 98.72 7.47498 98.6634 7.875H101.643Z" fill="#575756"/>
<path d="M109.14 2.83501H113.296C113.776 2.80286 114.258 2.86731 114.713 3.02451C115.168 3.18171 115.587 3.42844 115.944 3.75C116.208 4.02456 116.413 4.34961 116.547 4.70544C116.681 5.06128 116.741 5.44047 116.723 5.82001V5.845C116.75 6.48478 116.561 7.11521 116.185 7.63499C115.818 8.09371 115.329 8.44028 114.773 8.63499L116.994 11.865H114.658L112.708 9H111.14V11.895H109.13L109.14 2.83501ZM113.16 7.22501C113.568 7.25154 113.972 7.12886 114.296 6.88001C114.427 6.76391 114.531 6.62024 114.599 6.45941C114.668 6.29858 114.7 6.12459 114.693 5.95V5.92C114.705 5.73775 114.674 5.55516 114.601 5.38734C114.529 5.21953 114.417 5.07133 114.276 4.955C113.939 4.71887 113.531 4.60421 113.12 4.63001H111.135V7.22501H113.16Z" fill="#575756"/>
<path d="M121.602 12.035C121.106 12.0405 120.613 11.9522 120.15 11.775C119.718 11.612 119.324 11.3618 118.994 11.04C118.668 10.7171 118.41 10.333 118.235 9.91C118.049 9.4476 117.957 8.95308 117.964 8.455V8.42999C117.962 7.9537 118.047 7.48107 118.215 7.035C118.376 6.61046 118.616 6.22019 118.924 5.88499C119.226 5.55324 119.596 5.2891 120.009 5.11C120.468 4.91384 120.962 4.81267 121.461 4.81267C121.961 4.81267 122.455 4.91384 122.913 5.11C123.322 5.30622 123.682 5.5896 123.969 5.94C124.255 6.29615 124.467 6.7059 124.592 7.145C124.728 7.60441 124.795 8.08111 124.793 8.56C124.793 8.635 124.793 8.71999 124.793 8.80499C124.793 8.88999 124.793 8.98 124.793 9.075H119.944C120.011 9.46945 120.222 9.82538 120.537 10.075C120.857 10.3124 121.248 10.4341 121.647 10.42C121.951 10.4255 122.252 10.3676 122.532 10.25C122.827 10.1149 123.099 9.93249 123.336 9.71001L124.466 10.71C124.142 11.1092 123.733 11.4334 123.27 11.66C122.751 11.9111 122.18 12.0394 121.602 12.035ZM122.873 7.875C122.832 7.4789 122.669 7.10515 122.406 6.80499C122.278 6.6693 122.122 6.56285 121.948 6.49294C121.775 6.42302 121.588 6.39131 121.401 6.39999C121.215 6.39231 121.029 6.42398 120.855 6.49292C120.682 6.56186 120.526 6.66652 120.396 6.8C120.123 7.09957 119.948 7.47437 119.894 7.875H122.873Z" fill="#575756"/>
<path d="M129.571 12.035C129.073 12.0396 128.579 11.9426 128.119 11.75C127.69 11.5713 127.301 11.3095 126.974 10.98C126.649 10.6551 126.393 10.2693 126.22 9.845C126.033 9.40526 125.939 8.93224 125.943 8.455V8.42999C125.94 7.95123 126.034 7.47678 126.22 7.035C126.392 6.60591 126.649 6.21505 126.974 5.88499C127.298 5.55076 127.688 5.2869 128.119 5.11C129.118 4.71297 130.231 4.71297 131.23 5.11C131.664 5.31563 132.053 5.60448 132.375 5.96L131.149 7.28C130.948 7.06077 130.714 6.87359 130.456 6.725C130.184 6.57616 129.877 6.50357 129.566 6.515C129.33 6.51096 129.096 6.56234 128.883 6.66499C128.682 6.76589 128.501 6.90325 128.35 7.07C128.197 7.24801 128.08 7.45331 128.004 7.675C127.918 7.90876 127.875 8.1561 127.878 8.405V8.42999C127.876 8.68537 127.918 8.93922 128.004 9.17999C128.08 9.40361 128.202 9.60944 128.36 9.785C128.516 9.95881 128.706 10.0985 128.918 10.195C129.147 10.2961 129.396 10.3456 129.647 10.34C129.946 10.3475 130.242 10.2787 130.506 10.14C130.775 9.99472 131.023 9.81483 131.245 9.60499L132.4 10.77C132.068 11.1346 131.678 11.4421 131.245 11.68C130.725 11.9336 130.15 12.0555 129.571 12.035Z" fill="#575756"/>
<path d="M136.013 12C135.689 12.0189 135.365 11.9675 135.063 11.8492C134.761 11.7309 134.489 11.5486 134.265 11.315C133.826 10.7851 133.606 10.11 133.647 9.425V4.925H135.621V8.78C135.596 9.15581 135.706 9.52833 135.933 9.83C136.045 9.95054 136.182 10.0449 136.335 10.1063C136.488 10.1677 136.653 10.1945 136.817 10.185C136.984 10.1937 137.151 10.1665 137.306 10.1052C137.461 10.0439 137.601 9.95007 137.717 9.83C137.957 9.53446 138.076 9.15917 138.048 8.78V4.925H140.023V11.85H138.048V10.85C137.936 10.9998 137.813 11.1418 137.682 11.275C137.544 11.4068 137.394 11.5257 137.234 11.63C137.064 11.7382 136.88 11.8223 136.687 11.88C136.469 11.9529 136.242 11.9933 136.013 12Z" fill="#575756"/>
<path d="M141.792 4.955H143.767V5.955C144.002 5.63056 144.299 5.35533 144.641 5.145C145.034 4.92219 145.481 4.81307 145.932 4.83C146.339 4.82893 146.742 4.90707 147.118 5.06C147.498 5.21721 147.841 5.45232 148.123 5.75C148.43 6.07613 148.671 6.45812 148.832 6.875C149.017 7.36545 149.107 7.88623 149.098 8.41V8.435C149.107 8.95712 149.016 9.47618 148.832 9.965C148.673 10.3808 148.436 10.7626 148.133 11.09C147.852 11.3887 147.509 11.624 147.128 11.78C146.749 11.9356 146.343 12.0154 145.932 12.015C145.478 12.0322 145.028 11.9249 144.631 11.705C144.305 11.5113 144.014 11.2664 143.767 10.98V13.955H141.792V4.955ZM145.43 10.34C145.655 10.3417 145.878 10.2957 146.083 10.205C146.287 10.1146 146.47 9.98354 146.621 9.82001C146.781 9.64449 146.907 9.44107 146.993 9.22C147.086 8.96716 147.132 8.69937 147.128 8.42999V8.405C147.131 8.13732 147.085 7.87133 146.993 7.62C146.909 7.39624 146.783 7.19077 146.621 7.015C146.469 6.85272 146.284 6.72427 146.079 6.63809C145.874 6.55191 145.653 6.50996 145.43 6.515C145.203 6.51336 144.979 6.55936 144.772 6.64999C144.568 6.74056 144.386 6.87356 144.239 7.03999C144.082 7.21754 143.959 7.42272 143.877 7.645C143.785 7.89634 143.739 8.16231 143.742 8.42999V8.455C143.738 8.72109 143.784 8.98551 143.877 9.235C143.959 9.4588 144.082 9.66562 144.239 9.845C144.391 10.0073 144.575 10.1357 144.781 10.2219C144.986 10.3081 145.207 10.35 145.43 10.345V10.34Z" fill="#575756"/>
<path d="M153.857 12.035C153.362 12.04 152.871 11.9517 152.409 11.775C151.977 11.6132 151.583 11.3628 151.254 11.04C150.926 10.7185 150.668 10.334 150.495 9.91C150.305 9.44865 150.211 8.95362 150.219 8.455V8.42999C150.216 7.95318 150.303 7.48011 150.475 7.035C150.632 6.60861 150.873 6.21764 151.183 5.88499C151.486 5.55324 151.856 5.2891 152.269 5.11C152.727 4.91368 153.22 4.81242 153.718 4.81242C154.217 4.81242 154.71 4.91368 155.168 5.11C155.579 5.30474 155.941 5.5883 156.228 5.94C156.513 6.29744 156.725 6.70678 156.851 7.145C156.987 7.60441 157.055 8.08111 157.052 8.56C157.052 8.635 157.052 8.71999 157.052 8.80499C157.052 8.88999 157.052 8.98 157.052 9.075H152.209C152.277 9.46808 152.485 9.82333 152.796 10.075C153.117 10.3117 153.508 10.4333 153.907 10.42C154.21 10.4261 154.512 10.3681 154.791 10.25C155.088 10.1161 155.36 9.93358 155.595 9.71001L156.726 10.71C156.403 11.1115 155.995 11.4361 155.53 11.66C155.009 11.9123 154.436 12.0407 153.857 12.035ZM155.128 7.875C155.087 7.4789 154.924 7.10515 154.661 6.80499C154.532 6.6693 154.376 6.56285 154.203 6.49294C154.029 6.42302 153.843 6.39131 153.656 6.39999C153.469 6.39325 153.284 6.42536 153.111 6.49425C152.938 6.56313 152.781 6.66728 152.651 6.8C152.378 7.09957 152.203 7.47437 152.148 7.875H155.128Z" fill="#575756"/>
<path d="M158.52 4.955H160.495V6.35001C160.67 5.90919 160.951 5.5178 161.314 5.21001C161.716 4.91204 162.216 4.7747 162.716 4.825V6.88H162.61C162.323 6.86313 162.037 6.9075 161.769 7.01013C161.501 7.11276 161.258 7.27127 161.057 7.47501C160.639 7.99575 160.438 8.65602 160.495 9.32001V11.88H158.52V4.955Z" fill="#575756"/>
<path d="M165.921 12C165.608 12.0022 165.296 11.9567 164.997 11.865C164.717 11.7811 164.457 11.6417 164.233 11.455C164.019 11.2724 163.847 11.0455 163.731 10.79C163.601 10.5044 163.537 10.1934 163.545 9.88001C163.534 9.53527 163.605 9.19289 163.751 8.88001C163.887 8.61031 164.085 8.37584 164.328 8.19501C164.595 8.00597 164.895 7.86856 165.213 7.78999C165.584 7.69632 165.966 7.65095 166.348 7.655C166.66 7.65127 166.971 7.67637 167.278 7.73C167.541 7.78171 167.799 7.85189 168.052 7.94V7.82001C168.063 7.64528 168.036 7.47019 167.97 7.30756C167.905 7.14492 167.804 6.99885 167.675 6.88001C167.354 6.64211 166.959 6.52676 166.56 6.55499C166.222 6.55301 165.886 6.58484 165.555 6.64999C165.244 6.72228 164.938 6.81583 164.64 6.92999L164.138 5.42999C164.525 5.26464 164.925 5.13087 165.333 5.03C165.828 4.9168 166.334 4.86474 166.841 4.875C167.315 4.86299 167.787 4.93061 168.238 5.075C168.596 5.19207 168.922 5.38871 169.193 5.64999C169.458 5.91586 169.655 6.24187 169.765 6.60001C169.891 7.00817 169.952 7.43322 169.946 7.86V11.86H168.037V11.11C167.792 11.3779 167.497 11.5954 167.168 11.75C166.776 11.9255 166.35 12.0109 165.921 12ZM166.519 10.64C166.922 10.6608 167.32 10.5425 167.645 10.305C167.78 10.2021 167.889 10.0686 167.963 9.91562C168.036 9.76262 168.072 9.59447 168.067 9.425V9.08C167.881 8.99744 167.688 8.93378 167.489 8.89C167.264 8.84264 167.035 8.81919 166.806 8.82001C166.454 8.79924 166.103 8.88462 165.801 9.065C165.684 9.14234 165.59 9.24834 165.526 9.37273C165.463 9.49711 165.433 9.63567 165.439 9.77499V9.8C165.434 9.92032 165.458 10.0401 165.509 10.149C165.561 10.258 165.639 10.3527 165.735 10.425C165.966 10.582 166.241 10.6609 166.519 10.65V10.64Z" fill="#575756"/>
<path d="M174.926 12.035C174.429 12.04 173.936 11.943 173.479 11.75C173.058 11.5749 172.676 11.3202 172.353 11C172.029 10.6751 171.773 10.2893 171.6 9.865C171.418 9.42407 171.325 8.95163 171.328 8.475V8.44999C171.326 7.97179 171.418 7.49781 171.6 7.05499C171.772 6.6259 172.028 6.23505 172.353 5.90499C172.679 5.57063 173.071 5.3068 173.504 5.13C173.97 4.93552 174.471 4.83851 174.976 4.84499C175.539 4.82464 176.099 4.93059 176.614 5.15499C177.047 5.36073 177.435 5.64961 177.755 6.005L176.549 7.3C176.346 7.08308 176.112 6.89619 175.856 6.74499C175.582 6.59666 175.273 6.52415 174.961 6.535C174.726 6.53175 174.494 6.5831 174.283 6.68499C174.08 6.78332 173.899 6.92102 173.75 7.08999C173.596 7.2678 173.476 7.47308 173.398 7.695C173.315 7.92937 173.272 8.1763 173.273 8.425V8.44999C173.273 8.70517 173.315 8.95859 173.398 9.19999C173.475 9.42361 173.596 9.62943 173.755 9.80499C173.91 9.9788 174.1 10.1184 174.313 10.215C174.542 10.3156 174.791 10.3651 175.042 10.36C175.342 10.3675 175.639 10.2987 175.906 10.16C176.173 10.0146 176.42 9.8347 176.639 9.62499L177.795 10.79C177.464 11.1558 177.073 11.4634 176.639 11.7C176.106 11.9532 175.516 12.0684 174.926 12.035Z" fill="#575756"/>
<path d="M179.097 2.44501H181.172V4.19H179.097V2.44501ZM179.147 4.94501H181.122V11.87H179.147V4.94501Z" fill="#575756"/>
<path d="M186.393 12.035C185.877 12.0412 185.364 11.9461 184.885 11.755C184.448 11.5808 184.049 11.3244 183.709 11C183.376 10.6747 183.109 10.2873 182.926 9.86C182.733 9.41829 182.636 8.94143 182.639 8.46001V8.435C182.636 7.96004 182.731 7.48947 182.916 7.05194C183.102 6.61441 183.375 6.21907 183.72 5.89C184.062 5.55479 184.469 5.29128 184.915 5.11501C185.394 4.92082 185.906 4.82391 186.423 4.83C186.939 4.82336 187.451 4.91676 187.93 5.105C188.372 5.27971 188.775 5.5397 189.116 5.87C189.459 6.19826 189.731 6.59298 189.915 7.02982C190.1 7.46665 190.192 7.93635 190.187 8.41V8.435C190.189 8.91585 190.094 9.39224 189.905 9.83501C189.718 10.2647 189.449 10.6537 189.111 10.98C188.766 11.3125 188.36 11.5757 187.915 11.755C187.432 11.9493 186.914 12.0446 186.393 12.035ZM186.418 10.34C186.68 10.3465 186.94 10.2971 187.182 10.195C187.396 10.0999 187.588 9.96006 187.744 9.785C187.903 9.61133 188.025 9.40713 188.101 9.185C188.184 8.9505 188.227 8.70366 188.227 8.455V8.42999C188.228 8.18079 188.184 7.93343 188.096 7.7C188.012 7.47395 187.884 7.26665 187.719 7.09C187.553 6.91522 187.355 6.77279 187.136 6.67C186.898 6.56877 186.642 6.51659 186.383 6.51659C186.124 6.51659 185.867 6.56877 185.629 6.67C185.415 6.76511 185.224 6.90297 185.066 7.075C184.908 7.25128 184.787 7.45689 184.709 7.67999C184.623 7.91375 184.581 8.16111 184.584 8.41V8.435C184.581 8.68437 184.625 8.93208 184.714 9.16499C184.797 9.3901 184.926 9.59598 185.091 9.77C185.252 9.9488 185.449 10.0919 185.669 10.19C185.906 10.2967 186.163 10.348 186.423 10.34H186.418ZM187.121 1.89999L188.825 2.64L187.162 4.19H185.654L187.121 1.89999Z" fill="#575756"/>
<path d="M191.604 4.95501H193.578V5.95501C193.695 5.79458 193.822 5.64253 193.96 5.5C194.097 5.36391 194.249 5.24319 194.412 5.14C194.582 5.03456 194.764 4.95216 194.955 4.89501C195.174 4.83267 195.401 4.80234 195.628 4.805C195.953 4.7847 196.277 4.83555 196.579 4.95392C196.882 5.07229 197.154 5.25531 197.377 5.49001C197.815 6.01834 198.035 6.69161 197.995 7.375V11.875H196.02V8.02001C196.047 7.64405 195.937 7.27106 195.709 6.97001C195.597 6.84947 195.46 6.75511 195.307 6.69373C195.154 6.63235 194.989 6.60546 194.824 6.61501C194.658 6.60698 194.491 6.63449 194.336 6.69571C194.181 6.75694 194.041 6.85046 193.925 6.97001C193.685 7.26555 193.566 7.64084 193.593 8.02001V11.875H191.619L191.604 4.95501Z" fill="#575756"/>
<path d="M199.151 13.16C200.06 13.065 200.488 12.66 200.417 11.88H199.618V9.81H201.709V11.555C201.741 11.8888 201.703 12.2258 201.595 12.5438C201.488 12.8617 201.314 13.1535 201.085 13.4C200.588 13.8041 199.958 14.0092 199.317 13.975L199.151 13.16Z" fill="#575756"/>
<path d="M58.2333 18.245H55.4646V16.41H63.0019V18.245H60.2332V25.46H58.2232L58.2333 18.245Z" fill="#575756"/>
<path d="M64.3184 18.53H66.2932V19.925C66.47 19.4864 66.7511 19.0969 67.1122 18.79C67.5142 18.4903 68.0143 18.3511 68.5142 18.4V20.455H68.4137C68.1274 20.4401 67.8411 20.4853 67.5736 20.5878C67.3061 20.6904 67.0633 20.8478 66.861 21.05C66.441 21.5718 66.2379 22.2338 66.2932 22.9V25.46H64.3184V18.53Z" fill="#575756"/>
<path d="M71.7301 25.585C71.4151 25.5872 71.1017 25.5416 70.8005 25.45C70.5229 25.3669 70.2649 25.2292 70.0417 25.045C69.8272 24.8628 69.6556 24.6357 69.5392 24.38C69.4086 24.0945 69.3433 23.7837 69.3483 23.47V23.44C69.3376 23.0952 69.4082 22.7528 69.5543 22.44C69.6897 22.1694 69.8878 21.9346 70.1322 21.755C70.3994 21.5669 70.6992 21.4296 71.0166 21.35C71.387 21.2524 71.769 21.2053 72.1522 21.21C72.464 21.2051 72.7755 21.2319 73.0818 21.29C73.3478 21.3412 73.6098 21.4114 73.8657 21.5V21.385C73.8776 21.2095 73.85 21.0335 73.7848 20.87C73.7196 20.7065 73.6184 20.5596 73.4888 20.44C73.1675 20.2039 72.7716 20.0903 72.3733 20.12C72.0358 20.1154 71.6989 20.1472 71.3683 20.215C71.0569 20.2857 70.7512 20.3793 70.4538 20.495L69.9513 18.995C70.3375 18.8274 70.7377 18.6936 71.1472 18.595C71.6414 18.4819 72.1477 18.4299 72.6547 18.44C73.1283 18.4288 73.6004 18.4963 74.0516 18.64C74.409 18.7551 74.7343 18.9521 75.0013 19.215C75.2677 19.4801 75.4644 19.8064 75.5741 20.165C75.6996 20.5731 75.7606 20.9982 75.755 21.425V25.425H73.8456V24.675C73.6007 24.9429 73.3054 25.1604 72.9763 25.315C72.5859 25.4951 72.1604 25.5873 71.7301 25.585ZM72.3281 24.23C72.7293 24.2509 73.1254 24.1325 73.4486 23.895C73.5846 23.7895 73.6933 23.6533 73.7658 23.4976C73.8384 23.342 73.8726 23.1714 73.8657 23V22.65C73.6798 22.5691 73.4862 22.5072 73.2878 22.465C73.0635 22.4152 72.8342 22.3917 72.6044 22.395C72.2524 22.3749 71.9023 22.4602 71.5995 22.64C71.4821 22.7166 71.387 22.8225 71.3235 22.947C71.26 23.0716 71.2304 23.2105 71.2377 23.35C71.2326 23.4696 71.257 23.5885 71.3087 23.6966C71.3603 23.8046 71.4377 23.8985 71.5341 23.97C71.763 24.1408 72.0419 24.2322 72.3281 24.23Z" fill="#575756"/>
<path d="M77.4434 18.53H79.4182V19.53C79.5311 19.3807 79.6554 19.2403 79.79 19.11C79.9242 18.9728 80.0743 18.8519 80.2372 18.75C80.4066 18.6439 80.589 18.5599 80.7799 18.5C81.0004 18.4373 81.2289 18.407 81.4583 18.41C81.7815 18.3905 82.1052 18.4417 82.4065 18.56C82.7077 18.6783 82.9792 18.861 83.2019 19.095C83.6392 19.6253 83.8599 20.3001 83.82 20.985V25.485H81.8452V21.63C81.8739 21.2523 81.7631 20.8772 81.5336 20.575C81.4215 20.4551 81.284 20.3615 81.131 20.301C80.9781 20.2404 80.8135 20.2145 80.6493 20.225C80.483 20.2167 80.3168 20.2435 80.1617 20.3039C80.0067 20.3642 79.8663 20.4566 79.7498 20.575C79.5083 20.8718 79.3897 21.2492 79.4182 21.63V25.485H77.4434V18.53Z" fill="#575756"/>
<path d="M87.9755 25.585C87.4628 25.5824 86.9539 25.498 86.4681 25.335C85.9356 25.1548 85.4378 24.886 84.9958 24.54L85.8399 23.25C86.1887 23.5066 86.5707 23.7152 86.9756 23.87C87.3144 23.9988 87.6732 24.0682 88.0358 24.075C88.2546 24.092 88.4734 24.0432 88.6639 23.935C88.7269 23.8948 88.7784 23.8392 88.8136 23.7736C88.8488 23.7079 88.8665 23.6344 88.8649 23.56V23.53C88.8632 23.4285 88.8217 23.3316 88.7493 23.26C88.6565 23.1753 88.5493 23.1076 88.4328 23.06C88.2815 22.999 88.1272 22.9456 87.9705 22.9L87.4228 22.73C87.1741 22.6594 86.9292 22.5759 86.6891 22.48C86.4486 22.3828 86.2235 22.2515 86.0208 22.09C85.815 21.9311 85.644 21.7321 85.5184 21.505C85.3867 21.2395 85.3228 20.9459 85.3324 20.65V20.625C85.3237 20.3149 85.3861 20.007 85.515 19.7245C85.6439 19.442 85.8358 19.1925 86.0761 18.995C86.3146 18.8011 86.5897 18.6566 86.8851 18.57C87.2107 18.4707 87.5496 18.4218 87.8901 18.425C88.3473 18.4292 88.8012 18.5017 89.2368 18.64C89.6796 18.7772 90.1008 18.9758 90.488 19.23L89.7342 20.585C89.4145 20.3979 89.0781 20.2406 88.7292 20.115C88.4502 20.0068 88.1543 19.9475 87.8549 19.94C87.6642 19.9265 87.4741 19.9737 87.3122 20.075C87.256 20.1134 87.2102 20.1649 87.1786 20.2251C87.1471 20.2852 87.1309 20.3522 87.1313 20.42V20.445C87.1311 20.4925 87.1413 20.5396 87.1612 20.5828C87.1812 20.626 87.2104 20.6643 87.2469 20.695C87.3402 20.7781 87.4451 20.8471 87.5585 20.9C87.7038 20.9717 87.8531 21.0352 88.0057 21.09L88.5433 21.27C88.7895 21.35 89.0458 21.44 89.287 21.55C89.5283 21.6488 89.7549 21.78 89.9603 21.94C90.1655 22.0935 90.3366 22.2876 90.4628 22.51C90.5998 22.7595 90.6674 23.0408 90.6588 23.325V23.35C90.668 23.6941 90.5993 24.0359 90.4578 24.35C90.3293 24.6221 90.1362 24.8589 89.895 25.04C89.6377 25.2261 89.3481 25.3634 89.0408 25.445C88.694 25.5408 88.3354 25.5879 87.9755 25.585Z" fill="#575756"/>
<path d="M92.3924 20.21H91.5733V18.595H92.3924V18.155C92.3536 17.5502 92.5579 16.9549 92.9602 16.5C93.1771 16.3089 93.4302 16.1627 93.7045 16.07C93.9789 15.9773 94.2691 15.9399 94.5581 15.96C94.8253 15.9563 95.0924 15.973 95.3571 16.01C95.5615 16.0403 95.7632 16.0871 95.96 16.15V17.78C95.8203 17.7298 95.6777 17.6881 95.5329 17.655C95.3793 17.6232 95.2226 17.6081 95.0656 17.61C94.5883 17.61 94.3521 17.86 94.3521 18.36V18.635H95.95V20.235H94.3672V25.485H92.3924V20.21Z" fill="#575756"/>
<path d="M100.432 25.615C99.9161 25.6212 99.4038 25.5261 98.9247 25.335C98.4829 25.1591 98.0788 24.9011 97.7338 24.575C97.4013 24.2487 97.1352 23.8616 96.95 23.435C96.7575 22.9933 96.6599 22.5164 96.6635 22.035V22C96.6599 21.5186 96.7575 21.0417 96.95 20.6C97.1382 20.1711 97.4077 19.7823 97.7439 19.455C98.0891 19.123 98.4951 18.86 98.9398 18.68C99.4181 18.4858 99.9307 18.3889 100.447 18.395C100.963 18.39 101.475 18.4851 101.955 18.675C102.394 18.8459 102.795 19.1018 103.134 19.428C103.473 19.7541 103.743 20.144 103.929 20.575C104.118 21.0178 104.214 21.4941 104.211 21.975V22C104.214 22.4825 104.118 22.9605 103.929 23.405C103.741 23.8339 103.472 24.2227 103.136 24.55C102.789 24.8809 102.384 25.1438 101.94 25.325C101.462 25.5208 100.949 25.6194 100.432 25.615ZM100.457 23.92C100.72 23.925 100.98 23.8738 101.221 23.77C101.435 23.6749 101.626 23.537 101.784 23.365C101.941 23.1898 102.062 22.9861 102.141 22.765C102.223 22.5304 102.266 22.2836 102.266 22.035V22C102.267 21.7509 102.222 21.5037 102.136 21.27C102.051 21.0455 101.923 20.8398 101.759 20.665C101.592 20.4902 101.395 20.3478 101.176 20.245C100.943 20.1391 100.689 20.0861 100.432 20.09C100.171 20.085 99.9125 20.1361 99.6734 20.24C99.4589 20.3334 99.267 20.4715 99.1106 20.645C98.9541 20.8213 98.8315 21.0246 98.7489 21.245C98.6678 21.4799 98.627 21.7267 98.6283 21.975V22C98.627 22.2492 98.6712 22.4966 98.7589 22.73C98.8417 22.9566 98.9699 23.1642 99.1358 23.34C99.2993 23.5158 99.4956 23.6584 99.7136 23.76C99.9462 23.8686 100.2 23.9233 100.457 23.92Z" fill="#575756"/>
<path d="M105.643 18.53H107.618V19.925C107.793 19.4867 108.072 19.0972 108.432 18.79C108.835 18.489 109.337 18.3498 109.839 18.4V20.455H109.733C109.447 20.4401 109.161 20.4853 108.893 20.5878C108.626 20.6904 108.383 20.8478 108.181 21.05C107.762 21.5725 107.561 22.2344 107.618 22.9V25.46H105.643V18.53Z" fill="#575756"/>
<path d="M111.05 18.53H113.06V19.53C113.174 19.3819 113.298 19.2416 113.432 19.11C113.566 18.9728 113.716 18.8519 113.879 18.75C114.051 18.6429 114.237 18.5588 114.431 18.5C114.654 18.4373 114.884 18.407 115.115 18.41C115.529 18.3991 115.938 18.4974 116.301 18.695C116.634 18.882 116.904 19.1618 117.08 19.5C117.354 19.1575 117.696 18.875 118.085 18.67C118.482 18.4792 118.919 18.3833 119.361 18.39C119.678 18.3723 119.996 18.4206 120.293 18.5316C120.591 18.6427 120.862 18.8141 121.089 19.035C121.537 19.5639 121.76 20.2452 121.713 20.935V25.435H119.738V21.58C119.764 21.2041 119.658 20.8307 119.436 20.525C119.33 20.4054 119.198 20.3117 119.05 20.251C118.902 20.1903 118.742 20.1643 118.582 20.175C118.419 20.1659 118.255 20.1925 118.103 20.253C117.951 20.3135 117.815 20.4063 117.703 20.525C117.471 20.8265 117.359 21.2017 117.386 21.58V25.435H115.411V21.58C115.437 21.2049 115.332 20.8325 115.115 20.525C115.007 20.4059 114.874 20.3126 114.726 20.252C114.577 20.1913 114.416 20.165 114.256 20.175C114.092 20.1666 113.929 20.1935 113.777 20.254C113.626 20.3144 113.489 20.4069 113.376 20.525C113.145 20.8265 113.032 21.2017 113.06 21.58V25.435H111.05V18.53Z" fill="#575756"/>
<path d="M125.386 25.585C125.071 25.5872 124.757 25.5416 124.456 25.45C124.179 25.3669 123.92 25.2292 123.697 25.045C123.484 24.8615 123.313 24.6347 123.195 24.38C123.064 24.0945 122.999 23.7837 123.004 23.47V23.44C122.993 23.0952 123.064 22.7528 123.21 22.44C123.346 22.1681 123.546 21.933 123.793 21.755C124.058 21.566 124.356 21.4286 124.672 21.35C125.043 21.2524 125.425 21.2053 125.808 21.21C126.12 21.2051 126.431 21.2319 126.737 21.29C127 21.34 127.258 21.4085 127.511 21.495V21.38C127.523 21.2045 127.496 21.0285 127.43 20.865C127.365 20.7015 127.264 20.5546 127.134 20.435C126.813 20.1989 126.417 20.0853 126.019 20.115C125.681 20.1097 125.344 20.1416 125.014 20.21C124.701 20.2799 124.393 20.3735 124.094 20.49L123.592 18.99C123.978 18.8224 124.378 18.6886 124.788 18.59C125.282 18.4775 125.788 18.4254 126.295 18.435C126.769 18.4237 127.241 18.4913 127.692 18.635C128.05 18.7514 128.377 18.9482 128.647 19.21C128.91 19.4768 129.105 19.8026 129.215 20.16C129.342 20.5679 129.405 20.9929 129.401 21.42V25.42H127.491V24.67C127.251 24.9514 126.957 25.1826 126.627 25.35C126.235 25.5174 125.812 25.5976 125.386 25.585ZM125.984 24.23C126.385 24.2509 126.781 24.1325 127.104 23.895C127.239 23.7915 127.347 23.658 127.421 23.5051C127.494 23.3522 127.53 23.1843 127.526 23.015V22.665C127.34 22.5841 127.147 22.5222 126.948 22.48C126.726 22.4305 126.498 22.407 126.27 22.41C125.918 22.3902 125.568 22.4755 125.265 22.655C125.148 22.7316 125.053 22.8375 124.989 22.962C124.926 23.0866 124.896 23.2255 124.903 23.365C124.898 23.4851 124.923 23.6047 124.975 23.7129C125.028 23.8211 125.107 23.9146 125.205 23.985C125.43 24.1494 125.704 24.2354 125.984 24.23Z" fill="#575756"/>
<path d="M134.385 25.615C133.888 25.6191 133.396 25.5221 132.938 25.33C132.51 25.1524 132.121 24.8922 131.794 24.5644C131.467 24.2366 131.209 23.8476 131.034 23.42C130.851 22.981 130.759 22.5101 130.762 22.035V22C130.76 21.5218 130.852 21.0478 131.034 20.605C131.208 20.1768 131.464 19.7863 131.787 19.455C132.116 19.1238 132.507 18.8604 132.938 18.68C133.404 18.4859 133.905 18.3889 134.41 18.395C134.973 18.3767 135.532 18.4825 136.049 18.705C136.48 18.9143 136.868 19.2046 137.189 19.56L135.983 20.85C135.777 20.636 135.544 20.4494 135.29 20.295C135.016 20.1513 134.71 20.0806 134.4 20.09C134.164 20.086 133.93 20.1374 133.717 20.24C133.513 20.3365 133.332 20.4745 133.184 20.645C133.033 20.8231 132.914 21.0261 132.833 21.245C132.752 21.4799 132.711 21.7267 132.712 21.975V22C132.71 22.255 132.75 22.5085 132.833 22.75C132.911 22.9742 133.032 23.1813 133.189 23.36C133.346 23.5308 133.536 23.6685 133.747 23.765C133.976 23.8673 134.225 23.9185 134.476 23.915C134.776 23.9229 135.074 23.8541 135.34 23.715C135.605 23.5662 135.851 23.3866 136.074 23.18L137.229 24.34C136.897 24.706 136.507 25.0151 136.074 25.255C135.55 25.5127 134.969 25.6365 134.385 25.615Z" fill="#575756"/>
<path d="M138.556 16.025H140.631V17.77H138.556V16.025ZM138.606 18.525H140.581V25.455H138.606V18.525Z" fill="#575756"/>
<path d="M145.857 25.615C145.341 25.6201 144.829 25.5249 144.35 25.335C143.909 25.1603 143.506 24.9022 143.164 24.575C142.828 24.2503 142.56 23.8629 142.375 23.435C142.182 22.9933 142.085 22.5164 142.088 22.035V22C142.085 21.5186 142.182 21.0417 142.375 20.6C142.563 20.1711 142.833 19.7823 143.169 19.455C143.514 19.123 143.92 18.86 144.365 18.68C144.843 18.4859 145.356 18.389 145.872 18.395C146.388 18.3888 146.901 18.4839 147.38 18.675C147.821 18.8497 148.223 19.1078 148.565 19.435C148.901 19.7597 149.169 20.1471 149.354 20.575C149.547 21.0167 149.644 21.4936 149.641 21.975V22C149.644 22.483 149.546 22.9613 149.354 23.405C149.166 23.8339 148.897 24.2227 148.56 24.55C148.215 24.882 147.809 25.145 147.365 25.325C146.887 25.5209 146.374 25.6195 145.857 25.615ZM145.882 23.92C146.143 23.925 146.402 23.8739 146.641 23.77C146.855 23.6749 147.046 23.537 147.204 23.365C147.361 23.1898 147.482 22.9861 147.561 22.765C147.646 22.531 147.688 22.2838 147.686 22.035V22C147.687 21.7509 147.642 21.5037 147.555 21.27C147.471 21.0455 147.343 20.8399 147.179 20.665C147.013 20.489 146.815 20.3464 146.596 20.245C146.364 20.1396 146.112 20.0867 145.857 20.09C145.595 20.085 145.334 20.1362 145.093 20.24C144.879 20.3334 144.687 20.4715 144.531 20.645C144.374 20.8202 144.253 21.0239 144.174 21.245C144.089 21.479 144.046 21.7262 144.048 21.975V22C144.047 22.2492 144.091 22.4966 144.179 22.73C144.262 22.9566 144.39 23.1642 144.556 23.34C144.72 23.5147 144.916 23.6572 145.133 23.76C145.368 23.8685 145.624 23.9232 145.882 23.92ZM146.581 15.5L148.284 16.235L146.621 17.79H145.113L146.581 15.5Z" fill="#575756"/>
<path d="M151.063 18.53H153.038V19.53C153.151 19.3807 153.275 19.2403 153.409 19.11C153.544 18.9728 153.694 18.8519 153.857 18.75C154.026 18.6439 154.208 18.5599 154.399 18.5C154.62 18.4373 154.848 18.407 155.078 18.41C155.401 18.3905 155.725 18.4417 156.026 18.56C156.327 18.6783 156.599 18.861 156.821 19.095C157.259 19.6253 157.479 20.3001 157.439 20.985V25.485H155.465V21.63C155.493 21.2523 155.383 20.8772 155.153 20.575C155.041 20.4551 154.903 20.3615 154.75 20.301C154.598 20.2404 154.433 20.2145 154.269 20.225C154.102 20.2167 153.936 20.2435 153.781 20.3039C153.626 20.3642 153.486 20.4566 153.369 20.575C153.128 20.8718 153.009 21.2492 153.038 21.63V25.485H151.063V18.53Z" fill="#575756"/>
<path d="M58.8564 40.66C58.5317 40.6648 58.2082 40.621 57.8966 40.53C57.6192 40.4444 57.3528 40.3269 57.1027 40.18L57.766 38.76C57.8999 38.8373 58.0413 38.901 58.1881 38.95C58.3229 39.0012 58.4658 39.0283 58.6102 39.03C58.752 39.0356 58.8926 39.0027 59.0172 38.935C59.1398 38.8404 59.2366 38.7166 59.2986 38.575L56.5701 31.625H58.6604L60.2432 36.34L61.7507 31.625H63.8159L61.1427 38.72C61.0293 39.0311 60.8898 39.3322 60.7256 39.62C60.5908 39.845 60.4212 40.0474 60.2231 40.22C60.0486 40.3734 59.843 40.4877 59.6201 40.555C59.3721 40.6271 59.1148 40.6625 58.8564 40.66Z" fill="#575756"/>
<path d="M69.092 29.5H73.2476C73.7281 29.4679 74.2102 29.5323 74.6652 29.6895C75.1201 29.8467 75.5386 30.0934 75.8957 30.415C76.1602 30.6892 76.3656 31.0142 76.4995 31.3701C76.6334 31.726 76.693 32.1054 76.6746 32.485C76.703 33.1249 76.5135 33.7556 76.1369 34.275C75.77 34.7337 75.2807 35.0803 74.7249 35.275L76.9509 38.505H74.6093L72.6597 35.61H71.0919V38.505H69.082L69.092 29.5ZM73.1119 33.895C73.5208 33.9211 73.9251 33.7965 74.2476 33.545C74.3788 33.4289 74.4825 33.2853 74.5511 33.1244C74.6198 32.9636 74.6517 32.7896 74.6445 32.615V32.59C74.6574 32.407 74.6263 32.2235 74.5538 32.0548C74.4813 31.8862 74.3694 31.7371 74.2275 31.62C73.8896 31.386 73.4827 31.2716 73.0717 31.295H71.0618V33.895H73.1119Z" fill="#575756"/>
<path d="M81.5738 38.705C81.0781 38.7098 80.5858 38.6234 80.1217 38.45C79.6908 38.2855 79.2985 38.0346 78.9691 37.7129C78.6398 37.3913 78.3804 37.0056 78.2072 36.58C78.021 36.1176 77.9288 35.6231 77.9358 35.125V35.1C77.9342 34.6237 78.0193 34.1511 78.1871 33.705C78.3479 33.2805 78.5883 32.8902 78.8956 32.555C79.1997 32.2248 79.5692 31.9609 79.981 31.78C80.4286 31.5841 80.9141 31.4885 81.403 31.5C81.9226 31.4886 82.438 31.5946 82.9105 31.81C83.3206 32.0062 83.6812 32.2916 83.9657 32.645C84.2523 32.9993 84.4642 33.4074 84.5888 33.845C84.726 34.3042 84.7954 34.7809 84.7948 35.26C84.7948 35.34 84.7948 35.42 84.7948 35.505C84.7948 35.59 84.7948 35.685 84.7948 35.775H79.8955C79.9631 36.1694 80.1742 36.5254 80.4885 36.775C80.8084 37.0124 81.2001 37.1341 81.599 37.12C81.9025 37.1255 82.2037 37.0676 82.4833 36.95C82.7792 36.8149 83.0508 36.6325 83.2873 36.41L84.4179 37.41C84.0933 37.8092 83.6852 38.1334 83.222 38.36C82.706 38.5977 82.1424 38.7157 81.5738 38.705ZM82.8451 34.545C82.805 34.1501 82.6415 33.7777 82.3778 33.48C82.2507 33.3426 82.0948 33.2346 81.9212 33.1638C81.7475 33.093 81.5603 33.0609 81.3728 33.07C81.1864 33.0623 81.0005 33.094 80.8273 33.1629C80.6541 33.2319 80.4975 33.3365 80.3679 33.47C80.0969 33.7708 79.9219 34.145 79.8654 34.545H82.8451Z" fill="#575756"/>
<path d="M88.679 38.68C87.5842 38.6807 86.5215 38.3123 85.6641 37.635L86.5083 36.34C86.8558 36.5985 87.2381 36.8072 87.6439 36.96C87.9817 37.093 88.3409 37.1641 88.7041 37.17C88.9235 37.1864 89.1426 37.1358 89.3322 37.025C89.3952 36.9848 89.4467 36.9292 89.4819 36.8636C89.5171 36.7979 89.5348 36.7244 89.5332 36.65V36.625C89.5348 36.5743 89.5252 36.524 89.5053 36.4774C89.4853 36.4307 89.4554 36.389 89.4177 36.355C89.3269 36.2676 89.2192 36.1996 89.1011 36.155C88.9654 36.1 88.8096 36.045 88.6388 35.99L88.0911 35.825C87.8499 35.755 87.5886 35.67 87.3575 35.57C87.1161 35.4767 86.8906 35.3468 86.6891 35.185C86.4834 35.0241 86.3124 34.8234 86.1867 34.595C86.0544 34.3315 85.9905 34.0393 86.0007 33.745V33.715C85.9937 33.392 86.0625 33.0718 86.2017 32.78C86.3331 32.5154 86.5179 32.2805 86.7444 32.09C86.9833 31.8954 87.2581 31.7493 87.5534 31.66C87.8799 31.5652 88.2184 31.5181 88.5584 31.52C89.0141 31.5217 89.4668 31.5943 89.9001 31.735C90.3443 31.8705 90.7671 32.0674 91.1563 32.32L90.4025 33.68C90.0817 33.4935 89.7455 33.3346 89.3976 33.205C89.1195 33.0993 88.8258 33.0401 88.5283 33.03C88.3353 33.0172 88.1434 33.0663 87.9805 33.17C87.9247 33.2076 87.8791 33.2583 87.8475 33.3176C87.816 33.3769 87.7996 33.4429 87.7997 33.51V33.535C87.8006 33.5831 87.8113 33.6305 87.8311 33.6743C87.851 33.7181 87.8796 33.7575 87.9152 33.79C88.0098 33.8714 88.1145 33.9403 88.2268 33.995C88.3574 34.06 88.5082 34.12 88.674 34.185L89.2167 34.365C89.4579 34.44 89.7191 34.535 89.9553 34.64C90.1959 34.7424 90.4222 34.8751 90.6287 35.035C90.8322 35.1903 91.0029 35.384 91.1311 35.605C91.2663 35.855 91.3322 36.1363 91.3221 36.42V36.445C91.3315 36.7891 91.2628 37.1309 91.1211 37.445C90.9931 37.7188 90.8 37.9574 90.5583 38.14C90.3028 38.326 90.0149 38.4633 89.7091 38.545C89.3733 38.6356 89.0269 38.681 88.679 38.68Z" fill="#575756"/>
<path d="M92.7944 29.115H94.8747V30.86H92.7944V29.115ZM92.8446 31.615H94.8194V38.55H92.8446V31.615Z" fill="#575756"/>
<path d="M96.7691 29.115H98.7438V38.55H96.7691V29.115Z" fill="#575756"/>
<path d="M100.638 29.115H102.719V30.86H100.638V29.115ZM100.693 31.615H102.663V38.55H100.693V31.615Z" fill="#575756"/>
<path d="M107.824 38.705C107.328 38.7098 106.836 38.6234 106.372 38.45C105.941 38.2855 105.548 38.0346 105.219 37.713C104.89 37.3913 104.63 37.0056 104.457 36.58C104.271 36.1176 104.179 35.6231 104.186 35.125V35.1C104.184 34.6237 104.269 34.1511 104.437 33.705C104.598 33.2805 104.838 32.8902 105.146 32.555C105.45 32.2248 105.819 31.9609 106.231 31.78C106.67 31.5859 107.147 31.4887 107.628 31.495C108.147 31.4836 108.663 31.5896 109.135 31.805C109.545 32.0012 109.906 32.2866 110.191 32.64C110.477 32.9943 110.689 33.4024 110.814 33.84C110.951 34.2992 111.02 34.7759 111.02 35.255C111.02 35.335 111.02 35.415 111.02 35.5C111.02 35.585 111.02 35.68 111.02 35.77H106.176C106.243 36.1645 106.454 36.5204 106.769 36.77C107.089 37.0074 107.48 37.1291 107.879 37.115C108.181 37.121 108.481 37.0631 108.758 36.945C109.057 36.8113 109.33 36.6287 109.567 36.405L110.698 37.405C110.373 37.8042 109.965 38.1284 109.502 38.355C108.977 38.599 108.403 38.7188 107.824 38.705ZM109.095 34.545C109.055 34.1502 108.891 33.7777 108.628 33.48C108.501 33.3426 108.345 33.2347 108.171 33.1638C107.997 33.093 107.81 33.0609 107.623 33.07C107.437 33.0636 107.251 33.0958 107.078 33.1647C106.905 33.2335 106.748 33.3375 106.618 33.47C106.347 33.7706 106.172 34.1449 106.115 34.545H109.095Z" fill="#575756"/>
<path d="M112.487 31.625H114.457V32.625C114.571 32.4753 114.695 32.3333 114.828 32.2C114.963 32.0651 115.114 31.946 115.276 31.845C115.446 31.7368 115.63 31.6527 115.823 31.595C116.042 31.5319 116.269 31.5016 116.497 31.505C116.821 31.4861 117.145 31.5375 117.447 31.6558C117.749 31.7741 118.021 31.9564 118.245 32.19C118.683 32.7183 118.904 33.3916 118.863 34.075V38.575H116.889V34.72C116.916 34.344 116.805 33.971 116.577 33.67C116.465 33.5497 116.328 33.4556 116.175 33.3942C116.022 33.3328 115.857 33.3058 115.693 33.315C115.525 33.3069 115.358 33.3344 115.202 33.3956C115.046 33.4568 114.905 33.5503 114.788 33.67C114.548 33.9655 114.429 34.3408 114.457 34.72V38.575H112.487V31.625Z" fill="#575756"/>
<path d="M123.863 38.705C123.366 38.7101 122.874 38.613 122.416 38.42C121.987 38.2454 121.597 37.9868 121.27 37.6596C120.943 37.3324 120.685 36.9431 120.512 36.515C120.33 36.0741 120.237 35.6016 120.24 35.125V35.1C120.238 34.6218 120.33 34.1478 120.512 33.705C120.684 33.2759 120.94 32.8851 121.265 32.555C121.593 32.2223 121.984 31.9587 122.416 31.78C122.882 31.5855 123.383 31.4885 123.888 31.495C124.451 31.4767 125.01 31.5825 125.526 31.805C125.959 32.0107 126.347 32.2996 126.667 32.655L125.461 33.95C125.258 33.7331 125.024 33.5462 124.768 33.395C124.494 33.2467 124.185 33.1742 123.873 33.185C123.638 33.1817 123.406 33.2331 123.195 33.335C122.991 33.4334 122.809 33.573 122.662 33.745C122.507 33.9202 122.387 34.1241 122.31 34.345C122.227 34.5795 122.185 34.8263 122.185 35.075V35.1C122.184 35.3552 122.227 35.6087 122.31 35.85C122.386 36.0742 122.507 36.2802 122.667 36.455C122.822 36.6288 123.012 36.7685 123.225 36.865C123.454 36.9674 123.703 37.0185 123.954 37.015C124.254 37.0199 124.551 36.9513 124.818 36.815C125.084 36.666 125.33 36.4846 125.552 36.275L126.707 37.44C126.376 37.8058 125.985 38.1135 125.552 38.35C125.028 38.6087 124.447 38.7308 123.863 38.705Z" fill="#575756"/>
<path d="M128.034 29.115H130.109V30.86H128.034V29.115ZM128.084 31.615H130.059V38.55H128.084V31.615Z" fill="#575756"/>
<path d="M133.888 38.68C133.575 38.6822 133.263 38.6367 132.963 38.545C132.684 38.462 132.424 38.3243 132.199 38.14C131.986 37.9544 131.815 37.7261 131.697 37.47C131.567 37.1844 131.503 36.8734 131.511 36.56V36.535C131.497 36.19 131.568 35.8468 131.717 35.535C131.851 35.2635 132.049 35.0285 132.295 34.85C132.56 34.6571 132.86 34.5178 133.179 34.44C133.55 34.3463 133.932 34.3009 134.315 34.305C134.626 34.3013 134.938 34.3264 135.245 34.38C135.506 34.4347 135.765 34.5048 136.018 34.59V34.5C136.03 34.3245 136.003 34.1485 135.937 33.985C135.872 33.8215 135.771 33.6746 135.641 33.555C135.319 33.3163 134.922 33.201 134.521 33.23C134.183 33.2267 133.846 33.2602 133.516 33.33C133.205 33.4005 132.9 33.4924 132.601 33.605L132.099 32.105C132.485 31.9419 132.883 31.8082 133.29 31.705C133.785 31.595 134.29 31.543 134.797 31.55C135.271 31.5409 135.743 31.6084 136.194 31.75C136.552 31.8671 136.879 32.0637 137.149 32.325C137.414 32.5909 137.611 32.9169 137.722 33.275C137.847 33.6831 137.908 34.1082 137.903 34.535V38.535H135.993V37.785C135.75 38.0544 135.454 38.2721 135.124 38.425C134.736 38.6007 134.314 38.6879 133.888 38.68ZM134.486 37.325C134.889 37.3444 135.287 37.2243 135.611 36.985C135.747 36.8831 135.856 36.7506 135.929 36.5984C136.002 36.4462 136.038 36.2787 136.033 36.11V35.76C135.848 35.678 135.654 35.6144 135.456 35.57C135.231 35.5229 135.002 35.4995 134.772 35.5C134.42 35.4817 134.071 35.5669 133.767 35.745C133.651 35.8223 133.556 35.9283 133.493 36.0527C133.429 36.1771 133.399 36.3157 133.405 36.455V36.5C133.4 36.6197 133.423 36.7389 133.475 36.8471C133.527 36.9553 133.605 37.0491 133.702 37.12C133.934 37.2706 134.209 37.3425 134.486 37.325Z" fill="#575756"/>
</g>
<defs>
<clipPath id="clip0_3943_14291">
<rect width="202" height="41" fill="white"/>
</clipPath>
</defs>
</svg>
