<svg width="170" height="34" viewBox="0 0 170 34" fill="none" xmlns="http://www.w3.org/2000/svg">
<path d="M48.8184 6.41211H47.29V9H45.7959V1.80273H48.9307C49.6533 1.80273 50.2295 1.98828 50.6592 2.35938C51.0889 2.73047 51.3037 3.30501 51.3037 4.08301C51.3037 4.93262 51.0889 5.5332 50.6592 5.88477C50.2295 6.23633 49.6159 6.41211 48.8184 6.41211ZM49.5215 4.91309C49.7168 4.74056 49.8145 4.46712 49.8145 4.09277C49.8145 3.71842 49.7152 3.4515 49.5166 3.29199C49.3213 3.13249 49.0462 3.05273 48.6914 3.05273H47.29V5.17188H48.6914C49.0462 5.17188 49.3229 5.08561 49.5215 4.91309ZM52.6486 1.80273H54.0402V9H52.6486V1.80273ZM55.9027 4.25391C56.2706 3.78516 56.9021 3.55078 57.7973 3.55078C58.3799 3.55078 58.8975 3.66634 59.35 3.89746C59.8025 4.12858 60.0287 4.56478 60.0287 5.20605V7.64746C60.0287 7.81673 60.032 8.02181 60.0385 8.2627C60.0482 8.44499 60.0759 8.56868 60.1215 8.63379C60.1671 8.69889 60.2354 8.7526 60.3266 8.79492V9H58.8129C58.7706 8.89258 58.7413 8.79167 58.725 8.69727C58.7087 8.60286 58.6957 8.49544 58.6859 8.375C58.4939 8.58333 58.2725 8.76074 58.0219 8.90723C57.7224 9.07975 57.3839 9.16602 57.0063 9.16602C56.5245 9.16602 56.1257 9.0293 55.81 8.75586C55.4975 8.47917 55.3412 8.08854 55.3412 7.58398C55.3412 6.92969 55.5935 6.45605 56.098 6.16309C56.3747 6.00358 56.7816 5.88965 57.3188 5.82129L57.7924 5.7627C58.0495 5.73014 58.2335 5.68945 58.3441 5.64062C58.5427 5.55599 58.642 5.42415 58.642 5.24512C58.642 5.02702 58.5655 4.87728 58.4125 4.7959C58.2628 4.71126 58.0414 4.66895 57.7484 4.66895C57.4197 4.66895 57.1869 4.75033 57.0502 4.91309C56.9525 5.03353 56.8874 5.19629 56.8549 5.40137H55.5121C55.5414 4.93587 55.6716 4.55339 55.9027 4.25391ZM56.9379 7.99414C57.0681 8.10156 57.2276 8.15527 57.4164 8.15527C57.7159 8.15527 57.991 8.06738 58.2416 7.8916C58.4955 7.71582 58.6273 7.39518 58.6371 6.92969V6.41211C58.5492 6.46745 58.4597 6.51302 58.3686 6.54883C58.2807 6.58138 58.1586 6.6123 58.0023 6.6416L57.6898 6.7002C57.3969 6.75228 57.1869 6.81576 57.06 6.89062C56.8451 7.01758 56.7377 7.21452 56.7377 7.48145C56.7377 7.71908 56.8044 7.88997 56.9379 7.99414ZM64.0738 4.70801C63.6018 4.70801 63.2779 4.9082 63.1021 5.30859C63.011 5.52018 62.9654 5.79036 62.9654 6.11914V9H61.5787V3.6875H62.9215V4.46387C63.1005 4.19043 63.2698 3.99349 63.4293 3.87305C63.7158 3.6582 64.0787 3.55078 64.5182 3.55078C65.0683 3.55078 65.5175 3.69564 65.8658 3.98535C66.2174 4.27181 66.3932 4.7487 66.3932 5.41602V9H64.9674V5.7627C64.9674 5.48275 64.9299 5.2679 64.8551 5.11816C64.7184 4.84473 64.4579 4.70801 64.0738 4.70801ZM75.9092 1.8125V9H74.5566V8.2627C74.3581 8.57845 74.1318 8.80794 73.8779 8.95117C73.624 9.0944 73.3083 9.16602 72.9307 9.16602C72.3089 9.16602 71.7848 8.91536 71.3584 8.41406C70.9352 7.90951 70.7236 7.26335 70.7236 6.47559C70.7236 5.56738 70.932 4.85286 71.3486 4.33203C71.7686 3.8112 72.3285 3.55078 73.0283 3.55078C73.3506 3.55078 73.637 3.6224 73.8877 3.76562C74.1383 3.9056 74.3418 4.10091 74.498 4.35156V1.8125H75.9092ZM72.1592 6.37305C72.1592 6.86458 72.2568 7.25684 72.4521 7.5498C72.6442 7.84603 72.9372 7.99414 73.3311 7.99414C73.7249 7.99414 74.0244 7.84766 74.2295 7.55469C74.4346 7.26172 74.5371 6.88249 74.5371 6.41699C74.5371 5.76595 74.3727 5.30046 74.0439 5.02051C73.8421 4.85124 73.6077 4.7666 73.3408 4.7666C72.9339 4.7666 72.6344 4.92122 72.4424 5.23047C72.2536 5.53646 72.1592 5.91732 72.1592 6.37305ZM82.0344 7.4375C81.9986 7.75326 81.8342 8.07389 81.5412 8.39941C81.0855 8.91699 80.4475 9.17578 79.6271 9.17578C78.9501 9.17578 78.3527 8.95768 77.8352 8.52148C77.3176 8.08529 77.0588 7.37565 77.0588 6.39258C77.0588 5.47135 77.2915 4.76497 77.757 4.27344C78.2258 3.7819 78.8329 3.53613 79.5783 3.53613C80.021 3.53613 80.4198 3.61914 80.7746 3.78516C81.1294 3.95117 81.4224 4.21322 81.6535 4.57129C81.8618 4.88704 81.9969 5.25326 82.0588 5.66992C82.0946 5.91406 82.1092 6.26562 82.1027 6.72461H78.4602C78.4797 7.25846 78.6473 7.63281 78.9631 7.84766C79.1551 7.98112 79.3863 8.04785 79.6564 8.04785C79.9429 8.04785 80.1757 7.96647 80.3547 7.80371C80.4523 7.71582 80.5386 7.59375 80.6135 7.4375H82.0344ZM80.6574 5.80664C80.6346 5.4388 80.5223 5.16048 80.3205 4.97168C80.1219 4.77962 79.8745 4.68359 79.5783 4.68359C79.2561 4.68359 79.0054 4.78451 78.8264 4.98633C78.6506 5.18815 78.5399 5.46159 78.4943 5.80664H80.6574ZM89.5973 6.17773H88.0445V9H86.5748V1.80273H90.1051C90.6096 1.8125 90.997 1.87435 91.2672 1.98828C91.5406 2.10221 91.7717 2.26986 91.9605 2.49121C92.1168 2.6735 92.2405 2.87533 92.3316 3.09668C92.4228 3.31803 92.4684 3.57031 92.4684 3.85352C92.4684 4.19531 92.3821 4.53223 92.2096 4.86426C92.037 5.19303 91.7522 5.42578 91.3551 5.5625C91.6871 5.69596 91.9215 5.88639 92.0582 6.13379C92.1982 6.37793 92.2682 6.75228 92.2682 7.25684V7.74023C92.2682 8.06901 92.2812 8.29199 92.3072 8.40918C92.3463 8.59473 92.4374 8.73145 92.5807 8.81934V9H90.9254C90.8798 8.84049 90.8473 8.71191 90.8277 8.61426C90.7887 8.41243 90.7675 8.20573 90.7643 7.99414L90.7545 7.3252C90.748 6.86621 90.6633 6.56022 90.5006 6.40723C90.3411 6.25423 90.04 6.17773 89.5973 6.17773ZM90.5104 4.86914C90.8098 4.73242 90.9596 4.46224 90.9596 4.05859C90.9596 3.6224 90.8147 3.32943 90.525 3.17969C90.3622 3.09505 90.1181 3.05273 89.7926 3.05273H88.0445V4.98633H89.7486C90.0872 4.98633 90.3411 4.94727 90.5104 4.86914ZM98.5105 7.4375C98.4747 7.75326 98.3104 8.07389 98.0174 8.39941C97.5617 8.91699 96.9236 9.17578 96.1033 9.17578C95.4262 9.17578 94.8289 8.95768 94.3113 8.52148C93.7938 8.08529 93.535 7.37565 93.535 6.39258C93.535 5.47135 93.7677 4.76497 94.2332 4.27344C94.702 3.7819 95.3091 3.53613 96.0545 3.53613C96.4972 3.53613 96.896 3.61914 97.2508 3.78516C97.6056 3.95117 97.8986 4.21322 98.1297 4.57129C98.338 4.88704 98.4731 5.25326 98.535 5.66992C98.5708 5.91406 98.5854 6.26562 98.5789 6.72461H94.9363C94.9559 7.25846 95.1235 7.63281 95.4393 7.84766C95.6313 7.98112 95.8624 8.04785 96.1326 8.04785C96.4191 8.04785 96.6518 7.96647 96.8309 7.80371C96.9285 7.71582 97.0148 7.59375 97.0896 7.4375H98.5105ZM97.1336 5.80664C97.1108 5.4388 96.9985 5.16048 96.7967 4.97168C96.5981 4.77962 96.3507 4.68359 96.0545 4.68359C95.7322 4.68359 95.4816 4.78451 95.3025 4.98633C95.1268 5.18815 95.0161 5.46159 94.9705 5.80664H97.1336ZM104.426 5.58691H103C102.974 5.38835 102.907 5.20931 102.8 5.0498C102.644 4.83496 102.401 4.72754 102.072 4.72754C101.604 4.72754 101.283 4.96029 101.11 5.42578C101.019 5.67318 100.974 6.00195 100.974 6.41211C100.974 6.80273 101.019 7.11686 101.11 7.35449C101.276 7.7972 101.589 8.01855 102.048 8.01855C102.373 8.01855 102.604 7.93066 102.741 7.75488C102.878 7.5791 102.961 7.35124 102.99 7.07129H104.411C104.379 7.49447 104.226 7.89486 103.952 8.27246C103.516 8.88118 102.87 9.18555 102.014 9.18555C101.158 9.18555 100.528 8.93164 100.124 8.42383C99.7204 7.91602 99.5186 7.25684 99.5186 6.44629C99.5186 5.53158 99.7415 4.82031 100.188 4.3125C100.633 3.80469 101.249 3.55078 102.033 3.55078C102.701 3.55078 103.246 3.70052 103.669 4C104.095 4.29948 104.348 4.82845 104.426 5.58691ZM109.101 8.24805C109.088 8.26432 109.055 8.31315 109.003 8.39453C108.951 8.47591 108.889 8.54753 108.818 8.60938C108.599 8.80469 108.388 8.93815 108.183 9.00977C107.981 9.08138 107.743 9.11719 107.47 9.11719C106.682 9.11719 106.152 8.83398 105.878 8.26758C105.725 7.95508 105.649 7.49447 105.649 6.88574V3.67773H107.074V6.88574C107.074 7.18848 107.11 7.41634 107.182 7.56934C107.309 7.83952 107.558 7.97461 107.929 7.97461C108.404 7.97461 108.73 7.78255 108.905 7.39844C108.997 7.1901 109.042 6.91504 109.042 6.57324V3.67773H110.453V9H109.101V8.24805ZM116.559 4.24902C116.989 4.70801 117.204 5.38184 117.204 6.27051C117.204 7.20801 116.992 7.92253 116.569 8.41406C116.149 8.9056 115.607 9.15137 114.943 9.15137C114.52 9.15137 114.168 9.04557 113.888 8.83398C113.735 8.7168 113.585 8.5459 113.439 8.32129V11.0947H112.062V3.67773H113.395V4.46387C113.545 4.23275 113.704 4.05046 113.873 3.91699C114.183 3.67936 114.551 3.56055 114.977 3.56055C115.599 3.56055 116.126 3.79004 116.559 4.24902ZM115.768 6.33887C115.768 5.92871 115.674 5.56576 115.485 5.25C115.299 4.93424 114.996 4.77637 114.577 4.77637C114.072 4.77637 113.725 5.01562 113.537 5.49414C113.439 5.74805 113.39 6.07031 113.39 6.46094C113.39 7.07943 113.554 7.514 113.883 7.76465C114.079 7.91113 114.31 7.98438 114.577 7.98438C114.964 7.98438 115.259 7.83464 115.46 7.53516C115.665 7.23568 115.768 6.83691 115.768 6.33887ZM123.07 7.4375C123.034 7.75326 122.87 8.07389 122.577 8.39941C122.121 8.91699 121.483 9.17578 120.663 9.17578C119.986 9.17578 119.388 8.95768 118.871 8.52148C118.353 8.08529 118.094 7.37565 118.094 6.39258C118.094 5.47135 118.327 4.76497 118.793 4.27344C119.261 3.7819 119.868 3.53613 120.614 3.53613C121.057 3.53613 121.455 3.61914 121.81 3.78516C122.165 3.95117 122.458 4.21322 122.689 4.57129C122.897 4.88704 123.032 5.25326 123.094 5.66992C123.13 5.91406 123.145 6.26562 123.138 6.72461H119.496C119.515 7.25846 119.683 7.63281 119.999 7.84766C120.191 7.98112 120.422 8.04785 120.692 8.04785C120.978 8.04785 121.211 7.96647 121.39 7.80371C121.488 7.71582 121.574 7.59375 121.649 7.4375H123.07ZM121.693 5.80664C121.67 5.4388 121.558 5.16048 121.356 4.97168C121.157 4.77962 120.91 4.68359 120.614 4.68359C120.292 4.68359 120.041 4.78451 119.862 4.98633C119.686 5.18815 119.575 5.46159 119.53 5.80664H121.693ZM127.056 4.96191C126.497 4.96191 126.121 5.14421 125.929 5.50879C125.821 5.71387 125.767 6.02962 125.767 6.45605V9H124.366V3.67773H125.694V4.60547C125.909 4.25065 126.096 4.00814 126.256 3.87793C126.516 3.65983 126.855 3.55078 127.271 3.55078C127.297 3.55078 127.318 3.55241 127.335 3.55566C127.354 3.55566 127.395 3.55729 127.457 3.56055V4.98633C127.369 4.97656 127.291 4.97005 127.222 4.9668C127.154 4.96354 127.099 4.96191 127.056 4.96191ZM128.777 4.25391C129.145 3.78516 129.777 3.55078 130.672 3.55078C131.255 3.55078 131.772 3.66634 132.225 3.89746C132.677 4.12858 132.903 4.56478 132.903 5.20605V7.64746C132.903 7.81673 132.907 8.02181 132.913 8.2627C132.923 8.44499 132.951 8.56868 132.996 8.63379C133.042 8.69889 133.11 8.7526 133.201 8.79492V9H131.688C131.645 8.89258 131.616 8.79167 131.6 8.69727C131.583 8.60286 131.57 8.49544 131.561 8.375C131.368 8.58333 131.147 8.76074 130.896 8.90723C130.597 9.07975 130.258 9.16602 129.881 9.16602C129.399 9.16602 129 9.0293 128.685 8.75586C128.372 8.47917 128.216 8.08854 128.216 7.58398C128.216 6.92969 128.468 6.45605 128.973 6.16309C129.249 6.00358 129.656 5.88965 130.193 5.82129L130.667 5.7627C130.924 5.73014 131.108 5.68945 131.219 5.64062C131.417 5.55599 131.517 5.42415 131.517 5.24512C131.517 5.02702 131.44 4.87728 131.287 4.7959C131.137 4.71126 130.916 4.66895 130.623 4.66895C130.294 4.66895 130.062 4.75033 129.925 4.91309C129.827 5.03353 129.762 5.19629 129.729 5.40137H128.387C128.416 4.93587 128.546 4.55339 128.777 4.25391ZM129.812 7.99414C129.943 8.10156 130.102 8.15527 130.291 8.15527C130.59 8.15527 130.866 8.06738 131.116 7.8916C131.37 7.71582 131.502 7.39518 131.512 6.92969V6.41211C131.424 6.46745 131.334 6.51302 131.243 6.54883C131.155 6.58138 131.033 6.6123 130.877 6.6416L130.564 6.7002C130.271 6.75228 130.062 6.81576 129.935 6.89062C129.72 7.01758 129.612 7.21452 129.612 7.48145C129.612 7.71908 129.679 7.88997 129.812 7.99414ZM139.048 5.58691H137.622C137.596 5.38835 137.529 5.20931 137.422 5.0498C137.266 4.83496 137.023 4.72754 136.695 4.72754C136.226 4.72754 135.905 4.96029 135.733 5.42578C135.641 5.67318 135.596 6.00195 135.596 6.41211C135.596 6.80273 135.641 7.11686 135.733 7.35449C135.899 7.7972 136.211 8.01855 136.67 8.01855C136.996 8.01855 137.227 7.93066 137.363 7.75488C137.5 7.5791 137.583 7.35124 137.613 7.07129H139.033C139.001 7.49447 138.848 7.89486 138.574 8.27246C138.138 8.88118 137.492 9.18555 136.636 9.18555C135.78 9.18555 135.15 8.93164 134.746 8.42383C134.343 7.91602 134.141 7.25684 134.141 6.44629C134.141 5.53158 134.364 4.82031 134.81 4.3125C135.256 3.80469 135.871 3.55078 136.655 3.55078C137.323 3.55078 137.868 3.70052 138.291 4C138.718 4.29948 138.97 4.82845 139.048 5.58691ZM141.741 3.67773V9H140.329V3.67773H141.741ZM141.741 1.75879V3.04297H140.329V1.75879H141.741ZM147.832 4.35156C148.281 4.91471 148.505 5.5804 148.505 6.34863C148.505 7.12988 148.281 7.79883 147.832 8.35547C147.382 8.90885 146.7 9.18555 145.786 9.18555C144.871 9.18555 144.189 8.90885 143.74 8.35547C143.291 7.79883 143.066 7.12988 143.066 6.34863C143.066 5.5804 143.291 4.91471 143.74 4.35156C144.189 3.78841 144.871 3.50684 145.786 3.50684C146.7 3.50684 147.382 3.78841 147.832 4.35156ZM145.781 4.68359C145.374 4.68359 145.06 4.82845 144.838 5.11816C144.62 5.40462 144.511 5.81478 144.511 6.34863C144.511 6.88249 144.62 7.29427 144.838 7.58398C145.06 7.8737 145.374 8.01855 145.781 8.01855C146.188 8.01855 146.5 7.8737 146.718 7.58398C146.936 7.29427 147.046 6.88249 147.046 6.34863C147.046 5.81478 146.936 5.40462 146.718 5.11816C146.5 4.82845 146.188 4.68359 145.781 4.68359ZM144.961 2.95996L145.898 1.5H147.451L145.966 2.95996H144.961ZM152.311 4.70801C151.839 4.70801 151.515 4.9082 151.34 5.30859C151.248 5.52018 151.203 5.79036 151.203 6.11914V9H149.816V3.6875H151.159V4.46387C151.338 4.19043 151.507 3.99349 151.667 3.87305C151.953 3.6582 152.316 3.55078 152.756 3.55078C153.306 3.55078 153.755 3.69564 154.103 3.98535C154.455 4.27181 154.631 4.7487 154.631 5.41602V9H153.205V5.7627C153.205 5.48275 153.167 5.2679 153.093 5.11816C152.956 4.84473 152.695 4.70801 152.311 4.70801ZM157.562 9.49805C157.504 9.73893 157.395 9.94727 157.235 10.123C157.063 10.3118 156.859 10.4535 156.625 10.5479C156.394 10.6455 156.234 10.6943 156.146 10.6943V10.1572C156.426 10.0791 156.632 9.94889 156.762 9.7666C156.895 9.58431 156.972 9.32878 156.991 9H156.146V7.54492H157.65V8.80469C157.65 9.02604 157.621 9.25716 157.562 9.49805ZM50.9912 12.8027V14.0771H48.8379V20H47.3242V14.0771H45.1611V12.8027H50.9912ZM54.1916 15.9619C53.6317 15.9619 53.2557 16.1442 53.0637 16.5088C52.9563 16.7139 52.9025 17.0296 52.9025 17.4561V20H51.5012V14.6777H52.8293V15.6055C53.0441 15.2507 53.2313 15.0081 53.3908 14.8779C53.6512 14.6598 53.9898 14.5508 54.4064 14.5508C54.4325 14.5508 54.4536 14.5524 54.4699 14.5557C54.4895 14.5557 54.5301 14.5573 54.592 14.5605V15.9863C54.5041 15.9766 54.426 15.9701 54.3576 15.9668C54.2893 15.9635 54.2339 15.9619 54.1916 15.9619ZM55.9125 15.2539C56.2803 14.7852 56.9118 14.5508 57.807 14.5508C58.3897 14.5508 58.9073 14.6663 59.3598 14.8975C59.8122 15.1286 60.0385 15.5648 60.0385 16.2061V18.6475C60.0385 18.8167 60.0417 19.0218 60.0482 19.2627C60.058 19.445 60.0857 19.5687 60.1313 19.6338C60.1768 19.6989 60.2452 19.7526 60.3363 19.7949V20H58.8227C58.7803 19.8926 58.751 19.7917 58.7348 19.6973C58.7185 19.6029 58.7055 19.4954 58.6957 19.375C58.5036 19.5833 58.2823 19.7607 58.0316 19.9072C57.7322 20.0798 57.3936 20.166 57.016 20.166C56.5342 20.166 56.1355 20.0293 55.8197 19.7559C55.5072 19.4792 55.351 19.0885 55.351 18.584C55.351 17.9297 55.6033 17.4561 56.1078 17.1631C56.3845 17.0036 56.7914 16.8896 57.3285 16.8213L57.8021 16.7627C58.0593 16.7301 58.2432 16.6895 58.3539 16.6406C58.5525 16.556 58.6518 16.4242 58.6518 16.2451C58.6518 16.027 58.5753 15.8773 58.4223 15.7959C58.2725 15.7113 58.0512 15.6689 57.7582 15.6689C57.4294 15.6689 57.1967 15.7503 57.06 15.9131C56.9623 16.0335 56.8972 16.1963 56.8646 16.4014H55.5219C55.5512 15.9359 55.6814 15.5534 55.9125 15.2539ZM56.9477 18.9941C57.0779 19.1016 57.2374 19.1553 57.4262 19.1553C57.7257 19.1553 58.0007 19.0674 58.2514 18.8916C58.5053 18.7158 58.6371 18.3952 58.6469 17.9297V17.4121C58.559 17.4674 58.4695 17.513 58.3783 17.5488C58.2904 17.5814 58.1684 17.6123 58.0121 17.6416L57.6996 17.7002C57.4066 17.7523 57.1967 17.8158 57.0697 17.8906C56.8549 18.0176 56.7475 18.2145 56.7475 18.4814C56.7475 18.7191 56.8142 18.89 56.9477 18.9941ZM64.0836 15.708C63.6116 15.708 63.2877 15.9082 63.1119 16.3086C63.0208 16.5202 62.9752 16.7904 62.9752 17.1191V20H61.5885V14.6875H62.9312V15.4639C63.1103 15.1904 63.2796 14.9935 63.4391 14.873C63.7255 14.6582 64.0885 14.5508 64.5279 14.5508C65.0781 14.5508 65.5273 14.6956 65.8756 14.9854C66.2271 15.2718 66.4029 15.7487 66.4029 16.416V20H64.9771V16.7627C64.9771 16.4827 64.9397 16.2679 64.8648 16.1182C64.7281 15.8447 64.4677 15.708 64.0836 15.708ZM71.659 14.9219C72.0757 15.1888 72.3149 15.6478 72.3768 16.2988H70.9852C70.9656 16.1198 70.9152 15.9782 70.8338 15.874C70.6808 15.6852 70.4204 15.5908 70.0525 15.5908C69.7498 15.5908 69.5333 15.638 69.4031 15.7324C69.2762 15.8268 69.2127 15.9375 69.2127 16.0645C69.2127 16.224 69.2811 16.3395 69.4178 16.4111C69.5545 16.486 70.0379 16.6146 70.868 16.7969C71.4214 16.9271 71.8364 17.124 72.1131 17.3877C72.3865 17.6546 72.5232 17.9883 72.5232 18.3887C72.5232 18.916 72.3263 19.3473 71.9324 19.6826C71.5418 20.0146 70.9363 20.1807 70.116 20.1807C69.2794 20.1807 68.6609 20.0049 68.2605 19.6533C67.8634 19.2985 67.6648 18.8477 67.6648 18.3008H69.076C69.1053 18.5482 69.1688 18.724 69.2664 18.8281C69.4389 19.0137 69.7579 19.1064 70.2234 19.1064C70.4969 19.1064 70.7133 19.0658 70.8729 18.9844C71.0356 18.903 71.117 18.7809 71.117 18.6182C71.117 18.4619 71.0519 18.3431 70.9217 18.2617C70.7915 18.1803 70.3081 18.0404 69.4715 17.8418C68.8693 17.6921 68.4445 17.5049 68.1971 17.2803C67.9497 17.0589 67.826 16.7399 67.826 16.3232C67.826 15.8317 68.018 15.4102 68.4021 15.0586C68.7895 14.7038 69.3331 14.5264 70.033 14.5264C70.6971 14.5264 71.2391 14.6582 71.659 14.9219ZM76.3535 12.7588V13.8916C76.2754 13.8818 76.1436 13.8753 75.958 13.8721C75.7757 13.8656 75.6488 13.9062 75.5771 13.9941C75.5088 14.0788 75.4746 14.1732 75.4746 14.2773V14.7266H76.3877V15.708H75.4746V20H74.0879V15.708H73.3115V14.7266H74.0732V14.3848C74.0732 13.8151 74.1693 13.4229 74.3613 13.208C74.5632 12.889 75.0498 12.7295 75.8213 12.7295C75.9092 12.7295 75.9889 12.7327 76.0605 12.7393C76.1322 12.7425 76.2298 12.749 76.3535 12.7588ZM81.927 15.3516C82.3762 15.9147 82.6008 16.5804 82.6008 17.3486C82.6008 18.1299 82.3762 18.7988 81.927 19.3555C81.4777 19.9089 80.7958 20.1855 79.8811 20.1855C78.9663 20.1855 78.2844 19.9089 77.8352 19.3555C77.3859 18.7988 77.1613 18.1299 77.1613 17.3486C77.1613 16.5804 77.3859 15.9147 77.8352 15.3516C78.2844 14.7884 78.9663 14.5068 79.8811 14.5068C80.7958 14.5068 81.4777 14.7884 81.927 15.3516ZM79.8762 15.6836C79.4693 15.6836 79.1551 15.8285 78.9338 16.1182C78.7157 16.4046 78.6066 16.8148 78.6066 17.3486C78.6066 17.8825 78.7157 18.2943 78.9338 18.584C79.1551 18.8737 79.4693 19.0186 79.8762 19.0186C80.2831 19.0186 80.5956 18.8737 80.8137 18.584C81.0318 18.2943 81.1408 17.8825 81.1408 17.3486C81.1408 16.8148 81.0318 16.4046 80.8137 16.1182C80.5956 15.8285 80.2831 15.6836 79.8762 15.6836ZM86.5775 15.9619C86.0176 15.9619 85.6417 16.1442 85.4496 16.5088C85.3422 16.7139 85.2885 17.0296 85.2885 17.4561V20H83.8871V14.6777H85.2152V15.6055C85.4301 15.2507 85.6173 15.0081 85.7768 14.8779C86.0372 14.6598 86.3757 14.5508 86.7924 14.5508C86.8184 14.5508 86.8396 14.5524 86.8559 14.5557C86.8754 14.5557 86.9161 14.5573 86.9779 14.5605V15.9863C86.89 15.9766 86.8119 15.9701 86.7436 15.9668C86.6752 15.9635 86.6199 15.9619 86.5775 15.9619ZM91.0865 16.1426C90.9693 15.8854 90.7398 15.7568 90.398 15.7568C90.0009 15.7568 89.734 15.8854 89.5973 16.1426C89.5224 16.2891 89.485 16.5072 89.485 16.7969V20H88.0738V14.6875H89.4264V15.4639C89.5989 15.1872 89.7617 14.9902 89.9146 14.873C90.1848 14.6647 90.5348 14.5605 90.9645 14.5605C91.3714 14.5605 91.7001 14.6501 91.9508 14.8291C92.1526 14.9951 92.3056 15.2083 92.4098 15.4688C92.5921 15.1562 92.8183 14.9268 93.0885 14.7803C93.3749 14.6338 93.6939 14.5605 94.0455 14.5605C94.2799 14.5605 94.511 14.6061 94.7389 14.6973C94.9667 14.7884 95.1734 14.9479 95.359 15.1758C95.5087 15.3613 95.6096 15.5892 95.6617 15.8594C95.6943 16.0384 95.7105 16.3005 95.7105 16.6455L95.7008 20H94.275V16.6113C94.275 16.4095 94.2424 16.2435 94.1773 16.1133C94.0536 15.8659 93.8258 15.7422 93.4938 15.7422C93.1096 15.7422 92.8443 15.9017 92.6979 16.2207C92.623 16.39 92.5855 16.5934 92.5855 16.8311V20H91.1842V16.8311C91.1842 16.5153 91.1516 16.2858 91.0865 16.1426ZM97.4949 15.2539C97.8628 14.7852 98.4943 14.5508 99.3895 14.5508C99.9721 14.5508 100.49 14.6663 100.942 14.8975C101.395 15.1286 101.621 15.5648 101.621 16.2061V18.6475C101.621 18.8167 101.624 19.0218 101.631 19.2627C101.64 19.445 101.668 19.5687 101.714 19.6338C101.759 19.6989 101.828 19.7526 101.919 19.7949V20H100.405C100.363 19.8926 100.333 19.7917 100.317 19.6973C100.301 19.6029 100.288 19.4954 100.278 19.375C100.086 19.5833 99.8647 19.7607 99.6141 19.9072C99.3146 20.0798 98.976 20.166 98.5984 20.166C98.1167 20.166 97.7179 20.0293 97.4021 19.7559C97.0896 19.4792 96.9334 19.0885 96.9334 18.584C96.9334 17.9297 97.1857 17.4561 97.6902 17.1631C97.9669 17.0036 98.3738 16.8896 98.9109 16.8213L99.3846 16.7627C99.6417 16.7301 99.8257 16.6895 99.9363 16.6406C100.135 16.556 100.234 16.4242 100.234 16.2451C100.234 16.027 100.158 15.8773 100.005 15.7959C99.8549 15.7113 99.6336 15.6689 99.3406 15.6689C99.0118 15.6689 98.7791 15.7503 98.6424 15.9131C98.5447 16.0335 98.4796 16.1963 98.4471 16.4014H97.1043C97.1336 15.9359 97.2638 15.5534 97.4949 15.2539ZM98.5301 18.9941C98.6603 19.1016 98.8198 19.1553 99.0086 19.1553C99.3081 19.1553 99.5831 19.0674 99.8338 18.8916C100.088 18.7158 100.22 18.3952 100.229 17.9297V17.4121C100.141 17.4674 100.052 17.513 99.9607 17.5488C99.8729 17.5814 99.7508 17.6123 99.5945 17.6416L99.282 17.7002C98.9891 17.7523 98.7791 17.8158 98.6521 17.8906C98.4373 18.0176 98.3299 18.2145 98.3299 18.4814C98.3299 18.7191 98.3966 18.89 98.5301 18.9941ZM107.766 16.5869H106.34C106.314 16.3883 106.247 16.2093 106.14 16.0498C105.983 15.835 105.741 15.7275 105.412 15.7275C104.943 15.7275 104.623 15.9603 104.45 16.4258C104.359 16.6732 104.313 17.002 104.313 17.4121C104.313 17.8027 104.359 18.1169 104.45 18.3545C104.616 18.7972 104.929 19.0186 105.388 19.0186C105.713 19.0186 105.944 18.9307 106.081 18.7549C106.218 18.5791 106.301 18.3512 106.33 18.0713H107.751C107.718 18.4945 107.565 18.8949 107.292 19.2725C106.856 19.8812 106.21 20.1855 105.354 20.1855C104.497 20.1855 103.868 19.9316 103.464 19.4238C103.06 18.916 102.858 18.2568 102.858 17.4463C102.858 16.5316 103.081 15.8203 103.527 15.3125C103.973 14.8047 104.589 14.5508 105.373 14.5508C106.04 14.5508 106.586 14.7005 107.009 15C107.435 15.2995 107.688 15.8285 107.766 16.5869ZM110.458 14.6777V20H109.047V14.6777H110.458ZM110.458 12.7588V14.043H109.047V12.7588H110.458ZM116.549 15.3516C116.998 15.9147 117.223 16.5804 117.223 17.3486C117.223 18.1299 116.998 18.7988 116.549 19.3555C116.1 19.9089 115.418 20.1855 114.503 20.1855C113.589 20.1855 112.907 19.9089 112.457 19.3555C112.008 18.7988 111.784 18.1299 111.784 17.3486C111.784 16.5804 112.008 15.9147 112.457 15.3516C112.907 14.7884 113.589 14.5068 114.503 14.5068C115.418 14.5068 116.1 14.7884 116.549 15.3516ZM114.498 15.6836C114.092 15.6836 113.777 15.8285 113.556 16.1182C113.338 16.4046 113.229 16.8148 113.229 17.3486C113.229 17.8825 113.338 18.2943 113.556 18.584C113.777 18.8737 114.092 19.0186 114.498 19.0186C114.905 19.0186 115.218 18.8737 115.436 18.584C115.654 18.2943 115.763 17.8825 115.763 17.3486C115.763 16.8148 115.654 16.4046 115.436 16.1182C115.218 15.8285 114.905 15.6836 114.498 15.6836ZM113.678 13.96L114.616 12.5H116.168L114.684 13.96H113.678ZM121.029 15.708C120.557 15.708 120.233 15.9082 120.057 16.3086C119.966 16.5202 119.921 16.7904 119.921 17.1191V20H118.534V14.6875H119.877V15.4639C120.056 15.1904 120.225 14.9935 120.384 14.873C120.671 14.6582 121.034 14.5508 121.473 14.5508C122.023 14.5508 122.473 14.6956 122.821 14.9854C123.172 15.2718 123.348 15.7487 123.348 16.416V20H121.922V16.7627C121.922 16.4827 121.885 16.2679 121.81 16.1182C121.673 15.8447 121.413 15.708 121.029 15.708ZM47.8125 29.6035L48.9111 25.6777H50.3906L48.5645 30.9121C48.2129 31.9212 47.9346 32.5462 47.7295 32.7871C47.5244 33.0312 47.1143 33.1533 46.499 33.1533C46.3753 33.1533 46.276 33.1517 46.2012 33.1484C46.1263 33.1484 46.014 33.1436 45.8643 33.1338V32.0205L46.04 32.0303C46.1768 32.0368 46.307 32.0319 46.4307 32.0156C46.5544 31.9993 46.6585 31.9619 46.7432 31.9033C46.8245 31.848 46.8994 31.7324 46.9678 31.5566C47.0394 31.3809 47.0687 31.2734 47.0557 31.2344L45.1025 25.6777H46.6504L47.8125 29.6035ZM57.768 28.1777H56.2152V31H54.7455V23.8027H58.2758C58.7803 23.8125 59.1677 23.8743 59.4379 23.9883C59.7113 24.1022 59.9424 24.2699 60.1313 24.4912C60.2875 24.6735 60.4112 24.8753 60.5023 25.0967C60.5935 25.318 60.6391 25.5703 60.6391 25.8535C60.6391 26.1953 60.5528 26.5322 60.3803 26.8643C60.2077 27.193 59.9229 27.4258 59.5258 27.5625C59.8578 27.696 60.0922 27.8864 60.2289 28.1338C60.3689 28.3779 60.4389 28.7523 60.4389 29.2568V29.7402C60.4389 30.069 60.4519 30.292 60.4779 30.4092C60.517 30.5947 60.6081 30.7314 60.7514 30.8193V31H59.0961C59.0505 30.8405 59.018 30.7119 58.9984 30.6143C58.9594 30.4124 58.9382 30.2057 58.935 29.9941L58.9252 29.3252C58.9187 28.8662 58.834 28.5602 58.6713 28.4072C58.5118 28.2542 58.2107 28.1777 57.768 28.1777ZM58.6811 26.8691C58.9805 26.7324 59.1303 26.4622 59.1303 26.0586C59.1303 25.6224 58.9854 25.3294 58.6957 25.1797C58.5329 25.0951 58.2888 25.0527 57.9633 25.0527H56.2152V26.9863H57.9193C58.2579 26.9863 58.5118 26.9473 58.6811 26.8691ZM66.6812 29.4375C66.6454 29.7533 66.4811 30.0739 66.1881 30.3994C65.7324 30.917 65.0943 31.1758 64.274 31.1758C63.5969 31.1758 62.9996 30.9577 62.482 30.5215C61.9645 30.0853 61.7057 29.3757 61.7057 28.3926C61.7057 27.4714 61.9384 26.765 62.4039 26.2734C62.8727 25.7819 63.4798 25.5361 64.2252 25.5361C64.6679 25.5361 65.0667 25.6191 65.4215 25.7852C65.7763 25.9512 66.0693 26.2132 66.3004 26.5713C66.5087 26.887 66.6438 27.2533 66.7057 27.6699C66.7415 27.9141 66.7561 28.2656 66.7496 28.7246H63.107C63.1266 29.2585 63.2942 29.6328 63.61 29.8477C63.802 29.9811 64.0331 30.0479 64.3033 30.0479C64.5898 30.0479 64.8225 29.9665 65.0016 29.8037C65.0992 29.7158 65.1855 29.5938 65.2604 29.4375H66.6812ZM65.3043 27.8066C65.2815 27.4388 65.1692 27.1605 64.9674 26.9717C64.7688 26.7796 64.5214 26.6836 64.2252 26.6836C63.9029 26.6836 63.6523 26.7845 63.4732 26.9863C63.2975 27.1882 63.1868 27.4616 63.1412 27.8066H65.3043ZM71.659 25.9219C72.0757 26.1888 72.3149 26.6478 72.3768 27.2988H70.9852C70.9656 27.1198 70.9152 26.9782 70.8338 26.874C70.6808 26.6852 70.4204 26.5908 70.0525 26.5908C69.7498 26.5908 69.5333 26.638 69.4031 26.7324C69.2762 26.8268 69.2127 26.9375 69.2127 27.0645C69.2127 27.224 69.2811 27.3395 69.4178 27.4111C69.5545 27.486 70.0379 27.6146 70.868 27.7969C71.4214 27.9271 71.8364 28.124 72.1131 28.3877C72.3865 28.6546 72.5232 28.9883 72.5232 29.3887C72.5232 29.916 72.3263 30.3473 71.9324 30.6826C71.5418 31.0146 70.9363 31.1807 70.116 31.1807C69.2794 31.1807 68.6609 31.0049 68.2605 30.6533C67.8634 30.2985 67.6648 29.8477 67.6648 29.3008H69.076C69.1053 29.5482 69.1688 29.724 69.2664 29.8281C69.4389 30.0137 69.7579 30.1064 70.2234 30.1064C70.4969 30.1064 70.7133 30.0658 70.8729 29.9844C71.0356 29.903 71.117 29.7809 71.117 29.6182C71.117 29.4619 71.0519 29.3431 70.9217 29.2617C70.7915 29.1803 70.3081 29.0404 69.4715 28.8418C68.8693 28.6921 68.4445 28.5049 68.1971 28.2803C67.9497 28.0589 67.826 27.7399 67.826 27.3232C67.826 26.8317 68.018 26.4102 68.4021 26.0586C68.7895 25.7038 69.3331 25.5264 70.033 25.5264C70.6971 25.5264 71.2391 25.6582 71.659 25.9219ZM75.2891 25.6777V31H73.8779V25.6777H75.2891ZM75.2891 23.7588V25.043H73.8779V23.7588H75.2891ZM76.9709 23.8027H78.3625V31H76.9709V23.8027ZM81.4555 25.6777V31H80.0443V25.6777H81.4555ZM81.4555 23.7588V25.043H80.0443V23.7588H81.4555ZM87.6637 29.4375C87.6279 29.7533 87.4635 30.0739 87.1705 30.3994C86.7148 30.917 86.0768 31.1758 85.2564 31.1758C84.5794 31.1758 83.982 30.9577 83.4645 30.5215C82.9469 30.0853 82.6881 29.3757 82.6881 28.3926C82.6881 27.4714 82.9208 26.765 83.3863 26.2734C83.8551 25.7819 84.4622 25.5361 85.2076 25.5361C85.6503 25.5361 86.0491 25.6191 86.4039 25.7852C86.7587 25.9512 87.0517 26.2132 87.2828 26.5713C87.4911 26.887 87.6262 27.2533 87.6881 27.6699C87.7239 27.9141 87.7385 28.2656 87.732 28.7246H84.0895C84.109 29.2585 84.2766 29.6328 84.5924 29.8477C84.7844 29.9811 85.0156 30.0479 85.2857 30.0479C85.5722 30.0479 85.8049 29.9665 85.984 29.8037C86.0816 29.7158 86.1679 29.5938 86.2428 29.4375H87.6637ZM86.2867 27.8066C86.2639 27.4388 86.1516 27.1605 85.9498 26.9717C85.7512 26.7796 85.5038 26.6836 85.2076 26.6836C84.8854 26.6836 84.6347 26.7845 84.4557 26.9863C84.2799 27.1882 84.1692 27.4616 84.1236 27.8066H86.2867ZM91.4793 26.708C91.0073 26.708 90.6834 26.9082 90.5076 27.3086C90.4165 27.5202 90.3709 27.7904 90.3709 28.1191V31H88.9842V25.6875H90.327V26.4639C90.506 26.1904 90.6753 25.9935 90.8348 25.873C91.1212 25.6582 91.4842 25.5508 91.9236 25.5508C92.4738 25.5508 92.923 25.6956 93.2713 25.9854C93.6229 26.2718 93.7986 26.7487 93.7986 27.416V31H92.3729V27.7627C92.3729 27.4827 92.3354 27.2679 92.2605 27.1182C92.1238 26.8447 91.8634 26.708 91.4793 26.708ZM99.9922 27.5869H98.5664C98.5404 27.3883 98.4736 27.2093 98.3662 27.0498C98.21 26.835 97.9674 26.7275 97.6387 26.7275C97.1699 26.7275 96.8493 26.9603 96.6768 27.4258C96.5856 27.6732 96.54 28.002 96.54 28.4121C96.54 28.8027 96.5856 29.1169 96.6768 29.3545C96.8428 29.7972 97.1553 30.0186 97.6143 30.0186C97.9398 30.0186 98.1709 29.9307 98.3076 29.7549C98.4443 29.5791 98.5273 29.3512 98.5566 29.0713H99.9775C99.945 29.4945 99.792 29.8949 99.5186 30.2725C99.0824 30.8812 98.4362 31.1855 97.5801 31.1855C96.724 31.1855 96.0941 30.9316 95.6904 30.4238C95.2868 29.916 95.085 29.2568 95.085 28.4463C95.085 27.5316 95.3079 26.8203 95.7539 26.3125C96.1999 25.8047 96.8151 25.5508 97.5996 25.5508C98.2669 25.5508 98.8122 25.7005 99.2354 26C99.6618 26.2995 99.9141 26.8285 99.9922 27.5869ZM102.685 25.6777V31H101.274V25.6777H102.685ZM102.685 23.7588V25.043H101.274V23.7588H102.685ZM104.537 26.2539C104.905 25.7852 105.537 25.5508 106.432 25.5508C107.015 25.5508 107.532 25.6663 107.985 25.8975C108.437 26.1286 108.663 26.5648 108.663 27.2061V29.6475C108.663 29.8167 108.667 30.0218 108.673 30.2627C108.683 30.445 108.711 30.5687 108.756 30.6338C108.802 30.6989 108.87 30.7526 108.961 30.7949V31H107.448C107.405 30.8926 107.376 30.7917 107.36 30.6973C107.343 30.6029 107.33 30.4954 107.321 30.375C107.129 30.5833 106.907 30.7607 106.657 30.9072C106.357 31.0798 106.019 31.166 105.641 31.166C105.159 31.166 104.76 31.0293 104.445 30.7559C104.132 30.4792 103.976 30.0885 103.976 29.584C103.976 28.9297 104.228 28.4561 104.733 28.1631C105.01 28.0036 105.416 27.8896 105.954 27.8213L106.427 27.7627C106.684 27.7301 106.868 27.6895 106.979 27.6406C107.177 27.556 107.277 27.4242 107.277 27.2451C107.277 27.027 107.2 26.8773 107.047 26.7959C106.898 26.7113 106.676 26.6689 106.383 26.6689C106.054 26.6689 105.822 26.7503 105.685 26.9131C105.587 27.0335 105.522 27.1963 105.49 27.4014H104.147C104.176 26.9359 104.306 26.5534 104.537 26.2539ZM105.573 29.9941C105.703 30.1016 105.862 30.1553 106.051 30.1553C106.351 30.1553 106.626 30.0674 106.876 29.8916C107.13 29.7158 107.262 29.3952 107.272 28.9297V28.4121C107.184 28.4674 107.094 28.513 107.003 28.5488C106.915 28.5814 106.793 28.6123 106.637 28.6416L106.325 28.7002C106.032 28.7523 105.822 28.8158 105.695 28.8906C105.48 29.0176 105.372 29.2145 105.372 29.4814C105.372 29.7191 105.439 29.89 105.573 29.9941Z" fill="white"/>
<path d="M25.8498 6.45966H19.8735V32.4333H12.7954V6.45966H6.79028V0H25.8498V6.45966Z" fill="#CE132E"/>
<path d="M32.0772 22.7541C30.4716 23.2586 28.8155 23.5784 27.1378 23.6992L25.3376 23.7419L31.4724 32.3903H40.2065L33.0637 22.4414L32.0772 22.7541Z" fill="#CE132E"/>
<path d="M9.33153 27.9422L8.99311 26.0732L7.94185 27.864L5.72412 27.7361L7.26501 29.0366L6.20655 30.8913L8.21547 29.8609L10.2028 31.1187L9.58355 29.2356L11.4341 28.063L9.33153 27.9422Z" fill="#FFCC00"/>
<path d="M3.50701 21.525L3.19019 19.8408L2.21813 21.454L0.151611 21.3332L1.5845 22.5057L0.317221 24.1615L2.47015 23.2448L4.03264 24.3747L3.75183 22.6905L5.47273 21.6387L3.50701 21.525Z" fill="#FFCC00"/>
<path d="M3.02418 14.5536L2.73616 13.1182L1.86491 14.4826L0 14.376L1.29608 15.3851L0.158409 16.785L2.10252 16.0176L3.50661 16.9769L3.24739 15.5414L4.79548 14.6531L3.02418 14.5536Z" fill="#FFCC00"/>
<path d="M6.56675 9.16045L6.30754 8.02344L5.55149 9.09649L3.9314 9.00411L5.06186 9.80713L4.08261 10.9086L5.76751 10.3117L6.99158 11.0721L6.76117 9.94215L8.10765 9.24573L6.56675 9.16045Z" fill="#FFCC00"/>
<path d="M35.8291 3.15561C34.6914 2.16783 33.3162 1.39323 31.6889 0.860259C29.932 0.287014 28.2135 0.0146047 26.5334 0.04303C26.5334 2.19625 26.5478 4.32105 26.5334 6.48848C27.6782 6.60218 28.9095 6.90776 30.0112 7.7392C31.1128 8.57064 31.6601 9.79293 31.6601 11.4061V11.4985C31.6601 12.8913 31.1344 14.0567 30.0832 15.0019C29.0319 15.947 27.5558 16.416 25.6477 16.416L20.521 16.4231C20.5354 18.555 20.521 20.6443 20.521 22.7691H25.4029C27.3398 22.7691 29.1543 22.5275 30.8536 22.0514C32.5457 21.5752 34.029 20.8504 35.2891 19.891C36.5563 18.9317 37.55 17.7449 38.27 16.3166C38.9901 14.8953 39.3573 13.2395 39.3573 11.3492V11.2568C39.3573 9.60106 39.0549 8.0803 38.4429 6.70167C37.8308 5.32304 36.9668 4.14339 35.8291 3.15561Z" fill="#FFCC00"/>
</svg>
