<svg width="164" height="41" viewBox="0 0 164 41" fill="none" xmlns="http://www.w3.org/2000/svg">
<g clip-path="url(#clip0_3943_14348)">
<path d="M60.1742 0.0222626H0.0102234V40.5528H60.1742V0.0222626Z" fill="white"/>
<path d="M59.0156 1.13326H1.16681V39.3952H59.0156V1.13326Z" fill="#034EA2"/>
<path d="M28.8591 9.47087L30.0789 8.58651L31.2987 9.47087L30.8357 8.04012L32.0759 7.15779H30.5461L30.0789 5.71085L29.6118 7.15779H28.084L29.3222 8.04012L28.8591 9.47087Z" fill="#FFF200"/>
<path d="M22.5418 11.1526L23.7616 10.2702L24.9814 11.1526L24.5184 9.72384L25.7566 8.84151H24.2287L23.7616 7.39255L23.2925 8.84151H21.7667L23.0049 9.72384L22.5418 11.1526Z" fill="#FFF200"/>
<path d="M19.1394 11.9883L18.6723 13.4373H17.1445L18.3826 14.3196L17.9196 15.7504L19.1394 14.866L20.3592 15.7504L19.8962 14.3196L21.1343 13.4373H19.6065L19.1394 11.9883Z" fill="#FFF200"/>
<path d="M17.4444 21.1253L18.6642 22.0097L18.2011 20.5789L19.4393 19.6966H17.9115L17.4444 18.2476L16.9773 19.6986L15.4474 19.6966L16.6876 20.5789L16.2225 22.0097L17.4444 21.1253Z" fill="#FFF200"/>
<path d="M19.6065 25.9741L19.1394 24.5251L18.6723 25.9761L17.1445 25.9741L18.3826 26.8584L17.9196 28.2872L19.1394 27.4008L20.3592 28.2872L19.8962 26.8584L21.1343 25.9741H19.6065Z" fill="#FFF200"/>
<path d="M24.239 30.5679L23.7698 29.1209L23.3047 30.5699L21.7749 30.5679L23.0151 31.4522L22.55 32.881L23.7718 31.9986L24.9916 32.881L24.5286 31.4522L25.7668 30.5679H24.239Z" fill="#FFF200"/>
<path d="M30.5481 32.2334L30.0789 30.7844L29.6139 32.2354L28.084 32.2334L29.3242 33.1177L28.8591 34.5464L30.081 33.6621L31.3008 34.5464L30.8357 33.1177L32.0759 32.2334H30.5481Z" fill="#FFF200"/>
<path d="M36.8572 30.5679L36.3901 29.1209L35.9209 30.5699L34.3951 30.5679L35.6333 31.4522L35.1682 32.881L36.3901 31.9986L37.6099 32.881L37.1448 31.4522L38.385 30.5679H36.8572Z" fill="#FFF200"/>
<path d="M41.4895 25.9741L41.0204 24.5251L40.5512 25.9761L39.0254 25.9741L40.2656 26.8584L39.8006 28.2872L41.0204 27.4008L42.2422 28.2872L41.7751 26.8584L43.0153 25.9741H41.4895Z" fill="#FFF200"/>
<path d="M44.6941 19.6784H43.1663L42.6971 18.2294L42.23 19.6804L40.7022 19.6784L41.9424 20.5627L41.4773 21.9915L42.6971 21.1051L43.9169 21.9915L43.4539 20.5627L44.6941 19.6784Z" fill="#FFF200"/>
<path d="M39.8006 15.7302L41.0204 14.8458L42.2422 15.7302L41.7751 14.3014L43.0153 13.4191H41.4895L41.0204 11.9701L40.5512 13.4211L39.0254 13.4191L40.2656 14.3014L39.8006 15.7302Z" fill="#FFF200"/>
<path d="M36.4064 7.39456L35.9393 8.84352L34.4115 8.8415L35.6496 9.72585L35.1866 11.1546L36.4085 10.2702L37.6283 11.1546L37.1632 9.72585L38.4034 8.8415H36.8735L36.4064 7.39456Z" fill="#FFF200"/>
<path d="M66.1773 9.67731V1.13126H72.0825V2.57617H67.9254V4.59986H71.5216V6.0468H67.9254V9.67731H66.1773Z" fill="#034EA2"/>
<path d="M73.5042 2.647V1.13126H75.1565V2.647H73.5042ZM73.5042 9.67731V3.48683H75.1565V9.67731H73.5042Z" fill="#034EA2"/>
<path d="M82.5263 9.6773H80.874V6.51832C80.9003 6.08352 80.8674 5.64719 80.7761 5.22113C80.7142 5.03623 80.594 4.87593 80.4334 4.76378C80.2641 4.65157 80.0638 4.59429 79.8603 4.59986C79.5851 4.59604 79.3156 4.67739 79.0892 4.83258C78.8682 4.98152 78.7038 5.1995 78.6221 5.45183C78.5167 5.91636 78.4742 6.39274 78.4956 6.86842V9.6773H76.8454V3.48683H78.3794V4.39547C78.718 3.93217 79.2043 3.59581 79.7596 3.44083C80.3149 3.28584 80.9066 3.3213 81.4391 3.54147C81.7024 3.6509 81.9333 3.825 82.1102 4.04739C82.2658 4.25158 82.3763 4.48603 82.4345 4.73545C82.5053 5.09869 82.5361 5.4685 82.5263 5.83836V9.6773Z" fill="#034EA2"/>
<path d="M85.435 5.37492L83.9358 5.1078C84.0586 4.57693 84.3663 4.10609 84.8048 3.77823C85.2127 3.49086 85.8247 3.34718 86.6406 3.34718C87.3769 3.34718 87.9256 3.43218 88.2867 3.60622C88.6035 3.74102 88.8696 3.97106 89.0475 4.26392C89.1944 4.53104 89.2678 5.01875 89.2678 5.73109L89.2495 7.64348C89.239 8.04641 89.2657 8.44945 89.329 8.84758C89.3921 9.13567 89.4922 9.41452 89.6268 9.67729H87.995C87.9501 9.57004 87.8991 9.40814 87.8359 9.19363C87.8073 9.09649 87.789 9.03173 87.7767 8.99126C87.5153 9.24744 87.2082 9.45329 86.8711 9.59837C86.5484 9.73354 86.2014 9.80238 85.8512 9.80074C85.2959 9.84258 84.7463 9.66593 84.3213 9.30898C84.1397 9.14238 83.996 8.9392 83.9 8.71303C83.8039 8.48687 83.7577 8.24295 83.7644 7.99763C83.7596 7.66809 83.8472 7.3437 84.0174 7.06066C84.1864 6.78685 84.4324 6.56807 84.7252 6.43129C85.1454 6.2506 85.5867 6.12279 86.0388 6.05084C86.5853 5.96491 87.1227 5.82943 87.6442 5.6461V5.48218C87.6562 5.35956 87.6412 5.23581 87.6004 5.11947C87.5595 5.00313 87.4937 4.89696 87.4075 4.80829C87.2525 4.67338 86.9567 4.60592 86.5202 4.60592C86.2787 4.5918 86.0387 4.65187 85.8328 4.77793C85.6418 4.9319 85.503 5.14026 85.435 5.37492ZM87.6442 6.70449C87.3135 6.80521 86.9779 6.88897 86.6385 6.95543C86.3255 7.00329 86.0219 7.09958 85.739 7.24077C85.6407 7.3023 85.5597 7.3874 85.5034 7.4882C85.4471 7.58901 85.4173 7.70226 85.4167 7.81752C85.415 7.92886 85.4368 8.03932 85.4807 8.14179C85.5246 8.24426 85.5896 8.33647 85.6717 8.41248C85.7585 8.49606 85.8614 8.56137 85.9742 8.60449C86.0871 8.64762 86.2076 8.66766 86.3285 8.66342C86.637 8.66022 86.9361 8.55798 87.1811 8.37201C87.3697 8.23989 87.5083 8.04897 87.5748 7.82966C87.6299 7.56692 87.6518 7.29841 87.6401 7.0303L87.6442 6.70449Z" fill="#034EA2"/>
<path d="M96.5703 9.6773H94.9181V6.51832C94.9417 6.08316 94.906 5.64683 94.812 5.22113C94.7507 5.0359 94.6304 4.87541 94.4693 4.76378C94.3 4.65157 94.0997 4.59429 93.8961 4.59986C93.6216 4.59606 93.3528 4.67743 93.1271 4.83258C92.905 4.98036 92.7403 5.19876 92.66 5.45183C92.5534 5.91617 92.5109 6.39272 92.5335 6.86842V9.6773H90.8813V3.48683H92.4152V4.39547C92.7539 3.93217 93.2402 3.59581 93.7955 3.44083C94.3507 3.28584 94.9425 3.3213 95.4749 3.54147C95.7415 3.65028 95.9759 3.82434 96.1562 4.04739C96.3104 4.25221 96.4201 4.48648 96.4785 4.73545C96.5494 5.09869 96.5802 5.4685 96.5703 5.83836V9.6773Z" fill="#034EA2"/>
<path d="M103.687 5.31624L102.055 5.60765C102.023 5.32839 101.89 5.06998 101.682 4.87912C101.468 4.70979 101.199 4.62285 100.925 4.63425C100.741 4.62837 100.558 4.66348 100.389 4.73702C100.22 4.81056 100.07 4.92066 99.9503 5.05923C99.7055 5.34119 99.5831 5.81339 99.5831 6.47581C99.5831 7.21109 99.7075 7.72983 99.9564 8.03203C100.076 8.18031 100.229 8.29874 100.403 8.37782C100.577 8.45689 100.767 8.49441 100.958 8.48736C101.239 8.49844 101.514 8.40373 101.727 8.22226C101.962 7.97039 102.111 7.65075 102.151 7.30957L103.783 7.58277C103.662 8.23477 103.317 8.82489 102.806 9.25232C102.326 9.62872 101.685 9.81693 100.882 9.81693C99.97 9.81693 99.2425 9.53158 98.6999 8.9609C98.1573 8.39022 97.8853 7.59896 97.884 6.58711C97.884 5.56582 98.1559 4.77051 98.6999 4.20118C99.2438 3.63185 99.9802 3.34718 100.909 3.34718C101.668 3.34718 102.274 3.50908 102.722 3.83287C103.201 4.20735 103.54 4.72923 103.687 5.31624Z" fill="#034EA2"/>
<path d="M104.938 2.647V1.13126H106.59V2.647H104.938ZM104.938 9.67731V3.48683H106.59V9.67731H104.938Z" fill="#034EA2"/>
<path d="M109.515 5.37492L108.018 5.1078C108.14 4.57665 108.448 4.10561 108.887 3.77823C109.295 3.49086 109.907 3.34718 110.722 3.34718C111.459 3.34718 112.008 3.43218 112.369 3.60622C112.685 3.74102 112.951 3.97106 113.129 4.26392C113.276 4.53104 113.35 5.01875 113.35 5.73109L113.331 7.64348C113.321 8.04641 113.348 8.44945 113.411 8.84758C113.474 9.13538 113.573 9.41415 113.707 9.67729H112.075C112.013 9.51903 111.96 9.35758 111.916 9.19363C111.887 9.09649 111.869 9.03173 111.857 8.99126C111.595 9.24744 111.288 9.45329 110.951 9.59837C110.628 9.73354 110.281 9.80238 109.931 9.80074C109.376 9.84149 108.827 9.66497 108.401 9.30898C108.22 9.14196 108.077 8.93865 107.981 8.71255C107.886 8.48645 107.84 8.24275 107.846 7.99763C107.842 7.66356 107.933 7.33507 108.109 7.05054C108.278 6.77673 108.524 6.55795 108.817 6.42117C109.237 6.24049 109.679 6.11267 110.131 6.04072C110.677 5.95451 111.215 5.81904 111.736 5.63598V5.47206C111.748 5.34944 111.733 5.22569 111.692 5.10935C111.652 4.99301 111.586 4.88684 111.5 4.79817C111.345 4.66461 111.047 4.5958 110.612 4.5958C110.371 4.58168 110.131 4.64175 109.925 4.76782C109.729 4.92361 109.585 5.13559 109.515 5.37492ZM111.726 6.70449C111.395 6.80521 111.06 6.88897 110.72 6.95543C110.407 7.00329 110.104 7.09958 109.821 7.24077C109.723 7.3023 109.642 7.3874 109.585 7.4882C109.529 7.58901 109.499 7.70226 109.499 7.81752C109.498 7.9289 109.52 8.03922 109.565 8.1416C109.609 8.24397 109.674 8.33619 109.756 8.41248C109.843 8.49612 109.946 8.56145 110.059 8.60457C110.172 8.64769 110.293 8.6677 110.414 8.66342C110.723 8.66022 111.022 8.55798 111.267 8.37201C111.456 8.23989 111.594 8.04897 111.661 7.82966C111.716 7.56692 111.738 7.29841 111.726 7.0303V6.70449Z" fill="#034EA2"/>
<path d="M120.699 9.67731H119.165V8.76867C118.934 9.10166 118.624 9.37279 118.262 9.55791C117.938 9.72574 117.578 9.81454 117.213 9.81694C116.862 9.81711 116.516 9.74027 116.198 9.59192C115.881 9.44357 115.601 9.2274 115.377 8.9589C114.866 8.38417 114.61 7.58414 114.61 6.5588C114.61 5.50918 114.859 4.71117 115.357 4.16477C115.593 3.90218 115.885 3.69378 116.21 3.554C116.536 3.41422 116.889 3.34642 117.244 3.35529C117.591 3.35667 117.933 3.43476 118.246 3.58388C118.559 3.733 118.835 3.94941 119.053 4.21739V1.13126H120.705L120.699 9.67731ZM116.291 6.4394C116.291 7.10182 116.383 7.58009 116.566 7.8742C116.676 8.07192 116.838 8.23615 117.035 8.34919C117.232 8.46224 117.457 8.51981 117.684 8.51571C117.872 8.51462 118.057 8.47061 118.225 8.38708C118.393 8.30356 118.54 8.18277 118.653 8.03407C118.925 7.71433 119.061 7.23539 119.061 6.59725C119.061 5.88693 118.931 5.38303 118.674 5.06127C118.556 4.91151 118.406 4.79104 118.233 4.70952C118.061 4.62799 117.871 4.58766 117.68 4.59177C117.49 4.58883 117.301 4.62947 117.129 4.71054C116.956 4.7916 116.805 4.91092 116.687 5.05924C116.424 5.37224 116.292 5.83499 116.291 6.44749V6.4394Z" fill="#034EA2"/>
<path d="M121.943 6.49402C121.947 5.94258 122.087 5.40041 122.351 4.91554C122.607 4.42078 123.008 4.01391 123.5 3.74787C124.01 3.47586 124.581 3.33661 125.16 3.34313C125.591 3.32773 126.02 3.40126 126.421 3.55906C126.822 3.71687 127.185 3.95551 127.488 4.25986C127.788 4.56343 128.023 4.92419 128.178 5.32035C128.334 5.71652 128.407 6.13987 128.393 6.56485C128.407 6.99634 128.332 7.42607 128.173 7.82812C128.015 8.23018 127.776 8.59624 127.471 8.90423C127.173 9.20737 126.814 9.44586 126.418 9.60469C126.022 9.76351 125.597 9.83922 125.17 9.82704C124.604 9.82781 124.044 9.69608 123.539 9.44254C123.029 9.1966 122.612 8.79519 122.349 8.29713C122.065 7.73876 121.926 7.11914 121.943 6.49402ZM123.636 6.58306C123.636 7.19691 123.783 7.66911 124.077 7.99964C124.212 8.15341 124.379 8.27665 124.567 8.3611C124.754 8.44554 124.957 8.48923 125.163 8.48923C125.369 8.48923 125.572 8.44554 125.76 8.3611C125.947 8.27665 126.114 8.15341 126.249 7.99964C126.542 7.67181 126.687 7.19961 126.686 6.58306C126.686 5.97595 126.541 5.5105 126.249 5.18267C126.114 5.0289 125.947 4.90566 125.76 4.82121C125.572 4.73677 125.369 4.69308 125.163 4.69308C124.957 4.69308 124.754 4.73677 124.567 4.82121C124.379 4.90566 124.212 5.0289 124.077 5.18267C123.783 5.49836 123.636 5.96786 123.636 6.58306Z" fill="#034EA2"/>
<path d="M132.975 3.48682H134.513V4.39546C134.718 4.08094 134.998 3.8211 135.329 3.6386C135.674 3.44353 136.065 3.34297 136.463 3.34719C136.812 3.34571 137.158 3.42054 137.475 3.56638C137.793 3.71221 138.074 3.92548 138.298 4.19107C138.803 4.755 139.055 5.5402 139.055 6.54665C139.055 7.58008 138.801 8.38416 138.292 8.95889C138.067 9.22918 137.784 9.44639 137.464 9.59479C137.143 9.74319 136.794 9.81907 136.44 9.81693C136.117 9.82185 135.796 9.7526 135.504 9.61456C135.172 9.43456 134.875 9.19747 134.627 8.91437V12.0329H132.975V3.48682ZM134.606 6.47784C134.606 7.17264 134.742 7.68666 135.014 8.01989C135.134 8.17537 135.289 8.30123 135.465 8.3876C135.642 8.47397 135.837 8.51851 136.034 8.51772C136.219 8.5204 136.402 8.48048 136.568 8.40111C136.734 8.32174 136.88 8.20509 136.993 8.06037C137.249 7.75412 137.376 7.25359 137.374 6.55879C137.374 5.90986 137.243 5.42822 136.981 5.11387C136.866 4.96585 136.718 4.84611 136.549 4.76398C136.38 4.68185 136.194 4.63953 136.006 4.64033C135.814 4.63731 135.624 4.67744 135.449 4.75769C135.275 4.83795 135.122 4.95626 135 5.10375C134.739 5.41405 134.608 5.87141 134.608 6.47582L134.606 6.47784Z" fill="#034EA2"/>
<path d="M139.989 6.49402C139.993 5.94259 140.133 5.40042 140.397 4.91554C140.653 4.42079 141.054 4.01392 141.546 3.74787C142.056 3.47586 142.627 3.33661 143.206 3.34313C143.636 3.32805 144.064 3.40136 144.463 3.55844C144.863 3.71551 145.225 3.95296 145.528 4.25582C145.828 4.55939 146.063 4.92015 146.218 5.31631C146.374 5.71248 146.447 6.13583 146.433 6.5608C146.448 6.9926 146.375 7.42297 146.218 7.8258C146.06 8.22864 145.822 8.59554 145.517 8.90424C145.219 9.20737 144.86 9.44587 144.464 9.60469C144.068 9.76351 143.643 9.83922 143.216 9.82704C142.65 9.82759 142.091 9.69587 141.585 9.44254C141.075 9.19661 140.658 8.79519 140.395 8.29713C140.112 7.73877 139.972 7.11915 139.989 6.49402ZM141.683 6.58307C141.683 7.19692 141.829 7.66911 142.123 7.99965C142.258 8.15341 142.425 8.27666 142.613 8.3611C142.8 8.44555 143.004 8.48924 143.209 8.48924C143.415 8.48924 143.618 8.44555 143.806 8.3611C143.993 8.27666 144.16 8.15341 144.295 7.99965C144.588 7.67181 144.733 7.19962 144.732 6.58307C144.732 5.97596 144.587 5.51051 144.295 5.18267C144.16 5.02891 143.993 4.90566 143.806 4.82122C143.618 4.73677 143.415 4.69308 143.209 4.69308C143.004 4.69308 142.8 4.73677 142.613 4.82122C142.425 4.90566 142.258 5.02891 142.123 5.18267C141.829 5.49837 141.683 5.96786 141.683 6.58307Z" fill="#034EA2"/>
<path d="M149.313 9.6773H147.661V3.48683H149.195V4.36714C149.371 4.04761 149.612 3.76784 149.903 3.54552C150.116 3.41039 150.364 3.34004 150.617 3.34315C151.001 3.34551 151.377 3.45187 151.704 3.65075L151.194 5.07947C150.966 4.91841 150.696 4.82569 150.417 4.81235C150.205 4.80625 149.998 4.87271 149.829 5.00055C149.635 5.18519 149.503 5.4247 149.45 5.68658C149.359 6.01982 149.313 6.71259 149.313 7.76491V9.6773Z" fill="#034EA2"/>
<path d="M66.1528 24.005V15.459H67.805V24.005H66.1528Z" fill="#034EA2"/>
<path d="M70.7322 19.7027L69.2329 19.4274C69.3566 18.8969 69.6641 18.4263 70.1019 18.0979C70.5098 17.8105 71.1218 17.6668 71.9377 17.6668C72.6741 17.6668 73.2228 17.7518 73.5838 17.9259C73.9011 18.0598 74.1675 18.2901 74.3447 18.5836C74.4915 18.8507 74.565 19.3384 74.565 20.0507L74.5466 21.9631C74.5355 22.3694 74.5622 22.7759 74.6262 23.1773C74.6903 23.4651 74.7904 23.7438 74.924 24.0071H73.2921C73.2493 23.8978 73.1963 23.7379 73.133 23.5234C73.1065 23.4263 73.0861 23.3615 73.0739 23.3311C72.8128 23.5868 72.5065 23.7926 72.1702 23.9382C71.8442 24.0743 71.4938 24.1431 71.1401 24.1406C70.5854 24.172 70.0404 23.9859 69.6225 23.6225C69.4412 23.4559 69.2978 23.2526 69.2021 23.0264C69.1064 22.8003 69.0606 22.5564 69.0677 22.3112C69.0622 21.9818 69.149 21.6574 69.3186 21.3742C69.4883 21.1003 69.735 20.8815 70.0284 20.7449C70.4478 20.5639 70.8885 20.436 71.34 20.3644C71.8865 20.2785 72.4238 20.143 72.9454 19.9597V19.7957C72.9572 19.6733 72.9424 19.5498 72.902 19.4335C72.8615 19.3172 72.7963 19.2109 72.7108 19.1219C72.5544 18.9869 72.2586 18.9195 71.8235 18.9195C71.5819 18.9051 71.3418 18.9652 71.1361 19.0915C70.9404 19.2483 70.7991 19.4621 70.7322 19.7027ZM72.9413 21.0322C72.6106 21.1329 72.275 21.2167 71.9357 21.2832C71.6233 21.3313 71.3205 21.4275 71.0381 21.5685C70.9393 21.6295 70.8576 21.7144 70.8009 21.8153C70.7442 21.9162 70.7142 22.0297 70.7138 22.1453C70.7126 22.2569 70.735 22.3675 70.7797 22.47C70.8243 22.5725 70.8901 22.6646 70.9729 22.7402C71.0597 22.8238 71.1626 22.8891 71.2755 22.9322C71.3883 22.9753 71.5088 22.9954 71.6297 22.9912C71.9382 22.988 72.2373 22.8857 72.4823 22.6997C72.6709 22.5676 72.8095 22.3767 72.876 22.1574C72.9319 21.8914 72.9538 21.6194 72.9413 21.3479V21.0322Z" fill="#034EA2"/>
<path d="M79.5339 15.459H81.2739V20.0872C81.2587 20.5644 81.2805 21.042 81.3392 21.5159C81.404 21.8523 81.5932 22.1525 81.8695 22.3577C82.2071 22.5868 82.6116 22.6985 83.02 22.6755C83.4153 22.7039 83.8087 22.5983 84.1357 22.376C84.3746 22.1955 84.5362 21.9326 84.5886 21.6393C84.6505 21.1576 84.6757 20.6719 84.664 20.1863V15.459H86.404V19.9475C86.4261 20.6755 86.379 21.4039 86.2633 22.123C86.1832 22.5181 86.0044 22.8869 85.7431 23.1956C85.4639 23.5049 85.1142 23.7436 84.7232 23.8917C84.1927 24.0819 83.6306 24.1698 83.0669 24.1507C82.2428 24.1507 81.6186 24.057 81.1943 23.8694C80.8055 23.7056 80.4605 23.4541 80.1867 23.1348C79.9528 22.8598 79.786 22.5351 79.6992 22.1857C79.5653 21.4713 79.5079 20.7448 79.5278 20.0184L79.5339 15.459Z" fill="#034EA2"/>
<path d="M93.9022 24.005H92.25V20.844C92.2736 20.4089 92.2379 19.9725 92.1439 19.5468C92.0826 19.3616 91.9624 19.2011 91.8012 19.0895C91.632 18.977 91.4317 18.9197 91.2281 18.9256C90.9535 18.9218 90.6847 19.0031 90.4591 19.1583C90.237 19.3061 90.0722 19.5245 89.9919 19.7776C89.8854 20.2419 89.8428 20.7184 89.8655 21.1941V23.9969H88.2132V17.8085H89.7512V18.7171C90.0899 18.2538 90.5762 17.9175 91.1315 17.7625C91.6868 17.6075 92.2785 17.643 92.8109 17.8631C93.0781 17.9691 93.3138 18.1403 93.4963 18.361C93.6512 18.5653 93.7611 18.7998 93.8186 19.049C93.8895 19.4123 93.9203 19.7821 93.9104 20.1519L93.9022 24.005Z" fill="#034EA2"/>
<path d="M95.5769 16.9747V15.459H97.2271V16.9747H95.5769ZM95.5769 24.005V17.8085H97.2271V23.999L95.5769 24.005Z" fill="#034EA2"/>
<path d="M98.5387 20.8218C98.5408 20.2702 98.681 19.7278 98.9467 19.2433C99.202 18.7481 99.6024 18.3411 100.095 18.0756C100.605 17.8034 101.176 17.6641 101.755 17.6709C102.185 17.6558 102.613 17.7291 103.012 17.8862C103.412 18.0433 103.774 18.2807 104.077 18.5836C104.376 18.8875 104.611 19.2484 104.766 19.6445C104.921 20.0406 104.994 20.4638 104.98 20.8886C104.994 21.3178 104.92 21.7454 104.763 22.1457C104.606 22.546 104.369 22.9106 104.067 23.2178C103.768 23.5212 103.41 23.7599 103.014 23.9188C102.618 24.0776 102.193 24.1532 101.766 24.1406C101.199 24.1409 100.64 24.0092 100.134 23.7561C99.6293 23.5139 99.2151 23.1193 98.9508 22.6289C98.6632 22.0702 98.5215 21.4489 98.5387 20.8218ZM100.232 20.9108C100.232 21.5233 100.379 21.9955 100.672 22.3274C100.808 22.4811 100.974 22.6043 101.161 22.6888C101.349 22.7732 101.552 22.8169 101.758 22.8169C101.963 22.8169 102.166 22.7732 102.354 22.6888C102.541 22.6043 102.708 22.4811 102.843 22.3274C103.135 21.9996 103.281 21.5274 103.281 20.9108C103.281 20.3037 103.134 19.8383 102.843 19.5104C102.708 19.3567 102.541 19.2335 102.354 19.149C102.166 19.0646 101.963 19.0209 101.758 19.0209C101.552 19.0209 101.349 19.0646 101.161 19.149C100.974 19.2335 100.808 19.3567 100.672 19.5104C100.379 19.8322 100.232 20.2956 100.232 20.9108ZM100.923 17.0557L101.739 15.3133H103.591L101.974 17.0557H100.923Z" fill="#034EA2"/>
<path d="M111.948 24.005H110.296V20.844C110.319 20.409 110.284 19.9728 110.192 19.5468C110.129 19.3618 110.009 19.2015 109.847 19.0895C109.678 18.977 109.478 18.9197 109.274 18.9256C109 18.9218 108.731 19.0031 108.505 19.1583C108.283 19.3061 108.118 19.5245 108.038 19.7776C107.932 20.2419 107.889 20.7184 107.912 21.1941V23.9969H106.259V17.8085H107.793V18.7171C108.132 18.2538 108.618 17.9175 109.174 17.7625C109.729 17.6075 110.321 17.643 110.853 17.8631C111.12 17.9691 111.356 18.1403 111.538 18.361C111.693 18.5653 111.803 18.7998 111.861 19.049C111.932 19.4123 111.962 19.7821 111.952 20.1519L111.948 24.005Z" fill="#034EA2"/>
<path d="M116.979 24.005V15.459H123.365V16.9039H118.716V18.8001H123.041V20.2369H118.716V22.5642H123.53V24.003L116.979 24.005Z" fill="#034EA2"/>
<path d="M129.101 24.005V23.0701C128.873 23.4009 128.565 23.6695 128.206 23.8512C127.844 24.0394 127.441 24.1373 127.033 24.1366C126.639 24.1428 126.251 24.0487 125.905 23.8634C125.584 23.6938 125.33 23.4232 125.183 23.0944C125.015 22.6576 124.938 22.1914 124.958 21.7243V17.8085H126.61V20.6538C126.61 21.524 126.64 22.0569 126.7 22.2525C126.755 22.4408 126.872 22.6053 127.033 22.72C127.213 22.8406 127.427 22.9008 127.645 22.892C127.915 22.8955 128.18 22.8148 128.401 22.6613C128.612 22.5247 128.773 22.3247 128.86 22.0906C128.942 21.8619 128.985 21.3054 128.985 20.419V17.8085H130.635V23.999L129.101 24.005Z" fill="#034EA2"/>
<path d="M133.925 24.005H132.275V17.8085H133.811V18.6888C133.986 18.3688 134.227 18.0888 134.519 17.8672C134.732 17.7317 134.98 17.6613 135.233 17.6648C135.616 17.6674 135.992 17.7737 136.32 17.9724L135.808 19.4011C135.581 19.2399 135.312 19.1472 135.033 19.134C134.821 19.1279 134.613 19.1944 134.445 19.3222C134.251 19.5069 134.118 19.7464 134.066 20.0082C133.973 20.3374 133.927 21.0289 133.927 22.0825L133.925 24.005Z" fill="#034EA2"/>
<path d="M136.646 20.8218C136.649 20.2703 136.79 19.7282 137.054 19.2433C137.31 18.7485 137.71 18.3417 138.203 18.0756C138.713 17.8036 139.284 17.6644 139.863 17.6709C140.291 17.6577 140.717 17.7324 141.115 17.8901C141.513 18.0478 141.873 18.2853 142.174 18.5876C142.474 18.8912 142.709 19.2519 142.865 19.6481C143.021 20.0443 143.094 20.4676 143.08 20.8926C143.094 21.3213 143.021 21.7484 142.866 22.1486C142.71 22.5487 142.475 22.9137 142.174 23.2219C141.876 23.525 141.517 23.7635 141.121 23.9223C140.725 24.0811 140.3 24.1569 139.873 24.1447C139.306 24.1454 138.747 24.0137 138.241 23.7602C137.736 23.5183 137.321 23.1236 137.056 22.633C136.77 22.0725 136.629 21.45 136.646 20.8218ZM138.339 20.9108C138.339 21.5233 138.486 21.9955 138.78 22.3274C138.915 22.4812 139.082 22.6044 139.27 22.6888C139.457 22.7733 139.66 22.817 139.866 22.817C140.072 22.817 140.275 22.7733 140.463 22.6888C140.65 22.6044 140.817 22.4812 140.952 22.3274C141.245 21.9996 141.39 21.5274 141.389 20.9108C141.389 20.3037 141.244 19.8383 140.952 19.5104C140.817 19.3567 140.65 19.2334 140.463 19.149C140.275 19.0645 140.072 19.0208 139.866 19.0208C139.66 19.0208 139.457 19.0645 139.27 19.149C139.082 19.2334 138.915 19.3567 138.78 19.5104C138.486 19.8322 138.339 20.2956 138.339 20.9108Z" fill="#034EA2"/>
<path d="M144.332 17.8085H145.872V18.7171C146.078 18.4026 146.358 18.1428 146.688 17.9603C147.034 17.7652 147.425 17.6646 147.822 17.6689C148.172 17.6668 148.518 17.7414 148.835 17.8873C149.153 18.0331 149.434 18.2467 149.658 18.5127C150.164 19.0767 150.417 19.8619 150.417 20.8683C150.417 21.9017 150.162 22.7052 149.652 23.2785C149.428 23.5496 149.145 23.7675 148.825 23.9163C148.505 24.0651 148.155 24.1411 147.802 24.1386C147.478 24.1433 147.157 24.0741 146.864 23.9362C146.53 23.7564 146.231 23.5193 145.98 23.236V26.3545H144.328L144.332 17.8085ZM145.964 20.7995C145.964 21.4943 146.1 22.0083 146.372 22.3416C146.492 22.4972 146.646 22.6231 146.823 22.7095C147 22.7959 147.195 22.8403 147.392 22.8394C147.577 22.8419 147.759 22.8019 147.926 22.7226C148.092 22.6432 148.237 22.5266 148.351 22.382C148.606 22.0771 148.733 21.5766 148.732 20.8805C148.732 20.2302 148.601 19.7485 148.338 19.4355C148.224 19.2875 148.076 19.1678 147.907 19.0857C147.738 19.0035 147.552 18.9612 147.363 18.962C147.171 18.959 146.981 18.9991 146.807 19.0794C146.633 19.1596 146.479 19.2779 146.358 19.4254C146.101 19.7411 145.966 20.1985 145.966 20.8056L145.964 20.7995Z" fill="#034EA2"/>
<path d="M155.345 22.036L156.991 22.3092C156.815 22.8603 156.462 23.3396 155.988 23.6752C155.48 24.0036 154.882 24.1676 154.276 24.1447C153.188 24.1447 152.385 23.7932 151.867 23.0903C151.438 22.4627 151.224 21.715 151.255 20.9574C151.255 19.9307 151.527 19.1266 152.071 18.5451C152.328 18.2634 152.644 18.0398 152.996 17.8897C153.348 17.7395 153.728 17.6663 154.111 17.6749C155.04 17.6749 155.773 17.9792 156.31 18.5876C156.847 19.1961 157.103 20.1276 157.079 21.3823H152.942C152.93 21.7975 153.076 22.202 153.35 22.5156C153.47 22.6467 153.617 22.7508 153.781 22.8206C153.945 22.8904 154.122 22.9245 154.301 22.9203C154.535 22.9294 154.766 22.8579 154.954 22.718C155.152 22.5366 155.289 22.2982 155.345 22.036ZM155.439 20.3786C155.456 19.9853 155.324 19.6 155.07 19.2979C154.957 19.1793 154.82 19.0853 154.668 19.0216C154.517 18.9579 154.354 18.926 154.189 18.9279C154.025 18.9298 153.862 18.9655 153.712 19.0326C153.562 19.0998 153.428 19.197 153.318 19.3182C153.07 19.6151 152.946 19.9942 152.971 20.3786H155.439Z" fill="#034EA2"/>
<path d="M159.659 19.7027L158.16 19.4274C158.284 18.8969 158.591 18.4263 159.029 18.0979C159.437 17.8105 160.049 17.6668 160.865 17.6668C161.601 17.6668 162.15 17.7518 162.511 17.9259C162.828 18.0598 163.095 18.2901 163.272 18.5836C163.419 18.8507 163.492 19.3384 163.492 20.0507L163.474 21.9631C163.463 22.3694 163.489 22.7759 163.553 23.1773C163.617 23.4651 163.717 23.7438 163.851 24.0071H162.219C162.176 23.8978 162.123 23.7379 162.06 23.5234C162.034 23.4263 162.013 23.3615 162.001 23.3311C161.74 23.5868 161.434 23.7926 161.097 23.9382C160.775 24.0729 160.428 24.1418 160.077 24.1406C159.523 24.172 158.978 23.9859 158.56 23.6225C158.378 23.4559 158.235 23.2526 158.139 23.0264C158.044 22.8003 157.998 22.5564 158.005 22.3112C157.999 21.9818 158.086 21.6574 158.256 21.3742C158.426 21.1003 158.672 20.8815 158.966 20.7449C159.385 20.5639 159.826 20.436 160.277 20.3644C160.824 20.2785 161.361 20.143 161.883 19.9597V19.7957C161.895 19.6733 161.88 19.5498 161.839 19.4335C161.799 19.3172 161.734 19.2109 161.648 19.1219C161.492 18.9869 161.196 18.9195 160.761 18.9195C160.519 18.9051 160.279 18.9652 160.073 19.0915C159.874 19.2468 159.729 19.4607 159.659 19.7027ZM161.868 21.0322C161.538 21.1329 161.202 21.2167 160.863 21.2832C160.55 21.3313 160.248 21.4275 159.965 21.5685C159.866 21.6295 159.785 21.7144 159.728 21.8153C159.671 21.9162 159.641 22.0297 159.641 22.1453C159.64 22.2569 159.662 22.3675 159.707 22.47C159.751 22.5725 159.817 22.6646 159.9 22.7402C159.987 22.8238 160.09 22.8891 160.203 22.9322C160.315 22.9753 160.436 22.9954 160.557 22.9912C160.865 22.988 161.164 22.8857 161.409 22.6997C161.598 22.5676 161.737 22.3767 161.803 22.1574C161.859 21.8914 161.881 21.6194 161.868 21.3479V21.0322Z" fill="#034EA2"/>
<path d="M66.168 38.3692V30.9813H67.1789L71.0901 36.7818V30.9813H72.0349V38.3692H71.0241L67.1128 32.5637V38.3692H66.168Z" fill="#58595B"/>
<path d="M77.272 36.6457L78.2168 36.7616C78.0678 37.3092 77.7918 37.7342 77.3888 38.0366C76.9858 38.339 76.4711 38.4901 75.8446 38.4901C75.0556 38.4901 74.4291 38.2499 73.9652 37.7695C73.5046 37.2857 73.2744 36.6087 73.2744 35.7386C73.2744 34.8382 73.508 34.1394 73.9753 33.6422C74.4427 33.1449 75.0488 32.8963 75.7938 32.8963C76.5151 32.8963 77.1044 33.1399 77.5615 33.6271C78.0187 34.1142 78.2473 34.7996 78.2473 35.6832C78.2473 35.7369 78.2456 35.8175 78.2422 35.9251H74.2192C74.253 36.513 74.4207 36.9632 74.722 37.2756C75.0234 37.5881 75.3993 37.7443 75.8497 37.7443C76.185 37.7443 76.4711 37.6569 76.7082 37.4822C76.9452 37.3075 77.1332 37.0287 77.272 36.6457ZM74.27 35.1792H77.2822C77.2415 34.729 77.1264 34.3914 76.9367 34.1663C76.6455 33.8169 76.2679 33.6422 75.804 33.6422C75.3841 33.6422 75.0302 33.7816 74.7424 34.0604C74.4579 34.3393 74.3004 34.7122 74.27 35.1792Z" fill="#58595B"/>
<path d="M78.7603 38.3692L80.7312 35.5874L78.9076 33.0173H80.0505L80.8785 34.2721C81.0343 34.5106 81.1596 34.7105 81.2544 34.8718C81.4034 34.6501 81.5405 34.4535 81.6658 34.2822L82.5751 33.0173H83.6672L81.803 35.537L83.8094 38.3692H82.6868L81.5795 36.7062L81.2849 36.2577L79.8677 38.3692H78.7603Z" fill="#58595B"/>
<path d="M86.5676 37.5578L86.6997 38.3591C86.4423 38.4129 86.2121 38.4397 86.0089 38.4397C85.677 38.4397 85.4196 38.3877 85.2368 38.2835C85.0539 38.1794 84.9252 38.0433 84.8507 37.8753C84.7762 37.704 84.739 37.3462 84.739 36.8019V33.7228H84.0685V33.0173H84.739V31.6919L85.6482 31.1476V33.0173H86.5676V33.7228H85.6482V36.8523C85.6482 37.111 85.6635 37.2773 85.6939 37.3512C85.7278 37.4251 85.7803 37.4839 85.8514 37.5276C85.9259 37.5713 86.0309 37.5931 86.1663 37.5931C86.2679 37.5931 86.4017 37.5814 86.5676 37.5578Z" fill="#58595B"/>
<path d="M91.0681 35.4715V34.6047L94.2226 34.5997V37.3411C93.7383 37.7241 93.2388 38.0131 92.7241 38.2079C92.2094 38.3994 91.6811 38.4952 91.1393 38.4952C90.4078 38.4952 89.7424 38.3406 89.143 38.0315C88.547 37.7191 88.0966 37.2689 87.7918 36.681C87.487 36.093 87.3347 35.4362 87.3347 34.7105C87.3347 33.9916 87.4853 33.3213 87.7867 32.6998C88.0915 32.0749 88.5284 31.6113 89.0973 31.3089C89.6662 31.0065 90.3214 30.8553 91.0631 30.8553C91.6015 30.8553 92.0874 30.9427 92.5209 31.1174C92.9577 31.2887 93.2998 31.529 93.547 31.838C93.7942 32.1471 93.9821 32.5503 94.1108 33.0475L93.2219 33.2894C93.1101 32.9131 92.9713 32.6175 92.8054 32.4025C92.6394 32.1874 92.4024 32.0161 92.0942 31.8884C91.7861 31.7574 91.444 31.6919 91.0681 31.6919C90.6178 31.6919 90.2283 31.7608 89.8998 31.8985C89.5714 32.0329 89.3055 32.211 89.1023 32.4327C88.9025 32.6544 88.7468 32.898 88.635 33.1634C88.4454 33.6203 88.3506 34.1159 88.3506 34.6501C88.3506 35.3086 88.464 35.8595 88.6909 36.303C88.9212 36.7465 89.2547 37.0757 89.6916 37.2907C90.1284 37.5058 90.5924 37.6133 91.0834 37.6133C91.5101 37.6133 91.9266 37.5326 92.333 37.3714C92.7393 37.2068 93.0475 37.0321 93.2574 36.8473V35.4715H91.0681Z" fill="#58595B"/>
<path d="M99.2564 36.6457L100.201 36.7616C100.052 37.3092 99.7762 37.7342 99.3733 38.0366C98.9703 38.339 98.4555 38.4901 97.8291 38.4901C97.04 38.4901 96.4136 38.2499 95.9496 37.7695C95.4891 37.2857 95.2588 36.6087 95.2588 35.7386C95.2588 34.8382 95.4925 34.1394 95.9598 33.6422C96.4271 33.1449 97.0333 32.8963 97.7783 32.8963C98.4996 32.8963 99.0888 33.1399 99.546 33.6271C100.003 34.1142 100.232 34.7996 100.232 35.6832C100.232 35.7369 100.23 35.8175 100.227 35.9251H96.2036C96.2375 36.513 96.4051 36.9632 96.7065 37.2756C97.0079 37.5881 97.3838 37.7443 97.8341 37.7443C98.1694 37.7443 98.4555 37.6569 98.6926 37.4822C98.9296 37.3075 99.1176 37.0287 99.2564 36.6457ZM96.2544 35.1792H99.2666C99.226 34.729 99.1108 34.3914 98.9212 34.1663C98.6299 33.8169 98.2524 33.6422 97.7884 33.6422C97.3685 33.6422 97.0146 33.7816 96.7268 34.0604C96.4423 34.3393 96.2849 34.7122 96.2544 35.1792Z" fill="#58595B"/>
<path d="M101.354 38.3692V33.0173H102.177V33.7782C102.573 33.1903 103.146 32.8963 103.894 32.8963C104.219 32.8963 104.517 32.9551 104.788 33.0727C105.062 33.1869 105.267 33.3381 105.403 33.5263C105.538 33.7144 105.633 33.9378 105.687 34.1965C105.721 34.3645 105.738 34.6585 105.738 35.0784V38.3692H104.824V35.1137C104.824 34.7441 104.788 34.4686 104.717 34.2872C104.646 34.1024 104.519 33.9563 104.336 33.8488C104.157 33.7379 103.945 33.6825 103.701 33.6825C103.312 33.6825 102.975 33.8051 102.69 34.0504C102.409 34.2956 102.269 34.7609 102.269 35.4463V38.3692H101.354Z" fill="#58595B"/>
<path d="M110.838 36.6457L111.783 36.7616C111.634 37.3092 111.358 37.7342 110.955 38.0366C110.552 38.339 110.037 38.4901 109.411 38.4901C108.621 38.4901 107.995 38.2499 107.531 37.7695C107.071 37.2857 106.84 36.6087 106.84 35.7386C106.84 34.8382 107.074 34.1394 107.541 33.6422C108.009 33.1449 108.615 32.8963 109.36 32.8963C110.081 32.8963 110.67 33.1399 111.127 33.6271C111.585 34.1142 111.813 34.7996 111.813 35.6832C111.813 35.7369 111.811 35.8175 111.808 35.9251H107.785C107.819 36.513 107.987 36.9632 108.288 37.2756C108.589 37.5881 108.965 37.7443 109.416 37.7443C109.751 37.7443 110.037 37.6569 110.274 37.4822C110.511 37.3075 110.699 37.0287 110.838 36.6457ZM107.836 35.1792H110.848C110.807 34.729 110.692 34.3914 110.503 34.1663C110.211 33.8169 109.834 33.6422 109.37 33.6422C108.95 33.6422 108.596 33.7816 108.308 34.0604C108.024 34.3393 107.866 34.7122 107.836 35.1792Z" fill="#58595B"/>
<path d="M112.926 38.3692V33.0173H113.748V33.8286C113.958 33.449 114.151 33.1987 114.328 33.0778C114.507 32.9568 114.703 32.8963 114.917 32.8963C115.225 32.8963 115.538 32.9938 115.857 33.1886L115.542 34.0302C115.318 33.8992 115.095 33.8337 114.871 33.8337C114.671 33.8337 114.492 33.8941 114.333 34.0151C114.173 34.1327 114.06 34.2973 113.992 34.509C113.891 34.8315 113.84 35.1842 113.84 35.5672V38.3692H112.926Z" fill="#58595B"/>
<path d="M119.92 37.709C119.582 37.9946 119.255 38.1962 118.94 38.3138C118.628 38.4313 118.293 38.4901 117.934 38.4901C117.341 38.4901 116.886 38.3474 116.568 38.0618C116.249 37.7729 116.09 37.405 116.09 36.9581C116.09 36.6961 116.149 36.4576 116.268 36.2425C116.39 36.0242 116.547 35.8495 116.74 35.7184C116.937 35.5874 117.157 35.4883 117.401 35.4211C117.58 35.3741 117.851 35.3287 118.213 35.285C118.952 35.1977 119.495 35.0935 119.844 34.9726C119.847 34.8483 119.849 34.7693 119.849 34.7357C119.849 34.3662 119.763 34.1058 119.59 33.9546C119.356 33.7497 119.009 33.6472 118.549 33.6472C118.119 33.6472 117.8 33.7228 117.594 33.874C117.391 34.0218 117.24 34.2855 117.142 34.6652L116.248 34.5442C116.329 34.1646 116.463 33.8589 116.649 33.6271C116.835 33.3919 117.104 33.2121 117.457 33.0878C117.809 32.9602 118.217 32.8963 118.681 32.8963C119.141 32.8963 119.515 32.9501 119.803 33.0576C120.091 33.1651 120.303 33.3012 120.438 33.4658C120.574 33.6271 120.669 33.832 120.723 34.0806C120.753 34.2351 120.768 34.514 120.768 34.9172V36.1266C120.768 36.9699 120.787 37.5041 120.824 37.7292C120.865 37.9509 120.943 38.1643 121.058 38.3692H120.103C120.008 38.1811 119.947 37.961 119.92 37.709ZM119.844 35.6832C119.512 35.8175 119.014 35.9318 118.351 36.0258C117.975 36.0796 117.709 36.1401 117.553 36.2073C117.397 36.2745 117.277 36.3736 117.192 36.5046C117.108 36.6323 117.065 36.775 117.065 36.9329C117.065 37.1748 117.157 37.3764 117.34 37.5377C117.526 37.6989 117.797 37.7796 118.152 37.7796C118.505 37.7796 118.818 37.704 119.092 37.5528C119.366 37.3983 119.568 37.1883 119.697 36.9229C119.795 36.7179 119.844 36.4156 119.844 36.0158V35.6832Z" fill="#58595B"/>
<path d="M124.187 37.5578L124.319 38.3591C124.062 38.4129 123.831 38.4397 123.628 38.4397C123.296 38.4397 123.039 38.3877 122.856 38.2835C122.673 38.1794 122.545 38.0433 122.47 37.8753C122.396 37.704 122.358 37.3462 122.358 36.8019V33.7228H121.688V33.0173H122.358V31.6919L123.268 31.1476V33.0173H124.187V33.7228H123.268V36.8523C123.268 37.111 123.283 37.2773 123.313 37.3512C123.347 37.4251 123.4 37.4839 123.471 37.5276C123.545 37.5713 123.65 37.5931 123.786 37.5931C123.887 37.5931 124.021 37.5814 124.187 37.5578Z" fill="#58595B"/>
<path d="M125.091 32.0245V30.9813H126.006V32.0245H125.091ZM125.091 38.3692V33.0173H126.006V38.3692H125.091Z" fill="#58595B"/>
<path d="M127.062 35.6932C127.062 34.7021 127.34 33.9681 127.895 33.491C128.359 33.0946 128.925 32.8963 129.592 32.8963C130.333 32.8963 130.939 33.1382 131.41 33.622C131.881 34.1024 132.116 34.7677 132.116 35.6176C132.116 36.3064 132.011 36.849 131.801 37.2454C131.595 37.6385 131.292 37.9442 130.892 38.1626C130.496 38.381 130.062 38.4901 129.592 38.4901C128.837 38.4901 128.225 38.2499 127.758 37.7695C127.294 37.2891 127.062 36.597 127.062 35.6932ZM128.002 35.6932C128.002 36.3786 128.152 36.8926 128.454 37.2353C128.755 37.5746 129.135 37.7443 129.592 37.7443C130.045 37.7443 130.423 37.573 130.724 37.2303C131.026 36.8876 131.177 36.3652 131.177 35.663C131.177 35.0011 131.024 34.5006 130.719 34.1612C130.418 33.8186 130.042 33.6472 129.592 33.6472C129.135 33.6472 128.755 33.8169 128.454 34.1562C128.152 34.4955 128.002 35.0079 128.002 35.6932Z" fill="#58595B"/>
<path d="M133.193 38.3692V33.0173H134.016V33.7782C134.412 33.1903 134.985 32.8963 135.733 32.8963C136.058 32.8963 136.356 32.9551 136.627 33.0727C136.901 33.1869 137.106 33.3381 137.242 33.5263C137.377 33.7144 137.472 33.9378 137.526 34.1965C137.56 34.3645 137.577 34.6585 137.577 35.0784V38.3692H136.662V35.1137C136.662 34.7441 136.627 34.4686 136.556 34.2872C136.485 34.1024 136.358 33.9563 136.175 33.8488C135.995 33.7379 135.784 33.6825 135.54 33.6825C135.15 33.6825 134.814 33.8051 134.529 34.0504C134.248 34.2956 134.107 34.7609 134.107 35.4463V38.3692H133.193Z" fill="#58595B"/>
<path d="M139.121 38.3692V30.9813H144.505V31.8532H140.106V34.1159H144.226V34.9827H140.106V37.4974H144.678V38.3692H139.121Z" fill="#58595B"/>
<path d="M150.926 30.9813H151.911V35.2498C151.911 35.9922 151.827 36.5819 151.657 37.0186C151.488 37.4554 151.182 37.8115 150.738 38.087C150.298 38.3591 149.719 38.4952 149.001 38.4952C148.303 38.4952 147.733 38.3759 147.289 38.1374C146.845 37.8988 146.529 37.5545 146.339 37.1043C146.149 36.6507 146.055 36.0326 146.055 35.2498V30.9813H147.04V35.2447C147.04 35.8864 147.099 36.3601 147.218 36.6659C147.34 36.9682 147.546 37.2017 147.838 37.3663C148.132 37.531 148.491 37.6133 148.914 37.6133C149.639 37.6133 150.156 37.4503 150.464 37.1244C150.772 36.7986 150.926 36.172 150.926 35.2447V30.9813Z" fill="#58595B"/>
</g>
<defs>
<clipPath id="clip0_3943_14348">
<rect width="164" height="41" fill="white"/>
</clipPath>
</defs>
</svg>
