<svg width="134" height="34" viewBox="0 0 134 34" fill="none" xmlns="http://www.w3.org/2000/svg">
<path fill-rule="evenodd" clip-rule="evenodd" d="M0 0H48.8662V33.1817H0V0ZM0.939345 0.909695H47.9252V32.2341H0.939345V0.909695Z" fill="white"/>
<path d="M23.4316 7.73647L24.4223 7.01246L25.4147 7.73647L25.037 6.56514L26.0443 5.84279H24.8034L24.4223 4.6582L24.0429 5.84445L22.802 5.84279L23.8093 6.56514L23.4316 7.73647Z" fill="white"/>
<path d="M18.3007 9.1141L19.2915 8.3901L20.2839 9.1141L19.9061 7.94443L20.9134 7.22042H19.6709L19.2915 6.03418L18.9121 7.22208L17.6711 7.22042L18.6768 7.94443L18.3007 9.1141Z" fill="white"/>
<path d="M15.5387 9.79688L15.1577 10.9848L13.9167 10.9831L14.9241 11.7071L14.5463 12.8768L15.5387 12.1528L16.5295 12.8768L16.1517 11.7071L17.159 10.9831H15.9181L15.5387 9.79688Z" fill="white"/>
<path d="M14.1604 17.2768L15.1511 18.0008L14.775 16.8311L15.7807 16.1071H14.5414L14.1604 14.9209L13.781 16.1105L12.54 16.1071L13.5474 16.8311L13.1696 18.0008L14.1604 17.2768Z" fill="white"/>
<path d="M15.9181 21.2461L15.5371 20.0615L15.1577 21.2478L13.9167 21.2461L14.9241 21.9701L14.5463 23.1398L15.5371 22.4158L16.5295 23.1398L16.1517 21.9701L17.159 21.2461H15.9181Z" fill="white"/>
<path d="M19.6792 25.0071L19.2998 23.8242L18.9204 25.0088L17.6794 25.0071L18.6851 25.7312L18.309 26.9008L19.2998 26.1785L20.2905 26.9008L19.9144 25.7312L20.9201 25.0071H19.6792Z" fill="white"/>
<path d="M24.8034 26.3711L24.424 25.1865L24.0446 26.3728L22.8037 26.3711L23.8094 27.0951L23.4333 28.2648L24.424 27.5408L25.4148 28.2648L25.037 27.0951L26.0443 26.3711H24.8034Z" fill="white"/>
<path d="M29.9277 25.0071L29.5483 23.8242L29.1672 25.0088L27.928 25.0071L28.9336 25.7312L28.5575 26.9008L29.5483 26.1785L30.5407 26.9008L30.1613 25.7312L31.1686 25.0071H29.9277Z" fill="white"/>
<path d="M33.6903 21.2461L33.3093 20.0615L32.9299 21.2478L31.689 21.2461L32.6963 21.9701L32.3185 23.1398L33.3093 22.4158L34.3017 23.1398L33.9239 21.9701L34.9312 21.2461H33.6903Z" fill="white"/>
<path d="M36.2931 16.0918H35.0522L34.6711 14.9072L34.2934 16.0935L33.0508 16.0918L34.0581 16.8158L33.682 17.9855L34.6711 17.2615L35.6635 17.9855L35.2874 16.8158L36.2931 16.0918Z" fill="white"/>
<path d="M32.3185 12.8598L33.3093 12.1375L34.3017 12.8598L33.9239 11.6901L34.9312 10.9678H33.6903L33.3093 9.7832L32.9299 10.9694L31.689 10.9678L32.6963 11.6901L32.3185 12.8598Z" fill="white"/>
<path d="M29.5634 6.03613L29.184 7.22238L27.9431 7.22072L28.9488 7.94472L28.571 9.11606L29.5651 8.39039L30.5542 9.11606L30.1781 7.94472L31.1854 7.22072H29.9428L29.5634 6.03613Z" fill="white"/>
<path d="M53.7421 7.90637V0.908203H58.5385V2.09113H55.1537V3.7479H58.0746V4.93083H55.1537V7.90472H53.7405L53.7421 7.90637Z" fill="white"/>
<path d="M59.6948 2.14912V0.908203H61.0368V2.14912H59.6948ZM59.6948 7.90472V2.83668H61.0368V7.90472H59.6948Z" fill="white"/>
<path d="M67.0211 7.90637H65.6791V5.32017C65.6791 4.77343 65.651 4.41889 65.593 4.25818C65.535 4.09747 65.4422 3.97322 65.313 3.88375C65.1838 3.79429 65.0297 3.74955 64.8474 3.74955C64.6155 3.74955 64.4067 3.81251 64.2228 3.94008C64.0389 4.06765 63.9114 4.23664 63.8434 4.44539C63.7755 4.65415 63.7407 5.04349 63.7407 5.6101V7.90637H62.4004V2.83668H63.6463V3.58056C64.0886 3.00732 64.6453 2.7207 65.3163 2.7207C65.6129 2.7207 65.8829 2.77372 66.1281 2.87975C66.3733 2.98579 66.5589 3.12164 66.6848 3.28732C66.8107 3.45299 66.8985 3.64021 66.9465 3.85062C66.9946 4.06102 67.0211 4.3609 67.0211 4.7519V7.9014V7.90637Z" fill="white"/>
<path d="M69.3835 4.38439L68.1658 4.16404C68.3033 3.67364 68.5386 3.31081 68.8716 3.07555C69.2062 2.84029 69.7016 2.72266 70.361 2.72266C70.9591 2.72266 71.4048 2.7939 71.698 2.93472C71.9912 3.07555 72.1967 3.25613 72.316 3.47317C72.4353 3.69186 72.4949 4.09114 72.4949 4.67432L72.48 6.23996C72.48 6.68563 72.5015 7.01367 72.5446 7.22574C72.5877 7.43781 72.6672 7.66478 72.7865 7.90667H71.4594C71.4246 7.8172 71.3816 7.68632 71.3302 7.5107C71.3087 7.43118 71.2921 7.37816 71.2822 7.35331C71.0535 7.57532 70.8083 7.74265 70.5465 7.85365C70.2848 7.96466 70.0064 8.02099 69.7115 8.02099C69.1897 8.02099 68.7788 7.88016 68.4773 7.59685C68.1774 7.31355 68.0266 6.95569 68.0266 6.52327C68.0266 6.23665 68.0945 5.98151 68.232 5.75785C68.3696 5.53418 68.5601 5.36188 68.8069 5.24259C69.0538 5.12331 69.4084 5.01893 69.8739 4.92947C70.5002 4.81183 70.9359 4.70249 71.1778 4.59977V4.46557C71.1778 4.20712 71.1148 4.02487 70.9872 3.91387C70.8597 3.80452 70.6194 3.74985 70.2666 3.74985C70.028 3.74985 69.8424 3.79624 69.7082 3.89067C69.574 3.98511 69.4663 4.14913 69.3835 4.38439ZM71.1778 5.47288C71.0055 5.53087 70.7338 5.5988 70.361 5.67832C69.9882 5.75785 69.7447 5.83571 69.6304 5.91193C69.4547 6.03618 69.3686 6.19358 69.3686 6.3841C69.3686 6.57463 69.4382 6.73368 69.579 6.87119C69.7182 7.0087 69.8971 7.07663 70.1141 7.07663C70.356 7.07663 70.5863 6.99711 70.8067 6.83806C70.969 6.71711 71.0751 6.56966 71.1264 6.39404C71.1612 6.27973 71.1794 6.06103 71.1794 5.73962V5.47288H71.1778Z" fill="white"/>
<path d="M78.4278 7.90637H77.0859V5.32017C77.0859 4.77343 77.0577 4.41889 76.9997 4.25818C76.9417 4.09747 76.8489 3.97322 76.7197 3.88375C76.5905 3.79429 76.4364 3.74955 76.2542 3.74955C76.0222 3.74955 75.8135 3.81251 75.6296 3.94008C75.4457 4.06765 75.3181 4.23664 75.2502 4.44539C75.1822 4.65415 75.1474 5.04349 75.1474 5.6101V7.90637H73.8071V2.83668H75.053V3.58056C75.4954 3.00732 76.052 2.7207 76.723 2.7207C77.0196 2.7207 77.2896 2.77372 77.5348 2.87975C77.78 2.98579 77.9656 3.12164 78.0915 3.28732C78.2174 3.45299 78.3052 3.64021 78.3533 3.85062C78.4013 4.06102 78.4278 4.3609 78.4278 4.7519V7.9014V7.90637Z" fill="white"/>
<path d="M84.2083 4.33634L82.8862 4.57492C82.8414 4.31149 82.7404 4.11268 82.583 3.97848C82.4256 3.84429 82.2201 3.77801 81.97 3.77801C81.6353 3.77801 81.3702 3.89399 81.1698 4.12428C80.9709 4.35457 80.8715 4.74059 80.8715 5.28236C80.8715 5.88376 80.9726 6.30789 81.1747 6.55641C81.3769 6.80492 81.6486 6.92918 81.9882 6.92918C82.2433 6.92918 82.4504 6.85628 82.6128 6.71214C82.7752 6.568 82.8895 6.31783 82.9557 5.96494L84.2729 6.18861C84.1354 6.79332 83.8736 7.25059 83.4859 7.55875C83.0982 7.86691 82.578 8.02099 81.9252 8.02099C81.1847 8.02099 80.5932 7.78738 80.1525 7.32017C79.7118 6.85297 79.4915 6.20517 79.4915 5.37679C79.4915 4.54841 79.7118 3.88902 80.1542 3.42181C80.5965 2.95626 81.1946 2.72266 81.9484 2.72266C82.5664 2.72266 83.0568 2.8552 83.4213 3.12194C83.7858 3.38702 84.0476 3.79293 84.2066 4.33634H84.2083Z" fill="white"/>
<path d="M85.2239 2.14912V0.908203H86.5659V2.14912H85.2239ZM85.2239 7.90472V2.83668H86.5659V7.90472H85.2239Z" fill="white"/>
<path d="M88.9433 4.38439L87.7256 4.16404C87.8631 3.67364 88.0984 3.31081 88.4314 3.07555C88.766 2.84029 89.2614 2.72266 89.9208 2.72266C90.5189 2.72266 90.9646 2.7939 91.2578 2.93472C91.5511 3.07555 91.7565 3.25613 91.8758 3.47317C91.9951 3.69186 92.0547 4.09114 92.0547 4.67432L92.0398 6.23996C92.0398 6.68563 92.0613 7.01367 92.1044 7.22574C92.1475 7.43781 92.227 7.66478 92.3463 7.90667H91.0192C90.9845 7.8172 90.9414 7.68632 90.89 7.5107C90.8685 7.43118 90.8519 7.37816 90.842 7.35331C90.6133 7.57532 90.3681 7.74265 90.1064 7.85365C89.8446 7.96466 89.5663 8.02099 89.2714 8.02099C88.7495 8.02099 88.3386 7.88016 88.0371 7.59685C87.7372 7.31355 87.5864 6.95569 87.5864 6.52327C87.5864 6.23665 87.6544 5.98151 87.7919 5.75785C87.9294 5.53418 88.1199 5.36188 88.3668 5.24259C88.6136 5.12331 88.9682 5.01893 89.4337 4.92947C90.06 4.81183 90.4957 4.70249 90.7376 4.59977V4.46557C90.7376 4.20712 90.6746 4.02487 90.5471 3.91387C90.4195 3.80452 90.1793 3.74985 89.8264 3.74985C89.5878 3.74985 89.4022 3.79624 89.268 3.89067C89.1338 3.98511 89.0262 4.14913 88.9433 4.38439ZM90.7376 5.47288C90.5653 5.53087 90.2936 5.5988 89.9208 5.67832C89.548 5.75785 89.3045 5.83571 89.1902 5.91193C89.0146 6.03618 88.9284 6.19358 88.9284 6.3841C88.9284 6.57463 88.998 6.73368 89.1388 6.87119C89.278 7.0087 89.4569 7.07663 89.674 7.07663C89.9158 7.07663 90.1461 6.99711 90.3665 6.83806C90.5288 6.71711 90.6349 6.56966 90.6862 6.39404C90.721 6.27973 90.7393 6.06103 90.7393 5.73962V5.47288H90.7376Z" fill="white"/>
<path d="M98.0257 7.90637H96.7798V7.16249C96.5727 7.45242 96.3291 7.6678 96.0475 7.80862C95.7658 7.94945 95.4825 8.02069 95.1959 8.02069C94.6144 8.02069 94.114 7.78543 93.6998 7.31656C93.284 6.8477 93.0769 6.19328 93.0769 5.3533C93.0769 4.51332 93.279 3.84067 93.6833 3.39335C94.0875 2.94602 94.5978 2.72236 95.2158 2.72236C95.7824 2.72236 96.2728 2.95762 96.6853 3.42814V0.908203H98.0273V7.90637H98.0257ZM94.4454 5.26218C94.4454 5.80394 94.5199 6.19493 94.6691 6.43682C94.8861 6.7864 95.1876 6.96202 95.5753 6.96202C95.8835 6.96202 96.1469 6.83113 96.3623 6.56771C96.5793 6.30594 96.687 5.91329 96.687 5.39141C96.687 4.80988 96.5826 4.39072 96.3722 4.13392C96.1618 3.87712 95.8934 3.74955 95.5654 3.74955C95.2373 3.74955 94.9805 3.87547 94.7651 4.12895C94.5498 4.38244 94.4421 4.76018 94.4421 5.26218H94.4454Z" fill="white"/>
<path d="M99.0378 5.30058C99.0378 4.85491 99.1472 4.42415 99.3675 4.00665C99.5879 3.58914 99.8977 3.27104 100.3 3.05235C100.703 2.832 101.152 2.72266 101.649 2.72266C102.416 2.72266 103.044 2.97117 103.534 3.46986C104.025 3.96854 104.27 4.59646 104.27 5.35691C104.27 6.11736 104.023 6.76019 103.528 7.26384C103.032 7.7675 102.409 8.02099 101.659 8.02099C101.195 8.02099 100.751 7.91661 100.33 7.7062C99.9093 7.49579 99.5879 7.18763 99.3675 6.78338C99.1488 6.37748 99.0378 5.88376 99.0378 5.30058ZM100.413 5.37182C100.413 5.87382 100.532 6.25985 100.771 6.52658C101.009 6.79332 101.304 6.92752 101.654 6.92752C102.003 6.92752 102.297 6.79332 102.535 6.52658C102.772 6.25985 102.891 5.87051 102.891 5.36188C102.891 4.85325 102.772 4.4838 102.535 4.21706C102.298 3.95032 102.005 3.81612 101.654 3.81612C101.303 3.81612 101.009 3.95032 100.771 4.21706C100.532 4.4838 100.413 4.86982 100.413 5.37182Z" fill="white"/>
<path d="M107.996 2.83668H109.247V3.58056C109.409 3.32542 109.628 3.11998 109.905 2.95928C110.181 2.80023 110.488 2.7207 110.826 2.7207C111.414 2.7207 111.914 2.95099 112.325 3.41323C112.736 3.87547 112.942 4.51663 112.942 5.3417C112.942 6.16677 112.734 6.84604 112.322 7.31491C111.908 7.78377 111.407 8.01903 110.818 8.01903C110.538 8.01903 110.284 7.9627 110.057 7.8517C109.83 7.7407 109.59 7.55017 109.338 7.27846V9.83153H107.996V2.83668ZM109.323 5.28537C109.323 5.8553 109.436 6.27612 109.661 6.54783C109.886 6.81954 110.163 6.95539 110.486 6.95539C110.809 6.95539 111.058 6.83113 111.265 6.58096C111.472 6.33079 111.575 5.92157 111.575 5.35164C111.575 4.81982 111.469 4.42551 111.255 4.16871C111.041 3.91026 110.778 3.78269 110.463 3.78269C110.148 3.78269 109.863 3.9086 109.646 4.16209C109.429 4.41557 109.322 4.79 109.322 5.28537H109.323Z" fill="white"/>
<path d="M113.696 5.30058C113.696 4.85491 113.805 4.42415 114.025 4.00665C114.246 3.58914 114.555 3.27104 114.958 3.05235C115.361 2.832 115.81 2.72266 116.307 2.72266C117.074 2.72266 117.702 2.97117 118.192 3.46986C118.682 3.96854 118.928 4.59646 118.928 5.35691C118.928 6.11736 118.681 6.76019 118.185 7.26384C117.69 7.7675 117.067 8.02099 116.317 8.02099C115.853 8.02099 115.409 7.91661 114.988 7.7062C114.567 7.49579 114.246 7.18763 114.025 6.78338C113.807 6.37748 113.696 5.88376 113.696 5.30058ZM115.071 5.37182C115.071 5.87382 115.19 6.25985 115.429 6.52658C115.667 6.79332 115.962 6.92752 116.312 6.92752C116.661 6.92752 116.954 6.79332 117.193 6.52658C117.43 6.25985 117.549 5.87051 117.549 5.36188C117.549 4.85325 117.43 4.4838 117.193 4.21706C116.956 3.95032 116.663 3.81612 116.312 3.81612C115.96 3.81612 115.667 3.95032 115.429 4.21706C115.19 4.4838 115.071 4.86982 115.071 5.37182Z" fill="white"/>
<path d="M121.26 7.90667H119.918V2.83697H121.164V3.55766C121.378 3.21803 121.568 2.99271 121.739 2.88502C121.91 2.77733 122.102 2.72266 122.319 2.72266C122.624 2.72266 122.919 2.80715 123.202 2.97614L122.786 4.14582C122.561 4.00002 122.35 3.92547 122.157 3.92547C121.963 3.92547 121.81 3.97683 121.679 4.0812C121.548 4.18392 121.446 4.37114 121.371 4.64119C121.297 4.91124 121.259 5.47785 121.259 6.34103V7.90667H121.26Z" fill="white"/>
<path d="M53.7239 19.6371V12.6406H55.0659V19.6371H53.7239Z" fill="white"/>
<path d="M57.4416 16.1139L56.2239 15.8935C56.3614 15.4031 56.5967 15.0403 56.9297 14.805C57.2643 14.5698 57.7597 14.4521 58.4191 14.4521C59.0172 14.4521 59.4629 14.5234 59.7561 14.6642C60.0494 14.805 60.2548 14.9856 60.3741 15.2027C60.4934 15.4214 60.553 15.8206 60.553 16.4038L60.5381 17.9695C60.5381 18.4151 60.5596 18.7432 60.6027 18.9552C60.6458 19.1673 60.7253 19.3943 60.8446 19.6362H59.5175C59.4827 19.5467 59.4397 19.4158 59.3883 19.2402C59.3668 19.1607 59.3502 19.1077 59.3403 19.0828C59.1116 19.3048 58.8664 19.4721 58.6047 19.5831C58.3429 19.6941 58.0646 19.7505 57.7696 19.7505C57.2478 19.7505 56.8369 19.6097 56.5354 19.3263C56.2355 19.043 56.0847 18.6852 56.0847 18.2528C56.0847 17.9661 56.1526 17.711 56.2902 17.4873C56.4277 17.2637 56.6182 17.0914 56.8651 16.9721C57.1119 16.8528 57.4665 16.7484 57.932 16.659C58.5583 16.5413 58.994 16.432 59.2359 16.3293V16.1951C59.2359 15.9366 59.1729 15.7544 59.0454 15.6434C58.9178 15.534 58.6776 15.4793 58.3247 15.4793C58.0861 15.4793 57.9005 15.5257 57.7663 15.6202C57.6321 15.7146 57.5244 15.8786 57.4416 16.1139ZM59.2359 17.2024C59.0636 17.2604 58.7919 17.3283 58.4191 17.4078C58.0463 17.4873 57.8028 17.5652 57.6885 17.6414C57.5129 17.7657 57.4267 17.9231 57.4267 18.1136C57.4267 18.3041 57.4963 18.4632 57.6371 18.6007C57.7763 18.7382 57.9552 18.8061 58.1722 18.8061C58.4141 18.8061 58.6444 18.7266 58.8648 18.5675C59.0271 18.4466 59.1332 18.2992 59.1845 18.1235C59.2193 18.0092 59.2375 17.7905 59.2375 17.4691V17.2024H59.2359Z" fill="white"/>
<path d="M64.592 12.6387H66.0053V16.4277C66.0053 17.0291 66.0235 17.4184 66.0583 17.5974C66.1179 17.884 66.2621 18.1143 66.4907 18.2866C66.7177 18.4605 67.0291 18.5467 67.4234 18.5467C67.8178 18.5467 68.1259 18.4655 68.3297 18.3015C68.5335 18.1375 68.6561 17.937 68.6975 17.6984C68.7389 17.4599 68.7605 17.0639 68.7605 16.5105V12.6403H70.1737V16.315C70.1737 17.155 70.1356 17.7481 70.0594 18.0961C69.9831 18.4423 69.8423 18.7356 69.6369 18.9741C69.4314 19.2127 69.1564 19.4032 68.8135 19.5441C68.4705 19.6849 68.0215 19.7561 67.4682 19.7561C66.8005 19.7561 66.2935 19.6783 65.9473 19.5242C65.6027 19.3701 65.3293 19.1696 65.1288 18.9228C64.9284 18.6759 64.7958 18.4175 64.7329 18.1474C64.6401 17.7465 64.5937 17.155 64.5937 16.3714V12.6387H64.592Z" fill="white"/>
<path d="M76.2608 19.6362H74.9189V17.05C74.9189 16.5032 74.8907 16.1487 74.8327 15.988C74.7747 15.8273 74.682 15.703 74.5527 15.6135C74.4235 15.5241 74.2694 15.4793 74.0872 15.4793C73.8552 15.4793 73.6465 15.5423 73.4626 15.6699C73.2787 15.7974 73.1511 15.9664 73.0832 16.1752C73.0152 16.3839 72.9805 16.7733 72.9805 17.3399V19.6362H71.6401V14.5681H72.886V15.312C73.3284 14.7388 73.8851 14.4521 74.556 14.4521C74.8526 14.4521 75.1227 14.5052 75.3679 14.6112C75.6131 14.7172 75.7986 14.8531 75.9245 15.0188C76.0504 15.1844 76.1382 15.3717 76.1863 15.5821C76.2343 15.7925 76.2608 16.0923 76.2608 16.4833V19.6328V19.6362Z" fill="white"/>
<path d="M77.6211 13.8796V12.6387H78.9631V13.8796H77.6211ZM77.6211 19.6352V14.5671H78.9631V19.6352H77.6211Z" fill="white"/>
<path d="M80.0266 17.0292C80.0266 16.5836 80.136 16.1528 80.3563 15.7353C80.5767 15.3178 80.8865 14.9997 81.2891 14.781C81.6917 14.5607 82.1406 14.4513 82.6377 14.4513C83.4048 14.4513 84.0327 14.6998 84.5231 15.1985C85.0135 15.6972 85.2587 16.3251 85.2587 17.0856C85.2587 17.846 85.0118 18.4872 84.5164 18.9925C84.0211 19.4962 83.3981 19.7496 82.6476 19.7496C82.1837 19.7496 81.7397 19.6453 81.3189 19.4349C80.8981 19.2245 80.5767 18.9163 80.3563 18.512C80.1376 18.1061 80.0266 17.6124 80.0266 17.0292ZM81.4017 17.1005C81.4017 17.6025 81.521 17.9885 81.7596 18.2552C81.9982 18.522 82.2931 18.6562 82.6426 18.6562C82.9922 18.6562 83.2855 18.522 83.524 18.2552C83.761 17.9885 83.8802 17.5992 83.8802 17.0905C83.8802 16.5819 83.761 16.2125 83.524 15.9457C83.2871 15.679 82.9939 15.5448 82.6426 15.5448C82.2914 15.5448 81.9982 15.679 81.7596 15.9457C81.521 16.2125 81.4017 16.5985 81.4017 17.1005ZM81.965 13.946L82.6244 12.5195H84.1288L82.8166 13.946H81.9667H81.965Z" fill="white"/>
<path d="M90.9183 19.6362H89.5763V17.05C89.5763 16.5032 89.5482 16.1487 89.4902 15.988C89.4322 15.8273 89.3394 15.703 89.2102 15.6135C89.081 15.5241 88.9269 15.4793 88.7447 15.4793C88.5127 15.4793 88.3039 15.5423 88.12 15.6699C87.9361 15.7974 87.8086 15.9664 87.7407 16.1752C87.6727 16.3856 87.6379 16.7733 87.6379 17.3399V19.6362H86.2976V14.5681H87.5435V15.312C87.9859 14.7388 88.5425 14.4521 89.2135 14.4521C89.5101 14.4521 89.7801 14.5052 90.0253 14.6112C90.2705 14.7172 90.4561 14.8531 90.582 15.0188C90.7079 15.1844 90.7957 15.3717 90.8438 15.5821C90.8918 15.7925 90.9183 16.0923 90.9183 16.4833V19.6328V19.6362Z" fill="white"/>
<path d="M95.0039 19.6371V12.6406H100.191V13.8236H96.4154V15.3743H99.9278V16.5539H96.4154V18.4575H100.324V19.6371H95.0022H95.0039Z" fill="white"/>
<path d="M104.852 19.6374V18.8786C104.668 19.1486 104.424 19.3624 104.124 19.5181C103.824 19.6738 103.506 19.7517 103.172 19.7517C102.837 19.7517 102.525 19.6771 102.255 19.528C101.985 19.3789 101.79 19.1685 101.669 18.8985C101.548 18.6284 101.488 18.254 101.488 17.7768V14.5693H102.829V16.8987C102.829 17.6112 102.853 18.0485 102.903 18.2092C102.953 18.37 103.042 18.4975 103.173 18.5903C103.304 18.6847 103.47 18.7311 103.67 18.7311C103.899 18.7311 104.104 18.6682 104.287 18.5423C104.469 18.4163 104.591 18.2606 104.659 18.075C104.726 17.8895 104.759 17.4322 104.759 16.7082V14.5693H106.099V19.6374H104.853H104.852Z" fill="white"/>
<path d="M108.77 19.6365H107.428V14.5684H108.674V15.2891C108.888 14.9495 109.078 14.7242 109.249 14.6165C109.419 14.5088 109.612 14.4541 109.829 14.4541C110.133 14.4541 110.428 14.5386 110.712 14.7076L110.296 15.8773C110.071 15.7315 109.86 15.6569 109.666 15.6569C109.472 15.6569 109.32 15.7083 109.189 15.8126C109.058 15.9154 108.956 16.1026 108.881 16.3726C108.806 16.6427 108.768 17.2093 108.768 18.0725V19.6381L108.77 19.6365Z" fill="white"/>
<path d="M110.98 17.0301C110.98 16.5844 111.089 16.1536 111.31 15.7361C111.53 15.3186 111.84 15.0005 112.242 14.7818C112.645 14.5615 113.094 14.4521 113.591 14.4521C114.358 14.4521 114.986 14.7007 115.476 15.1993C115.967 15.698 116.212 16.3259 116.212 17.0864C116.212 17.8469 115.965 18.488 115.47 18.9933C114.974 19.497 114.351 19.7505 113.601 19.7505C113.137 19.7505 112.693 19.6461 112.272 19.4357C111.851 19.2253 111.53 18.9171 111.31 18.5129C111.091 18.107 110.98 17.6133 110.98 17.0301ZM112.355 17.1013C112.355 17.6033 112.474 17.9893 112.713 18.2561C112.952 18.5228 113.246 18.657 113.596 18.657C113.946 18.657 114.239 18.5228 114.477 18.2561C114.714 17.9893 114.834 17.6 114.834 17.0914C114.834 16.5827 114.714 16.2133 114.477 15.9465C114.24 15.6798 113.947 15.5456 113.596 15.5456C113.245 15.5456 112.952 15.6798 112.713 15.9465C112.474 16.2133 112.355 16.5993 112.355 17.1013Z" fill="white"/>
<path d="M117.223 14.5671H118.474V15.311C118.636 15.0559 118.855 14.8505 119.131 14.6897C119.408 14.5307 119.714 14.4512 120.052 14.4512C120.641 14.4512 121.141 14.6815 121.552 15.1437C121.963 15.6059 122.168 16.2471 122.168 17.0722C122.168 17.8972 121.961 18.5765 121.548 19.0454C121.134 19.5142 120.634 19.7495 120.044 19.7495C119.764 19.7495 119.511 19.6932 119.284 19.5822C119.057 19.4712 118.816 19.2806 118.565 19.0089V21.562H117.223V14.5655V14.5671ZM118.55 17.0158C118.55 17.5858 118.662 18.0066 118.888 18.2783C119.113 18.55 119.39 18.6859 119.713 18.6859C120.036 18.6859 120.284 18.5616 120.491 18.3114C120.699 18.0613 120.801 17.652 120.801 17.0821C120.801 16.5503 120.695 16.156 120.482 15.8992C120.268 15.6407 120.004 15.5132 119.69 15.5132C119.375 15.5132 119.09 15.6391 118.873 15.8926C118.656 16.146 118.548 16.5205 118.548 17.0158H118.55Z" fill="white"/>
<path d="M126.166 18.0228L127.503 18.2464C127.331 18.7368 127.061 19.1096 126.689 19.3664C126.318 19.6232 125.854 19.7508 125.298 19.7508C124.416 19.7508 123.764 19.4625 123.341 18.8876C123.006 18.427 122.841 17.8438 122.841 17.1414C122.841 16.3014 123.06 15.6437 123.499 15.1682C123.938 14.6927 124.493 14.4541 125.164 14.4541C125.917 14.4541 126.512 14.7026 126.948 15.2013C127.384 15.7 127.592 16.4621 127.573 17.4893H124.213C124.223 17.8869 124.33 18.1967 124.537 18.4171C124.744 18.6374 125.001 18.7484 125.311 18.7484C125.521 18.7484 125.697 18.6904 125.841 18.5761C125.985 18.4618 126.093 18.2763 126.166 18.0228ZM126.242 16.6675C126.232 16.2799 126.133 15.985 125.941 15.7828C125.748 15.5807 125.518 15.4796 125.243 15.4796C124.95 15.4796 124.708 15.5857 124.517 15.7994C124.327 16.0131 124.232 16.3014 124.236 16.6675H126.24H126.242Z" fill="white"/>
<path d="M129.67 16.1139L128.452 15.8935C128.59 15.4031 128.825 15.0403 129.158 14.805C129.493 14.5698 129.988 14.4521 130.647 14.4521C131.245 14.4521 131.691 14.5234 131.984 14.6642C132.278 14.805 132.483 14.9856 132.602 15.2027C132.722 15.4214 132.781 15.8206 132.781 16.4038L132.766 17.9695C132.766 18.4151 132.788 18.7432 132.831 18.9552C132.874 19.1673 132.954 19.3943 133.073 19.6362H131.746C131.711 19.5467 131.668 19.4158 131.617 19.2402C131.595 19.1607 131.578 19.1077 131.569 19.0828C131.34 19.3048 131.095 19.4721 130.833 19.5831C130.571 19.6941 130.293 19.7505 129.998 19.7505C129.476 19.7505 129.065 19.6097 128.764 19.3263C128.464 19.043 128.313 18.6852 128.313 18.2528C128.313 17.9661 128.381 17.711 128.518 17.4873C128.656 17.2637 128.846 17.0914 129.093 16.9721C129.34 16.8528 129.695 16.7484 130.16 16.659C130.787 16.5413 131.222 16.432 131.464 16.3293V16.1951C131.464 15.9366 131.401 15.7544 131.274 15.6434C131.146 15.534 130.906 15.4793 130.553 15.4793C130.314 15.4793 130.129 15.5257 129.995 15.6202C129.86 15.7146 129.753 15.8786 129.67 16.1139ZM131.464 17.2024C131.292 17.2604 131.02 17.3283 130.647 17.4078C130.275 17.4873 130.031 17.5652 129.917 17.6414C129.741 17.7657 129.655 17.9231 129.655 18.1136C129.655 18.3041 129.725 18.4632 129.865 18.6007C130.005 18.7382 130.183 18.8061 130.401 18.8061C130.642 18.8061 130.873 18.7266 131.093 18.5675C131.255 18.4466 131.361 18.2992 131.413 18.1235C131.448 18.0092 131.466 17.7905 131.466 17.4691V17.2024H131.464Z" fill="white"/>
<path d="M53.7356 32.2256V26.1768H54.5573L57.735 30.925V26.1768H58.5021V32.2256H57.6803L54.5043 27.4723V32.2256H53.7373H53.7356Z" fill="white"/>
<path d="M62.7499 30.8141L63.517 30.9086C63.3961 31.3575 63.1724 31.7055 62.8444 31.9523C62.5163 32.1992 62.0988 32.3234 61.5902 32.3234C60.949 32.3234 60.4404 32.1263 60.066 31.732C59.6899 31.3377 59.5027 30.7843 59.5027 30.0719C59.5027 29.3595 59.6932 28.7631 60.0726 28.3555C60.452 27.9479 60.9441 27.7441 61.5488 27.7441C62.1535 27.7441 62.6141 27.943 62.9852 28.3422C63.3563 28.7415 63.5419 29.3015 63.5419 30.0255C63.5419 30.0702 63.5419 30.1349 63.5386 30.2243H60.2714C60.2996 30.7064 60.4354 31.0742 60.679 31.3294C60.9242 31.5845 61.229 31.7137 61.5952 31.7137C61.8669 31.7137 62.1005 31.6425 62.2927 31.5C62.4849 31.3575 62.6373 31.1289 62.7499 30.8158V30.8141ZM60.3112 29.613H62.7582C62.7251 29.2452 62.6323 28.9685 62.4782 28.7846C62.2413 28.498 61.9348 28.3555 61.5587 28.3555C61.2174 28.3555 60.9308 28.4698 60.6989 28.6984C60.4669 28.9271 60.3377 29.2319 60.3128 29.6146L60.3112 29.613Z" fill="white"/>
<path d="M63.9546 32.2259L65.555 29.9478L64.0739 27.8438H65.0017L65.6743 28.8709C65.8002 29.0664 65.9029 29.2305 65.9792 29.3613C66.1001 29.1791 66.2111 29.0184 66.3138 28.8792L67.0527 27.8438H67.9391L66.4248 29.9064L68.0551 32.2259H67.1439L66.2442 30.864L66.0057 30.4962L64.8542 32.2242H63.9546V32.2259Z" fill="white"/>
<path d="M70.2951 31.5611L70.4028 32.2172C70.194 32.2603 70.0068 32.2835 69.8412 32.2835C69.5711 32.2835 69.3624 32.2404 69.2132 32.1559C69.0641 32.0714 68.9598 31.9588 68.9001 31.8196C68.8388 31.6804 68.809 31.3888 68.809 30.9432V28.4216H68.2639V27.8434H68.809V26.7582L69.5479 26.3125V27.8434H70.2951V28.4216H69.5479V30.9829C69.5479 31.195 69.5612 31.3308 69.5877 31.3921C69.6142 31.4534 69.6556 31.5015 69.7152 31.5363C69.7749 31.5711 69.8594 31.5893 69.9687 31.5893C70.0516 31.5893 70.1593 31.5794 70.2951 31.5611Z" fill="white"/>
<path d="M73.9466 29.8533V29.1442L76.508 29.1392V31.3841C76.1137 31.6973 75.7094 31.9342 75.2903 32.0916C74.8711 32.249 74.4437 32.3285 74.003 32.3285C73.4082 32.3285 72.8697 32.2009 72.3843 31.9474C71.8989 31.694 71.5327 31.3245 71.2842 30.844C71.0373 30.3619 70.9131 29.8251 70.9131 29.2304C70.9131 28.6356 71.0357 28.0922 71.2825 27.5819C71.5294 27.0716 71.8823 26.6922 72.3445 26.4453C72.8068 26.1985 73.3386 26.0742 73.9416 26.0742C74.379 26.0742 74.775 26.1455 75.1279 26.2863C75.4808 26.4271 75.7591 26.6259 75.9596 26.8778C76.1601 27.1296 76.3125 27.4609 76.4169 27.8685L75.6945 28.0673C75.6034 27.7591 75.4907 27.5173 75.3565 27.3416C75.2223 27.166 75.0285 27.0252 74.7783 26.9192C74.5281 26.8131 74.2498 26.7601 73.945 26.7601C73.5788 26.7601 73.2624 26.8165 72.9956 26.9275C72.7289 27.0385 72.5135 27.1859 72.3495 27.3665C72.1855 27.5471 72.0579 27.7476 71.9684 27.9646C71.8144 28.339 71.7382 28.7449 71.7382 29.1823C71.7382 29.7208 71.8309 30.1731 72.0165 30.5359C72.202 30.8987 72.4721 31.1688 72.8267 31.3444C73.1812 31.52 73.5589 31.6078 73.9566 31.6078C74.3028 31.6078 74.6408 31.5415 74.9722 31.4073C75.3019 31.2748 75.552 31.1323 75.7227 30.9799V29.8533H73.945H73.9466Z" fill="white"/>
<path d="M80.5934 30.8141L81.3605 30.9086C81.2396 31.3575 81.0159 31.7055 80.6879 31.9523C80.3598 32.1992 79.9423 32.3234 79.4337 32.3234C78.7925 32.3234 78.2839 32.1263 77.9095 31.732C77.5334 31.3377 77.3462 30.7843 77.3462 30.0719C77.3462 29.3595 77.5367 28.7631 77.9161 28.3555C78.2955 27.9479 78.7876 27.7441 79.3923 27.7441C79.997 27.7441 80.4576 27.943 80.8287 28.3422C81.1998 28.7415 81.3854 29.3015 81.3854 30.0255C81.3854 30.0702 81.3854 30.1349 81.3821 30.2243H78.1149C78.1431 30.7064 78.279 31.0742 78.5225 31.3294C78.7677 31.5845 79.0725 31.7137 79.4387 31.7137C79.7104 31.7137 79.944 31.6425 80.1362 31.5C80.3284 31.3575 80.4808 31.1289 80.5934 30.8158V30.8141ZM78.1547 29.613H80.6017C80.5686 29.2452 80.4758 28.9685 80.3217 28.7846C80.0848 28.498 79.7783 28.3555 79.4022 28.3555C79.0609 28.3555 78.7743 28.4698 78.5424 28.6984C78.3104 28.9271 78.1812 29.2319 78.1563 29.6146L78.1547 29.613Z" fill="white"/>
<path d="M82.2932 32.2257V27.8435H82.9625V28.4665C83.284 27.9844 83.7495 27.7441 84.3575 27.7441C84.621 27.7441 84.8645 27.7922 85.0865 27.8866C85.3085 27.9811 85.4742 28.1053 85.5835 28.2594C85.6929 28.4135 85.7708 28.5957 85.8138 28.8078C85.842 28.9453 85.8553 29.1855 85.8553 29.5301V32.224H85.113V29.5583C85.113 29.2551 85.0849 29.0298 85.0269 28.879C84.9689 28.7299 84.8662 28.609 84.7187 28.5195C84.5713 28.43 84.399 28.3853 84.2018 28.3853C83.8854 28.3853 83.612 28.4864 83.3834 28.6868C83.1531 28.8873 83.0388 29.2684 83.0388 29.83V32.2224H82.2965L82.2932 32.2257Z" fill="white"/>
<path d="M89.9921 30.8141L90.7592 30.9086C90.6383 31.3575 90.4146 31.7055 90.0866 31.9523C89.7585 32.1992 89.341 32.3234 88.8324 32.3234C88.1912 32.3234 87.6826 32.1263 87.3082 31.732C86.9321 31.3377 86.7449 30.7843 86.7449 30.0719C86.7449 29.3595 86.9354 28.7631 87.3148 28.3555C87.6942 27.9479 88.1863 27.7441 88.791 27.7441C89.3957 27.7441 89.8563 27.943 90.2274 28.3422C90.5985 28.7415 90.7841 29.3015 90.7841 30.0255C90.7841 30.0702 90.7841 30.1349 90.7807 30.2243H87.5136C87.5418 30.7064 87.6776 31.0742 87.9212 31.3294C88.1664 31.5845 88.4712 31.7137 88.8374 31.7137C89.1091 31.7137 89.3427 31.6425 89.5349 31.5C89.727 31.3575 89.8795 31.1289 89.9921 30.8158V30.8141ZM87.5534 29.613H90.0004C89.9673 29.2452 89.8745 28.9685 89.7204 28.7846C89.4835 28.498 89.177 28.3555 88.8009 28.3555C88.4596 28.3555 88.173 28.4698 87.9411 28.6984C87.7091 28.9271 87.5799 29.2319 87.555 29.6146L87.5534 29.613Z" fill="white"/>
<path d="M91.6838 32.2257V27.8435H92.3515V28.5079C92.5222 28.1964 92.6796 27.9927 92.8237 27.8933C92.9678 27.7938 93.1269 27.7441 93.3008 27.7441C93.551 27.7441 93.8062 27.8237 94.0646 27.9827L93.8095 28.6719C93.6272 28.5642 93.4466 28.5112 93.2644 28.5112C93.102 28.5112 92.9562 28.5593 92.827 28.657C92.6978 28.7548 92.605 28.8906 92.5503 29.0629C92.4675 29.3264 92.4261 29.6163 92.4261 29.9294V32.224H91.6838V32.2257Z" fill="white"/>
<path d="M97.3649 31.6839C97.0899 31.9175 96.8248 32.0832 96.5713 32.1793C96.3161 32.2754 96.0444 32.3234 95.7528 32.3234C95.2707 32.3234 94.9013 32.2058 94.6428 31.9705C94.3844 31.7353 94.2551 31.4354 94.2551 31.0693C94.2551 30.8555 94.3032 30.6584 94.4009 30.4811C94.4987 30.3038 94.6262 30.1614 94.7853 30.0537C94.9427 29.946 95.1216 29.8648 95.3188 29.8101C95.4646 29.772 95.6849 29.7339 95.9782 29.6991C96.5779 29.6279 97.0186 29.5417 97.3019 29.444C97.3052 29.3429 97.3052 29.2783 97.3052 29.2501C97.3052 28.947 97.2356 28.7349 97.0948 28.6106C96.906 28.4433 96.6226 28.3588 96.2499 28.3588C95.9003 28.3588 95.6418 28.4201 95.4762 28.5427C95.3105 28.6653 95.1862 28.8823 95.1067 29.1922L94.381 29.0927C94.4473 28.7813 94.555 28.5311 94.7074 28.3406C94.8599 28.15 95.0769 28.0026 95.3635 27.8982C95.6501 27.7955 95.9815 27.7441 96.3576 27.7441C96.7336 27.7441 97.0352 27.7889 97.2688 27.8767C97.5024 27.9645 97.6747 28.0755 97.784 28.208C97.8934 28.3406 97.9712 28.5096 98.0143 28.7133C98.0392 28.8393 98.0508 29.0679 98.0508 29.3976V30.3883C98.0508 31.0792 98.0673 31.5149 98.0988 31.6988C98.1303 31.8811 98.1933 32.0567 98.286 32.224H97.5107C97.4345 32.07 97.3848 31.8894 97.3616 31.6839H97.3649ZM97.3036 30.0255C97.0335 30.1349 96.6293 30.2293 96.0908 30.3055C95.786 30.3502 95.5689 30.3983 95.443 30.4546C95.3171 30.5093 95.2194 30.5905 95.1498 30.6965C95.0802 30.8025 95.0471 30.9202 95.0471 31.0494C95.0471 31.2482 95.1216 31.4122 95.2724 31.5448C95.4215 31.6773 95.6418 31.7436 95.9301 31.7436C96.2184 31.7436 96.4702 31.6806 96.6939 31.5564C96.9159 31.4321 97.0799 31.2598 97.1843 31.0428C97.2638 30.8754 97.3036 30.6269 97.3036 30.3005V30.0288V30.0255Z" fill="white"/>
<path d="M100.826 31.5611L100.934 32.2172C100.725 32.2603 100.538 32.2835 100.372 32.2835C100.102 32.2835 99.8931 32.2404 99.744 32.1559C99.5949 32.0714 99.4905 31.9588 99.4309 31.8196C99.3696 31.6804 99.3397 31.3888 99.3397 30.9432V28.4216H98.7947V27.8434H99.3397V26.7582L100.079 26.3125V27.8434H100.826V28.4216H100.079V30.9829C100.079 31.195 100.092 31.3308 100.118 31.3921C100.145 31.4534 100.186 31.5015 100.246 31.5363C100.306 31.5711 100.39 31.5893 100.499 31.5893C100.582 31.5893 100.69 31.5794 100.826 31.5611Z" fill="white"/>
<path d="M101.556 27.0297V26.1748H102.299V27.0297H101.556ZM101.556 32.2236V27.8415H102.299V32.2236H101.556Z" fill="white"/>
<path d="M103.154 30.0338C103.154 29.222 103.379 28.6206 103.83 28.2312C104.206 27.9065 104.666 27.7441 105.208 27.7441C105.811 27.7441 106.303 27.9413 106.686 28.3356C107.068 28.7299 107.259 29.275 107.259 29.9708C107.259 30.5341 107.175 30.9781 107.006 31.3012C106.837 31.6243 106.59 31.8761 106.267 32.0534C105.944 32.2323 105.591 32.3218 105.208 32.3218C104.595 32.3218 104.098 32.1246 103.72 31.732C103.342 31.3377 103.154 30.7727 103.154 30.0321V30.0338ZM103.917 30.0338C103.917 30.5954 104.04 31.0146 104.285 31.2946C104.53 31.5746 104.838 31.7137 105.21 31.7137C105.581 31.7137 105.886 31.5729 106.129 31.2929C106.374 31.0129 106.497 30.5855 106.497 30.0089C106.497 29.4672 106.374 29.0563 106.127 28.778C105.881 28.4996 105.576 28.3588 105.21 28.3588C104.843 28.3588 104.53 28.498 104.285 28.7763C104.04 29.0546 103.917 29.4738 103.917 30.0354V30.0338Z" fill="white"/>
<path d="M108.129 32.2257V27.8435H108.798V28.4665C109.12 27.9844 109.585 27.7441 110.193 27.7441C110.457 27.7441 110.7 27.7922 110.922 27.8866C111.144 27.9811 111.31 28.1053 111.419 28.2594C111.529 28.4135 111.606 28.5957 111.65 28.8078C111.678 28.9453 111.691 29.1855 111.691 29.5301V32.224H110.949V29.5583C110.949 29.2551 110.921 29.0298 110.863 28.879C110.805 28.7299 110.702 28.609 110.554 28.5195C110.407 28.43 110.235 28.3853 110.037 28.3853C109.721 28.3853 109.448 28.4864 109.219 28.6868C108.989 28.8873 108.874 29.2684 108.874 29.83V32.2224H108.132L108.129 32.2257Z" fill="white"/>
<path d="M112.94 32.2256V26.1768H117.314V26.8908H113.74V28.7431H117.087V29.4522H113.74V31.5115H117.453V32.2256H112.94Z" fill="white"/>
<path d="M122.528 26.1765H123.328V29.6706C123.328 30.2786 123.258 30.7607 123.121 31.1186C122.983 31.4764 122.735 31.7664 122.375 31.9917C122.016 32.2154 121.545 32.328 120.962 32.328C120.379 32.328 119.932 32.2303 119.572 32.0348C119.213 31.8393 118.954 31.5576 118.8 31.1865C118.646 30.8171 118.57 30.3117 118.57 29.6706V26.1765H119.37V29.6673C119.37 30.1925 119.418 30.5801 119.516 30.8287C119.614 31.0772 119.781 31.2694 120.019 31.4036C120.258 31.5377 120.548 31.6057 120.893 31.6057C121.481 31.6057 121.9 31.4715 122.152 31.2047C122.402 30.938 122.528 30.4244 122.528 29.6656V26.1748V26.1765Z" fill="white"/>
</svg>
