<svg width="24" height="24" viewBox="0 0 24 24" fill="none" xmlns="http://www.w3.org/2000/svg">
<path d="M13.3366 17.3164C13.4524 17.5715 13.684 17.7098 13.9392 17.7098C14.0315 17.7098 14.1247 17.6863 14.217 17.6402C14.5645 17.4783 14.7038 17.0849 14.5409 16.7377C14.5409 16.7377 13.2669 13.8203 13.0353 12.7561C12.943 12.3853 12.8959 11.3906 12.8733 10.9276C12.8733 10.7657 12.9656 10.6264 13.1049 10.5803L15.9544 9.72396C16.3018 9.63172 16.51 9.23744 16.4177 8.89018C16.3254 8.54293 15.9308 8.33495 15.5834 8.42718C15.5834 8.42718 12.9431 9.28355 11.9929 9.28355C11.0663 9.28355 8.44851 8.44977 8.44851 8.44977C8.10105 8.35753 7.70744 8.5194 7.59162 8.86666C7.47579 9.23743 7.68391 9.6308 8.0549 9.72303L10.9044 10.5794C11.0437 10.6255 11.1595 10.7648 11.136 10.9267C11.1125 11.3897 11.0663 12.3853 10.974 12.7552C10.7424 13.8204 9.46834 16.7368 9.46834 16.7368C9.30637 17.084 9.46834 17.4774 9.79228 17.6393C9.88457 17.6854 9.97777 17.7089 10.0701 17.7089C10.3252 17.7089 10.5795 17.5696 10.6727 17.3155L12.039 14.5384L13.3366 17.3164Z" fill="#0E8195"/>
<path d="M13.2442 7.22354C13.2442 7.93976 12.6633 8.52032 11.9466 8.52032C11.23 8.52032 10.649 7.93976 10.649 7.22354C10.649 6.50732 11.23 5.92676 11.9466 5.92676C12.6633 5.92676 13.2442 6.50732 13.2442 7.22354Z" fill="#0E8195"/>
<circle cx="11.9996" cy="11.818" r="9.3" stroke="#0E8195" stroke-width="1.2"/>
</svg>
