<svg width="40" height="40" viewBox="0 0 40 40" fill="none" xmlns="http://www.w3.org/2000/svg">
<path d="M17.1503 6.43349L3.03361 30.0002C2.74256 30.5042 2.58856 31.0757 2.58693 31.6577C2.5853 32.2397 2.7361 32.812 3.02432 33.3177C3.31255 33.8234 3.72815 34.2447 4.22979 34.5399C4.73143 34.8351 5.30161 34.9938 5.88361 35.0002H34.1169C34.6989 34.9938 35.2691 34.8351 35.7708 34.5399C36.2724 34.2447 36.688 33.8234 36.9762 33.3177C37.2645 32.812 37.4153 32.2397 37.4136 31.6577C37.412 31.0757 37.258 30.5042 36.9669 30.0002L22.8503 6.43349C22.5532 5.94367 22.1348 5.53869 21.6356 5.25763C21.1364 4.97657 20.5732 4.82892 20.0003 4.82892C19.4274 4.82892 18.8642 4.97657 18.365 5.25763C17.8657 5.53869 17.4474 5.94367 17.1503 6.43349V6.43349Z" stroke="#0E8195" stroke-width="2.5" stroke-linecap="round" stroke-linejoin="round"/>
<path d="M20 15V21.6667" stroke="#0E8195" stroke-width="2.5" stroke-linecap="round" stroke-linejoin="round"/>
<path d="M20 28.3333H20.0167" stroke="#0E8195" stroke-width="2.5" stroke-linecap="round" stroke-linejoin="round"/>
</svg>
