<svg width="64" height="64" viewBox="0 0 64 64" fill="none" xmlns="http://www.w3.org/2000/svg">
<rect width="64" height="64" rx="32" fill="#EFF3F5"/>
<path d="M32 45.333H47" stroke="#0E8195" stroke-width="3.33" stroke-linecap="round" stroke-linejoin="round"/>
<path d="M39.5 17.8334C40.163 17.1703 41.0623 16.7979 42 16.7979C42.4643 16.7979 42.924 16.8893 43.353 17.067C43.7819 17.2447 44.1717 17.5051 44.5 17.8334C44.8283 18.1617 45.0887 18.5514 45.2664 18.9804C45.4441 19.4093 45.5355 19.8691 45.5355 20.3334C45.5355 20.7977 45.4441 21.2574 45.2664 21.6864C45.0887 22.1153 44.8283 22.5051 44.5 22.8334L23.6667 43.6667L17 45.3334L18.6667 38.6667L39.5 17.8334Z" stroke="#0E8195" stroke-width="3.33" stroke-linecap="round" stroke-linejoin="round"/>
</svg>
