<svg width="40" height="40" viewBox="0 0 40 40" fill="none" xmlns="http://www.w3.org/2000/svg">
<path d="M25.8328 12.4999L31.6661 6.66659M34.9995 3.33325L31.6661 6.66659L34.9995 3.33325ZM18.9828 19.3499C19.8434 20.199 20.5275 21.21 20.9957 22.3246C21.464 23.4392 21.7071 24.6354 21.7112 25.8443C21.7152 27.0532 21.4801 28.2511 21.0193 29.3688C20.5586 30.4865 19.8812 31.502 19.0264 32.3568C18.1715 33.2117 17.156 33.889 16.0383 34.3498C14.9206 34.8105 13.7228 35.0457 12.5139 35.0416C11.3049 35.0376 10.1087 34.7944 8.99413 34.3262C7.87955 33.8579 6.86859 33.1738 6.01948 32.3133C4.3497 30.5844 3.42575 28.2689 3.44664 25.8654C3.46752 23.4619 4.43157 21.1628 6.13114 19.4632C7.83072 17.7637 10.1298 16.7996 12.5333 16.7787C14.9368 16.7579 17.2523 17.6818 18.9811 19.3516L18.9828 19.3499ZM18.9828 19.3499L25.8328 12.4999L18.9828 19.3499ZM25.8328 12.4999L30.8328 17.4999L36.6661 11.6666L31.6661 6.66659L25.8328 12.4999Z" stroke="#0E8195" stroke-width="2.5" stroke-linecap="round" stroke-linejoin="round"/>
</svg>
