<svg width="70" height="70" viewBox="0 0 70 70" fill="none" xmlns="http://www.w3.org/2000/svg">
<rect width="70" height="70" rx="35" fill="#CC1C00"/>
<path fill-rule="evenodd" clip-rule="evenodd" d="M47.4749 22.5251C48.8417 23.892 48.8417 26.108 47.4749 27.4749L27.4749 47.4749C26.108 48.8417 23.892 48.8417 22.5251 47.4749C21.1583 46.108 21.1583 43.892 22.5251 42.5251L42.5251 22.5251C43.892 21.1583 46.108 21.1583 47.4749 22.5251Z" fill="white"/>
<path fill-rule="evenodd" clip-rule="evenodd" d="M22.5251 22.5251C23.892 21.1583 26.108 21.1583 27.4749 22.5251L47.4749 42.5251C48.8417 43.892 48.8417 46.108 47.4749 47.4749C46.108 48.8417 43.892 48.8417 42.5251 47.4749L22.5251 27.4749C21.1583 26.108 21.1583 23.892 22.5251 22.5251Z" fill="white"/>
</svg>
