<svg width="40" height="40" viewBox="0 0 40 40" fill="none" xmlns="http://www.w3.org/2000/svg">
<path d="M20 5C28.2015 5 34.8656 11.5821 34.998 19.752L35 20.0001H32.7273C32.7273 12.971 27.0291 7.27274 20 7.27274C12.9709 7.27274 7.27273 12.971 7.27273 20.0001C7.27273 26.9589 12.8575 32.6134 19.7896 32.7257L20 32.7275V35.0002C11.7157 35.0002 5 28.2844 5 20.0001C5 11.7158 11.7157 5 20 5ZM19.5455 12.9546C21.6446 12.9546 23.5221 13.9348 24.7728 15.4764L24.7728 14.7728H27.0455V25.2274H24.7728L24.7728 24.5239C23.5221 26.0654 21.6445 27.0456 19.5455 27.0456C15.7799 27.0456 12.7273 23.8912 12.7273 20.0001C12.7273 16.109 15.7799 12.9546 19.5455 12.9546ZM19.5455 17.9546C18.7924 17.9546 18.1818 18.5652 18.1818 19.3183C18.1818 19.8113 18.4435 20.2432 18.8354 20.4827L18.8637 20.4995L18.8637 22.0456L19.4318 22.7274H19.8864V22.0456H20V21.8183H19.8864V21.4774H20.1137L20.1137 20.5583C20.5831 20.3428 20.9091 19.8686 20.9091 19.3183C20.9091 18.5652 20.2986 17.9546 19.5455 17.9546ZM19.5455 19.091C19.671 19.091 19.7727 19.1928 19.7727 19.3183C19.7727 19.4438 19.671 19.5455 19.5455 19.5455C19.42 19.5455 19.3182 19.4438 19.3182 19.3183C19.3182 19.1928 19.42 19.091 19.5455 19.091Z" fill="#FF5A00"/>
</svg>
