<svg width="302" height="221" viewBox="0 0 302 221" fill="none" xmlns="http://www.w3.org/2000/svg">
<g clip-path="url(#clip0_4454_17355)">
<path opacity="0.4" d="M301.989 105.241C301.415 46.8398 254.659 -0.0530984 197.569 0.499959C140.479 1.06365 28.8005 59.4325 29.3753 117.844C29.95 176.255 142.565 212.576 199.655 212.023C256.745 211.46 302.564 163.652 301.989 105.251V105.241Z" fill="white"/>
<path d="M21.0097 165.63C14.4322 150.783 20.8713 133.542 35.3886 127.129C49.9059 120.715 84.8793 122.651 91.4568 137.509C98.0343 152.357 73.704 174.49 59.1974 180.903C44.6801 187.316 27.5872 180.488 21.0097 165.63Z" fill="#C5D9E2"/>
<path d="M3.75721 76.2685C13.2935 54.8375 38.0069 45.0101 58.9527 54.3164C79.8985 63.6227 111.743 102.932 102.207 124.363C92.6703 145.794 45.372 141.232 24.4263 131.925C3.46985 122.619 -5.77907 97.6995 3.75721 76.2685Z" fill="#C5D9E2"/>
<path d="M55.153 45.9147C61.7518 31.0779 78.866 24.271 93.362 30.7163C107.869 37.1615 129.9 64.3783 123.301 79.2152C116.702 94.052 83.9535 90.8932 69.4575 84.448C54.9615 78.0027 48.5436 60.7516 55.153 45.9147Z" fill="#C5D9E2"/>
<path d="M131.305 79.0657C130.666 68.8873 122.46 60.5808 112.285 59.8257C103.93 59.2088 96.5334 63.5588 92.7444 70.2274C91.4779 72.4503 90.0517 74.5668 88.6362 76.694C84.9004 82.2671 71.4155 105.963 70.1277 117.099C68.3929 132.053 84.943 131.787 84.943 131.787C88.0614 132.223 93.681 127.788 98.5875 117.482C102.983 108.271 112.605 102.922 118.533 99.4757C119.874 98.9226 123.716 96.3913 123.716 96.3913C128.686 92.3497 131.73 86.0534 131.294 79.0657H131.305Z" fill="white"/>
<path d="M132.412 79.8104C132.124 75.7689 130.687 71.8868 128.218 68.6642C126.09 65.8883 123.258 63.8143 120.289 62.0169C113.084 57.6456 103.718 58.1667 97.0337 63.3038C93.2447 66.218 91.2651 70.3659 88.6788 74.2586C87.242 76.4176 85.8477 78.5873 84.5386 80.8315C80.9093 87.0215 77.5461 93.3923 74.5766 99.9226C73.0653 103.241 71.6497 106.612 70.5322 110.08C69.5956 112.962 68.808 115.983 68.9145 119.035C69.0102 121.864 69.9575 124.608 71.9478 126.661C73.5549 128.32 75.7367 129.724 77.8121 130.713C80.4516 131.968 83.4956 132.564 86.4118 132.564C88.9023 132.564 91.1374 130.543 92.7445 128.862C95.9162 125.555 97.9703 121.534 100.056 117.503C103.813 110.229 110.763 105.411 117.66 101.369C120.044 99.9758 122.599 98.7952 124.823 97.1467C128.197 94.6473 130.634 90.5844 131.73 86.5854C132.337 84.3732 132.539 82.0971 132.412 79.8211C132.38 79.268 130.23 78.8532 130.208 78.3321C130.432 82.6289 129.421 86.8832 127.143 90.5419C125.366 93.3816 123.088 95.4237 120.278 97.1573C114.361 100.805 108.198 103.847 103.217 108.835C101.802 110.261 100.493 111.803 99.3752 113.462C98.1193 115.334 97.2359 117.386 96.161 119.365C94.3197 122.768 92.1059 126.161 89.1471 128.703C87.6251 130.011 85.8903 131.117 83.8362 131.053C82.8783 131.021 81.9417 130.958 80.9944 130.819C79.068 130.532 77.1629 130 75.4174 129.139C75.1726 129.022 74.9385 128.884 74.7043 128.756C73.4697 128.129 76.3434 130.075 75.2791 129.15C74.8108 128.745 74.3531 128.363 73.9274 127.895C73.1079 127.001 72.4586 125.959 72.001 124.842C69.7233 119.258 72.1606 112.739 74.2148 107.463C76.8117 100.795 80.0472 94.3708 83.4743 88.0957C84.8579 85.5537 86.2948 83.0331 87.7848 80.5443C89.3919 77.8854 91.1906 75.3647 92.819 72.727C95.0115 69.1641 97.1614 65.9946 100.78 63.708C104.399 61.4213 108.294 60.4109 112.371 60.5172C114.297 60.5704 116.223 60.8895 118.065 61.4744C118.98 61.7616 119.874 62.1232 120.736 62.538C121.162 62.7401 121.566 62.9634 121.981 63.1974C122.12 63.2825 123.12 63.793 122.247 63.3251C121.375 62.8571 122.545 63.591 122.716 63.7292C125.6 66.1116 127.824 69.2598 129.08 72.7802C129.719 74.567 130.081 76.4176 130.219 78.3108C130.262 78.8745 132.39 79.268 132.422 79.7998L132.412 79.8104Z" fill="#172D3F"/>
<path d="M285.748 213.172H46.0744C45.7764 213.172 45.5422 212.938 45.5422 212.64C45.5422 212.342 45.7764 212.108 46.0744 212.108H285.748C286.046 212.108 286.28 212.342 286.28 212.64C286.28 212.938 286.046 213.172 285.748 213.172Z" fill="#172D3F"/>
<path d="M216.684 172.778H236.896C246.592 172.778 253.765 163.769 251.594 154.335L240.567 106.336C236.917 90.4465 214.119 90.8613 211.054 106.879L201.869 154.878C200.091 164.173 207.212 172.778 216.684 172.778Z" fill="#BFDDC4"/>
<path d="M226.849 212.63C227.147 212.63 227.381 212.396 227.381 212.098V109.283C227.381 108.985 227.147 108.751 226.849 108.751C226.551 108.751 226.316 108.985 226.316 109.283V212.098C226.316 212.396 226.551 212.63 226.849 212.63Z" fill="#172D3F"/>
<path d="M227.168 142.062C227.359 142.062 227.54 141.966 227.636 141.786L235.31 127.736C235.448 127.481 235.352 127.151 235.097 127.013C234.841 126.874 234.511 126.97 234.373 127.225L226.699 141.275C226.561 141.53 226.657 141.86 226.912 141.998C226.997 142.041 227.083 142.062 227.168 142.062Z" fill="#172D3F"/>
<path d="M227.487 150.687C227.615 150.687 227.742 150.644 227.838 150.549L240.94 138.732C241.163 138.541 241.174 138.201 240.983 137.977C240.78 137.754 240.45 137.743 240.227 137.935L227.125 149.751C226.902 149.942 226.891 150.283 227.083 150.506C227.189 150.623 227.327 150.687 227.476 150.687H227.487Z" fill="#172D3F"/>
<path d="M227.498 162.908C227.593 162.908 227.7 162.876 227.785 162.823L241.195 154.112C241.44 153.953 241.515 153.623 241.355 153.379C241.195 153.134 240.866 153.06 240.621 153.219L227.21 161.93C226.966 162.089 226.891 162.419 227.051 162.664C227.157 162.823 227.327 162.908 227.498 162.908Z" fill="#172D3F"/>
<path d="M226.604 136.159C226.71 136.159 226.817 136.127 226.912 136.063C227.157 135.893 227.21 135.563 227.051 135.319L217.387 121.428C217.216 121.184 216.886 121.131 216.642 121.29C216.397 121.46 216.344 121.79 216.503 122.035L226.167 135.925C226.274 136.074 226.433 136.148 226.604 136.148V136.159Z" fill="#172D3F"/>
<path d="M226.848 156.867C226.955 156.867 227.051 156.835 227.146 156.782C227.391 156.622 227.455 156.292 227.295 156.048L214.832 137.403C214.673 137.159 214.343 137.095 214.098 137.255C213.853 137.414 213.789 137.744 213.949 137.988L226.412 156.633C226.518 156.782 226.678 156.867 226.859 156.867H226.848Z" fill="#172D3F"/>
<path d="M226.721 166.449C226.87 166.449 227.029 166.385 227.136 166.258C227.317 166.034 227.285 165.694 227.061 165.513L210.884 152.303C210.66 152.123 210.319 152.155 210.139 152.378C209.958 152.601 209.99 152.942 210.213 153.122L226.391 166.332C226.486 166.417 226.604 166.449 226.731 166.449H226.721Z" fill="#172D3F"/>
<path d="M244.75 186.987C242.973 184.839 242.249 182.031 242.771 179.287L248.38 149.996C249.359 144.859 253.606 142.487 257.384 142.424C261.162 142.349 265.483 144.572 266.654 149.667L273.381 178.957C274.019 181.744 273.37 184.626 271.582 186.86C269.804 189.093 267.133 190.38 264.281 190.38H251.945C249.157 190.38 246.528 189.146 244.75 186.998V186.987ZM257.384 142.679C253.723 142.743 249.593 145.051 248.635 150.039L243.026 179.33C242.515 181.989 243.218 184.722 244.942 186.807C246.666 188.891 249.221 190.093 251.935 190.093H264.27C267.048 190.093 269.634 188.849 271.369 186.679C273.104 184.509 273.732 181.712 273.114 179L266.388 149.709C265.27 144.827 261.173 142.668 257.544 142.668C257.49 142.668 257.437 142.668 257.373 142.668L257.384 142.679Z" fill="#172D3F"/>
<path d="M244.442 187.242C242.59 184.998 241.834 182.073 242.377 179.212L247.986 149.922C249.008 144.561 253.435 142.094 257.373 142.019C261.3 141.945 265.824 144.242 267.048 149.571L273.774 178.861C274.445 181.765 273.764 184.764 271.901 187.104C270.039 189.433 267.271 190.773 264.281 190.773H251.945C249.029 190.773 246.294 189.487 244.442 187.242ZM257.394 143.083C253.893 143.147 249.944 145.348 249.029 150.124L243.42 179.415C242.93 181.956 243.601 184.573 245.251 186.562C246.9 188.561 249.338 189.71 251.934 189.71H264.27C266.931 189.71 269.4 188.519 271.05 186.445C272.699 184.371 273.317 181.691 272.721 179.106L265.994 149.815C264.93 145.168 260.981 143.083 257.543 143.083H257.384H257.394Z" fill="#172D3F"/>
<path d="M258.895 212.194C259.193 212.194 259.427 211.96 259.427 211.662V155.867C259.427 155.569 259.193 155.335 258.895 155.335C258.597 155.335 258.363 155.569 258.363 155.867V211.662C258.363 211.96 258.597 212.194 258.895 212.194Z" fill="#172D3F"/>
<path d="M258.565 177.447C258.64 177.447 258.725 177.426 258.799 177.394C259.065 177.267 259.172 176.947 259.044 176.682L252.392 163.057C252.264 162.791 251.945 162.685 251.679 162.813C251.413 162.94 251.307 163.259 251.434 163.525L258.086 177.15C258.182 177.341 258.363 177.447 258.565 177.447Z" fill="#172D3F"/>
<path d="M259.257 180.819C259.427 180.819 259.598 180.734 259.704 180.574L266.537 170.034C266.697 169.789 266.622 169.46 266.377 169.3C266.132 169.141 265.803 169.215 265.643 169.46L258.81 180C258.65 180.244 258.725 180.574 258.97 180.734C259.055 180.787 259.161 180.819 259.257 180.819Z" fill="#172D3F"/>
<path d="M258.661 190.04C258.757 190.04 258.863 190.008 258.948 189.955C259.193 189.795 259.257 189.465 259.097 189.221L251.189 177.245C251.03 177 250.7 176.926 250.455 177.096C250.21 177.256 250.146 177.585 250.306 177.83L258.214 189.806C258.32 189.965 258.491 190.04 258.661 190.04Z" fill="#172D3F"/>
<path d="M118.32 71.3127C118.32 71.887 117.852 72.3656 117.267 72.3656C116.692 72.3656 116.213 71.8977 116.213 71.3127C116.213 70.7384 116.681 70.2598 117.267 70.2598C117.841 70.2598 118.32 70.7277 118.32 71.3127Z" fill="#172D3F"/>
<path d="M118.033 67.8771C117.969 67.5899 117.681 67.4091 117.383 67.4836L117.085 67.558C117.032 67.558 116.979 67.558 116.915 67.5687C116.819 67.5899 116.724 67.6218 116.638 67.6644L114.414 68.1962C114.127 68.26 113.946 68.5472 114.02 68.845C114.063 69.0045 114.159 69.1215 114.297 69.1853C114.297 69.2066 114.297 69.2172 114.297 69.2172C114.297 69.2172 114.744 69.3555 114.904 69.398C116.01 69.6745 117.564 69.3555 117.884 68.8237C118.065 68.5365 118.107 68.26 118.033 68.0366C118.033 67.9835 118.033 67.9409 118.033 67.8877V67.8771Z" fill="#172D3F"/>
<path d="M126.92 76.0884L125.142 75.2907L124.014 75.5992L123.738 74.5675L125.228 74.1634L126.632 74.7909L126.931 74.4505L125.483 65.9951L127.005 67.9202L128.069 74.7696L126.92 76.0884Z" fill="#172D3F"/>
<path d="M121.004 77.9591L120.956 78.0536C120.767 78.4188 120.91 78.868 121.275 79.0569L124.848 80.9039C125.214 81.0928 125.663 80.9499 125.852 80.5847L125.901 80.4902C126.09 80.125 125.947 79.6758 125.582 79.4869L122.008 77.6399C121.643 77.451 121.193 77.5939 121.004 77.9591Z" fill="#172D3F"/>
<path d="M120.785 78.3874L120.79 78.4936C120.809 78.9043 121.157 79.2219 121.568 79.2029L125.587 79.017C125.998 78.998 126.316 78.6496 126.297 78.2389L126.292 78.1326C126.273 77.7219 125.924 77.4043 125.513 77.4234L121.495 77.6092C121.084 77.6282 120.766 77.9766 120.785 78.3874Z" fill="#172D3F"/>
<path d="M100.961 204.908C100.961 204.908 56.7281 150.155 66.7221 126.778C72.8206 112.483 93.2342 106.389 116.979 136.51C120.577 141.072 129.549 144.008 134.157 147.56C138.766 151.112 143.63 156.675 141.49 163.567C137.776 175.543 131.507 180.393 131.507 180.393L147.206 220.5L101.259 218.596C101.259 218.596 102.973 214.033 100.972 204.908H100.961Z" fill="#59BFD1"/>
<path d="M171.652 94.8337L150.567 96.5956C149.56 96.6798 148.811 97.5642 148.895 98.571L151.693 131.999C151.777 133.006 152.662 133.754 153.67 133.67L174.755 131.908C175.762 131.824 176.511 130.939 176.426 129.933L173.629 96.5042C173.545 95.4974 172.66 94.7495 171.652 94.8337Z" fill="white"/>
<path d="M173.643 131.181C170.003 131.49 166.353 131.787 162.713 132.096C160.297 132.298 157.891 132.5 155.475 132.702C154.294 132.798 152.484 133.276 151.399 132.638L153.559 134.106C152.623 133.319 152.729 132.053 152.644 130.926L152.155 125.087C151.708 119.716 151.261 114.355 150.814 108.984C150.547 105.815 150.026 102.55 150.005 99.3591C149.994 97.4128 151.654 97.3489 153.091 97.2319L159.86 96.6683L168.843 95.9131C170.216 95.7961 172.632 95.1367 173.92 95.8919L171.759 94.4241C172.866 95.3601 172.664 97.4234 172.781 98.7529C173.015 101.593 173.26 104.443 173.494 107.283L175.059 126.044C175.197 127.735 176.038 130.756 173.643 131.171C173.824 131.139 174.569 131.809 174.739 131.926C174.931 132.053 175.612 132.702 175.846 132.66C177.805 132.319 177.517 130.596 177.39 129.16L176.9 123.353L175.495 106.559C175.24 103.496 175.229 100.295 174.718 97.2639C174.495 95.9238 172.675 94.8283 171.514 94.2965C170.961 94.0519 170.461 94.105 169.886 94.1582L163.734 94.6687C159.062 95.0623 154.368 95.3282 149.717 95.8387C148.142 96.0088 147.716 97.1362 147.833 98.5082L148.238 103.358C148.696 108.867 149.153 114.366 149.621 119.875C149.93 123.598 150.037 127.395 150.558 131.085C150.675 131.936 151.08 132.415 151.771 132.904C152.687 133.553 153.655 134.425 154.826 134.414C156.391 134.404 157.976 134.149 159.53 134.021C164.607 133.596 169.673 133.17 174.75 132.755C175.112 132.723 175.474 132.691 175.836 132.66C175.623 132.681 174.931 132.032 174.739 131.904C174.516 131.756 173.899 131.149 173.632 131.171L173.643 131.181Z" fill="#172D3F"/>
<path d="M145.066 136.839C145.066 136.839 144.768 130.415 147.046 123.906C150.388 114.355 160.18 106.325 161.755 111.196C163.33 116.067 170.525 117.609 167.321 125.437C164.118 133.265 161.489 132.999 161.489 132.999L157.21 143.561" fill="white"/>
<path d="M146.163 137.584C145.886 131.351 147.387 124.704 150.675 119.386C152.314 116.738 154.368 114.217 156.859 112.313C158.136 111.335 160.329 109.803 162 110.739L160.116 109.473L160.243 109.559L159.924 109.335C160.861 110.112 161.095 111.654 161.829 112.643C162.723 113.845 163.83 114.845 164.809 115.972C165.789 117.099 166.629 118.354 166.917 119.843C167.311 121.928 166.555 123.959 165.714 125.842C164.575 128.384 163.234 130.915 160.701 132.202C160.286 132.404 160.488 132.149 160.222 132.638C159.701 133.585 159.371 134.723 158.966 135.733C158.008 138.094 157.051 140.455 156.103 142.806C156.029 142.997 158.37 144.146 158.306 144.295C158.924 142.774 159.53 141.264 160.148 139.743L161.531 136.329C161.808 135.637 162.021 134.584 162.479 133.989C162.84 133.51 163.681 133.404 164.235 132.947C165.171 132.17 165.884 131.128 166.512 130.096C167.566 128.341 168.556 126.363 169.013 124.353C169.663 121.545 168.62 119.248 166.768 117.184C165.916 116.238 164.98 115.355 164.192 114.345C163.468 113.409 163.202 112.335 162.596 111.367C162.063 110.516 160.861 109.931 160.041 109.42C159.339 108.984 158.679 108.91 157.881 109.101C155.231 109.75 152.942 112.143 151.239 114.132C146.088 120.13 143.629 128.235 143.97 136.105C143.991 136.648 146.152 137.084 146.173 137.594L146.163 137.584Z" fill="#172D3F"/>
<path d="M168.95 100.147C169.649 100.147 170.216 99.5799 170.216 98.8809C170.216 98.1819 169.649 97.6152 168.95 97.6152C168.25 97.6152 167.683 98.1819 167.683 98.8809C167.683 99.5799 168.25 100.147 168.95 100.147Z" fill="#172D3F"/>
<path d="M169.258 103.731C169.958 103.731 170.525 103.164 170.525 102.465C170.525 101.766 169.958 101.199 169.258 101.199C168.559 101.199 167.992 101.766 167.992 102.465C167.992 103.164 168.559 103.731 169.258 103.731Z" fill="#172D3F"/>
<path d="M169.631 107.399C170.33 107.399 170.897 106.833 170.897 106.134C170.897 105.435 170.33 104.868 169.631 104.868C168.931 104.868 168.364 105.435 168.364 106.134C168.364 106.833 168.931 107.399 169.631 107.399Z" fill="#172D3F"/>
<path d="M166.64 96.4877C165.533 96.6578 165.341 97.9979 165.299 98.9126C165.235 100.072 165.405 101.231 165.576 102.369C165.788 103.773 165.576 105.198 165.842 106.602C166.012 107.453 166.438 108.198 167.31 108.485C167.066 108.4 166.895 108.123 166.651 108.038C166.597 108.027 166.544 107.996 166.491 107.964L167.108 108.378C166.374 107.772 166.384 106.368 166.342 105.507C166.321 104.943 166.342 104.379 166.342 103.816C166.331 103.209 166.214 102.614 166.129 102.018C165.98 100.976 165.884 99.9017 166.023 98.8488C166.118 98.0511 166.395 97.0726 167.321 96.9237C167.13 96.9556 166.853 96.4451 166.661 96.477L166.64 96.4877Z" fill="#172D3F"/>
<path d="M107.879 64.5054C107.879 64.5054 99.9288 66.6539 87.9978 90.5949C76.0668 114.536 63.0715 153.505 48.4904 147.985C33.9092 142.465 40.955 92.0201 71.2881 71.876C101.621 51.7319 118.224 61.1339 118.224 61.1339L107.879 64.5054Z" fill="#172D3F"/>
<path d="M76.9288 138.169C83.5914 152.453 117.362 208.461 141.416 198.431C153.474 193.4 157.114 139.233 157.114 139.233L144.332 140.477C144.332 140.477 138.457 163.876 130.059 165.779C121.662 167.683 97.0976 136.042 89.7219 129.894C82.3462 123.736 64.3911 111.303 76.9394 138.18L76.9288 138.169Z" fill="#59BFD1"/>
<path d="M112.509 152.75C113.839 150.549 113.148 147.677 110.944 146.348C108.741 145.018 105.868 145.72 104.537 147.911C103.888 148.975 103.696 150.23 103.994 151.442C104.292 152.655 105.037 153.676 106.102 154.325C106.549 154.601 107.038 154.792 107.549 154.899C107.869 154.963 108.188 155.005 108.518 155.005C108.89 155.005 109.263 154.963 109.635 154.867C110.849 154.569 111.87 153.825 112.52 152.761L112.509 152.75ZM110.572 146.965C112.434 148.092 113.02 150.528 111.892 152.378C111.349 153.282 110.476 153.91 109.454 154.165C108.433 154.42 107.368 154.25 106.474 153.708C105.57 153.165 104.942 152.293 104.686 151.272C104.441 150.251 104.601 149.187 105.144 148.294C106.272 146.433 108.699 145.848 110.561 146.975L110.572 146.965Z" fill="white"/>
<path d="M99.5882 149.985C100.237 148.922 100.429 147.667 100.131 146.454C99.833 145.242 99.0879 144.221 98.0236 143.572C96.9593 142.923 95.7034 142.732 94.4901 143.029C93.2768 143.327 92.255 144.072 91.6058 145.135C90.2754 147.337 90.9672 150.209 93.1703 151.538C93.6174 151.804 94.1069 152.006 94.6072 152.112C94.9371 152.187 95.267 152.219 95.5863 152.219C97.1935 152.219 98.7154 151.389 99.5775 149.975L99.5882 149.985ZM99.4285 146.635C99.6733 147.656 99.5137 148.72 98.9709 149.613C97.8427 151.464 95.4161 152.059 93.5535 150.932C91.6909 149.804 91.1056 147.369 92.2338 145.518C92.7766 144.614 93.6493 143.987 94.671 143.731C94.9797 143.657 95.299 143.614 95.6183 143.614C95.895 143.614 96.1611 143.646 96.4378 143.699C96.8635 143.795 97.2786 143.955 97.6618 144.189C98.5664 144.731 99.1944 145.603 99.4498 146.624L99.4285 146.635Z" fill="white"/>
<path d="M86.6673 147.209C87.3165 146.145 87.5081 144.89 87.2101 143.678C86.9121 142.465 86.167 141.444 85.1027 140.796C84.0384 140.147 82.7825 139.955 81.5692 140.253C80.3559 140.551 79.3341 141.295 78.6849 142.359C78.0357 143.423 77.8441 144.678 78.1421 145.89C78.4401 147.102 79.1851 148.124 80.2494 148.772C80.6965 149.049 81.186 149.24 81.6969 149.347C82.0162 149.41 82.3355 149.453 82.6654 149.453C83.0379 149.453 83.4105 149.41 83.783 149.315C84.9963 149.017 86.018 148.272 86.6673 147.209ZM86.5076 143.859C86.7524 144.88 86.5928 145.943 86.05 146.837C85.5072 147.741 84.6344 148.368 83.6127 148.623C82.5909 148.879 81.5266 148.708 80.6326 148.166C79.7279 147.624 79.1 146.752 78.8445 145.73C78.5891 144.709 78.7594 143.646 79.3022 142.752C79.845 141.848 80.7177 141.221 81.7395 140.966C82.3249 140.817 82.9209 140.817 83.4956 140.934C83.9213 141.029 84.3364 141.189 84.7196 141.423C85.6242 141.965 86.2522 142.838 86.5076 143.859Z" fill="white"/>
<path d="M73.7359 144.444C74.3851 143.381 74.5767 142.126 74.2787 140.913C73.9807 139.701 73.2356 138.68 72.1713 138.031C71.107 137.382 69.8511 137.191 68.6378 137.488C67.4245 137.786 66.4027 138.531 65.7535 139.594C65.1043 140.658 64.9127 141.913 65.2107 143.125C65.5087 144.338 66.2537 145.359 67.318 146.008C67.7757 146.284 68.2546 146.476 68.7655 146.582C69.0848 146.646 69.4041 146.688 69.734 146.688C70.1065 146.688 70.4791 146.646 70.8516 146.55C72.0649 146.252 73.0866 145.508 73.7359 144.444ZM73.5762 141.094C73.821 142.115 73.6614 143.179 73.1186 144.072C72.5758 144.976 71.703 145.603 70.6813 145.859C69.6595 146.114 68.5952 145.944 67.7012 145.401C66.7965 144.859 66.1686 143.987 65.9131 142.966C65.6683 141.945 65.828 140.881 66.3708 139.988C66.9136 139.084 67.7863 138.456 68.8081 138.201C69.1167 138.127 69.436 138.084 69.7553 138.084C70.032 138.084 70.2981 138.116 70.5748 138.169C71.0006 138.265 71.4157 138.424 71.7988 138.658C72.7035 139.201 73.3314 140.073 73.5869 141.094H73.5762Z" fill="white"/>
<path d="M151.282 161.057C152.613 158.855 151.921 155.984 149.718 154.654C147.514 153.325 144.641 154.027 143.31 156.218C142.661 157.281 142.47 158.536 142.768 159.749C143.066 160.961 143.811 161.982 144.875 162.631C145.322 162.897 145.801 163.099 146.312 163.205C146.642 163.28 146.961 163.312 147.291 163.312C148.898 163.312 150.42 162.482 151.282 161.068V161.057ZM149.345 155.271C151.208 156.399 151.793 158.834 150.665 160.685C150.122 161.578 149.249 162.216 148.228 162.472C147.206 162.716 146.141 162.557 145.247 162.014C144.343 161.472 143.715 160.6 143.459 159.579C143.215 158.558 143.374 157.494 143.917 156.601C144.46 155.707 145.333 155.069 146.354 154.825C146.663 154.75 146.982 154.708 147.302 154.708C148.015 154.708 148.717 154.899 149.345 155.282V155.271Z" fill="white"/>
<path d="M138.361 158.291C139.692 156.09 139 153.218 136.797 151.889C134.594 150.559 131.72 151.261 130.389 153.452C129.74 154.516 129.549 155.771 129.847 156.983C130.145 158.196 130.89 159.217 131.954 159.866C132.401 160.142 132.891 160.334 133.391 160.44C133.721 160.514 134.051 160.546 134.37 160.546C135.977 160.546 137.499 159.717 138.361 158.302V158.291ZM136.424 152.506C138.287 153.633 138.872 156.069 137.744 157.919C137.201 158.823 136.328 159.451 135.307 159.706C134.285 159.951 133.221 159.791 132.327 159.249C131.422 158.706 130.794 157.834 130.538 156.813C130.294 155.792 130.453 154.728 130.996 153.835C132.124 151.974 134.551 151.389 136.414 152.516L136.424 152.506Z" fill="white"/>
<path d="M125.43 155.515C126.079 154.452 126.271 153.197 125.973 151.984C125.675 150.772 124.929 149.751 123.865 149.102C122.801 148.453 121.545 148.262 120.332 148.56C119.118 148.858 118.097 149.602 117.447 150.666C116.798 151.729 116.607 152.984 116.905 154.197C117.203 155.409 117.948 156.43 119.012 157.079C119.47 157.355 119.948 157.547 120.459 157.653C120.779 157.717 121.098 157.76 121.428 157.76C121.8 157.76 122.173 157.717 122.545 157.621C123.759 157.324 124.78 156.579 125.43 155.515ZM125.27 152.165C125.515 153.186 125.355 154.25 124.812 155.143C124.27 156.047 123.397 156.675 122.375 156.93C121.353 157.185 120.289 157.015 119.395 156.473C118.49 155.93 117.862 155.058 117.607 154.037C117.362 153.016 117.522 151.953 118.065 151.059C118.607 150.166 119.48 149.528 120.502 149.272C120.811 149.198 121.13 149.155 121.449 149.155C121.726 149.155 121.992 149.187 122.269 149.24C122.694 149.336 123.11 149.496 123.493 149.73C124.397 150.272 125.025 151.144 125.281 152.165H125.27Z" fill="white"/>
<path d="M60.815 141.668C61.4642 140.604 61.6558 139.349 61.3578 138.137C61.0598 136.924 60.3147 135.903 59.2504 135.254C58.1861 134.606 56.9302 134.414 55.7169 134.712C54.5036 135.01 53.4818 135.754 52.8326 136.818C52.1834 137.882 51.9918 139.137 52.2898 140.349C52.5878 141.561 53.3328 142.582 54.3971 143.231C54.8442 143.508 55.3337 143.699 55.8446 143.806C56.1639 143.869 56.4832 143.912 56.8131 143.912C57.1857 143.912 57.5582 143.869 57.9307 143.774C59.144 143.476 60.1657 142.731 60.815 141.668ZM60.6553 138.318C60.9001 139.339 60.7405 140.402 60.1977 141.296C59.6549 142.2 58.7821 142.827 57.7604 143.082C56.7386 143.338 55.6743 143.167 54.7803 142.625C53.8756 142.083 53.2477 141.21 52.9922 140.189C52.7474 139.168 52.9071 138.105 53.4499 137.211C53.9927 136.307 54.8654 135.68 55.8872 135.425C56.4726 135.276 57.0686 135.276 57.6433 135.393C58.0797 135.488 58.4841 135.648 58.8673 135.882C59.7719 136.424 60.3999 137.297 60.6553 138.318Z" fill="white"/>
<path d="M107.752 163.577C108.05 164.79 108.795 165.811 109.859 166.459C110.306 166.736 110.796 166.927 111.306 167.034C111.626 167.098 111.945 167.14 112.275 167.14C112.647 167.14 113.02 167.098 113.392 167.002C114.606 166.704 115.628 165.96 116.277 164.896C117.618 162.694 116.915 159.823 114.712 158.493C112.509 157.164 109.635 157.866 108.305 160.057C107.656 161.12 107.464 162.375 107.762 163.588L107.752 163.577ZM115.659 164.513C115.117 165.417 114.244 166.045 113.222 166.3C112.2 166.544 111.136 166.385 110.242 165.843C109.337 165.3 108.709 164.428 108.454 163.407C108.209 162.386 108.369 161.322 108.912 160.429C110.04 158.568 112.466 157.983 114.329 159.11C116.192 160.237 116.777 162.673 115.649 164.524L115.659 164.513Z" fill="white"/>
<path d="M96.8209 163.663C97.2679 163.939 97.7575 164.131 98.2577 164.237C98.5876 164.312 98.9176 164.344 99.2369 164.344C100.844 164.344 102.366 163.514 103.228 162.099C103.877 161.036 104.069 159.781 103.771 158.568C103.473 157.356 102.728 156.335 101.664 155.686C100.599 155.037 99.3433 154.846 98.13 155.144C96.9167 155.441 95.8949 156.186 95.2457 157.25C93.9153 159.451 94.6071 162.323 96.8102 163.652L96.8209 163.663ZM103.079 158.739C103.324 159.76 103.164 160.823 102.621 161.717C101.493 163.567 99.0666 164.163 97.204 163.035C95.3415 161.908 94.7561 159.472 95.8843 157.622C96.4271 156.718 97.2998 156.09 98.3216 155.835C98.9069 155.686 99.503 155.686 100.078 155.803C100.514 155.899 100.919 156.058 101.302 156.292C102.206 156.835 102.834 157.707 103.09 158.728L103.079 158.739Z" fill="white"/>
<path d="M81.6758 157.983C81.9738 159.195 82.7188 160.216 83.7831 160.865C84.2408 161.142 84.7197 161.333 85.2306 161.439C85.5499 161.503 85.8798 161.546 86.1991 161.546C86.5716 161.546 86.9442 161.503 87.3167 161.407C88.53 161.11 89.5517 160.365 90.201 159.302C90.8502 158.238 91.0418 156.983 90.7438 155.771C90.4458 154.558 89.7007 153.537 88.6364 152.888C87.5721 152.239 86.3162 152.048 85.1029 152.346C83.8896 152.644 82.8678 153.388 82.2186 154.452C81.5693 155.515 81.3778 156.77 81.6758 157.983ZM90.0413 155.941C90.2861 156.962 90.1265 158.025 89.5837 158.919C89.0409 159.823 88.1681 160.45 87.1464 160.706C86.1246 160.961 85.0603 160.791 84.1663 160.248C83.2616 159.706 82.6337 158.834 82.3782 157.813C82.1334 156.792 82.2931 155.728 82.8359 154.835C83.3787 153.931 84.2514 153.303 85.2732 153.048C85.5818 152.973 85.9011 152.931 86.2098 152.931C86.4865 152.931 86.7526 152.963 87.0293 153.016C87.455 153.112 87.8701 153.271 88.2533 153.505C89.1579 154.048 89.7859 154.92 90.0413 155.941Z" fill="white"/>
<path d="M68.6272 155.197C68.9252 156.409 69.6702 157.43 70.7345 158.079C71.1816 158.355 71.6711 158.547 72.182 158.653C72.5013 158.717 72.8206 158.76 73.1505 158.76C73.5231 158.76 73.8956 158.717 74.2681 158.621C75.4814 158.324 76.5031 157.579 77.1524 156.515C77.8016 155.452 77.9932 154.197 77.6952 152.984C77.3972 151.772 76.6521 150.751 75.5878 150.102C74.5235 149.453 73.2676 149.262 72.0543 149.56C70.841 149.858 69.8192 150.602 69.17 151.666C68.5208 152.729 68.3292 153.984 68.6272 155.197ZM76.9927 153.155C77.2375 154.176 77.0779 155.239 76.5351 156.133C75.9923 157.037 75.1195 157.664 74.0978 157.919C73.076 158.175 72.0117 158.004 71.1177 157.462C70.213 156.92 69.5851 156.048 69.3296 155.026C69.0848 154.005 69.2445 152.942 69.7873 152.048C70.3301 151.144 71.2028 150.517 72.2246 150.262C72.5332 150.187 72.8525 150.145 73.1718 150.145C73.4486 150.145 73.7146 150.177 73.9913 150.23C74.4171 150.325 74.8322 150.485 75.2153 150.719C76.12 151.261 76.7479 152.134 77.0034 153.155H76.9927Z" fill="white"/>
<path d="M146.886 171.958C147.184 173.17 147.93 174.191 148.994 174.84C149.441 175.106 149.93 175.308 150.431 175.415C150.761 175.489 151.08 175.521 151.41 175.521C153.017 175.521 154.539 174.691 155.401 173.277C156.731 171.075 156.04 168.204 153.836 166.874C151.633 165.545 148.76 166.247 147.429 168.438C146.78 169.501 146.588 170.756 146.886 171.969V171.958ZM152.357 174.681C151.335 174.925 150.271 174.766 149.377 174.223C148.472 173.681 147.844 172.809 147.589 171.788C147.344 170.767 147.504 169.703 148.047 168.81C148.589 167.916 149.462 167.278 150.484 167.034C150.793 166.959 151.112 166.917 151.431 166.917C152.144 166.917 152.847 167.108 153.475 167.491C155.337 168.618 155.923 171.054 154.794 172.905C154.252 173.809 153.379 174.436 152.357 174.691V174.681Z" fill="white"/>
<path d="M133.838 169.161C134.136 170.374 134.881 171.395 135.945 172.043C136.392 172.32 136.882 172.511 137.382 172.618C137.712 172.692 138.042 172.724 138.361 172.724C139.968 172.724 141.49 171.894 142.352 170.48C143.683 168.278 142.98 165.407 140.788 164.077C138.585 162.748 135.711 163.45 134.381 165.641C133.731 166.704 133.54 167.959 133.838 169.172V169.161ZM139.298 171.884C138.276 172.128 137.212 171.969 136.318 171.427C135.413 170.884 134.785 170.012 134.53 168.991C134.285 167.97 134.445 166.906 134.987 166.013C136.116 164.152 138.553 163.567 140.405 164.694C142.267 165.821 142.853 168.257 141.724 170.108C141.182 171.012 140.309 171.639 139.287 171.894L139.298 171.884Z" fill="white"/>
<path d="M120.8 166.374C121.098 167.587 121.843 168.608 122.907 169.257C123.354 169.533 123.844 169.725 124.355 169.831C124.674 169.895 124.993 169.937 125.323 169.937C125.696 169.937 126.068 169.895 126.441 169.799C127.654 169.501 128.676 168.757 129.325 167.693C129.974 166.63 130.166 165.375 129.868 164.162C129.57 162.95 128.825 161.929 127.761 161.28C126.696 160.631 125.44 160.44 124.227 160.737C123.014 161.035 121.992 161.78 121.343 162.843C120.694 163.907 120.502 165.162 120.8 166.374ZM129.166 164.332C129.41 165.353 129.251 166.417 128.708 167.31C128.165 168.214 127.292 168.842 126.271 169.097C125.249 169.352 124.185 169.182 123.291 168.64C122.386 168.097 121.758 167.225 121.502 166.204C121.247 165.183 121.417 164.12 121.96 163.226C122.503 162.333 123.376 161.695 124.397 161.439C124.983 161.291 125.579 161.29 126.154 161.407C126.579 161.503 126.994 161.663 127.378 161.897C128.282 162.45 128.91 163.311 129.166 164.332Z" fill="white"/>
<path d="M55.5894 152.399C55.8874 153.611 56.6324 154.632 57.6967 155.281C58.1544 155.558 58.6333 155.749 59.1442 155.855C59.4635 155.919 59.7828 155.962 60.1127 155.962C60.4852 155.962 60.8577 155.919 61.2302 155.823C62.4436 155.526 63.4653 154.781 64.1145 153.718C64.7638 152.654 64.9553 151.399 64.6573 150.187C64.3593 148.974 63.6143 147.953 62.55 147.304C61.4857 146.656 60.2298 146.464 59.0165 146.762C57.8031 147.06 56.7814 147.804 56.1322 148.868C55.4829 149.931 55.2913 151.186 55.5894 152.399ZM63.9549 150.357C64.1997 151.378 64.04 152.441 63.4972 153.335C62.9544 154.239 62.0817 154.866 61.0599 155.122C60.0382 155.377 58.9739 155.207 58.0799 154.664C57.1752 154.122 56.5472 153.25 56.2918 152.229C56.047 151.208 56.2067 150.144 56.7495 149.251C57.2923 148.347 58.165 147.719 59.1867 147.464C59.7721 147.315 60.3681 147.315 60.9429 147.432C61.3686 147.528 61.7837 147.687 62.1668 147.921C63.0715 148.464 63.6995 149.336 63.9549 150.357Z" fill="white"/>
<path d="M42.5408 149.602C42.8388 150.814 43.5838 151.835 44.6481 152.484C45.1058 152.761 45.5847 152.952 46.0956 153.059C46.4149 153.133 46.7342 153.165 47.0641 153.165C47.4366 153.165 47.8091 153.122 48.1817 153.027C49.395 152.729 50.4167 151.984 51.0659 150.921C51.7152 149.857 51.9068 148.602 51.6088 147.39C51.3107 146.177 50.5657 145.156 49.5014 144.507C48.4371 143.859 47.1812 143.667 45.9679 143.965C44.7545 144.263 43.7328 145.007 43.0836 146.071C42.4343 147.134 42.2428 148.389 42.5408 149.602ZM50.9063 147.56C51.1511 148.581 50.9914 149.644 50.4486 150.538C49.9058 151.431 49.0331 152.069 48.0114 152.325C46.9896 152.58 45.9253 152.41 45.0313 151.867C44.1266 151.325 43.4987 150.453 43.2432 149.432C42.9984 148.411 43.1581 147.347 43.7009 146.454C44.2437 145.56 45.1164 144.922 46.1382 144.667C46.4468 144.593 46.7661 144.55 47.0854 144.55C47.3621 144.55 47.6282 144.582 47.9049 144.635C48.3307 144.731 48.7457 144.89 49.1289 145.124C50.0336 145.667 50.6615 146.539 50.9169 147.56H50.9063Z" fill="white"/>
<path d="M112.488 172.277C111.838 173.341 111.647 174.596 111.945 175.809C112.243 177.021 112.988 178.042 114.052 178.691C114.499 178.967 114.989 179.159 115.5 179.265C115.819 179.329 116.138 179.372 116.468 179.372C116.841 179.372 117.213 179.329 117.586 179.233C118.799 178.935 119.821 178.191 120.47 177.127C121.8 174.926 121.109 172.054 118.905 170.725C116.702 169.395 113.829 170.097 112.498 172.288L112.488 172.277ZM118.522 171.331C120.385 172.458 120.97 174.894 119.842 176.745C119.299 177.649 118.427 178.276 117.405 178.531C116.383 178.787 115.319 178.616 114.425 178.074C113.52 177.532 112.892 176.659 112.637 175.638C112.392 174.617 112.551 173.554 113.094 172.66C114.222 170.799 116.649 170.214 118.512 171.342L118.522 171.331Z" fill="white"/>
<path d="M99.4391 169.48C98.0981 171.682 98.8005 174.553 101.004 175.883C101.451 176.149 101.94 176.351 102.441 176.457C102.77 176.531 103.1 176.563 103.42 176.563C105.027 176.563 106.549 175.734 107.411 174.319C108.06 173.256 108.252 172.001 107.954 170.788C107.656 169.576 106.911 168.555 105.846 167.906C104.782 167.257 103.526 167.066 102.313 167.363C101.099 167.661 100.078 168.406 99.4285 169.469L99.4391 169.48ZM107.262 170.969C107.507 171.99 107.347 173.054 106.804 173.947C105.676 175.798 103.249 176.393 101.387 175.266C99.5243 174.138 98.9389 171.703 100.067 169.852C100.61 168.948 101.483 168.321 102.504 168.065C102.813 167.991 103.132 167.948 103.452 167.948C103.728 167.948 103.994 167.98 104.271 168.033C104.697 168.129 105.112 168.289 105.495 168.523C106.4 169.065 107.028 169.937 107.283 170.958L107.262 170.969Z" fill="white"/>
<path d="M86.4012 166.694C85.752 167.757 85.5604 169.013 85.8584 170.225C86.1564 171.437 86.9014 172.458 87.9657 173.107C88.4128 173.384 88.9023 173.575 89.4132 173.682C89.7325 173.745 90.0518 173.788 90.3817 173.788C90.7543 173.788 91.1268 173.745 91.4993 173.65C92.7126 173.352 93.7343 172.607 94.3836 171.544C95.0328 170.48 95.2244 169.225 94.9264 168.013C94.6284 166.8 93.8833 165.779 92.819 165.13C91.7547 164.482 90.4988 164.29 89.2855 164.588C88.0722 164.886 87.0504 165.63 86.4012 166.694ZM94.2239 168.183C94.4687 169.204 94.3091 170.268 93.7663 171.161C93.2235 172.065 92.3507 172.692 91.329 172.948C90.3072 173.192 89.2429 173.033 88.3489 172.49C87.4442 171.948 86.8163 171.076 86.5608 170.055C86.3161 169.034 86.4757 167.97 87.0185 167.077C87.5613 166.173 88.434 165.545 89.4558 165.29C89.7644 165.216 90.0837 165.173 90.403 165.173C90.6798 165.173 90.9458 165.205 91.2226 165.258C91.6483 165.354 92.0634 165.513 92.4465 165.747C93.3512 166.29 93.9791 167.162 94.2346 168.183H94.2239Z" fill="white"/>
<path d="M73.3634 163.896C72.7141 164.96 72.5225 166.215 72.8206 167.427C73.1186 168.64 73.8636 169.661 74.9279 170.309C75.3749 170.586 75.8645 170.777 76.3754 170.884C76.6947 170.948 77.014 170.99 77.3439 170.99C77.7164 170.99 78.0889 170.948 78.4614 170.852C79.6748 170.554 80.6965 169.81 81.3457 168.746C81.995 167.682 82.1866 166.427 81.8885 165.215C81.5905 164.002 80.8455 162.981 79.7812 162.333C78.7169 161.684 77.461 161.492 76.2477 161.79C75.0343 162.088 74.0126 162.832 73.3634 163.896ZM81.1861 165.385C81.4309 166.406 81.2712 167.47 80.7284 168.363C80.1856 169.267 79.3129 169.895 78.2911 170.15C77.2694 170.394 76.2051 170.235 75.3111 169.693C74.4064 169.15 73.7784 168.278 73.523 167.257C73.2782 166.236 73.4379 165.172 73.9807 164.279C74.5235 163.375 75.3962 162.747 76.418 162.492C77.0033 162.343 77.5993 162.343 78.1741 162.46C78.5998 162.556 79.0149 162.716 79.398 162.949C80.3027 163.492 80.9307 164.364 81.1861 165.385Z" fill="white"/>
<path d="M151.612 180.669C150.963 181.733 150.771 182.988 151.069 184.2C151.367 185.413 152.112 186.434 153.176 187.082C153.623 187.348 154.102 187.55 154.613 187.657C154.943 187.731 155.273 187.763 155.592 187.763C157.2 187.763 158.722 186.934 159.584 185.519C160.914 183.317 160.222 180.446 158.019 179.116C155.816 177.787 152.942 178.489 151.612 180.68V180.669ZM156.54 186.923C155.518 187.168 154.454 187.008 153.56 186.466C152.655 185.923 152.027 185.051 151.772 184.03C151.527 183.009 151.686 181.945 152.229 181.052C152.772 180.159 153.645 179.52 154.666 179.276C154.975 179.201 155.294 179.159 155.614 179.159C156.327 179.159 157.029 179.35 157.657 179.733C159.52 180.861 160.105 183.296 158.977 185.147C158.434 186.04 157.561 186.678 156.54 186.934V186.923Z" fill="white"/>
<path d="M138.574 177.872C137.925 178.936 137.733 180.191 138.031 181.403C138.329 182.616 139.074 183.637 140.139 184.286C140.586 184.562 141.075 184.754 141.575 184.86C141.905 184.934 142.235 184.966 142.555 184.966C144.162 184.966 145.684 184.137 146.546 182.722C147.876 180.521 147.174 177.649 144.981 176.319C142.778 174.99 139.904 175.692 138.574 177.883V177.872ZM143.491 184.126C142.469 184.371 141.405 184.211 140.511 183.669C139.606 183.126 138.978 182.254 138.723 181.233C138.478 180.212 138.638 179.149 139.181 178.255C139.926 177.032 141.224 176.362 142.555 176.362C143.257 176.362 143.959 176.543 144.598 176.936C145.492 177.479 146.131 178.351 146.375 179.372C146.631 180.393 146.461 181.456 145.918 182.35C145.375 183.254 144.502 183.881 143.481 184.137L143.491 184.126Z" fill="white"/>
<path d="M125.525 175.075C124.876 176.138 124.685 177.393 124.983 178.606C125.281 179.818 126.026 180.839 127.09 181.488C127.548 181.765 128.027 181.956 128.537 182.062C128.857 182.126 129.176 182.169 129.506 182.169C129.879 182.169 130.251 182.126 130.624 182.031C131.837 181.733 132.859 180.988 133.508 179.925C134.157 178.861 134.349 177.606 134.051 176.394C133.753 175.181 133.008 174.16 131.943 173.511C130.879 172.863 129.623 172.671 128.41 172.969C127.196 173.267 126.175 174.011 125.525 175.075ZM133.348 176.564C133.593 177.585 133.433 178.648 132.891 179.542C132.348 180.446 131.475 181.073 130.453 181.329C129.432 181.584 128.367 181.414 127.473 180.871C126.568 180.329 125.941 179.457 125.685 178.436C125.44 177.415 125.6 176.351 126.143 175.458C126.686 174.554 127.558 173.926 128.58 173.671C128.899 173.596 129.208 173.554 129.527 173.554C129.804 173.554 130.07 173.586 130.347 173.639C130.773 173.735 131.188 173.894 131.571 174.128C132.475 174.671 133.103 175.543 133.359 176.564H133.348Z" fill="white"/>
<path d="M60.3148 161.099C59.6655 162.163 59.474 163.418 59.772 164.63C60.07 165.843 60.815 166.864 61.8793 167.513C62.337 167.789 62.8159 167.981 63.3268 168.087C63.6461 168.151 63.9654 168.193 64.2953 168.193C64.6678 168.193 65.0403 168.151 65.4129 168.055C66.6262 167.757 67.6479 167.013 68.2972 165.949C68.9464 164.885 69.138 163.63 68.84 162.418C68.5419 161.206 67.7969 160.185 66.7326 159.536C65.6683 158.887 64.4124 158.696 63.1991 158.993C61.9858 159.291 60.964 160.036 60.3148 161.099ZM68.1375 162.588C68.3823 163.609 68.2227 164.673 67.6798 165.566C67.137 166.46 66.2643 167.098 65.2426 167.353C64.2208 167.608 63.1565 167.438 62.2625 166.896C61.3578 166.353 60.7299 165.481 60.4744 164.46C60.2296 163.439 60.3893 162.375 60.9321 161.482C61.4749 160.578 62.3476 159.951 63.3694 159.695C63.678 159.621 63.9973 159.578 64.3166 159.578C64.5933 159.578 64.8594 159.61 65.1361 159.663C65.5619 159.759 65.9769 159.919 66.3601 160.153C67.2648 160.695 67.8927 161.567 68.1481 162.588H68.1375Z" fill="white"/>
<path d="M47.2769 158.302C46.6277 159.366 46.4361 160.621 46.7341 161.833C47.0321 163.046 47.7772 164.067 48.8415 164.716C49.2885 164.992 49.7781 165.184 50.2889 165.29C50.6082 165.354 50.9275 165.396 51.2575 165.396C51.63 165.396 52.0025 165.354 52.375 165.258C53.5883 164.96 54.6101 164.216 55.2593 163.152C55.9085 162.089 56.1001 160.834 55.8021 159.621C55.5041 158.409 54.7591 157.388 53.6948 156.739C52.6304 156.09 51.3746 155.899 50.1612 156.196C48.9479 156.494 47.9262 157.239 47.2769 158.302ZM55.0997 159.791C55.3445 160.812 55.1848 161.876 54.642 162.769C54.0992 163.673 53.2265 164.301 52.2047 164.556C51.183 164.811 50.1187 164.641 49.2246 164.099C48.32 163.556 47.692 162.684 47.4366 161.663C47.1918 160.642 47.3514 159.579 47.8942 158.685C48.437 157.792 49.3098 157.154 50.3315 156.898C50.6402 156.824 50.9595 156.781 51.2788 156.781C51.5555 156.781 51.8216 156.813 52.0983 156.866C52.524 156.962 52.9391 157.122 53.3223 157.356C54.2269 157.898 54.8549 158.77 55.1103 159.791H55.0997Z" fill="white"/>
<path d="M156.04 182.818H154.965C154.667 182.796 154.432 182.552 154.443 182.265C154.443 181.977 154.688 181.743 154.975 181.743H156.05C156.348 181.765 156.582 181.999 156.572 182.296C156.572 182.584 156.327 182.818 156.04 182.818ZM161.372 182.818C161.084 182.818 160.84 182.584 160.84 182.296C160.84 181.999 161.063 181.765 161.361 181.754L162.426 181.733C162.713 181.701 162.958 181.956 162.968 182.254C162.979 182.552 162.745 182.786 162.447 182.796L161.393 182.818H161.372ZM149.654 182.658H149.632L148.568 182.605C148.27 182.594 148.047 182.339 148.068 182.052C148.079 181.754 148.334 181.509 148.621 181.552L149.675 181.594C149.973 181.605 150.197 181.85 150.186 182.148C150.175 182.435 149.941 182.658 149.654 182.658ZM167.768 182.637C167.481 182.637 167.236 182.413 167.226 182.126C167.215 181.828 167.428 181.584 167.726 181.573L168.79 181.531C169.088 181.488 169.333 181.743 169.344 182.041C169.354 182.339 169.131 182.584 168.833 182.594L167.79 182.637H167.768ZM143.278 182.286C143.278 182.286 143.247 182.286 143.236 182.286L142.172 182.201C141.874 182.179 141.661 181.924 141.682 181.626C141.703 181.329 141.959 181.127 142.257 181.137L143.31 181.222C143.608 181.244 143.821 181.499 143.8 181.797C143.779 182.073 143.545 182.286 143.268 182.286H143.278ZM174.133 182.275C173.856 182.275 173.622 182.062 173.601 181.786C173.58 181.488 173.803 181.244 174.09 181.222L175.144 181.148L175.229 182.211L174.165 182.286C174.165 182.286 174.144 182.286 174.122 182.286L174.133 182.275ZM180.508 181.722C180.242 181.722 180.008 181.52 179.976 181.244C179.944 180.956 180.157 180.69 180.455 180.659L181.509 180.552C181.796 180.52 182.062 180.733 182.094 181.02C182.126 181.307 181.913 181.573 181.626 181.605L180.561 181.712C180.561 181.712 180.53 181.712 180.508 181.712V181.722ZM136.924 181.712C136.924 181.712 136.882 181.712 136.861 181.712L135.796 181.584C135.509 181.552 135.296 181.286 135.328 180.999C135.36 180.712 135.626 180.488 135.924 180.531L136.978 180.648C137.265 180.68 137.478 180.946 137.446 181.233C137.414 181.499 137.191 181.701 136.914 181.701L136.924 181.712ZM186.852 180.978C186.586 180.978 186.362 180.786 186.33 180.52C186.288 180.233 186.5 179.957 186.788 179.925L187.841 179.786C188.129 179.744 188.405 179.946 188.437 180.244C188.469 180.542 188.278 180.807 187.98 180.839L186.926 180.988C186.926 180.988 186.884 180.988 186.852 180.988V180.978ZM130.592 180.882C130.592 180.882 130.539 180.882 130.507 180.882L129.453 180.712C129.166 180.669 128.963 180.393 129.017 180.105C129.059 179.818 129.336 179.606 129.623 179.669L130.666 179.829C130.954 179.872 131.156 180.148 131.113 180.435C131.071 180.701 130.847 180.882 130.592 180.882ZM193.163 180.02C192.908 180.02 192.684 179.84 192.641 179.574C192.588 179.287 192.79 179.01 193.078 178.957L194.121 178.776C194.408 178.723 194.685 178.914 194.738 179.212C194.791 179.499 194.6 179.776 194.302 179.829L193.248 180.01C193.248 180.01 193.184 180.01 193.163 180.01V180.02ZM124.312 179.765C124.312 179.765 124.238 179.765 124.206 179.765L123.163 179.542C122.875 179.478 122.695 179.201 122.758 178.914C122.822 178.627 123.099 178.457 123.386 178.51L124.419 178.723C124.706 178.787 124.887 179.063 124.834 179.35C124.781 179.606 124.557 179.776 124.312 179.776V179.765ZM199.442 178.84C199.198 178.84 198.974 178.67 198.921 178.414C198.857 178.127 199.049 177.84 199.336 177.787L200.379 177.564C200.666 177.5 200.954 177.681 201.007 177.968C201.071 178.255 200.89 178.542 200.603 178.595L199.56 178.819C199.56 178.819 199.485 178.829 199.453 178.829L199.442 178.84ZM118.097 178.276C118.097 178.276 118.001 178.276 117.958 178.255C117.618 178.159 117.267 178.063 116.926 177.957C116.649 177.872 116.49 177.574 116.564 177.298C116.639 177.021 116.947 176.851 117.224 176.947C117.565 177.042 117.894 177.149 118.235 177.234C118.522 177.308 118.682 177.606 118.608 177.893C118.544 178.127 118.331 178.287 118.097 178.287V178.276ZM205.669 177.415C205.435 177.415 205.211 177.255 205.158 177.011C205.083 176.723 205.264 176.436 205.541 176.362L206.573 176.096C206.861 176.021 207.148 176.192 207.223 176.479C207.297 176.766 207.127 177.053 206.839 177.128L205.807 177.393C205.807 177.393 205.722 177.404 205.679 177.404L205.669 177.415ZM112.03 176.287C111.966 176.287 111.902 176.277 111.839 176.255C111.509 176.128 111.168 176 110.838 175.872C110.561 175.766 110.434 175.458 110.54 175.181C110.646 174.905 110.955 174.777 111.232 174.883C111.562 175.011 111.892 175.139 112.222 175.266C112.498 175.373 112.637 175.681 112.53 175.947C112.445 176.16 112.243 176.287 112.03 176.287ZM211.831 175.734C211.597 175.734 211.395 175.585 211.32 175.351C211.235 175.075 211.395 174.777 211.682 174.692L212.693 174.383C212.97 174.288 213.268 174.458 213.353 174.734C213.438 175.011 213.279 175.309 213.002 175.394L211.98 175.702C211.98 175.702 211.874 175.724 211.831 175.724V175.734ZM106.166 173.777C106.091 173.777 106.006 173.756 105.932 173.724C105.612 173.565 105.293 173.416 104.974 173.256C104.708 173.128 104.601 172.809 104.74 172.543C104.867 172.278 105.187 172.171 105.453 172.31C105.772 172.469 106.081 172.618 106.4 172.777C106.666 172.905 106.772 173.224 106.645 173.49C106.549 173.682 106.368 173.788 106.166 173.788V173.777ZM217.908 173.756C217.685 173.756 217.483 173.618 217.408 173.405C217.312 173.128 217.451 172.82 217.727 172.724C218.057 172.607 218.398 172.49 218.728 172.363C219.005 172.267 219.313 172.405 219.409 172.682C219.505 172.958 219.366 173.267 219.09 173.362C218.76 173.479 218.419 173.607 218.079 173.724C218.015 173.745 217.962 173.756 217.898 173.756H217.908ZM223.869 171.448C223.666 171.448 223.464 171.331 223.379 171.129C223.262 170.863 223.39 170.544 223.656 170.427L224.624 170.012C224.89 169.895 225.21 170.012 225.327 170.289C225.444 170.555 225.327 170.874 225.05 170.991L224.071 171.416C224.007 171.448 223.932 171.459 223.858 171.459L223.869 171.448ZM100.546 170.757C100.45 170.757 100.365 170.735 100.28 170.682C99.9714 170.501 99.6627 170.31 99.3541 170.129C99.1093 169.97 99.0241 169.651 99.1838 169.395C99.3328 169.151 99.6627 169.076 99.9182 169.225C100.216 169.406 100.525 169.597 100.823 169.778C101.078 169.927 101.163 170.257 101.004 170.512C100.908 170.682 100.727 170.767 100.546 170.767V170.757ZM229.658 168.757C229.467 168.757 229.275 168.651 229.179 168.47C229.041 168.204 229.148 167.885 229.414 167.757C229.733 167.598 230.042 167.438 230.35 167.268C230.606 167.13 230.936 167.236 231.074 167.492C231.212 167.757 231.106 168.076 230.85 168.204C230.531 168.374 230.223 168.534 229.903 168.693C229.829 168.736 229.744 168.747 229.658 168.747V168.757ZM95.2032 167.258C95.0968 167.258 94.9904 167.226 94.8946 167.162C94.6072 166.949 94.3092 166.736 94.0218 166.524C93.7877 166.343 93.7345 166.013 93.9154 165.779C94.0964 165.545 94.4263 165.492 94.6604 165.673C94.9478 165.886 95.2245 166.088 95.5119 166.3C95.746 166.47 95.7993 166.8 95.629 167.045C95.5225 167.194 95.3629 167.268 95.1926 167.268L95.2032 167.258ZM235.225 165.63C235.044 165.63 234.874 165.545 234.778 165.375C234.618 165.13 234.703 164.801 234.948 164.641C235.246 164.46 235.544 164.269 235.842 164.077C236.087 163.918 236.417 163.992 236.576 164.237C236.736 164.482 236.662 164.811 236.417 164.971C236.119 165.162 235.81 165.354 235.512 165.545C235.427 165.598 235.331 165.63 235.235 165.63H235.225ZM90.1903 163.301C90.0626 163.301 89.9455 163.258 89.8391 163.173C89.573 162.939 89.2963 162.705 89.0302 162.471C88.8067 162.28 88.7961 161.94 88.9876 161.716C89.1792 161.493 89.5198 161.482 89.7433 161.674C90.0094 161.908 90.2755 162.142 90.5415 162.365C90.765 162.557 90.7863 162.897 90.5948 163.12C90.4883 163.248 90.3393 163.301 90.1903 163.301ZM240.461 161.993C240.302 161.993 240.142 161.918 240.036 161.791C239.855 161.557 239.897 161.227 240.131 161.046C240.408 160.834 240.685 160.61 240.961 160.387C241.185 160.206 241.526 160.238 241.706 160.461C241.887 160.685 241.855 161.025 241.632 161.206C241.355 161.429 241.079 161.653 240.791 161.876C240.695 161.95 240.578 161.993 240.461 161.993ZM85.5392 158.919C85.4009 158.919 85.2625 158.866 85.1561 158.76C84.9113 158.504 84.6559 158.249 84.4111 157.983C84.2088 157.77 84.2195 157.43 84.4324 157.228C84.6452 157.026 84.9858 157.037 85.188 157.249C85.4328 157.505 85.6776 157.76 85.9224 158.015C86.1246 158.228 86.1246 158.558 85.9118 158.77C85.8053 158.866 85.6776 158.919 85.5392 158.919ZM245.24 157.77C245.102 157.77 244.974 157.717 244.868 157.611C244.655 157.409 244.655 157.069 244.868 156.856C245.112 156.611 245.357 156.356 245.602 156.101C245.804 155.888 246.145 155.877 246.358 156.079C246.57 156.281 246.581 156.622 246.379 156.835C246.134 157.09 245.879 157.356 245.634 157.611C245.527 157.717 245.389 157.77 245.261 157.77H245.24ZM81.2926 154.154C81.1436 154.154 80.984 154.09 80.8775 153.963C80.654 153.686 80.4305 153.41 80.207 153.123C80.0261 152.889 80.058 152.559 80.2922 152.378C80.5263 152.197 80.8562 152.229 81.0372 152.463C81.2607 152.74 81.4736 153.016 81.6971 153.282C81.878 153.506 81.8461 153.846 81.6226 154.027C81.5268 154.112 81.3991 154.144 81.282 154.144L81.2926 154.154ZM249.38 152.921C249.274 152.921 249.167 152.889 249.072 152.825C248.837 152.655 248.784 152.325 248.954 152.08C249.157 151.793 249.359 151.506 249.561 151.219C249.731 150.974 250.061 150.91 250.296 151.081C250.54 151.251 250.604 151.58 250.434 151.825C250.232 152.123 250.029 152.41 249.817 152.708C249.71 152.846 249.551 152.931 249.38 152.931V152.921ZM77.4717 149.049C77.3014 149.049 77.1311 148.964 77.0353 148.815C76.8331 148.517 76.6309 148.22 76.4393 147.932C76.2797 147.688 76.3435 147.358 76.5883 147.199C76.8331 147.039 77.1631 147.103 77.3227 147.347C77.5143 147.645 77.7165 147.932 77.9081 148.22C78.0784 148.464 78.0145 148.794 77.7697 148.964C77.6739 149.028 77.5782 149.06 77.4717 149.06V149.049ZM252.648 147.464C252.573 147.464 252.488 147.443 252.414 147.411C252.147 147.284 252.041 146.965 252.158 146.699C252.307 146.39 252.456 146.071 252.594 145.752C252.712 145.486 253.031 145.359 253.297 145.476C253.563 145.593 253.691 145.912 253.574 146.178C253.425 146.507 253.276 146.837 253.127 147.156C253.031 147.347 252.85 147.454 252.648 147.454V147.464ZM74.0872 143.646C73.9063 143.646 73.7253 143.55 73.6189 143.38C73.438 143.072 73.2677 142.763 73.0974 142.444C72.959 142.189 73.0548 141.859 73.3102 141.721C73.5657 141.572 73.8956 141.679 74.034 141.934C74.2043 142.242 74.3746 142.551 74.5448 142.859C74.6939 143.114 74.5981 143.434 74.3426 143.582C74.2575 143.625 74.1723 143.646 74.0765 143.646H74.0872ZM254.819 141.498C254.819 141.498 254.734 141.498 254.691 141.477C254.404 141.402 254.234 141.115 254.308 140.828L254.393 140.509C254.446 140.275 254.51 140.041 254.553 139.807C254.617 139.52 254.904 139.339 255.191 139.403C255.479 139.466 255.66 139.754 255.596 140.041C255.543 140.285 255.489 140.519 255.426 140.764L255.34 141.094C255.277 141.338 255.064 141.498 254.83 141.498H254.819ZM71.171 137.967C70.9687 137.967 70.7772 137.85 70.692 137.658C70.543 137.339 70.394 137.01 70.2557 136.68C70.1386 136.414 70.2557 136.095 70.5217 135.978C70.7878 135.861 71.1071 135.978 71.2242 136.244C71.3625 136.563 71.5115 136.882 71.6606 137.201C71.7883 137.467 71.6605 137.786 71.4051 137.903C71.3306 137.935 71.2561 137.956 71.1816 137.956L71.171 137.967ZM255.819 135.201C255.819 135.201 255.798 135.201 255.787 135.201C255.489 135.18 255.277 134.925 255.287 134.638C255.308 134.287 255.33 133.936 255.34 133.595C255.351 133.298 255.596 133.064 255.894 133.085C256.192 133.096 256.415 133.34 256.405 133.638C256.394 134 256.373 134.361 256.351 134.712C256.33 134.989 256.096 135.212 255.819 135.212V135.201ZM68.7443 132.064C68.5315 132.064 68.3186 131.926 68.2441 131.713C68.127 131.373 67.9993 131.043 67.8822 130.703C67.7864 130.426 67.9354 130.118 68.2122 130.022C68.4889 129.926 68.7975 130.075 68.8933 130.352C69.0104 130.681 69.1275 131.011 69.2445 131.341C69.3403 131.617 69.202 131.926 68.9253 132.021C68.8614 132.043 68.8082 132.053 68.7443 132.053V132.064ZM255.713 128.82C255.447 128.82 255.213 128.618 255.181 128.341C255.149 127.99 255.106 127.65 255.064 127.299C255.032 127.012 255.234 126.746 255.532 126.704C255.819 126.661 256.085 126.874 256.128 127.171C256.171 127.533 256.213 127.884 256.245 128.246C256.277 128.543 256.053 128.799 255.766 128.831C255.745 128.831 255.734 128.831 255.713 128.831V128.82ZM66.8286 125.98C66.5944 125.98 66.3815 125.821 66.3177 125.587C66.2219 125.246 66.1367 124.895 66.041 124.555C65.9665 124.268 66.1367 123.981 66.4241 123.906C66.7115 123.842 66.9988 124.002 67.0733 124.289C67.1585 124.63 67.2543 124.97 67.3394 125.31C67.4139 125.597 67.2436 125.885 66.9669 125.959C66.9243 125.97 66.8711 125.98 66.8286 125.98ZM254.681 122.534C254.436 122.534 254.223 122.364 254.159 122.12C254.085 121.779 253.999 121.439 253.914 121.098C253.84 120.811 254.01 120.524 254.297 120.45C254.585 120.375 254.872 120.545 254.947 120.833C255.032 121.184 255.117 121.535 255.202 121.875C255.266 122.162 255.096 122.449 254.808 122.513C254.766 122.513 254.723 122.524 254.691 122.524L254.681 122.534ZM65.4237 119.758C65.1682 119.758 64.9447 119.578 64.9021 119.322C64.8383 118.971 64.7744 118.62 64.7212 118.269C64.668 117.982 64.8702 117.706 65.1576 117.653C65.4449 117.599 65.7217 117.801 65.7749 118.089C65.8281 118.44 65.892 118.78 65.9558 119.12C66.009 119.407 65.8174 119.684 65.5301 119.737C65.4982 119.737 65.4662 119.737 65.4343 119.737L65.4237 119.758ZM252.892 116.408C252.669 116.408 252.467 116.27 252.392 116.057C252.275 115.727 252.158 115.398 252.03 115.068C251.924 114.792 252.073 114.483 252.35 114.387C252.626 114.281 252.935 114.43 253.031 114.706C253.159 115.047 253.276 115.376 253.393 115.717C253.488 115.993 253.339 116.302 253.063 116.397C253.01 116.419 252.946 116.429 252.882 116.429L252.892 116.408ZM64.5403 113.451C64.2742 113.451 64.04 113.249 64.0081 112.973C63.9762 112.622 63.9442 112.26 63.9123 111.909C63.891 111.611 64.1039 111.356 64.4019 111.335C64.6999 111.303 64.9554 111.526 64.9766 111.824C65.0086 112.175 65.0405 112.526 65.0724 112.877C65.1044 113.164 64.8915 113.43 64.5935 113.462C64.5722 113.462 64.5616 113.462 64.5403 113.462V113.451ZM250.508 110.495C250.306 110.495 250.115 110.378 250.019 110.186C249.87 109.867 249.731 109.548 249.572 109.229C249.444 108.963 249.572 108.644 249.827 108.516C250.093 108.389 250.413 108.516 250.54 108.772C250.689 109.101 250.838 109.42 250.987 109.75C251.104 110.016 250.987 110.335 250.721 110.452C250.647 110.484 250.572 110.495 250.498 110.495H250.508ZM64.1784 107.081C63.891 107.081 63.6462 106.847 63.6462 106.559C63.6462 106.208 63.6462 105.847 63.6462 105.485C63.6462 105.187 63.8804 104.953 64.1784 104.953C64.4764 104.953 64.7106 105.187 64.7106 105.485C64.7106 105.836 64.7106 106.187 64.7106 106.538C64.7106 106.836 64.4764 107.07 64.189 107.081H64.1784ZM247.656 104.783C247.464 104.783 247.284 104.688 247.188 104.507L246.677 103.581C246.538 103.326 246.624 102.996 246.879 102.858C247.135 102.72 247.464 102.805 247.603 103.06L248.124 103.996C248.263 104.251 248.167 104.581 247.911 104.719C247.826 104.762 247.741 104.783 247.656 104.783ZM64.3593 100.71C64.3593 100.71 64.338 100.71 64.3274 100.71C64.0294 100.689 63.8165 100.433 63.8378 100.146C63.8591 99.7951 63.891 99.4335 63.923 99.0825C63.9443 98.7847 64.1997 98.5827 64.4977 98.5933C64.7957 98.6146 65.0086 98.8698 64.9873 99.1676C64.9554 99.5186 64.9341 99.8696 64.9128 100.221C64.8915 100.497 64.6573 100.72 64.3806 100.72L64.3593 100.71ZM244.42 99.2846C244.24 99.2846 244.069 99.1995 243.973 99.04L243.409 98.1466C243.25 97.902 243.324 97.5723 243.569 97.4127C243.814 97.2532 244.144 97.3276 244.303 97.5723L244.878 98.4763C245.038 98.7209 244.963 99.0506 244.708 99.2102C244.623 99.2633 244.527 99.2952 244.42 99.2952V99.2846ZM65.0511 94.3709C65.0511 94.3709 64.9979 94.3709 64.966 94.3709C64.6786 94.3284 64.4764 94.0518 64.519 93.7647C64.5722 93.4137 64.6254 93.0627 64.6893 92.7117C64.7425 92.4246 65.0086 92.2225 65.3066 92.2757C65.5939 92.3182 65.7962 92.5947 65.7429 92.8925C65.6897 93.2435 65.6259 93.5839 65.5727 93.9348C65.5301 94.2007 65.3066 94.3815 65.0511 94.3815V94.3709ZM240.866 93.9774C240.695 93.9774 240.536 93.9029 240.429 93.754L239.812 92.8925C239.642 92.6586 239.695 92.3182 239.929 92.148C240.163 91.9779 240.504 92.031 240.674 92.265L241.291 93.1372C241.462 93.3818 241.408 93.7115 241.164 93.8817C241.068 93.9455 240.961 93.9774 240.855 93.9774H240.866ZM237.055 88.851C236.896 88.851 236.736 88.7765 236.64 88.6489L235.98 87.8193C235.8 87.5853 235.842 87.2556 236.066 87.0748C236.3 86.894 236.63 86.9365 236.811 87.1599L237.471 88.0001C237.651 88.2341 237.609 88.5638 237.375 88.7446C237.279 88.8191 237.162 88.8616 237.045 88.8616L237.055 88.851ZM66.2645 88.1065C66.2645 88.1065 66.1793 88.1065 66.1367 88.0958C65.8494 88.032 65.6684 87.7449 65.7429 87.4577L65.9452 86.6387C66.0303 86.2878 66.1155 85.9474 66.2112 85.5964C66.2857 85.3093 66.5731 85.1391 66.8605 85.2136C67.1478 85.288 67.3181 85.5752 67.2436 85.8623C67.1585 86.2027 67.0627 86.543 66.9882 86.8834L66.7966 87.6917C66.7434 87.9363 66.5199 88.0958 66.2751 88.0958L66.2645 88.1065ZM233.022 83.9054C232.873 83.9054 232.724 83.8415 232.617 83.7139L231.925 82.9056C231.734 82.6823 231.755 82.3525 231.979 82.1505C232.202 81.959 232.543 81.9803 232.734 82.2036L233.426 83.012C233.618 83.2353 233.586 83.5756 233.362 83.7565C233.266 83.8415 233.139 83.8841 233.022 83.8841V83.9054ZM68.2441 81.172C68.1909 81.172 68.127 81.172 68.0738 81.1401C67.7971 81.0443 67.6481 80.7465 67.7332 80.47C67.8503 80.1297 67.9674 79.7893 68.0844 79.4596C68.1802 79.1831 68.4889 79.0342 68.7656 79.1299C69.0423 79.2256 69.1913 79.5341 69.0955 79.8106C68.9785 80.1403 68.8614 80.47 68.755 80.8104C68.6805 81.0337 68.4676 81.172 68.2547 81.172H68.2441ZM228.786 79.1193C228.637 79.1193 228.498 79.0661 228.392 78.9491L227.668 78.1727C227.466 77.96 227.477 77.6196 227.7 77.4176C227.913 77.2155 228.254 77.2261 228.456 77.4495L229.179 78.2365C229.382 78.4492 229.36 78.7896 229.148 78.9917C229.041 79.0874 228.913 79.1299 228.786 79.1299V79.1193ZM70.5111 75.216C70.4366 75.216 70.3727 75.2053 70.2982 75.1734C70.0321 75.0564 69.9044 74.748 70.0215 74.4715C70.1599 74.1418 70.3089 73.812 70.4472 73.493C70.5643 73.2271 70.8836 73.1101 71.1497 73.2271C71.4158 73.3441 71.5435 73.6632 71.4158 73.929C71.2774 74.2481 71.1284 74.5778 70.99 74.8969C70.9049 75.099 70.7027 75.216 70.5004 75.216H70.5111ZM224.379 74.5034C224.241 74.5034 224.103 74.4502 223.996 74.3438L223.251 73.5887C223.038 73.376 223.049 73.0463 223.251 72.8336C223.464 72.6315 223.794 72.6315 224.007 72.8336L224.763 73.5887C224.965 73.8014 224.965 74.1311 224.763 74.3438C224.656 74.4502 224.528 74.4927 224.39 74.4927L224.379 74.5034ZM219.813 70.0364C219.686 70.0364 219.547 69.9832 219.452 69.8875L218.675 69.1536C218.462 68.9515 218.451 68.6218 218.653 68.3985C218.856 68.1858 219.196 68.1751 219.409 68.3772L220.186 69.1111C220.399 69.3131 220.41 69.6535 220.207 69.8662C220.101 69.9726 219.962 70.0364 219.824 70.0364H219.813ZM73.2677 69.4727C73.1825 69.4727 73.0974 69.4514 73.0229 69.4089C72.7674 69.2706 72.661 68.9515 72.7994 68.6856C72.9697 68.3666 73.1399 68.0581 73.3102 67.7391C73.4486 67.4838 73.7785 67.3881 74.034 67.5263C74.2894 67.6646 74.3852 67.9943 74.2468 68.2496C74.0766 68.558 73.9063 68.8664 73.7466 69.1749C73.6508 69.3557 73.4699 69.462 73.2783 69.462L73.2677 69.4727ZM215.088 65.7183C214.96 65.7183 214.832 65.6757 214.737 65.58L213.938 64.878C213.715 64.6866 213.694 64.3463 213.885 64.1229C214.077 63.8996 214.417 63.8783 214.641 64.0804L215.439 64.7823C215.663 64.9738 215.684 65.3141 215.482 65.5375C215.375 65.6544 215.226 65.7183 215.088 65.7183ZM76.4926 63.974C76.3968 63.974 76.2903 63.9421 76.2052 63.8889C75.9604 63.7294 75.8859 63.3997 76.0455 63.1551C76.2371 62.8573 76.4393 62.5488 76.6309 62.251C76.7906 62.0064 77.1205 61.9426 77.3653 62.1021C77.6101 62.2617 77.6739 62.5914 77.5143 62.836C77.3227 63.1338 77.1311 63.4209 76.9396 63.7187C76.8331 63.8783 76.6628 63.9634 76.4926 63.9634V63.974ZM210.245 61.5597C210.128 61.5597 210 61.5172 209.905 61.4321L209.085 60.7514C208.862 60.5599 208.83 60.2302 209.011 60.0069C209.202 59.7835 209.532 59.741 209.756 59.9324L210.575 60.6131C210.799 60.8046 210.831 61.1343 210.639 61.3576C210.533 61.4852 210.384 61.5491 210.235 61.5491L210.245 61.5597ZM80.1644 58.7519C80.0474 58.7519 79.9409 58.72 79.8451 58.6455C79.611 58.4647 79.5684 58.135 79.7494 57.901C79.9729 57.6138 80.1857 57.3373 80.4092 57.0501C80.5902 56.8268 80.9308 56.7843 81.1543 56.9651C81.3884 57.1459 81.4203 57.4862 81.2394 57.7096C81.0159 57.9861 80.803 58.2626 80.5902 58.5498C80.4837 58.688 80.3241 58.7625 80.1644 58.7625V58.7519ZM205.275 57.55C205.158 57.55 205.041 57.5181 204.945 57.433L204.104 56.7843C203.87 56.6034 203.827 56.2737 204.008 56.0398C204.189 55.8058 204.519 55.7632 204.753 55.944L205.594 56.6034C205.828 56.7843 205.871 57.114 205.69 57.3479C205.584 57.4862 205.424 57.55 205.275 57.55ZM84.2621 53.8488C84.1343 53.8488 84.0066 53.8062 83.9002 53.7105C83.6873 53.5084 83.666 53.1787 83.8683 52.9554C84.1131 52.6895 84.3472 52.4342 84.592 52.1683C84.7942 51.9556 85.1242 51.945 85.3477 52.1364C85.5605 52.3385 85.5712 52.6682 85.3796 52.8916C85.1348 53.1468 84.9007 53.4127 84.6559 53.668C84.5494 53.785 84.4111 53.8382 84.2621 53.8382V53.8488ZM200.177 53.6999C200.07 53.6999 199.953 53.668 199.868 53.5935L199.006 52.966C198.772 52.7959 198.719 52.4661 198.889 52.2215C199.059 51.9769 199.389 51.9344 199.634 52.1045L200.496 52.732C200.73 52.9022 200.784 53.2426 200.613 53.4765C200.507 53.6148 200.347 53.6999 200.187 53.6999H200.177ZM194.962 50.0093C194.855 50.0093 194.759 49.9774 194.664 49.9136L193.78 49.318C193.536 49.1584 193.472 48.8287 193.642 48.5841C193.802 48.3395 194.142 48.2757 194.376 48.4458L195.26 49.0414C195.504 49.201 195.568 49.5413 195.398 49.7753C195.292 49.9242 195.132 50.0093 194.962 50.0093ZM88.7641 49.3073C88.6258 49.3073 88.4768 49.2542 88.3703 49.1372C88.1681 48.9244 88.1787 48.5841 88.4023 48.382C88.6683 48.1374 88.9238 47.8928 89.1899 47.6588C89.4027 47.4674 89.7433 47.478 89.9455 47.7013C90.1371 47.9247 90.1265 48.2544 89.9029 48.4565C89.6369 48.6905 89.3814 48.9351 89.126 49.1691C89.0196 49.2648 88.8918 49.3073 88.7641 49.3073ZM189.619 46.4995C189.523 46.4995 189.427 46.4676 189.331 46.4144L188.437 45.8507C188.193 45.6912 188.107 45.3615 188.267 45.1169C188.427 44.8722 188.746 44.7978 189.002 44.9467L189.906 45.5104C190.151 45.6699 190.225 45.9996 190.076 46.2442C189.97 46.4038 189.8 46.4889 189.629 46.4889L189.619 46.4995ZM93.6174 45.17C93.4578 45.17 93.2981 45.0956 93.2023 44.968C93.0214 44.734 93.064 44.4043 93.2875 44.2235C93.5642 44.0001 93.8516 43.7874 94.1389 43.564C94.3731 43.3832 94.703 43.4258 94.8839 43.6598C95.0649 43.8938 95.0117 44.2235 94.7882 44.4043C94.5114 44.617 94.2241 44.8297 93.9473 45.053C93.8516 45.1275 93.7345 45.17 93.6174 45.17ZM184.159 43.1918C184.063 43.1918 183.978 43.1705 183.893 43.1173L182.977 42.5856C182.722 42.4367 182.637 42.1176 182.775 41.8623C182.924 41.6071 183.244 41.522 183.499 41.6603L184.425 42.192C184.68 42.3409 184.766 42.6706 184.617 42.9153C184.521 43.0854 184.34 43.1812 184.159 43.1812V43.1918ZM98.8006 41.4475C98.6303 41.4475 98.4601 41.3624 98.3536 41.2029C98.194 40.9583 98.2578 40.6286 98.5026 40.4691C98.8006 40.2776 99.0986 40.0755 99.4073 39.8841C99.6521 39.7245 99.982 39.799 100.142 40.0436C100.301 40.2882 100.227 40.6179 99.982 40.7775C99.684 40.9689 99.386 41.1604 99.088 41.3518C99.0029 41.4156 98.8964 41.4369 98.8006 41.4369V41.4475ZM178.561 40.0968C178.475 40.0968 178.39 40.0755 178.316 40.033L177.379 39.5437C177.113 39.4055 177.017 39.0864 177.156 38.8311C177.294 38.5759 177.613 38.4695 177.869 38.6078L178.816 39.097C179.071 39.2353 179.178 39.5544 179.039 39.8203C178.944 40.0011 178.763 40.1074 178.571 40.1074L178.561 40.0968ZM104.282 38.1824C104.09 38.1824 103.909 38.0866 103.814 37.9058C103.675 37.6506 103.771 37.3209 104.026 37.1826C104.346 37.0124 104.654 36.8423 104.974 36.6827C105.229 36.5445 105.559 36.6402 105.697 36.9061C105.836 37.1613 105.729 37.491 105.474 37.6187C105.165 37.7782 104.846 37.9484 104.537 38.1186C104.452 38.1611 104.367 38.1824 104.282 38.1824ZM172.845 37.2571C172.771 37.2571 172.696 37.2464 172.622 37.2039L171.664 36.7572C171.398 36.6402 171.281 36.3211 171.398 36.0552C171.515 35.7893 171.834 35.6723 172.1 35.7893L173.069 36.236C173.335 36.3637 173.452 36.6721 173.324 36.938C173.239 37.1294 173.037 37.2464 172.845 37.2464V37.2571ZM110.019 35.3852C109.816 35.3852 109.614 35.2682 109.529 35.0661C109.412 34.8002 109.529 34.4811 109.806 34.3641C110.136 34.2259 110.466 34.0876 110.795 33.9493C111.062 33.843 111.381 33.96 111.487 34.2365C111.604 34.5024 111.477 34.8215 111.2 34.9278C110.87 35.0661 110.551 35.2044 110.231 35.3426C110.168 35.3745 110.093 35.3852 110.019 35.3852ZM166.981 34.7151C166.917 34.7151 166.853 34.7045 166.789 34.6726L165.799 34.2897C165.523 34.1833 165.384 33.8749 165.491 33.5984C165.597 33.3218 165.906 33.1836 166.183 33.2899L167.183 33.6835C167.46 33.7898 167.587 34.0982 167.481 34.3748C167.396 34.5875 167.194 34.7151 166.981 34.7151ZM115.979 33.0879C115.755 33.0879 115.553 32.9496 115.478 32.7262C115.383 32.4497 115.532 32.1413 115.808 32.0562C116.149 31.9392 116.49 31.8328 116.83 31.7158C117.107 31.6308 117.405 31.7797 117.501 32.0562C117.586 32.3327 117.437 32.6305 117.16 32.7262C116.83 32.8326 116.49 32.939 116.16 33.0559C116.106 33.0772 116.043 33.0879 115.989 33.0879H115.979ZM160.967 32.5667C160.914 32.5667 160.861 32.5667 160.808 32.5454C160.467 32.4391 160.137 32.3327 159.797 32.237C159.52 32.1519 159.36 31.8541 159.435 31.5776C159.52 31.3011 159.818 31.1415 160.095 31.216C160.435 31.3223 160.776 31.418 161.116 31.535C161.393 31.6201 161.553 31.9179 161.468 32.2051C161.393 32.4284 161.191 32.5773 160.957 32.5773L160.967 32.5667ZM122.109 31.3117C121.875 31.3117 121.652 31.1522 121.588 30.9075C121.513 30.6204 121.694 30.3332 121.981 30.2694C122.333 30.1843 122.673 30.0992 123.024 30.0248C123.312 29.961 123.599 30.1418 123.663 30.4289C123.727 30.7161 123.546 31.0033 123.259 31.0671C122.918 31.1415 122.577 31.2266 122.237 31.3117C122.194 31.3117 122.152 31.3223 122.109 31.3223V31.3117ZM154.805 30.9182C154.805 30.9182 154.73 30.9182 154.688 30.9075C154.347 30.8331 153.996 30.7586 153.656 30.6948C153.368 30.631 153.177 30.3545 153.24 30.0673C153.304 29.7801 153.581 29.5887 153.868 29.6525C154.22 29.727 154.571 29.8014 154.922 29.8759C155.209 29.9397 155.39 30.2268 155.327 30.5034C155.273 30.748 155.05 30.9182 154.805 30.9182ZM128.367 30.0779C128.112 30.0779 127.878 29.8865 127.846 29.6312C127.803 29.3441 128.006 29.0675 128.293 29.025C128.644 28.9718 128.995 28.9186 129.347 28.8761C129.634 28.8442 129.911 29.0356 129.943 29.3334C129.985 29.6206 129.783 29.8971 129.485 29.929C129.134 29.9822 128.793 30.0248 128.442 30.0779C128.41 30.0779 128.389 30.0779 128.357 30.0779H128.367ZM148.515 29.8333C148.515 29.8333 148.472 29.8333 148.451 29.8333C148.1 29.7908 147.749 29.7482 147.408 29.7057C147.121 29.6738 146.908 29.4079 146.94 29.1207C146.972 28.8336 147.238 28.6208 147.525 28.6528C147.876 28.6953 148.238 28.7378 148.589 28.7804C148.877 28.8229 149.09 29.0888 149.047 29.376C149.015 29.6419 148.781 29.844 148.515 29.844V29.8333ZM134.711 29.3866C134.434 29.3866 134.2 29.1739 134.179 28.8867C134.157 28.5889 134.381 28.3443 134.679 28.323C135.03 28.3018 135.392 28.2805 135.743 28.2592C136.041 28.1954 136.286 28.4719 136.297 28.7591C136.307 29.0569 136.084 29.3015 135.796 29.3122C135.445 29.3334 135.094 29.3547 134.743 29.376C134.732 29.376 134.721 29.376 134.711 29.376V29.3866ZM142.15 29.3015H142.129C141.778 29.2909 141.427 29.2803 141.075 29.2696C140.777 29.2696 140.554 29.0144 140.554 28.7272C140.554 28.44 140.799 28.2167 141.097 28.2061C141.458 28.2061 141.81 28.2273 142.172 28.238C142.47 28.2486 142.693 28.4932 142.682 28.791C142.672 29.0782 142.438 29.3015 142.15 29.3015Z" fill="#172D3F"/>
</g>
<defs>
<clipPath id="clip0_4454_17355">
<rect width="302" height="220" fill="white" transform="translate(0 0.5)"/>
</clipPath>
</defs>
</svg>
