<svg width="300" height="224" viewBox="0 0 300 224" fill="none" xmlns="http://www.w3.org/2000/svg">
<mask id="mask0_4454_17438" style="mask-type:luminance" maskUnits="userSpaceOnUse" x="0" y="0" width="300" height="224">
<path d="M0 223.11L300 223.11V-0.00012207L0 -0.00012207V223.11Z" fill="white"/>
</mask>
<g mask="url(#mask0_4454_17438)">
<path d="M8.03657 93.5255C-1.06303 151.195 37.2382 205.145 93.5686 214.032C149.899 222.919 269.565 183.841 278.654 126.171C287.743 68.5123 182.832 14.0847 126.502 5.19771C70.1712 -3.68929 17.1255 35.8557 8.03657 93.5255Z" fill="white" fill-opacity="0.4"/>
<path d="M53.5445 88.4658L48.0273 106.006" stroke="#172D3F" stroke-miterlimit="10" stroke-linecap="round"/>
<path d="M42.415 99.3408L45.3597 105.985" stroke="#172D3F" stroke-miterlimit="10" stroke-linecap="round"/>
<path d="M46.667 124.949C42.5106 124.949 39.1407 121.579 39.1407 117.423V103.338H54.1934V117.423C54.1934 121.579 50.8235 124.949 46.667 124.949Z" fill="#C5D9E2"/>
<path d="M55.4054 87.2323L53.3112 86.2969C52.312 85.8504 51.9824 84.5854 52.6415 83.7031L56.0007 79.2489C57.1169 77.7713 59.4556 78.8662 59.0304 80.6734L57.7547 86.063C57.5102 87.1048 56.3728 87.6682 55.3948 87.2323H55.4054Z" fill="#BFDDC4"/>
<path d="M51.4504 88.8905L49.5689 89.5921C48.6653 89.9323 47.6873 89.3263 47.5597 88.3696L46.9113 83.4796C46.6987 81.8532 48.8354 81.1091 49.6752 82.5123L52.2052 86.7113C52.6942 87.5192 52.3328 88.5822 51.4504 88.9117V88.8905Z" fill="#BFDDC4"/>
<path d="M43.9143 96.8958L41.6606 96.4599C40.587 96.2473 39.981 95.0886 40.4275 94.0893L42.6918 88.9868C43.4359 87.2965 45.9659 87.8387 45.9659 89.6884V95.2268C45.9447 96.3005 44.9667 97.1084 43.9143 96.8958Z" fill="#BFDDC4"/>
<path d="M40.4483 99.4151L38.7794 100.521C37.9821 101.052 36.8872 100.691 36.5364 99.7872L34.793 95.1736C34.2189 93.6428 36.1218 92.4309 37.2699 93.6003L40.6928 97.1083C41.3519 97.7886 41.2456 98.8942 40.459 99.4151H40.4483Z" fill="#BFDDC4"/>
<path d="M46.2204 101.136L44.9128 100.382C44.2856 100.02 44.1581 99.1698 44.6577 98.6383L47.1665 95.9488C47.9956 95.0559 49.452 95.9382 49.048 97.0863L47.8468 100.531C47.6129 101.2 46.8369 101.487 46.2204 101.136Z" fill="#BFDDC4"/>
<path d="M55.7669 94.7795L54.2787 93.6527C53.5664 93.1106 53.5452 92.0475 54.2255 91.4628L57.7335 88.497C58.8922 87.519 60.5506 88.8159 59.8809 90.1766L57.8611 94.2586C57.4678 95.0453 56.4579 95.3004 55.7669 94.7689V94.7795Z" fill="#BFDDC4"/>
<path d="M54.5119 99.9997L52.726 98.9367C51.8649 98.4264 51.7055 97.2464 52.3965 96.5236L55.9045 92.8561C57.0632 91.6442 59.0617 92.8773 58.4877 94.4613L56.7655 99.2024C56.436 100.117 55.3517 100.51 54.5119 100.01V99.9997Z" stroke="#172D3F" stroke-miterlimit="10"/>
<path d="M50.26 91.942L48.7718 93.3984C48.0596 94.1 46.8796 93.9512 46.3587 93.1008L43.7117 88.7636C42.84 87.3285 44.5409 85.7126 45.9228 86.68L50.0581 89.5608C50.8553 90.1136 50.951 91.2617 50.26 91.9527V91.942Z" stroke="#172D3F" stroke-miterlimit="10"/>
<path d="M41.0016 101.764L40.385 102.944C40.0874 103.508 39.3432 103.657 38.8542 103.242L36.388 101.127C35.5695 100.425 36.2923 99.1068 37.3235 99.4151L40.4169 100.351C41.0122 100.531 41.2992 101.212 41.0122 101.764H41.0016Z" stroke="#172D3F" stroke-miterlimit="10"/>
<path d="M41.8196 96.1087L40.1719 96.5552C39.3852 96.7678 38.5986 96.1938 38.5667 95.3752L38.4179 91.2081C38.3647 89.8262 40.2357 89.3691 40.8416 90.6022L42.6487 94.3228C42.9996 95.0457 42.6062 95.9068 41.8302 96.1087H41.8196Z" stroke="#172D3F" stroke-miterlimit="10"/>
<path d="M54.0335 87.1368L52.7047 86.9773C52.0669 86.9029 51.6736 86.2544 51.8862 85.6485L52.9918 82.5869C53.3532 81.5771 54.8521 81.779 54.9159 82.8527L55.1391 86.0737C55.1816 86.7009 54.6501 87.2005 54.0229 87.1261L54.0335 87.1368Z" stroke="#172D3F" stroke-miterlimit="10"/>
<path d="M75.7306 113.319H79.3875C81.1415 113.319 82.4384 111.693 82.0451 109.981L80.0572 56.0322C79.3981 53.162 75.2735 53.2364 74.7208 56.1279L73.0624 110.077C72.7435 111.757 74.0298 113.319 75.7413 113.319H75.7306Z" fill="#BFDDC4"/>
<path d="M74.8058 119.815L78.2394 121.048C79.8871 121.643 81.6624 120.548 81.8643 118.805L98.2458 67.3643C98.5966 64.441 94.6952 63.1122 93.1963 65.6528L73.3707 115.85C72.499 117.327 73.1793 119.219 74.7951 119.804L74.8058 119.815Z" fill="#BFDDC4"/>
<path d="M76.1025 123.004L79.5893 121.909C81.2583 121.388 82.013 119.443 81.1201 117.933L73.0516 98.9153C71.5634 96.3746 67.6514 97.6821 67.9916 100.605L72.5733 120.718C72.7752 122.419 74.4655 123.514 76.1025 123.004Z" fill="#BFDDC4"/>
<path d="M74.3593 109.588L76.5916 109.152C77.6653 108.94 78.2606 107.792 77.8141 106.792L69.4161 70.3941C68.672 68.7145 66.1632 69.2566 66.1739 71.0957L72.3395 107.93C72.3395 108.993 73.3175 109.79 74.3593 109.588Z" stroke="#172D3F" stroke-miterlimit="10"/>
<path d="M77.4105 123.684L79.6323 124.152C80.6953 124.375 81.6946 123.546 81.6733 122.462L88.1472 85.6701C88.1153 83.8311 85.5959 83.3527 84.8837 85.043L76.188 121.367C75.7734 122.345 76.3581 123.461 77.3999 123.684H77.4105Z" stroke="#172D3F" stroke-miterlimit="10"/>
<path d="M77.963 125.374C72.4671 125.374 68.013 120.92 68.013 115.424V105.474H87.9131V115.424C87.9131 120.92 83.459 125.374 77.963 125.374Z" fill="#172D3F"/>
<path d="M274.635 139.651C281.205 124.811 274.773 107.579 260.273 101.169C245.774 94.759 210.842 96.6937 204.273 111.544C197.703 126.384 222.004 148.506 236.493 154.916C250.993 161.326 268.065 154.502 274.635 139.651Z" fill="#C5D9E2"/>
<path d="M291.867 50.3348C282.342 28.9146 257.659 19.0922 236.738 28.3937C215.817 37.6953 184.011 76.9852 193.536 98.4054C203.061 119.826 250.302 115.265 271.223 105.964C292.144 96.662 301.392 71.7551 291.867 50.3348Z" fill="#C5D9E2"/>
<path d="M240.533 19.985C233.942 5.15558 216.849 -1.64786 202.37 4.79415C187.892 11.2362 165.876 38.4393 172.467 53.2687C179.058 68.0981 211.767 64.9408 226.246 58.4988C240.735 52.0568 247.135 34.8143 240.533 19.985Z" fill="#C5D9E2"/>
<path d="M183.119 209.801L238.992 219.996C248.4 221.707 257.415 215.616 259.424 206.272C261.167 198.182 261.699 187.53 258.021 175.348C249.697 147.847 231.423 112.384 206.995 114.191C182.566 115.999 104.709 148.985 107.835 175.709C108.93 185.054 125.173 195.663 125.173 195.663L135.102 178.112C135.102 178.112 125.152 175.263 126.417 172.86C129.85 166.344 172.191 153.875 172.191 153.875C172.191 153.875 165.015 162.496 166.28 169.012C167.545 175.529 181.875 186.829 181.875 186.829L232.54 201.456C232.54 201.456 219.836 160.689 221.824 159.785C223.812 158.882 234.124 186.382 231.051 191.092C227.979 195.801 189.965 189.625 189.965 189.625L183.108 209.801H183.119Z" fill="#172D3F"/>
<path d="M150.537 77.347C151.174 67.1738 159.37 58.8714 169.533 58.1167C177.878 57.5001 185.266 61.8479 189.05 68.5132C190.315 70.7349 191.74 72.8504 193.154 74.9765C196.885 80.5468 201.669 88.19 206.644 97.5129C211.3 106.24 213.947 114.872 215.456 121.92C217.242 130.286 210.832 138.153 202.275 138.153C197.045 138.153 192.293 135.123 190.082 130.393C188.668 127.384 186.722 123.377 184.075 118.136C178.962 108.048 169.214 101.191 163.304 97.7574C161.964 97.2046 160.689 96.5242 159.509 95.7163C158.775 95.3549 158.116 94.6746 158.116 94.6746C153.152 90.635 150.111 84.3418 150.547 77.3577L150.537 77.347Z" fill="white"/>
<path d="M150.537 76.0712C151.026 69.2891 154.778 63.0916 160.636 59.6048C166.876 55.8948 174.827 55.7991 181.163 59.3497C184.331 61.1249 186.999 63.74 188.859 66.8653C190.996 70.4584 193.356 73.892 195.62 77.4C200.425 84.8519 205.124 92.559 208.844 100.617C210.747 104.741 212.342 109.004 213.617 113.363C214.595 116.679 215.712 120.187 215.765 123.674C215.807 126.778 215.626 129.733 214.085 132.519C212.491 135.399 209.844 137.642 206.739 138.727C203.487 139.864 199.851 139.694 196.704 138.27C193.324 136.739 191.177 134.028 189.625 130.754C186.276 123.674 183.119 116.339 177.772 110.503C173.147 105.443 167.598 101.425 161.55 98.2675C154.895 94.7807 150.675 87.8285 150.505 80.334C150.473 78.9202 150.473 77.4957 150.547 76.0712C150.515 76.7091 150.6 77.8253 150.547 78.6332C150.483 79.8557 150.42 77.4001 150.547 78.6013C150.611 79.2072 150.643 79.8025 150.739 80.3978C150.877 81.3333 151.079 82.2581 151.345 83.1617C151.844 84.8732 152.578 86.5209 153.503 88.0411C155.278 90.9644 157.776 93.4094 160.721 95.1315C162.103 95.9394 163.57 96.5454 164.941 97.3852C166.142 98.1293 167.311 98.9053 168.47 99.7132C171.181 101.637 173.764 103.753 176.124 106.102C178.739 108.696 181.088 111.577 182.959 114.755C184.958 118.136 186.595 121.782 188.306 125.311C189.699 128.181 190.847 131.147 193.26 133.337C195.716 135.559 198.969 136.813 202.285 136.813C208.759 136.813 214.489 132.008 215.573 125.619C215.595 125.492 215.626 124.61 215.712 124.567C215.648 124.599 215.839 126.055 215.712 125.045C215.68 124.748 215.658 124.45 215.616 124.152C215.499 123.323 215.297 122.515 215.116 121.697C214.691 119.858 214.213 118.019 213.681 116.212C212.48 112.108 211.013 108.09 209.27 104.189C205.761 96.3753 201.254 88.9234 196.673 81.6841C194.706 78.58 192.601 75.561 190.634 72.4569C188.636 69.2997 186.946 66.2488 183.98 63.8782C178.569 59.5516 171.106 58.2122 164.537 60.4552C158.488 62.5175 153.598 67.4181 151.568 73.4774C151.004 75.1464 150.685 76.8685 150.558 78.6225C150.6 77.9953 150.494 76.8579 150.558 76.0606L150.537 76.0712Z" fill="#172D3F"/>
<path d="M159.37 74.8803L161.145 74.083L162.272 74.3913L162.548 73.3601L161.06 72.9562L159.657 73.5834L159.359 73.2432L160.805 64.792L159.763 64.6113L158.222 73.5621L159.37 74.8803Z" fill="#172D3F"/>
<path d="M175.497 182.641C175.497 182.343 175.73 182.109 176.017 182.099H177.08V182.088C177.367 182.088 177.601 182.322 177.612 182.609C177.612 182.907 177.389 183.14 177.091 183.151H176.017V183.162C175.73 183.162 175.486 182.928 175.486 182.641H175.497ZM170.692 183.162L169.639 183.14C169.342 183.14 169.108 182.896 169.118 182.598C169.129 182.301 169.373 182.046 169.66 182.077L170.723 182.099C171.021 182.099 171.244 182.343 171.244 182.641C171.244 182.928 171 183.162 170.713 183.162H170.692ZM181.875 182.492C181.864 182.194 182.087 181.95 182.385 181.939L183.437 181.897C183.735 181.854 183.98 182.109 183.99 182.396C184.001 182.694 183.778 182.938 183.491 182.949L182.428 183.002H182.406C182.119 183.002 181.885 182.779 181.875 182.492ZM164.292 182.981L163.25 182.938C162.953 182.928 162.729 182.673 162.74 182.386C162.751 182.088 163.006 181.844 163.293 181.875L164.356 181.918C164.654 181.929 164.866 182.184 164.856 182.471C164.845 182.758 164.6 182.981 164.313 182.981H164.292ZM188.242 182.141C188.221 181.844 188.444 181.588 188.731 181.567L189.784 181.482C190.081 181.461 190.337 181.673 190.358 181.971C190.379 182.269 190.166 182.524 189.869 182.545L188.806 182.63C188.806 182.63 188.774 182.63 188.763 182.63C188.487 182.63 188.253 182.418 188.232 182.141H188.242ZM157.924 182.62L156.861 182.545L156.947 181.482L157.999 181.556C158.297 181.578 158.509 181.833 158.488 182.12C158.467 182.396 158.233 182.609 157.956 182.609C157.946 182.609 157.935 182.609 157.914 182.609L157.924 182.62ZM151.546 182.056L150.483 181.95C150.196 181.918 149.984 181.652 150.015 181.365C150.047 181.078 150.313 180.866 150.6 180.897L151.653 181.004C151.94 181.036 152.163 181.291 152.131 181.588C152.099 181.865 151.876 182.067 151.599 182.067C151.578 182.067 151.568 182.067 151.546 182.067V182.056ZM194.599 181.567C194.567 181.28 194.78 181.014 195.067 180.982L196.119 180.866C196.406 180.823 196.672 181.036 196.715 181.333C196.757 181.631 196.545 181.886 196.247 181.918L195.184 182.046C195.184 182.046 195.141 182.046 195.12 182.046C194.854 182.046 194.621 181.844 194.589 181.578L194.599 181.567ZM145.189 181.301L144.137 181.153C143.85 181.11 143.648 180.844 143.68 180.557C143.712 180.27 143.988 180.058 144.275 180.1L145.328 180.238C145.615 180.281 145.827 180.547 145.785 180.834C145.753 181.099 145.519 181.291 145.264 181.291C145.242 181.291 145.221 181.291 145.189 181.291V181.301ZM200.924 180.759C200.882 180.472 201.084 180.196 201.371 180.153L202.413 179.994C202.7 179.941 202.976 180.143 203.019 180.43C203.061 180.717 202.87 180.993 202.583 181.036L201.53 181.206C201.53 181.206 201.477 181.206 201.445 181.206C201.19 181.206 200.956 181.014 200.924 180.759ZM138.864 180.345L137.812 180.164C137.525 180.111 137.333 179.834 137.376 179.547C137.429 179.26 137.706 179.069 137.993 179.112L139.034 179.292C139.321 179.335 139.523 179.611 139.47 179.909C139.428 180.175 139.204 180.355 138.949 180.355C138.917 180.355 138.885 180.355 138.864 180.355V180.345ZM207.207 179.675C207.143 179.388 207.335 179.101 207.622 179.048L208.653 178.835C208.94 178.782 209.227 178.952 209.28 179.239C209.344 179.526 209.163 179.813 208.876 179.866L207.834 180.09C207.834 180.09 207.76 180.09 207.728 180.09C207.483 180.09 207.26 179.919 207.207 179.664V179.675ZM132.571 179.165L131.529 178.941C131.242 178.878 131.062 178.601 131.125 178.314C131.189 178.027 131.465 177.846 131.753 177.91L132.794 178.134C133.081 178.197 133.262 178.474 133.209 178.761C133.156 179.016 132.932 179.186 132.688 179.186C132.656 179.186 132.614 179.186 132.582 179.175L132.571 179.165ZM213.415 178.229C213.341 177.942 213.5 177.655 213.787 177.57C214.127 177.474 214.467 177.379 214.797 177.283C215.073 177.198 215.371 177.357 215.456 177.634C215.541 177.91 215.382 178.208 215.095 178.293C214.755 178.399 214.404 178.495 214.064 178.591C214.01 178.601 213.968 178.612 213.925 178.612C213.691 178.612 213.479 178.463 213.415 178.219V178.229ZM126.331 177.74L125.3 177.474C125.013 177.4 124.843 177.113 124.917 176.826C124.992 176.539 125.279 176.369 125.566 176.443L126.597 176.709C126.884 176.783 127.054 177.07 126.979 177.357C126.916 177.602 126.703 177.761 126.469 177.761C126.427 177.761 126.384 177.761 126.342 177.751L126.331 177.74ZM219.485 176.284C219.379 176.007 219.517 175.699 219.793 175.603C220.123 175.476 220.452 175.348 220.782 175.221C221.058 175.114 221.367 175.242 221.473 175.518C221.579 175.795 221.452 176.103 221.175 176.209C220.846 176.337 220.506 176.465 220.176 176.592C220.112 176.613 220.048 176.624 219.985 176.624C219.772 176.624 219.57 176.496 219.485 176.284ZM120.155 176.05L119.134 175.742C118.858 175.657 118.698 175.359 118.783 175.083C118.868 174.806 119.166 174.636 119.443 174.732L120.452 175.04C120.729 175.125 120.888 175.423 120.814 175.699C120.75 175.933 120.537 176.082 120.304 176.082C120.25 176.082 120.197 176.082 120.155 176.061V176.05ZM225.364 173.818C225.236 173.552 225.353 173.233 225.608 173.105C225.927 172.957 226.246 172.797 226.554 172.638C226.82 172.51 227.139 172.616 227.266 172.871C227.394 173.137 227.288 173.456 227.033 173.584C226.714 173.743 226.395 173.903 226.076 174.051C226.001 174.083 225.927 174.105 225.842 174.105C225.64 174.105 225.459 173.998 225.364 173.807V173.818ZM114.064 174.073C113.723 173.956 113.394 173.828 113.054 173.711C112.777 173.616 112.639 173.307 112.735 173.031C112.83 172.755 113.139 172.616 113.415 172.712C113.745 172.829 114.074 172.957 114.414 173.073C114.691 173.169 114.84 173.477 114.733 173.754C114.659 173.977 114.446 174.105 114.234 174.105C114.17 174.105 114.117 174.105 114.053 174.073H114.064ZM108.089 171.755L107.111 171.33C106.846 171.213 106.718 170.905 106.835 170.628C106.952 170.363 107.26 170.235 107.537 170.352L108.504 170.767C108.77 170.884 108.897 171.192 108.78 171.468C108.695 171.67 108.493 171.787 108.291 171.787C108.217 171.787 108.153 171.777 108.079 171.745L108.089 171.755ZM231.019 170.852C230.87 170.597 230.955 170.278 231.2 170.118C231.508 169.937 231.806 169.757 232.103 169.565C232.348 169.417 232.677 169.491 232.837 169.736C232.996 169.991 232.911 170.31 232.667 170.469C232.358 170.66 232.05 170.841 231.742 171.022C231.657 171.075 231.561 171.096 231.476 171.096C231.295 171.096 231.115 171.001 231.019 170.841V170.852ZM102.274 169.055C101.956 168.896 101.637 168.726 101.328 168.566C101.073 168.428 100.967 168.109 101.105 167.854C101.243 167.599 101.562 167.493 101.828 167.631C102.136 167.79 102.455 167.96 102.763 168.12C103.029 168.258 103.125 168.577 102.997 168.832C102.902 169.013 102.721 169.119 102.519 169.119C102.434 169.119 102.36 169.098 102.274 169.066V169.055ZM236.377 167.386C236.207 167.152 236.26 166.812 236.494 166.642C236.781 166.44 237.068 166.227 237.344 166.015C237.578 165.834 237.908 165.887 238.088 166.121C238.269 166.355 238.216 166.685 237.982 166.865C237.695 167.078 237.408 167.291 237.11 167.503C237.015 167.567 236.908 167.599 236.802 167.599C236.632 167.599 236.472 167.524 236.366 167.376L236.377 167.386ZM96.6723 165.898C96.364 165.707 96.0663 165.515 95.7687 165.324C95.5242 165.164 95.4498 164.835 95.6092 164.59C95.7687 164.346 96.0982 164.271 96.3427 164.431C96.6404 164.622 96.938 164.814 97.2357 164.994C97.4802 165.154 97.5652 165.483 97.4057 165.728C97.3101 165.887 97.1294 165.983 96.9593 165.983C96.8636 165.983 96.7679 165.962 96.6829 165.898H96.6723ZM241.405 163.464C241.214 163.24 241.235 162.911 241.458 162.709C241.724 162.475 241.99 162.252 242.255 162.018C242.479 161.827 242.808 161.837 243.01 162.06C243.201 162.284 243.18 162.613 242.968 162.815C242.702 163.049 242.436 163.283 242.16 163.517C242.064 163.602 241.936 163.644 241.809 163.644C241.66 163.644 241.511 163.581 241.405 163.464ZM91.389 162.23C91.1019 162.007 90.8255 161.784 90.5492 161.561C90.3259 161.38 90.2834 161.04 90.4747 160.817C90.6555 160.593 90.9956 160.551 91.2189 160.742C91.4953 160.965 91.761 161.178 92.048 161.401C92.2819 161.582 92.3244 161.912 92.1437 162.145C92.0374 162.284 91.8779 162.347 91.7185 162.347C91.6016 162.347 91.4846 162.316 91.389 162.23ZM246.072 159.126C245.859 158.924 245.859 158.584 246.061 158.372C246.305 158.117 246.55 157.861 246.794 157.606C246.996 157.394 247.337 157.383 247.549 157.585C247.762 157.787 247.772 158.127 247.571 158.34C247.326 158.595 247.082 158.861 246.826 159.116C246.72 159.222 246.582 159.275 246.444 159.275C246.305 159.275 246.178 159.222 246.072 159.126ZM86.5521 157.978C86.297 157.723 86.0525 157.468 85.808 157.202C85.606 156.99 85.6167 156.65 85.8293 156.448C86.0419 156.246 86.382 156.256 86.584 156.469C86.8285 156.724 87.0624 156.968 87.3175 157.224C87.5195 157.436 87.5195 157.766 87.3175 157.978C87.2112 158.085 87.0836 158.138 86.9455 158.138C86.8073 158.138 86.6691 158.085 86.5734 157.978H86.5521ZM250.345 154.407C250.122 154.226 250.09 153.886 250.271 153.662C250.494 153.386 250.717 153.12 250.93 152.844C251.11 152.61 251.451 152.578 251.674 152.759C251.908 152.94 251.94 153.28 251.759 153.503C251.536 153.779 251.312 154.066 251.089 154.343C250.983 154.47 250.834 154.534 250.675 154.534C250.558 154.534 250.441 154.492 250.334 154.417L250.345 154.407ZM82.3638 153.078C82.1512 152.791 81.9492 152.493 81.7472 152.195C81.5771 151.951 81.6409 151.621 81.8854 151.451C82.1299 151.292 82.4594 151.345 82.6189 151.589C82.8102 151.876 83.0122 152.163 83.2248 152.451C83.3949 152.684 83.3418 153.025 83.1079 153.195C83.0122 153.258 82.9059 153.29 82.7996 153.29C82.6401 153.29 82.4701 153.216 82.3638 153.067V153.078ZM254.204 149.336C253.959 149.166 253.896 148.836 254.066 148.592C254.268 148.305 254.459 148.007 254.65 147.72C254.81 147.476 255.139 147.412 255.384 147.571C255.628 147.731 255.692 148.06 255.533 148.305C255.331 148.602 255.139 148.9 254.937 149.187C254.831 149.336 254.672 149.421 254.502 149.421C254.395 149.421 254.289 149.389 254.204 149.325V149.336ZM79.0577 147.539C78.8983 147.22 78.7494 146.891 78.6112 146.561C78.4943 146.296 78.6112 145.977 78.8876 145.86C79.1534 145.743 79.4723 145.86 79.5892 146.136C79.7274 146.455 79.8762 146.774 80.0251 147.082C80.1526 147.348 80.0357 147.667 79.7699 147.794C79.6955 147.826 79.6211 147.848 79.5361 147.848C79.3341 147.848 79.1428 147.741 79.0577 147.55V147.539ZM257.616 143.957C257.361 143.808 257.276 143.489 257.414 143.234C257.584 142.926 257.754 142.617 257.924 142.309C258.063 142.054 258.392 141.958 258.647 142.097C258.902 142.235 258.998 142.564 258.86 142.819C258.69 143.128 258.52 143.447 258.339 143.755C258.243 143.925 258.063 144.021 257.871 144.021C257.786 144.021 257.691 143.999 257.606 143.957H257.616ZM76.8466 141.48L76.7615 141.15C76.6978 140.906 76.6446 140.672 76.5915 140.428C76.5277 140.141 76.7084 139.854 76.9954 139.79C77.2824 139.726 77.5695 139.907 77.6332 140.194C77.6864 140.428 77.7395 140.661 77.7927 140.895L77.8777 141.214C77.9522 141.501 77.7821 141.788 77.495 141.863C77.4525 141.873 77.41 141.884 77.3675 141.884C77.1336 141.884 76.9104 141.724 76.8572 141.48H76.8466ZM260.571 138.301C260.306 138.174 260.189 137.866 260.316 137.6C260.465 137.281 260.603 136.962 260.752 136.643C260.869 136.377 261.188 136.25 261.454 136.377C261.72 136.494 261.847 136.813 261.72 137.079C261.571 137.409 261.433 137.727 261.284 138.057C261.199 138.248 260.997 138.365 260.805 138.365C260.731 138.365 260.657 138.355 260.582 138.312L260.571 138.301ZM75.8367 135.091C75.8154 134.73 75.7942 134.379 75.7836 134.017C75.7729 133.72 76.0068 133.475 76.2938 133.465C76.5808 133.443 76.836 133.688 76.8466 133.975C76.8572 134.326 76.8785 134.677 76.8997 135.017C76.921 135.314 76.6978 135.559 76.4001 135.58C76.3895 135.58 76.3788 135.58 76.3682 135.58C76.0918 135.58 75.858 135.367 75.8367 135.08V135.091ZM263.038 132.423C262.761 132.327 262.623 132.019 262.719 131.743C262.836 131.413 262.953 131.083 263.07 130.754C263.165 130.478 263.474 130.329 263.75 130.424C264.026 130.52 264.175 130.828 264.079 131.105C263.963 131.445 263.846 131.774 263.718 132.115C263.644 132.327 263.431 132.465 263.218 132.465C263.155 132.465 263.102 132.465 263.038 132.434V132.423ZM76.432 129.213C76.145 129.181 75.9217 128.925 75.9536 128.628C75.9855 128.277 76.028 127.916 76.0706 127.554C76.1025 127.267 76.3682 127.044 76.6659 127.086C76.9529 127.118 77.1655 127.384 77.1336 127.682C77.0911 128.033 77.0592 128.383 77.0167 128.723C76.9954 129 76.7615 129.202 76.4852 129.202C76.4639 129.202 76.4533 129.202 76.432 129.202V129.213ZM265.004 126.364C264.717 126.289 264.558 125.991 264.632 125.715C264.728 125.375 264.813 125.035 264.898 124.695C264.972 124.408 265.259 124.248 265.546 124.312C265.834 124.386 266.004 124.673 265.929 124.96C265.844 125.301 265.748 125.651 265.653 125.991C265.589 126.225 265.376 126.385 265.143 126.385C265.1 126.385 265.047 126.385 265.004 126.364ZM77.3994 122.919C77.1123 122.856 76.9316 122.569 77.006 122.281C77.0911 121.931 77.1761 121.591 77.2612 121.24C77.3356 120.953 77.6226 120.783 77.9096 120.857C78.1966 120.931 78.3667 121.218 78.2923 121.505C78.2073 121.846 78.1222 122.186 78.0478 122.526C77.9947 122.77 77.7714 122.941 77.5269 122.941C77.4844 122.941 77.4419 122.941 77.41 122.93L77.3994 122.919ZM266.45 120.155C266.163 120.102 265.972 119.826 266.025 119.539C266.089 119.199 266.152 118.848 266.206 118.508C266.259 118.221 266.524 118.019 266.822 118.072C267.109 118.125 267.311 118.391 267.258 118.688C267.194 119.039 267.141 119.39 267.077 119.741C267.035 119.996 266.811 120.177 266.556 120.177C266.524 120.177 266.493 120.177 266.461 120.177L266.45 120.155ZM79.1321 116.786C78.8557 116.69 78.7069 116.382 78.8026 116.105C78.9195 115.765 79.0364 115.436 79.164 115.095C79.2703 114.819 79.568 114.681 79.8444 114.776C80.1207 114.872 80.2589 115.18 80.1633 115.457C80.0463 115.786 79.9188 116.116 79.8018 116.445C79.7274 116.669 79.5148 116.796 79.3022 116.796C79.2491 116.796 79.1853 116.796 79.1215 116.764L79.1321 116.786ZM267.386 113.852C267.099 113.82 266.875 113.565 266.907 113.267C266.939 112.916 266.971 112.565 267.003 112.215C267.024 111.927 267.279 111.704 267.577 111.726C267.875 111.747 268.087 112.002 268.066 112.3C268.034 112.65 268.002 113.012 267.97 113.363C267.938 113.639 267.715 113.841 267.439 113.841C267.417 113.841 267.407 113.841 267.386 113.841V113.852ZM81.4708 110.854C81.205 110.737 81.0881 110.418 81.205 110.152C81.3539 109.833 81.5027 109.504 81.6515 109.174C81.7791 108.908 82.098 108.792 82.3638 108.919C82.6295 109.047 82.7465 109.366 82.6189 109.631C82.4701 109.95 82.3212 110.269 82.1724 110.588C82.0874 110.779 81.8854 110.896 81.6834 110.896C81.609 110.896 81.5346 110.886 81.4602 110.854H81.4708ZM267.79 107.495C267.492 107.495 267.258 107.25 267.269 106.952C267.269 106.602 267.269 106.251 267.269 105.9C267.269 105.602 267.502 105.369 267.8 105.369C268.098 105.369 268.332 105.602 268.332 105.9C268.332 106.262 268.332 106.612 268.332 106.974C268.332 107.261 268.087 107.495 267.8 107.495H267.79ZM84.2879 105.135C84.0327 104.996 83.937 104.667 84.0752 104.412L84.5961 103.476C84.7343 103.221 85.0639 103.126 85.319 103.274C85.5741 103.413 85.6698 103.742 85.521 103.997L85.0107 104.922C84.915 105.103 84.7343 105.198 84.543 105.198C84.4579 105.198 84.3729 105.177 84.2879 105.135ZM267.088 100.627C267.067 100.277 267.035 99.9258 267.013 99.575C266.992 99.2773 267.205 99.0222 267.502 99.0009C267.8 99.0009 268.055 99.1923 268.077 99.4899C268.108 99.8407 268.13 100.202 268.162 100.553C268.183 100.851 267.96 101.095 267.673 101.116C267.662 101.116 267.651 101.116 267.641 101.116C267.364 101.116 267.13 100.904 267.109 100.617L267.088 100.627ZM87.4876 99.6175C87.2431 99.4581 87.1687 99.1285 87.3175 98.884L87.8916 97.9804C88.051 97.7359 88.3806 97.6615 88.6251 97.821C88.8696 97.9804 88.944 98.31 88.7845 98.5545L88.2211 99.4474C88.1148 99.6069 87.9447 99.6919 87.7746 99.6919C87.6789 99.6919 87.5833 99.6707 87.4876 99.6069V99.6175ZM266.397 94.3342C266.344 93.9834 266.291 93.6432 266.227 93.2924C266.174 93.0054 266.376 92.729 266.663 92.6759C266.95 92.6227 267.226 92.8247 267.279 93.1117C267.332 93.4625 267.396 93.8133 267.449 94.1641C267.492 94.4511 267.29 94.7275 267.003 94.7701C266.971 94.7701 266.95 94.7701 266.918 94.7701C266.663 94.7701 266.429 94.5787 266.397 94.3236V94.3342ZM91.0063 94.2917C90.7618 94.1216 90.7086 93.7921 90.8787 93.5476L91.4953 92.6759C91.6653 92.442 91.9949 92.3782 92.2394 92.5589C92.4732 92.729 92.537 93.0586 92.3563 93.3031L91.7398 94.1641C91.6335 94.313 91.474 94.3874 91.3039 94.3874C91.1976 94.3874 91.0913 94.3555 90.9956 94.2917H91.0063ZM94.7907 89.1572C94.5568 88.9765 94.5143 88.647 94.695 88.4131L95.3541 87.5733C95.5348 87.3394 95.875 87.3075 96.0982 87.4883C96.3321 87.669 96.364 88.0091 96.1833 88.2324L95.5242 89.0615C95.4179 89.1997 95.2584 89.2635 95.1096 89.2635C94.9927 89.2635 94.8757 89.2316 94.78 89.1466L94.7907 89.1572ZM265.185 88.1154L264.994 87.3075C264.909 86.9674 264.824 86.6272 264.739 86.287C264.664 86 264.834 85.713 265.121 85.6386C265.408 85.5535 265.695 85.7342 265.77 86.0213C265.855 86.3614 265.95 86.7122 266.035 87.063L266.237 87.8816C266.301 88.1686 266.131 88.4556 265.844 88.5194C265.802 88.5194 265.759 88.53 265.717 88.53C265.472 88.53 265.259 88.3599 265.196 88.1261L265.185 88.1154ZM98.809 84.1928C98.5857 84.0015 98.5538 83.6719 98.7452 83.4487L99.4361 82.6408C99.6275 82.4176 99.9677 82.3963 100.191 82.5876C100.414 82.779 100.435 83.1192 100.244 83.3424L99.5531 84.1503C99.4468 84.2779 99.298 84.3416 99.1491 84.3416C99.0322 84.3416 98.9046 84.2991 98.809 84.2141V84.1928ZM263.229 81.227C263.112 80.8974 263.006 80.5572 262.889 80.2277C262.793 79.9513 262.942 79.643 263.218 79.5474C263.495 79.4517 263.803 79.6005 263.899 79.8769C264.016 80.2171 264.133 80.5466 264.25 80.8868C264.345 81.1632 264.196 81.4715 263.909 81.5565C263.856 81.5778 263.792 81.5884 263.739 81.5884C263.516 81.5884 263.314 81.4502 263.24 81.227H263.229ZM103.019 79.3985C102.806 79.1966 102.785 78.867 102.987 78.6438L103.71 77.8571C103.912 77.6445 104.241 77.6339 104.464 77.8252C104.677 78.0272 104.688 78.3567 104.496 78.58L103.773 79.356C103.667 79.4729 103.529 79.5261 103.38 79.5261C103.252 79.5261 103.125 79.4836 103.019 79.3879V79.3985ZM260.975 75.3058C260.837 74.9869 260.699 74.6574 260.55 74.3385C260.433 74.0727 260.55 73.7538 260.816 73.6369C261.082 73.5199 261.401 73.6369 261.518 73.9026C261.666 74.2322 261.805 74.5511 261.943 74.8806C262.06 75.1464 261.943 75.4653 261.666 75.5822C261.603 75.6141 261.528 75.6247 261.454 75.6247C261.252 75.6247 261.05 75.5078 260.965 75.3058H260.975ZM107.409 74.7637C107.196 74.5617 107.196 74.2215 107.409 74.0089L108.164 73.2542C108.366 73.0522 108.706 73.0416 108.918 73.2542C109.131 73.4668 109.131 73.7963 108.918 74.0089L108.174 74.7637C108.068 74.87 107.93 74.9231 107.792 74.9231C107.653 74.9231 107.526 74.87 107.42 74.7743L107.409 74.7637ZM111.959 70.2883C111.757 70.0757 111.767 69.7355 111.98 69.5335L112.756 68.8C112.969 68.5981 113.309 68.6087 113.511 68.8213C113.713 69.0339 113.702 69.3741 113.49 69.576L112.713 70.3095C112.607 70.4052 112.48 70.4584 112.352 70.4584C112.214 70.4584 112.076 70.4052 111.969 70.2883H111.959ZM258.243 69.6079C258.073 69.2997 257.914 68.9914 257.744 68.6831C257.606 68.428 257.701 68.0984 257.956 67.9602C258.212 67.822 258.541 67.9177 258.679 68.1728C258.849 68.4811 259.019 68.8 259.19 69.1189C259.328 69.3741 259.232 69.7036 258.966 69.8418C258.892 69.8843 258.807 69.9056 258.722 69.9056C258.53 69.9056 258.35 69.7993 258.254 69.6186L258.243 69.6079ZM116.657 65.9617C116.466 65.7385 116.487 65.4089 116.7 65.207L117.497 64.5054C117.72 64.314 118.05 64.3353 118.252 64.5479C118.443 64.7711 118.422 65.1007 118.199 65.3026L117.401 66.0042C117.295 66.0893 117.178 66.1424 117.051 66.1424C116.902 66.1424 116.753 66.0787 116.657 65.9617ZM255.044 64.1439C254.852 63.8463 254.661 63.5486 254.47 63.2616C254.31 63.0171 254.374 62.6876 254.618 62.5281C254.863 62.3687 255.193 62.4324 255.352 62.6769C255.554 62.9746 255.745 63.2722 255.937 63.5805C256.096 63.825 256.022 64.1546 255.777 64.314C255.692 64.3672 255.586 64.3991 255.49 64.3991C255.32 64.3991 255.139 64.314 255.044 64.1546V64.1439ZM121.484 61.784C121.292 61.5607 121.324 61.2206 121.547 61.0399L122.366 60.3595C122.589 60.1682 122.929 60.2001 123.11 60.4339C123.301 60.6572 123.269 60.9973 123.036 61.178L122.217 61.8584C122.121 61.9434 121.994 61.986 121.877 61.986C121.728 61.986 121.569 61.9222 121.473 61.7946L121.484 61.784ZM251.397 58.9563C251.185 58.6799 250.962 58.3929 250.749 58.1165C250.568 57.8826 250.611 57.5531 250.834 57.3724C251.068 57.1917 251.397 57.2342 251.578 57.4574C251.801 57.7338 252.025 58.0208 252.237 58.3078C252.418 58.5417 252.375 58.8713 252.142 59.052C252.046 59.1264 251.929 59.1583 251.823 59.1583C251.663 59.1583 251.504 59.0839 251.397 58.9457V58.9563ZM126.448 57.7657C126.267 57.5318 126.31 57.2023 126.544 57.0216L127.383 56.3625C127.617 56.1818 127.947 56.2243 128.128 56.4582C128.308 56.692 128.266 57.0216 128.032 57.2023L127.192 57.8507C127.096 57.9251 126.979 57.9677 126.863 57.9677C126.703 57.9677 126.544 57.8933 126.448 57.7657ZM247.337 54.0982C247.103 53.8325 246.858 53.5773 246.614 53.3222C246.412 53.1096 246.422 52.7694 246.646 52.5674C246.858 52.3655 247.198 52.3761 247.4 52.5993C247.645 52.8651 247.889 53.1202 248.123 53.386C248.325 53.5986 248.304 53.9388 248.091 54.1407C247.985 54.2364 247.858 54.2789 247.73 54.2789C247.581 54.2789 247.443 54.2258 247.337 54.1088V54.0982ZM131.529 53.9069C131.359 53.673 131.412 53.3328 131.646 53.1627L132.507 52.5355C132.741 52.3655 133.081 52.4186 133.251 52.6525C133.421 52.8863 133.368 53.2265 133.134 53.3966L132.273 54.0238C132.178 54.0982 132.071 54.1301 131.965 54.1301C131.806 54.1301 131.636 54.0557 131.54 53.9069H131.529ZM136.728 50.2075C136.557 49.963 136.621 49.6335 136.866 49.474L137.748 48.8787C137.993 48.7086 138.322 48.783 138.482 49.0169C138.641 49.2614 138.577 49.5909 138.343 49.7504L137.461 50.3457C137.365 50.4095 137.27 50.4414 137.163 50.4414C136.993 50.4414 136.823 50.3563 136.728 50.2075ZM242.872 49.6016C242.617 49.3571 242.351 49.1232 242.096 48.8893C241.873 48.698 241.862 48.3578 242.053 48.1346C242.255 47.9113 242.585 47.9007 242.808 48.092C243.074 48.3365 243.34 48.5704 243.595 48.8149C243.807 49.0169 243.818 49.3464 243.627 49.5697C243.52 49.6866 243.382 49.7398 243.233 49.7398C243.106 49.7398 242.978 49.6972 242.872 49.6016ZM142.043 46.6888C141.883 46.4443 141.958 46.1148 142.213 45.9553L143.116 45.3919C143.361 45.2431 143.69 45.3175 143.85 45.562C144.009 45.8065 143.924 46.1361 143.68 46.2955L142.787 46.8589C142.702 46.9121 142.595 46.944 142.5 46.944C142.319 46.944 142.149 46.8589 142.053 46.6995L142.043 46.6888ZM238.056 45.4876C237.78 45.2644 237.504 45.0518 237.217 44.8392C236.983 44.6584 236.94 44.3289 237.121 44.095C237.302 43.8612 237.631 43.8186 237.865 43.9993C238.152 44.212 238.428 44.4352 238.715 44.6584C238.949 44.8391 238.992 45.1687 238.8 45.4026C238.694 45.5408 238.535 45.6045 238.386 45.6045C238.269 45.6045 238.152 45.562 238.056 45.4876ZM147.496 43.3509C147.347 43.0958 147.432 42.7769 147.687 42.628L148.612 42.0965C148.867 41.9477 149.197 42.0434 149.335 42.2985C149.484 42.5536 149.388 42.8725 149.133 43.0214L148.219 43.5529C148.134 43.606 148.038 43.6273 147.953 43.6273C147.772 43.6273 147.592 43.5316 147.496 43.3615V43.3509ZM232.911 41.7882C232.614 41.5969 232.316 41.4055 232.018 41.2142C231.774 41.0547 231.699 40.7252 231.859 40.4807C232.018 40.2362 232.348 40.1618 232.592 40.3212C232.89 40.5126 233.188 40.7039 233.496 40.9059C233.74 41.0654 233.815 41.3949 233.645 41.6394C233.538 41.7989 233.368 41.8839 233.198 41.8839C233.103 41.8839 232.996 41.852 232.911 41.7989V41.7882ZM153.066 40.2362C152.928 39.9811 153.024 39.6515 153.29 39.5133L154.236 39.0243C154.502 38.8861 154.82 38.9924 154.948 39.2476C155.076 39.5027 154.98 39.8322 154.725 39.9598L153.789 40.4488C153.715 40.4913 153.63 40.5126 153.545 40.5126C153.353 40.5126 153.173 40.4063 153.077 40.2256L153.066 40.2362ZM227.479 38.5353C227.171 38.3652 226.863 38.2058 226.544 38.0357C226.288 37.8975 226.182 37.5786 226.32 37.3235C226.459 37.0577 226.777 36.962 227.043 37.1002C227.362 37.2703 227.67 37.4298 227.989 37.5999C228.244 37.7381 228.34 38.0676 228.202 38.3227C228.106 38.5034 227.926 38.5991 227.734 38.5991C227.649 38.5991 227.564 38.5779 227.479 38.5353ZM158.775 37.366C158.647 37.1002 158.775 36.7813 159.03 36.6644L159.997 36.2179C160.263 36.101 160.582 36.2179 160.699 36.4837C160.816 36.7494 160.699 37.0683 160.433 37.1853L159.477 37.6318C159.402 37.6636 159.328 37.6849 159.253 37.6849C159.051 37.6849 158.86 37.568 158.775 37.3766V37.366ZM221.792 35.7608C221.473 35.6226 221.143 35.4844 220.824 35.3462C220.559 35.2293 220.431 34.921 220.537 34.6552C220.654 34.3895 220.963 34.2619 221.228 34.3682C221.558 34.5064 221.887 34.6446 222.217 34.7828C222.483 34.8997 222.61 35.2187 222.493 35.4844C222.408 35.6864 222.206 35.8033 222.004 35.8033C221.93 35.8033 221.866 35.7927 221.792 35.7608ZM164.622 34.7934C164.515 34.517 164.643 34.2088 164.919 34.1025L165.919 33.7091C166.195 33.6028 166.503 33.741 166.61 34.0174C166.716 34.2938 166.578 34.6021 166.301 34.7084L165.313 35.0911C165.249 35.1123 165.185 35.1336 165.121 35.1336C164.909 35.1336 164.707 35.006 164.622 34.7934ZM215.892 33.4753C215.562 33.3583 215.222 33.252 214.893 33.1457C214.616 33.0607 214.457 32.7524 214.553 32.476C214.638 32.1996 214.935 32.0508 215.222 32.1358C215.562 32.2421 215.903 32.3591 216.243 32.476C216.519 32.5717 216.668 32.8693 216.572 33.1457C216.498 33.369 216.285 33.5072 216.073 33.5072C216.02 33.5072 215.956 33.5072 215.903 33.4753H215.892ZM170.617 32.6036C170.532 32.3272 170.681 32.0295 170.968 31.9339C171.308 31.8276 171.648 31.7213 171.988 31.615C172.265 31.5405 172.563 31.6894 172.648 31.9764C172.733 32.2528 172.573 32.5504 172.286 32.6355C171.957 32.7311 171.616 32.8374 171.276 32.9438C171.223 32.965 171.17 32.965 171.117 32.965C170.894 32.965 170.681 32.8162 170.607 32.593L170.617 32.6036ZM209.811 31.7106C209.471 31.6256 209.131 31.5512 208.791 31.4661C208.504 31.4023 208.323 31.1153 208.387 30.8283C208.451 30.5413 208.738 30.3606 209.025 30.4244C209.376 30.4988 209.716 30.5838 210.067 30.6689C210.354 30.7433 210.524 31.0303 210.46 31.3067C210.396 31.5512 210.183 31.7106 209.939 31.7106C209.896 31.7106 209.854 31.7106 209.811 31.7V31.7106ZM176.762 30.9133C176.698 30.6263 176.878 30.3393 177.165 30.2862C177.516 30.2117 177.867 30.1373 178.218 30.0629C178.505 29.9991 178.781 30.1905 178.845 30.4775C178.909 30.7645 178.718 31.0409 178.431 31.1047C178.09 31.1791 177.74 31.2429 177.399 31.3173C177.357 31.3173 177.325 31.3279 177.282 31.3279C177.038 31.3279 176.815 31.1578 176.762 30.9133ZM203.603 30.4775C203.252 30.4244 202.912 30.3712 202.561 30.3287C202.274 30.2862 202.072 30.0204 202.104 29.7334C202.147 29.4464 202.413 29.2444 202.7 29.2763C203.05 29.3294 203.401 29.3719 203.752 29.4251C204.039 29.4676 204.241 29.744 204.199 30.031C204.156 30.2968 203.933 30.4775 203.678 30.4775C203.656 30.4775 203.625 30.4775 203.593 30.4775H203.603ZM183.033 29.7759C182.991 29.4889 183.204 29.2231 183.491 29.1806C183.841 29.1381 184.203 29.0956 184.554 29.053C184.851 29.0211 185.106 29.2338 185.138 29.5208C185.17 29.8078 184.958 30.0735 184.671 30.1054C184.32 30.148 183.969 30.1905 183.629 30.233C183.608 30.233 183.586 30.233 183.565 30.233C183.299 30.233 183.076 30.0417 183.033 29.7653V29.7759ZM197.31 29.7972C196.959 29.7759 196.608 29.7546 196.258 29.7334C195.96 29.7227 195.737 29.4676 195.758 29.1806C195.769 28.8829 196.024 28.6172 196.311 28.681C196.662 28.7022 197.023 28.7235 197.374 28.7448C197.672 28.766 197.884 29.0211 197.873 29.3082C197.852 29.5846 197.618 29.8078 197.342 29.8078C197.331 29.8078 197.321 29.8078 197.31 29.8078V29.7972ZM189.38 29.2019C189.369 28.9042 189.592 28.6597 189.89 28.6491C190.252 28.6384 190.602 28.6278 190.964 28.6172C191.261 28.6278 191.506 28.8404 191.506 29.1381C191.506 29.4357 191.283 29.6696 190.985 29.6802C190.634 29.6802 190.283 29.7015 189.933 29.7121H189.911C189.624 29.7121 189.39 29.4889 189.38 29.2019Z" fill="#172D3F"/>
<path d="M157.244 78.1753C157.244 77.9308 157.265 77.6863 157.319 77.4418L157.404 77.0166H164.186L164.271 77.4418C164.324 77.6863 164.345 77.9308 164.345 78.1753C164.345 80.1313 162.751 81.7259 160.795 81.7259C158.839 81.7259 157.244 80.1313 157.244 78.1753ZM158.307 78.0796C158.307 78.0796 158.307 78.1434 158.307 78.1753C158.307 79.5466 159.423 80.6628 160.795 80.6628C162.166 80.6628 163.282 79.5466 163.282 78.1753C163.282 78.1434 163.282 78.1115 163.282 78.0796H158.297H158.307Z" fill="#172D3F"/>
<path d="M167.534 66.3018C167.673 65.951 168.066 65.7809 168.417 65.9191L168.778 66.0573C168.853 66.0679 168.916 66.0786 168.991 66.0998C169.118 66.1423 169.214 66.2061 169.32 66.2699L172.02 67.3223C172.371 67.4605 172.541 67.8538 172.403 68.2046C172.329 68.396 172.169 68.5235 171.999 68.5873C171.999 68.6086 171.999 68.6298 171.999 68.6298C171.999 68.6298 171.404 68.7255 171.212 68.7468C169.767 68.9062 167.885 68.2259 167.566 67.503C167.396 67.0991 167.386 66.7483 167.513 66.4825C167.513 66.4187 167.513 66.3549 167.545 66.3018H167.534Z" fill="#172D3F"/>
<path d="M157.637 66.7485C157.541 66.387 157.18 66.1638 156.819 66.2595L156.446 66.3552C156.372 66.3552 156.308 66.3552 156.234 66.3764C156.106 66.3977 156 66.4508 155.883 66.504L153.077 67.2056C152.715 67.3013 152.492 67.6627 152.588 68.0241C152.641 68.2261 152.768 68.3749 152.938 68.46C152.938 68.4812 152.938 68.5025 152.938 68.5025C152.938 68.5025 153.512 68.6726 153.704 68.7257C155.118 69.0659 157.074 68.6301 157.478 67.9603C157.701 67.5883 157.754 67.2375 157.658 66.9611C157.658 66.8973 157.658 66.8335 157.658 66.7697L157.637 66.7485Z" fill="#172D3F"/>
<path d="M153.98 70.7553C154.225 70.9147 154.554 70.851 154.714 70.6065C154.948 70.245 157.223 70.0112 156.723 69.7135C155.66 69.0863 154.395 69.1714 153.832 70.0218C153.672 70.2663 153.736 70.5958 153.98 70.7553Z" fill="#172D3F"/>
<path d="M170.915 70.5434C170.67 70.7028 170.341 70.6391 170.181 70.3946C169.947 70.0331 167.672 69.7992 168.172 69.5016C169.235 68.8744 170.5 68.9594 171.064 69.8099C171.223 70.0544 171.159 70.3839 170.915 70.5434Z" fill="#172D3F"/>
<path d="M157.956 58.6375C157.956 58.6375 167.003 64.3354 173.243 65.6961C179.483 67.0568 185.181 66.5997 185.181 66.5997C185.181 66.5997 194.004 78.1762 189.39 84.4268C187.934 86.4041 182.736 87.1376 182.736 87.1376L218.294 105.188C218.294 105.188 216.657 86.9356 212.044 79.3349C207.43 71.7342 194.78 57.9147 173.913 55.863C169.15 55.3953 163.25 57.8721 157.956 58.6375Z" fill="#C33400"/>
<path d="M157.956 57.3086C161.039 59.2433 164.292 60.9867 167.63 62.4324C172.818 64.6861 178.398 65.494 184.043 65.3239C185.064 65.292 185.117 65.1432 185.68 65.9405C186.573 67.2161 187.381 68.5555 188.104 69.9269C189.093 71.8084 189.943 73.7963 190.4 75.8799C190.815 77.7296 190.804 79.6643 190.73 81.5459C190.655 83.6613 189.932 85.798 187.998 86.8717C186.414 87.7434 184.532 88.2005 182.746 88.4662V85.8086C193.111 91.0707 203.486 96.3327 213.851 101.595C215.339 102.35 216.817 103.104 218.305 103.859V106.517C217.975 102.881 217.433 99.2454 216.764 95.663C215.764 90.3053 214.574 84.5755 211.587 79.93C205.389 70.2883 195.418 62.9002 184.553 59.4028C180.546 58.1059 175.964 56.9259 171.723 57.1704C167.035 57.4468 162.58 59.2646 157.956 59.9768C158.073 59.9556 157.807 57.3405 157.956 57.3192C162.113 56.6814 166.088 55.2038 170.266 54.651C174.114 54.1514 178.133 54.9805 181.853 55.9479C188.434 57.67 194.61 60.7422 199.999 64.8881C204.103 68.0453 207.802 71.7978 210.768 76.05C213.83 80.4403 215.243 85.5854 216.328 90.7837C217.231 95.089 217.912 99.4793 218.305 103.87C218.337 104.199 218.124 106.432 218.305 106.527C207.94 101.265 197.565 96.0032 187.2 90.7411C185.712 89.9864 184.235 89.2316 182.746 88.4769C182.597 88.4025 182.778 85.8193 182.746 85.8193C185.946 85.3515 189.507 84.3735 190.453 80.908C190.506 80.7167 190.592 79.6218 190.698 79.5686C190.592 79.6218 190.868 81.7904 190.687 80.2702C190.655 80.0363 190.634 79.7918 190.602 79.558C190.443 78.5375 190.177 77.5382 189.847 76.5602C189.241 74.7849 188.412 73.0841 187.487 71.4576C186.882 70.4052 186.265 69.2146 185.457 68.2898C184.968 67.7157 184.362 67.9921 183.575 68.0134C178.356 68.1091 173.147 67.4181 168.321 65.3983C164.738 63.8994 161.262 62.0497 157.967 59.9768C157.552 59.7217 158.35 57.5637 157.967 57.3192L157.956 57.3086Z" fill="#172D3F"/>
<path d="M252.471 152.96C251.918 152.556 251.642 151.886 251.759 151.206C251.833 150.802 251.695 150.377 251.398 150.09C250.909 149.611 250.728 148.91 250.94 148.251C251.153 147.592 251.706 147.124 252.386 147.028C252.801 146.964 253.152 146.709 253.332 146.337C253.641 145.721 254.257 145.338 254.938 145.338C255.618 145.338 256.245 145.721 256.543 146.337C256.723 146.709 257.085 146.964 257.489 147.028C258.169 147.124 258.722 147.592 258.935 148.251C259.147 148.91 258.977 149.611 258.477 150.09C258.18 150.377 258.042 150.802 258.116 151.206C258.233 151.886 257.957 152.556 257.404 152.96C256.851 153.364 256.128 153.417 255.512 153.098C255.139 152.907 254.704 152.907 254.342 153.098C254.076 153.236 253.789 153.311 253.502 153.311C253.13 153.311 252.769 153.194 252.45 152.97L252.471 152.96ZM255.777 152.63C256.213 152.854 256.713 152.822 257.106 152.535C257.499 152.248 257.691 151.78 257.606 151.302C257.51 150.717 257.701 150.132 258.127 149.718C258.477 149.377 258.594 148.888 258.446 148.421C258.297 147.953 257.914 147.634 257.425 147.56C256.84 147.475 256.341 147.113 256.075 146.582C255.862 146.146 255.437 145.88 254.948 145.88C254.459 145.88 254.034 146.146 253.821 146.582C253.556 147.113 253.056 147.475 252.471 147.56C251.982 147.634 251.6 147.953 251.451 148.421C251.302 148.888 251.419 149.367 251.77 149.718C252.195 150.132 252.386 150.727 252.28 151.302C252.195 151.791 252.386 152.248 252.78 152.535C253.173 152.822 253.672 152.854 254.108 152.63C254.374 152.492 254.661 152.418 254.948 152.418C255.235 152.418 255.522 152.492 255.777 152.62V152.63Z" fill="white"/>
<path d="M245.072 161.049C244.7 160.858 244.264 160.858 243.903 161.049C243.297 161.368 242.574 161.315 242.01 160.911C241.458 160.507 241.181 159.837 241.298 159.157C241.373 158.753 241.234 158.328 240.937 158.041C240.448 157.562 240.267 156.861 240.48 156.202C240.692 155.543 241.245 155.086 241.925 154.979C242.34 154.916 242.691 154.66 242.871 154.288C243.18 153.672 243.796 153.289 244.477 153.289C245.157 153.289 245.784 153.672 246.082 154.288C246.262 154.66 246.624 154.916 247.028 154.979C247.708 155.075 248.261 155.543 248.474 156.202C248.686 156.861 248.516 157.562 248.016 158.041C247.719 158.328 247.581 158.753 247.655 159.157C247.772 159.837 247.496 160.507 246.943 160.911C246.624 161.134 246.262 161.251 245.89 161.251C245.603 161.251 245.316 161.187 245.051 161.039L245.072 161.049ZM243.35 154.533C243.084 155.064 242.584 155.426 242 155.511C241.511 155.585 241.128 155.904 240.979 156.372C240.83 156.84 240.947 157.318 241.298 157.669C241.723 158.083 241.915 158.679 241.819 159.253C241.734 159.742 241.925 160.199 242.319 160.486C242.712 160.773 243.212 160.805 243.647 160.582C244.168 160.305 244.795 160.305 245.316 160.582C245.752 160.805 246.252 160.773 246.645 160.486C247.039 160.199 247.23 159.731 247.145 159.253C247.049 158.668 247.24 158.083 247.655 157.669C248.006 157.329 248.123 156.84 247.974 156.372C247.825 155.904 247.442 155.585 246.953 155.511C246.369 155.426 245.869 155.064 245.603 154.533C245.391 154.097 244.966 153.831 244.477 153.831C243.988 153.831 243.562 154.097 243.35 154.533Z" fill="white"/>
<path d="M256.904 168.81C256.532 168.619 256.096 168.619 255.734 168.81C255.128 169.129 254.406 169.076 253.842 168.672C253.289 168.268 253.013 167.598 253.13 166.918C253.204 166.514 253.066 166.089 252.768 165.802C252.279 165.323 252.099 164.622 252.311 163.963C252.524 163.303 253.077 162.846 253.757 162.74C254.172 162.676 254.522 162.421 254.703 162.049C255.011 161.433 255.628 161.05 256.308 161.05C256.989 161.05 257.616 161.433 257.914 162.049C258.094 162.421 258.456 162.676 258.86 162.74C259.54 162.836 260.093 163.303 260.305 163.963C260.518 164.622 260.348 165.323 259.848 165.802C259.551 166.089 259.412 166.514 259.487 166.918C259.604 167.598 259.327 168.268 258.775 168.672C258.456 168.895 258.094 169.012 257.722 169.012C257.435 169.012 257.148 168.948 256.882 168.799L256.904 168.81ZM255.182 162.294C254.916 162.825 254.416 163.187 253.831 163.272C253.342 163.346 252.96 163.665 252.811 164.133C252.662 164.6 252.779 165.079 253.13 165.43C253.555 165.844 253.746 166.439 253.651 167.013C253.566 167.502 253.757 167.96 254.15 168.247C254.544 168.534 255.043 168.576 255.479 168.342C256 168.066 256.627 168.066 257.148 168.342C257.584 168.576 258.084 168.534 258.477 168.247C258.87 167.96 259.062 167.492 258.977 167.013C258.881 166.429 259.072 165.844 259.487 165.43C259.838 165.089 259.955 164.6 259.806 164.133C259.657 163.665 259.274 163.346 258.785 163.272C258.201 163.187 257.701 162.825 257.435 162.294C257.223 161.858 256.797 161.592 256.308 161.592C255.819 161.592 255.394 161.858 255.182 162.294Z" fill="white"/>
<path d="M243.658 176.378C243.286 176.187 242.85 176.187 242.488 176.378C241.883 176.697 241.16 176.644 240.596 176.24C240.043 175.836 239.767 175.166 239.884 174.486C239.958 174.082 239.82 173.657 239.523 173.37C239.034 172.892 238.853 172.19 239.065 171.531C239.278 170.872 239.831 170.415 240.511 170.308C240.926 170.245 241.277 169.989 241.457 169.617C241.766 169.001 242.382 168.618 243.063 168.618C243.743 168.618 244.37 169.001 244.668 169.617C244.848 169.989 245.21 170.245 245.614 170.308C246.294 170.404 246.847 170.872 247.06 171.531C247.272 172.19 247.102 172.892 246.602 173.37C246.305 173.657 246.167 174.082 246.241 174.486C246.358 175.166 246.082 175.836 245.529 176.24C245.21 176.463 244.848 176.58 244.476 176.58C244.189 176.58 243.902 176.517 243.637 176.368L243.658 176.378ZM241.936 169.862C241.67 170.393 241.17 170.755 240.586 170.84C240.097 170.914 239.714 171.233 239.565 171.701C239.416 172.169 239.533 172.647 239.884 172.998C240.309 173.412 240.501 174.008 240.405 174.582C240.32 175.071 240.511 175.528 240.905 175.815C241.298 176.102 241.797 176.144 242.233 175.911C242.754 175.634 243.381 175.634 243.902 175.911C244.338 176.144 244.838 176.102 245.231 175.815C245.624 175.528 245.816 175.06 245.731 174.582C245.635 173.997 245.826 173.412 246.252 172.998C246.602 172.658 246.719 172.169 246.571 171.701C246.422 171.233 246.039 170.914 245.55 170.84C244.965 170.755 244.466 170.393 244.2 169.862C243.987 169.426 243.562 169.16 243.073 169.16C242.584 169.16 242.159 169.426 241.946 169.862H241.936Z" fill="white"/>
<path d="M230.126 184.203C229.573 183.799 229.296 183.129 229.413 182.449C229.488 182.045 229.35 181.62 229.052 181.333C228.563 180.854 228.382 180.153 228.595 179.494C228.807 178.835 229.36 178.378 230.041 178.271C230.455 178.207 230.806 177.952 230.987 177.58C231.295 176.964 231.911 176.581 232.592 176.581C233.272 176.581 233.899 176.964 234.197 177.58C234.378 177.952 234.739 178.207 235.143 178.271C235.823 178.367 236.376 178.835 236.589 179.494C236.801 180.153 236.631 180.854 236.132 181.333C235.834 181.62 235.696 182.045 235.77 182.449C235.887 183.129 235.611 183.799 235.058 184.203C234.505 184.607 233.782 184.66 233.166 184.341C232.794 184.15 232.358 184.15 231.997 184.341C231.731 184.479 231.444 184.554 231.157 184.554C230.785 184.554 230.423 184.437 230.104 184.214L230.126 184.203ZM233.432 183.873C233.867 184.097 234.367 184.065 234.76 183.778C235.154 183.491 235.345 183.023 235.26 182.545C235.164 181.96 235.356 181.375 235.781 180.961C236.132 180.621 236.249 180.132 236.1 179.664C235.951 179.196 235.568 178.877 235.079 178.803C234.495 178.718 233.995 178.356 233.729 177.825C233.517 177.389 233.091 177.123 232.602 177.123C232.113 177.123 231.688 177.389 231.476 177.825C231.21 178.356 230.71 178.718 230.126 178.803C229.637 178.877 229.254 179.196 229.105 179.664C228.956 180.132 229.073 180.61 229.424 180.961C229.849 181.375 230.041 181.971 229.934 182.545C229.849 183.034 230.041 183.491 230.434 183.778C230.827 184.065 231.327 184.097 231.763 183.873C232.028 183.735 232.315 183.661 232.602 183.661C232.889 183.661 233.176 183.735 233.432 183.863V183.873Z" fill="white"/>
<path d="M228.223 169.469C227.67 169.065 227.394 168.395 227.511 167.715C227.585 167.311 227.447 166.885 227.15 166.598C226.661 166.12 226.48 165.418 226.692 164.759C226.905 164.1 227.458 163.643 228.138 163.537C228.553 163.473 228.904 163.218 229.084 162.846C229.393 162.229 230.009 161.847 230.689 161.847C231.37 161.847 231.997 162.229 232.295 162.846C232.475 163.218 232.837 163.473 233.241 163.537C233.921 163.633 234.474 164.1 234.686 164.759C234.899 165.418 234.729 166.12 234.229 166.598C233.932 166.885 233.794 167.311 233.868 167.715C233.985 168.395 233.708 169.065 233.156 169.469C232.603 169.873 231.88 169.926 231.264 169.607C230.891 169.416 230.456 169.416 230.094 169.607C229.828 169.745 229.541 169.819 229.254 169.819C228.882 169.819 228.521 169.703 228.202 169.479L228.223 169.469ZM231.529 169.139C231.965 169.362 232.465 169.33 232.858 169.043C233.251 168.756 233.443 168.289 233.358 167.81C233.262 167.226 233.453 166.63 233.879 166.226C234.229 165.886 234.346 165.397 234.197 164.929C234.049 164.462 233.666 164.143 233.177 164.068C232.592 163.983 232.093 163.622 231.827 163.09C231.614 162.655 231.189 162.389 230.7 162.389C230.211 162.389 229.786 162.655 229.573 163.09C229.308 163.622 228.808 163.983 228.223 164.068C227.734 164.143 227.352 164.462 227.203 164.929C227.054 165.397 227.171 165.876 227.522 166.226C227.947 166.641 228.138 167.236 228.043 167.81C227.957 168.299 228.149 168.756 228.542 169.043C228.935 169.33 229.435 169.362 229.871 169.139C230.137 169.001 230.424 168.927 230.711 168.927C230.998 168.927 231.285 169.001 231.54 169.128L231.529 169.139Z" fill="white"/>
<path d="M216.093 161.656C215.721 161.464 215.285 161.464 214.924 161.656C214.318 161.975 213.595 161.921 213.032 161.517C212.479 161.114 212.203 160.444 212.32 159.763C212.394 159.36 212.256 158.934 211.958 158.647C211.469 158.169 211.288 157.467 211.501 156.808C211.714 156.149 212.266 155.692 212.947 155.586C213.361 155.522 213.712 155.267 213.893 154.895C214.201 154.278 214.818 153.896 215.498 153.896C216.178 153.896 216.806 154.278 217.103 154.895C217.284 155.267 217.645 155.522 218.049 155.586C218.73 155.681 219.282 156.149 219.495 156.808C219.708 157.467 219.538 158.169 219.038 158.647C218.74 158.934 218.602 159.36 218.677 159.763C218.793 160.444 218.517 161.114 217.964 161.517C217.645 161.741 217.284 161.858 216.912 161.858C216.625 161.858 216.338 161.794 216.072 161.645L216.093 161.656ZM214.371 155.139C214.105 155.671 213.606 156.032 213.021 156.117C212.532 156.192 212.149 156.511 212.001 156.978C211.852 157.446 211.969 157.924 212.32 158.275C212.745 158.69 212.936 159.285 212.84 159.859C212.755 160.348 212.947 160.805 213.34 161.092C213.733 161.379 214.233 161.422 214.669 161.188C215.19 160.912 215.817 160.912 216.338 161.188C216.774 161.422 217.273 161.379 217.667 161.092C218.06 160.805 218.251 160.338 218.166 159.859C218.071 159.274 218.262 158.679 218.687 158.275C219.038 157.935 219.155 157.446 219.006 156.978C218.857 156.511 218.475 156.192 217.986 156.117C217.401 156.032 216.901 155.671 216.635 155.139C216.423 154.703 215.998 154.438 215.509 154.438C215.02 154.438 214.594 154.703 214.382 155.139H214.371Z" fill="white"/>
<path d="M202.572 169.469C202.019 169.065 201.743 168.395 201.86 167.715C201.934 167.311 201.796 166.885 201.498 166.598C201.009 166.12 200.828 165.418 201.041 164.759C201.254 164.1 201.806 163.643 202.487 163.537C202.901 163.473 203.252 163.218 203.433 162.846C203.741 162.229 204.358 161.847 205.038 161.847C205.718 161.847 206.346 162.229 206.643 162.846C206.824 163.218 207.185 163.473 207.589 163.537C208.27 163.633 208.823 164.1 209.035 164.759C209.248 165.418 209.078 166.12 208.578 166.598C208.28 166.885 208.142 167.311 208.217 167.715C208.334 168.395 208.057 169.065 207.504 169.469C206.952 169.873 206.229 169.926 205.612 169.607C205.24 169.416 204.804 169.416 204.443 169.607C204.177 169.745 203.89 169.819 203.603 169.819C203.231 169.819 202.869 169.703 202.551 169.479L202.572 169.469ZM205.878 169.139C206.314 169.362 206.813 169.33 207.207 169.043C207.6 168.756 207.791 168.289 207.706 167.81C207.611 167.226 207.802 166.641 208.227 166.226C208.578 165.886 208.695 165.397 208.546 164.929C208.397 164.462 208.015 164.143 207.526 164.068C206.941 163.983 206.441 163.622 206.176 163.09C205.963 162.655 205.538 162.389 205.049 162.389C204.56 162.389 204.135 162.655 203.922 163.09C203.656 163.622 203.157 163.983 202.572 164.068C202.083 164.143 201.7 164.462 201.551 164.929C201.403 165.397 201.519 165.876 201.87 166.226C202.295 166.641 202.487 167.236 202.391 167.81C202.306 168.299 202.497 168.756 202.891 169.043C203.284 169.33 203.784 169.362 204.22 169.139C204.485 169.001 204.772 168.927 205.059 168.927C205.346 168.927 205.633 169.001 205.889 169.128L205.878 169.139Z" fill="white"/>
<path d="M217.465 177.368C217.093 177.176 216.658 177.176 216.296 177.368C215.69 177.687 214.967 177.633 214.404 177.229C213.851 176.825 213.575 176.156 213.692 175.475C213.766 175.071 213.628 174.646 213.33 174.359C212.841 173.881 212.66 173.179 212.873 172.52C213.086 171.861 213.638 171.404 214.319 171.298C214.733 171.234 215.084 170.979 215.265 170.607C215.573 169.99 216.19 169.607 216.87 169.607C217.55 169.607 218.178 169.99 218.475 170.607C218.656 170.979 219.017 171.234 219.421 171.298C220.102 171.393 220.655 171.861 220.867 172.52C221.08 173.179 220.91 173.881 220.41 174.359C220.112 174.646 219.974 175.071 220.049 175.475C220.166 176.156 219.889 176.825 219.336 177.229C219.017 177.453 218.656 177.57 218.284 177.57C217.997 177.57 217.71 177.506 217.444 177.357L217.465 177.368ZM215.743 170.851C215.478 171.383 214.978 171.744 214.393 171.829C213.904 171.904 213.522 172.222 213.373 172.69C213.224 173.158 213.341 173.636 213.692 173.987C214.117 174.402 214.308 174.997 214.202 175.571C214.117 176.06 214.308 176.517 214.702 176.804C215.095 177.091 215.594 177.123 216.03 176.9C216.551 176.623 217.178 176.623 217.699 176.9C218.135 177.123 218.635 177.091 219.028 176.804C219.421 176.517 219.613 176.049 219.528 175.571C219.432 174.986 219.623 174.402 220.049 173.987C220.399 173.647 220.516 173.158 220.368 172.69C220.219 172.222 219.836 171.904 219.347 171.829C218.762 171.744 218.263 171.383 217.997 170.851C217.784 170.415 217.359 170.15 216.87 170.15C216.381 170.15 215.956 170.415 215.743 170.851Z" fill="white"/>
<path d="M231.083 137.971C230.711 137.78 230.275 137.78 229.913 137.971C229.307 138.29 228.584 138.237 228.021 137.833C227.468 137.429 227.192 136.759 227.309 136.079C227.383 135.675 227.245 135.25 226.947 134.963C226.458 134.484 226.278 133.783 226.49 133.124C226.703 132.465 227.256 132.007 227.936 131.901C228.351 131.837 228.701 131.582 228.882 131.21C229.19 130.594 229.807 130.211 230.487 130.211C231.168 130.211 231.795 130.594 232.093 131.21C232.273 131.582 232.635 131.837 233.039 131.901C233.719 131.997 234.272 132.465 234.484 133.124C234.697 133.783 234.527 134.484 234.027 134.963C233.73 135.25 233.591 135.675 233.666 136.079C233.783 136.759 233.506 137.429 232.954 137.833C232.635 138.056 232.273 138.173 231.901 138.173C231.614 138.173 231.327 138.109 231.061 137.96L231.083 137.971ZM229.36 131.455C229.095 131.986 228.595 132.348 228.01 132.433C227.521 132.507 227.139 132.826 226.99 133.294C226.841 133.761 226.958 134.24 227.309 134.591C227.734 135.005 227.925 135.601 227.819 136.175C227.734 136.664 227.925 137.121 228.319 137.408C228.712 137.695 229.212 137.737 229.648 137.503C230.168 137.227 230.796 137.227 231.316 137.503C231.752 137.737 232.252 137.695 232.645 137.408C233.039 137.121 233.23 136.653 233.145 136.175C233.049 135.59 233.241 135.005 233.666 134.591C234.017 134.25 234.134 133.761 233.985 133.294C233.836 132.826 233.453 132.507 232.964 132.433C232.38 132.348 231.88 131.986 231.614 131.455C231.402 131.019 230.976 130.753 230.487 130.753C229.998 130.753 229.573 131.019 229.36 131.455Z" fill="white"/>
<path d="M217.561 145.784C217.008 145.38 216.732 144.71 216.849 144.03C216.923 143.626 216.785 143.201 216.487 142.914C215.998 142.436 215.818 141.734 216.03 141.075C216.243 140.416 216.796 139.948 217.476 139.852C217.891 139.789 218.241 139.533 218.422 139.161C218.73 138.545 219.347 138.162 220.027 138.162C220.708 138.162 221.335 138.545 221.633 139.161C221.813 139.533 222.175 139.789 222.579 139.852C223.259 139.948 223.812 140.416 224.024 141.075C224.237 141.734 224.067 142.436 223.567 142.914C223.27 143.201 223.131 143.626 223.206 144.03C223.323 144.71 223.046 145.38 222.494 145.784C221.941 146.188 221.218 146.241 220.601 145.922C220.229 145.731 219.793 145.731 219.432 145.922C219.166 146.06 218.879 146.135 218.592 146.135C218.22 146.135 217.859 146.018 217.54 145.795L217.561 145.784ZM220.867 145.455C221.303 145.688 221.803 145.646 222.196 145.359C222.589 145.072 222.781 144.604 222.696 144.126C222.6 143.541 222.791 142.956 223.206 142.542C223.557 142.202 223.674 141.713 223.525 141.245C223.376 140.777 222.993 140.458 222.504 140.384C221.92 140.299 221.42 139.937 221.154 139.406C220.942 138.97 220.516 138.704 220.027 138.704C219.538 138.704 219.113 138.97 218.901 139.406C218.635 139.937 218.135 140.299 217.55 140.384C217.061 140.458 216.679 140.777 216.53 141.245C216.381 141.713 216.498 142.191 216.849 142.542C217.274 142.956 217.465 143.552 217.37 144.126C217.285 144.615 217.476 145.072 217.869 145.359C218.263 145.646 218.762 145.678 219.198 145.455C219.464 145.316 219.751 145.242 220.038 145.242C220.325 145.242 220.612 145.316 220.867 145.444V145.455Z" fill="white"/>
<path d="M229.392 153.545C228.84 153.141 228.563 152.471 228.68 151.791C228.755 151.387 228.616 150.962 228.319 150.675C227.83 150.196 227.649 149.495 227.862 148.836C228.074 148.176 228.627 147.709 229.307 147.613C229.722 147.549 230.073 147.294 230.253 146.922C230.562 146.306 231.178 145.923 231.859 145.923C232.55 145.923 233.166 146.306 233.464 146.922C233.645 147.294 234.006 147.549 234.41 147.613C235.09 147.709 235.643 148.176 235.856 148.836C236.068 149.495 235.898 150.196 235.399 150.675C235.101 150.962 234.963 151.387 235.037 151.791C235.154 152.471 234.878 153.141 234.325 153.545C233.772 153.949 233.049 154.002 232.433 153.683C232.061 153.492 231.625 153.492 231.263 153.683C230.998 153.821 230.711 153.896 230.424 153.896C230.051 153.896 229.69 153.779 229.371 153.555L229.392 153.545ZM232.698 153.215C233.134 153.439 233.634 153.407 234.027 153.12C234.421 152.833 234.612 152.365 234.527 151.886C234.431 151.302 234.623 150.717 235.037 150.303C235.388 149.962 235.505 149.473 235.356 149.006C235.207 148.538 234.825 148.219 234.336 148.145C233.751 148.06 233.251 147.698 232.985 147.167C232.773 146.731 232.348 146.465 231.859 146.465C231.37 146.465 230.944 146.731 230.732 147.167C230.466 147.698 229.966 148.06 229.382 148.145C228.893 148.219 228.51 148.538 228.361 149.006C228.212 149.473 228.329 149.952 228.68 150.303C229.105 150.717 229.297 151.312 229.201 151.886C229.116 152.375 229.307 152.833 229.701 153.12C230.094 153.407 230.594 153.439 231.029 153.215C231.295 153.077 231.582 153.003 231.869 153.003C232.156 153.003 232.443 153.077 232.698 153.205V153.215Z" fill="white"/>
<path d="M192.335 161.656C191.963 161.464 191.527 161.464 191.165 161.656C190.56 161.975 189.837 161.921 189.273 161.517C188.72 161.114 188.444 160.444 188.561 159.763C188.635 159.36 188.497 158.934 188.2 158.647C187.711 158.169 187.53 157.467 187.742 156.808C187.955 156.149 188.508 155.692 189.188 155.586C189.603 155.522 189.954 155.267 190.134 154.895C190.443 154.278 191.059 153.896 191.74 153.896C192.42 153.896 193.047 154.278 193.345 154.895C193.525 155.267 193.887 155.522 194.291 155.586C194.971 155.681 195.524 156.149 195.737 156.808C195.949 157.467 195.779 158.169 195.279 158.647C194.982 158.934 194.844 159.36 194.918 159.763C195.035 160.444 194.759 161.114 194.206 161.517C193.887 161.741 193.525 161.858 193.153 161.858C192.866 161.858 192.579 161.794 192.314 161.645L192.335 161.656ZM190.613 155.139C190.347 155.671 189.847 156.032 189.263 156.117C188.774 156.192 188.391 156.511 188.242 156.978C188.093 157.446 188.21 157.924 188.561 158.275C188.986 158.69 189.178 159.285 189.082 159.859C188.997 160.348 189.188 160.805 189.582 161.092C189.975 161.379 190.474 161.422 190.91 161.188C191.431 160.912 192.058 160.912 192.579 161.188C193.015 161.422 193.515 161.379 193.908 161.092C194.301 160.805 194.493 160.338 194.408 159.859C194.312 159.274 194.503 158.69 194.929 158.275C195.279 157.935 195.396 157.446 195.248 156.978C195.099 156.511 194.716 156.192 194.227 156.117C193.642 156.032 193.143 155.671 192.877 155.139C192.664 154.703 192.239 154.438 191.75 154.438C191.261 154.438 190.836 154.703 190.623 155.139H190.613Z" fill="white"/>
<path d="M178.802 169.469C178.25 169.065 177.973 168.395 178.09 167.715C178.164 167.311 178.026 166.885 177.729 166.598C177.24 166.12 177.059 165.418 177.272 164.759C177.484 164.1 178.037 163.643 178.717 163.537C179.132 163.473 179.483 163.218 179.663 162.846C179.972 162.229 180.588 161.847 181.269 161.847C181.949 161.847 182.576 162.229 182.874 162.846C183.054 163.218 183.416 163.473 183.82 163.537C184.5 163.633 185.053 164.1 185.266 164.759C185.478 165.418 185.308 166.12 184.808 166.598C184.511 166.885 184.373 167.311 184.447 167.715C184.564 168.395 184.288 169.065 183.735 169.469C183.182 169.873 182.459 169.926 181.843 169.607C181.471 169.416 181.035 169.416 180.673 169.607C180.408 169.745 180.12 169.819 179.833 169.819C179.461 169.819 179.1 169.703 178.781 169.479L178.802 169.469ZM182.108 169.139C182.544 169.362 183.044 169.33 183.437 169.043C183.83 168.756 184.022 168.289 183.937 167.81C183.841 167.226 184.032 166.641 184.458 166.226C184.808 165.886 184.925 165.397 184.777 164.929C184.628 164.462 184.245 164.143 183.756 164.068C183.171 163.983 182.672 163.622 182.406 163.09C182.193 162.655 181.768 162.389 181.279 162.389C180.79 162.389 180.365 162.655 180.152 163.09C179.887 163.622 179.387 163.983 178.802 164.068C178.313 164.143 177.931 164.462 177.782 164.929C177.633 165.397 177.75 165.876 178.101 166.226C178.526 166.641 178.717 167.236 178.611 167.81C178.526 168.299 178.717 168.756 179.111 169.043C179.504 169.33 180.004 169.362 180.439 169.139C180.705 169.001 180.992 168.927 181.279 168.927C181.566 168.927 181.853 169.001 182.108 169.128V169.139Z" fill="white"/>
<path d="M193.696 177.368C193.324 177.176 192.888 177.176 192.527 177.368C191.921 177.687 191.198 177.633 190.634 177.229C190.082 176.825 189.805 176.156 189.922 175.475C189.997 175.071 189.858 174.646 189.561 174.359C189.072 173.881 188.891 173.179 189.104 172.52C189.316 171.861 189.869 171.404 190.549 171.298C190.964 171.234 191.315 170.979 191.495 170.607C191.804 169.99 192.42 169.607 193.101 169.607C193.781 169.607 194.408 169.99 194.706 170.607C194.887 170.979 195.248 171.234 195.652 171.298C196.332 171.393 196.885 171.861 197.098 172.52C197.31 173.179 197.14 173.881 196.641 174.359C196.343 174.646 196.205 175.071 196.279 175.475C196.396 176.156 196.12 176.825 195.567 177.229C195.248 177.453 194.886 177.57 194.514 177.57C194.227 177.57 193.94 177.506 193.675 177.357L193.696 177.368ZM191.974 170.851C191.708 171.383 191.208 171.744 190.624 171.829C190.135 171.904 189.752 172.222 189.603 172.69C189.454 173.158 189.571 173.636 189.922 173.987C190.347 174.402 190.539 174.997 190.432 175.571C190.347 176.06 190.539 176.517 190.932 176.804C191.325 177.091 191.825 177.123 192.261 176.9C192.782 176.623 193.409 176.623 193.93 176.9C194.366 177.123 194.865 177.091 195.259 176.804C195.652 176.517 195.843 176.049 195.758 175.571C195.663 174.986 195.854 174.402 196.279 173.987C196.63 173.647 196.747 173.158 196.598 172.69C196.449 172.222 196.066 171.904 195.577 171.829C194.993 171.744 194.493 171.383 194.227 170.851C194.015 170.415 193.59 170.15 193.101 170.15C192.612 170.15 192.186 170.415 191.974 170.851Z" fill="white"/>
<path d="M255.703 184.085C255.331 183.894 254.895 183.894 254.533 184.085C253.927 184.404 253.205 184.351 252.641 183.947C252.088 183.543 251.812 182.874 251.929 182.193C252.003 181.789 251.865 181.364 251.568 181.077C251.079 180.599 250.898 179.897 251.11 179.238C251.323 178.579 251.876 178.122 252.556 178.015C252.971 177.952 253.322 177.697 253.502 177.324C253.811 176.708 254.427 176.325 255.107 176.325C255.788 176.325 256.415 176.708 256.713 177.324C256.893 177.697 257.255 177.952 257.659 178.015C258.339 178.111 258.892 178.579 259.104 179.238C259.317 179.897 259.147 180.599 258.647 181.077C258.35 181.364 258.212 181.789 258.286 182.193C258.403 182.874 258.126 183.543 257.574 183.947C257.255 184.17 256.893 184.287 256.521 184.287C256.234 184.287 255.947 184.224 255.681 184.075L255.703 184.085ZM253.981 177.569C253.715 178.1 253.215 178.462 252.631 178.547C252.142 178.621 251.759 178.94 251.61 179.408C251.461 179.876 251.578 180.354 251.929 180.705C252.354 181.12 252.546 181.715 252.439 182.289C252.354 182.778 252.546 183.235 252.939 183.522C253.332 183.809 253.832 183.852 254.268 183.618C254.789 183.341 255.416 183.341 255.937 183.618C256.372 183.841 256.872 183.809 257.265 183.522C257.659 183.235 257.85 182.767 257.765 182.289C257.669 181.704 257.861 181.12 258.286 180.705C258.637 180.365 258.754 179.876 258.605 179.408C258.456 178.94 258.073 178.621 257.584 178.547C257 178.462 256.5 178.1 256.234 177.569C256.022 177.133 255.596 176.867 255.107 176.867C254.618 176.867 254.193 177.133 253.981 177.569Z" fill="white"/>
<path d="M187.838 146.667C187.286 146.263 187.009 145.593 187.126 144.913C187.201 144.509 187.062 144.084 186.765 143.797C186.276 143.318 186.095 142.617 186.308 141.958C186.52 141.299 187.073 140.841 187.753 140.735C188.168 140.671 188.519 140.416 188.7 140.044C189.008 139.428 189.624 139.045 190.305 139.045C190.985 139.045 191.612 139.428 191.91 140.044C192.091 140.416 192.452 140.671 192.856 140.735C193.536 140.831 194.089 141.299 194.302 141.958C194.514 142.617 194.344 143.318 193.845 143.797C193.547 144.084 193.409 144.509 193.483 144.913C193.6 145.593 193.324 146.263 192.771 146.667C192.218 147.071 191.495 147.124 190.879 146.805C190.507 146.614 190.071 146.614 189.709 146.805C189.444 146.943 189.157 147.018 188.87 147.018C188.498 147.018 188.136 146.901 187.817 146.678L187.838 146.667ZM191.145 146.337C191.58 146.561 192.08 146.529 192.473 146.242C192.867 145.955 193.058 145.487 192.973 145.009C192.877 144.424 193.069 143.829 193.494 143.425C193.845 143.084 193.962 142.595 193.813 142.128C193.664 141.66 193.281 141.341 192.792 141.267C192.208 141.182 191.708 140.82 191.442 140.289C191.23 139.853 190.804 139.587 190.315 139.587C189.826 139.587 189.401 139.853 189.189 140.289C188.923 140.82 188.423 141.182 187.838 141.267C187.349 141.341 186.967 141.66 186.818 142.128C186.669 142.595 186.786 143.074 187.137 143.425C187.562 143.839 187.753 144.435 187.658 145.009C187.573 145.498 187.764 145.955 188.157 146.242C188.551 146.529 189.05 146.561 189.486 146.337C189.752 146.199 190.039 146.125 190.326 146.125C190.613 146.125 190.9 146.199 191.155 146.327L191.145 146.337Z" fill="white"/>
<path d="M205.782 152.29C205.41 152.099 204.974 152.099 204.612 152.29C204.007 152.609 203.284 152.556 202.72 152.152C202.168 151.748 201.891 151.079 202.008 150.398C202.082 149.994 201.944 149.569 201.647 149.282C201.158 148.804 200.977 148.102 201.19 147.443C201.402 146.784 201.955 146.327 202.635 146.221C203.05 146.157 203.401 145.902 203.581 145.53C203.89 144.913 204.506 144.53 205.187 144.53C205.867 144.53 206.494 144.913 206.792 145.53C206.972 145.902 207.334 146.157 207.738 146.221C208.418 146.316 208.971 146.784 209.184 147.443C209.396 148.102 209.226 148.804 208.726 149.282C208.429 149.569 208.291 149.994 208.365 150.398C208.482 151.079 208.206 151.748 207.653 152.152C207.334 152.375 206.972 152.492 206.6 152.492C206.313 152.492 206.026 152.429 205.761 152.28L205.782 152.29ZM204.06 145.774C203.794 146.306 203.294 146.667 202.71 146.752C202.221 146.826 201.838 147.145 201.689 147.613C201.54 148.081 201.657 148.559 202.008 148.91C202.433 149.325 202.625 149.92 202.529 150.494C202.444 150.983 202.635 151.44 203.029 151.727C203.422 152.014 203.922 152.046 204.357 151.823C204.878 151.546 205.505 151.546 206.026 151.823C206.462 152.057 206.962 152.014 207.355 151.727C207.748 151.44 207.94 150.972 207.855 150.494C207.759 149.909 207.95 149.314 208.376 148.91C208.726 148.57 208.843 148.081 208.695 147.613C208.546 147.145 208.163 146.826 207.674 146.752C207.089 146.667 206.59 146.306 206.324 145.774C206.111 145.338 205.686 145.072 205.197 145.072C204.708 145.072 204.283 145.338 204.07 145.774H204.06Z" fill="white"/>
<path d="M15.616 213.533H211.3C211.46 213.533 211.598 213.299 211.598 213.001C211.598 212.704 211.47 212.47 211.3 212.47H15.616C15.4566 212.47 15.3184 212.704 15.3184 213.001C15.3184 213.299 15.4459 213.533 15.616 213.533Z" fill="#172D3F"/>
<path d="M137.77 125.375H22.3662" stroke="#C5D9E2" stroke-miterlimit="10"/>
<path d="M143.382 207.931L154.64 210.482C156.713 210.95 158.722 209.504 158.934 207.399L161.985 177.485C162.166 175.71 160.997 174.073 159.253 173.68L147.996 171.128C145.923 170.66 143.914 172.106 143.701 174.211L140.65 204.125C140.47 205.9 141.639 207.537 143.382 207.931Z" fill="white"/>
<path d="M144.488 208.674C147.943 209.461 151.387 210.237 154.842 211.024C157.021 211.513 159.434 211.087 159.987 208.504C160.147 207.749 160.168 206.942 160.242 206.187C161.082 197.927 161.922 189.678 162.762 181.418C162.868 180.408 162.996 179.388 163.07 178.367C163.251 175.933 161.539 174.88 159.732 173.7C158.467 172.871 157.021 172.68 155.565 172.35L148.942 170.851C147.241 170.469 145.455 169.831 143.903 171.064C142.755 171.978 142.607 173.233 142.479 174.561C142.107 178.218 141.735 181.886 141.363 185.543C140.906 190.029 140.449 194.515 139.991 199.011C139.726 201.648 138.716 204.986 141.256 206.803C142.245 207.505 143.298 208.355 144.488 208.685C143.68 208.462 143.096 207.431 142.288 207.197C142.139 207.154 141.937 207.058 141.788 207.037C141.055 206.952 142.894 207.516 142.723 207.686C142.692 207.718 142.181 206.942 142.139 206.878C141.809 206.251 141.714 205.581 141.756 204.879C141.767 204.688 141.799 204.497 141.809 204.305L142.171 200.787C142.596 196.598 143.021 192.399 143.446 188.211C143.829 184.469 144.212 180.727 144.594 176.985C144.658 176.315 144.701 175.635 144.796 174.965C145.147 172.52 147.305 171.489 149.548 171.978C153.046 172.754 156.554 173.53 160.04 174.359C160.147 174.381 160.242 174.402 160.349 174.434C160.497 174.476 160.699 174.572 160.848 174.593C161.582 174.678 159.743 174.115 159.913 173.945C159.955 173.902 160.529 174.827 160.572 174.912C160.87 175.561 160.923 176.22 160.87 176.921C160.795 177.878 160.678 178.824 160.583 179.781C159.775 187.732 158.967 195.684 158.148 203.646C158.052 204.603 157.967 205.549 157.861 206.506C157.595 208.717 155.756 210.173 153.535 209.759C150.143 209.131 146.795 208.228 143.436 207.473C143.053 207.388 142.681 207.303 142.298 207.218C143.096 207.399 143.691 208.515 144.499 208.706L144.488 208.674Z" fill="#172D3F"/>
<path d="M198.374 193.047C198.374 193.047 185.606 184.947 178.824 185.67C172.031 186.393 155.841 195.311 161.316 196.087C166.791 196.863 172.765 194.025 172.765 194.025C172.765 194.025 170.894 197.448 173.647 202.285C176.401 207.122 185.139 209.131 185.139 209.131" fill="white"/>
<path d="M197.8 194.089C195.546 192.665 193.186 191.389 190.784 190.23C187.137 188.466 182.885 186.425 178.622 186.68C174.657 186.914 170.394 188.997 166.748 190.89C164.973 191.814 163.187 192.814 161.571 194.057C161.018 194.483 160.561 194.94 160.072 195.439C159.381 196.141 161.316 195.748 160.827 193.983C160.838 194.036 160.753 194.142 160.774 194.206C160.838 194.344 160.795 194.493 160.902 194.642C161.327 195.227 162.602 195.142 163.198 195.163C164.782 195.237 166.397 195.046 167.981 194.716C169.778 194.334 171.617 193.792 173.328 192.984C173.307 192.994 173.158 193.313 173.169 193.292C173.456 192.75 173.18 193.292 173.137 193.43C173.052 193.685 172.967 193.94 172.914 194.196C172.701 195.11 172.669 196.045 172.765 196.949C173.052 199.66 174.391 202.051 176.305 203.678C178.92 205.9 182.364 207.324 185.713 208.1C185.564 208.068 184.745 210.237 184.565 210.194C181.025 209.376 177.294 207.845 174.657 205.315C172.244 202.998 170.416 198.416 172.361 194.77L172.202 195.078C170.713 195.779 169.129 196.268 167.577 196.651C166.025 197.034 164.569 197.246 163.059 197.278C162.145 197.3 160.806 197.427 160.009 196.938C159.679 196.736 159.583 196.481 159.711 196.056C159.945 195.28 160.54 194.387 160.987 193.717C161.816 192.442 163.272 191.559 164.473 190.783C168.428 188.264 172.861 186.18 177.24 185.053C181.62 183.927 185.734 185.415 189.572 187.073C192.814 188.476 195.982 190.124 198.958 192.016C199.001 192.048 197.789 194.1 197.81 194.111L197.8 194.089Z" fill="#172D3F"/>
<path d="M126.161 195.748C126.161 195.748 138.46 206.527 150.143 204.306C161.826 202.084 154.608 201.425 159.243 198.48C163.878 195.535 159.572 196.556 162.028 193.378C164.484 190.199 164.154 189.466 162.719 186.245C161.284 183.024 161.008 186.415 153.598 188.445C146.189 190.486 144.732 186.808 144.732 186.808L143.563 180.642C143.404 179.792 142.224 179.707 141.937 180.515L140.884 183.449L134.315 181.801" fill="white"/>
<path d="M125.055 195.004C127.011 196.715 129.233 198.15 131.402 199.553C135.377 202.126 139.778 204.263 144.477 205.049C147.337 205.528 150.047 205.315 152.864 204.72C154.395 204.401 156.691 204.146 157.946 203.061C158.499 202.594 158.413 202.115 158.509 201.467C158.658 200.457 159.413 199.83 160.221 199.288C160.869 198.852 162.23 198.214 162.517 197.374C162.666 196.928 162.41 196.662 162.325 196.237C162.166 195.493 162.581 194.855 162.995 194.259C163.75 193.186 164.77 192.08 164.898 190.698C164.983 189.678 164.537 188.689 164.143 187.764C163.846 187.084 163.59 186.297 163.027 185.787C162.464 185.277 161.56 184.639 160.869 184.32C160.465 184.139 160.242 184.15 159.827 184.32C159.253 184.565 158.722 184.969 158.19 185.287C157.063 185.957 155.883 186.531 154.65 186.999C152.237 187.913 149.399 188.689 146.794 188.168C146.38 188.083 146.008 187.934 145.604 187.807C145.455 187.764 145.317 187.658 145.168 187.605C147.921 188.572 147.071 189.136 146.486 188.455C146.263 188.2 145.997 187.977 145.859 187.658C145.487 186.839 145.455 185.713 145.296 184.841C145.062 183.608 145.104 181.514 144.062 180.674C143.488 180.217 142.351 179.143 141.554 179.196C140.756 179.249 140.586 180.376 140.374 180.982C140.257 181.312 139.991 182.545 139.704 182.683C139.374 182.832 138.173 182.3 137.822 182.215C136.281 181.822 134.729 181.439 133.188 181.046C133.985 181.248 134.58 182.332 135.388 182.534C137.365 183.034 139.343 183.523 141.32 184.022C141.426 184.044 141.862 184.235 141.958 184.182C142.138 184.086 142.33 183.151 142.393 182.959C142.691 182.12 142.946 180.334 144.211 180.791L142.043 179.334C142.585 179.728 142.585 180.674 142.691 181.269L143.297 184.458C143.467 185.351 143.478 186.106 144.105 186.786C145.125 187.881 146.773 188.955 148.198 189.433C151.142 190.422 154.661 189.37 157.404 188.253C158.722 187.722 159.934 187.031 161.145 186.297C161.624 186.01 162.4 185.383 162.974 185.755L160.816 184.288C161.347 184.724 161.592 185.479 161.847 186.074C162.272 187.041 162.783 188.104 162.687 189.199C162.581 190.422 161.751 191.474 161.05 192.42C160.582 193.048 159.976 193.77 160.093 194.61C160.146 194.993 160.433 195.301 160.369 195.695C160.253 196.46 159.073 197.077 158.52 197.449C157.627 198.044 156.553 198.65 156.319 199.798C156.202 200.351 156.341 200.882 155.947 201.35C155.118 202.349 153.173 202.626 152.014 202.902C149.208 203.572 146.444 204.029 143.552 203.71C140.98 203.434 138.471 202.7 136.079 201.711C134.857 201.201 133.655 200.638 132.486 200C131.848 199.66 131.221 199.298 130.604 198.926C130.349 198.777 130.105 198.618 129.85 198.458C128.946 197.906 130.371 198.862 129.605 198.299C128.797 197.704 127.979 197.119 127.224 196.449C126.565 195.875 125.683 195.535 125.023 194.961L125.055 195.004Z" fill="#172D3F"/>
</g>
</svg>
