<svg width="40" height="40" viewBox="0 0 40 40" fill="none" xmlns="http://www.w3.org/2000/svg">
<path d="M38.333 6.66602V16.666H28.333" stroke="#0E8195" stroke-width="3.33" stroke-linecap="round" stroke-linejoin="round"/>
<path d="M1.66699 33.334V23.334H11.667" stroke="#0E8195" stroke-width="3.33" stroke-linecap="round" stroke-linejoin="round"/>
<path d="M5.85033 15C6.6956 12.6113 8.13221 10.4756 10.0261 8.79233C11.92 7.10902 14.2094 5.93291 16.6808 5.37373C19.1522 4.81455 21.7249 4.89053 24.159 5.59459C26.593 6.29864 28.8091 7.60782 30.6003 9.39996L38.3337 16.6666M1.66699 23.3333L9.40032 30.6C11.1916 32.3921 13.4076 33.7013 15.8417 34.4053C18.2757 35.1094 20.8485 35.1854 23.3198 34.6262C25.7912 34.067 28.0807 32.8909 29.9745 31.2076C31.8684 29.5243 33.305 27.3887 34.1503 25" stroke="#0E8195" stroke-width="3.33" stroke-linecap="round" stroke-linejoin="round"/>
</svg>
