<svg width="70" height="70" viewBox="0 0 70 70" fill="none" xmlns="http://www.w3.org/2000/svg">
<circle cx="35" cy="35" r="35" fill="#54CF8F"/>
<path d="M54.3261 21.4871C54.6717 21.8256 54.9459 22.2278 55.1329 22.6705C55.32 23.1133 55.4163 23.5879 55.4163 24.0672C55.4163 24.5466 55.32 25.0212 55.1329 25.4639C54.9459 25.9067 54.6717 26.3088 54.3261 26.6473L32.0595 48.5125C31.7148 48.8519 31.3053 49.1212 30.8544 49.3049C30.4035 49.4886 29.9202 49.5832 29.4321 49.5832C28.9439 49.5832 28.4606 49.4886 28.0097 49.3049C27.5589 49.1212 27.1493 48.8519 26.8046 48.5125L15.6713 37.5799C15.3263 37.2411 15.0526 36.8389 14.8659 36.3962C14.6791 35.9535 14.583 35.479 14.583 34.9998C14.583 34.5207 14.6791 34.0462 14.8659 33.6035C15.0526 33.1608 15.3263 32.7586 15.6713 32.4197C16.0164 32.0809 16.426 31.8121 16.8768 31.6288C17.3276 31.4454 17.8108 31.351 18.2988 31.351C18.7867 31.351 19.2699 31.4454 19.7208 31.6288C20.1716 31.8121 20.5812 32.0809 20.9262 32.4197L29.4321 40.7795L49.0712 21.4871C49.4159 21.1478 49.8254 20.8785 50.2763 20.6948C50.7271 20.5111 51.2105 20.4165 51.6986 20.4165C52.1867 20.4165 52.6701 20.5111 53.1209 20.6948C53.5718 20.8785 53.9813 21.1478 54.3261 21.4871Z" fill="white"/>
</svg>
