<svg width="32" height="32" viewBox="0 0 32 32" fill="none" xmlns="http://www.w3.org/2000/svg">
<g clip-path="url(#clip0_37801_37456)">
<path d="M21.333 28V25.3333C21.333 23.9188 20.7711 22.5623 19.7709 21.5621C18.7707 20.5619 17.4142 20 15.9997 20H6.66634C5.25185 20 3.8953 20.5619 2.89511 21.5621C1.89491 22.5623 1.33301 23.9188 1.33301 25.3333V28" stroke="#A6301E" stroke-width="2.67" stroke-linecap="round" stroke-linejoin="round"/>
<path d="M11.3333 14.6667C14.2789 14.6667 16.6667 12.2789 16.6667 9.33333C16.6667 6.38781 14.2789 4 11.3333 4C8.38781 4 6 6.38781 6 9.33333C6 12.2789 8.38781 14.6667 11.3333 14.6667Z" stroke="#A6301E" stroke-width="2.67" stroke-linecap="round" stroke-linejoin="round"/>
<path d="M24 10.667L30.6667 17.3337" stroke="#A6301E" stroke-width="2.67" stroke-linecap="round" stroke-linejoin="round"/>
<path d="M30.6667 10.667L24 17.3337" stroke="#A6301E" stroke-width="2.67" stroke-linecap="round" stroke-linejoin="round"/>
</g>
<defs>
<clipPath id="clip0_37801_37456">
<rect width="32" height="32" fill="white"/>
</clipPath>
</defs>
</svg>
